<?xml version="1.0" encoding="UTF-8"?>
<svg version="1.1" xmlns="http://www.w3.org/2000/svg" width="512" height="512">
<path d="M0 0 C25.69932008 22.99607748 43.1920235 53.70824832 46.7109375 88.42578125 C48.4230549 129.96086087 38.41980509 165.59871172 10.20068359 196.84716797 C5.19256856 202.15402995 -0.21648661 207.37739733 -6.2890625 211.42578125 C-5.44988281 211.80347656 -4.61070312 212.18117188 -3.74609375 212.5703125 C18.11883461 222.52497584 38.47356649 233.64289209 56.7109375 249.42578125 C57.50371094 250.10769531 58.29648437 250.78960937 59.11328125 251.4921875 C70.6362865 261.63317915 81.29214168 272.367884 90.43603516 284.7109375 C91.66964289 286.37023676 92.92824725 288.00767729 94.19140625 289.64453125 C120.57447827 324.47458525 134.47292436 369.90801513 135.1484375 413.36328125 C135.17067383 414.14880371 135.19291016 414.93432617 135.21582031 415.74365234 C135.19054147 422.2782325 133.45774392 428.38733763 129.00244141 433.31567383 C123.49130563 438.43361841 117.80862201 439.98026911 110.37109375 439.80078125 C104.14484807 438.92307261 98.57113381 436.06564038 94.7109375 431.05078125 C90.73112855 425.11033112 90.47221498 418.37824942 90.3359375 411.48828125 C88.82867085 370.94015062 73.6644556 330.47242561 45.7734375 300.64453125 C43.93648001 298.66841032 42.23282585 296.63623504 40.5234375 294.55078125 C16.36934056 267.08790391 -20.08339977 251.12445741 -55.2890625 244.42578125 C-56.49820313 244.17957031 -57.70734375 243.93335938 -58.953125 243.6796875 C-103.59346146 236.10023927 -150.98016079 248.54300115 -187.6640625 274.42578125 C-192.75003525 278.10321045 -197.48292703 282.07377795 -202.0703125 286.36328125 C-204.04643343 288.20023874 -206.07860871 289.9038929 -208.1640625 291.61328125 C-238.3102482 318.12739638 -256.74071724 360.96647193 -260.2890625 400.42578125 C-260.50592683 404.4788115 -260.69333447 408.53410752 -260.77246094 412.59228516 C-261.00153849 419.57022531 -262.26963346 426.94971934 -267.1015625 432.30078125 C-267.56175781 432.83445312 -268.02195312 433.368125 -268.49609375 433.91796875 C-274.25097671 438.7575871 -279.70894305 438.95205398 -286.94140625 438.76953125 C-293.88562981 438.05647212 -297.63124482 434.49569747 -302.02734375 429.3046875 C-305.45488528 424.20051575 -305.64203864 419.5791121 -305.6015625 413.61328125 C-305.59664795 412.7423584 -305.5917334 411.87143555 -305.58666992 410.97412109 C-304.79096445 364.79055939 -288.23021447 318.42817649 -259.2890625 282.42578125 C-258.51820313 281.45125 -257.74734375 280.47671875 -256.953125 279.47265625 C-235.77755731 253.25945351 -209.57110175 232.70311122 -179.14306641 218.3125 C-175.8350818 216.73038253 -172.56509626 215.07282799 -169.2890625 213.42578125 C-170.66578125 212.265625 -170.66578125 212.265625 -172.0703125 211.08203125 C-200.55828107 186.96517078 -219.50403245 157.01253902 -224.2890625 119.42578125 C-225.19793869 101.89136569 -225.15009813 84.40029416 -220.2890625 67.42578125 C-220.08007324 66.66700684 -219.87108398 65.90823242 -219.65576172 65.12646484 C-213.53570514 43.40141008 -201.83570157 24.66522954 -186.2890625 8.42578125 C-185.61746094 7.69101562 -184.94585937 6.95625 -184.25390625 6.19921875 C-135.91648541 -44.93906199 -52.07650498 -44.21157828 0 0 Z M-154.2890625 38.42578125 C-154.90265625 38.96460937 -155.51625 39.5034375 -156.1484375 40.05859375 C-172.47612922 54.96322977 -180.16493024 79.08837382 -181.4765625 100.484375 C-181.99126918 124.70775803 -173.35820435 147.39399612 -157.2890625 165.42578125 C-156.27585938 166.56273437 -156.27585938 166.56273437 -155.2421875 167.72265625 C-139.59216387 184.28654987 -116.8422549 194.81443332 -94.01171875 195.62890625 C-68.43015829 196.05882543 -45.60617563 188.8200577 -26.2890625 171.42578125 C-25.51949219 170.7503125 -24.74992188 170.07484375 -23.95703125 169.37890625 C-7.63515941 154.17183827 1.79053637 131.99513113 3.6328125 109.9296875 C4.38663848 85.76956477 -2.02460216 61.26726614 -18.6640625 43.11328125 C-20.50726775 41.18105666 -22.38931063 39.30412746 -24.2890625 37.42578125 C-25.08054687 36.62398437 -25.87203125 35.8221875 -26.6875 34.99609375 C-44.41380038 17.97648973 -67.37776076 10.87547177 -91.5871582 11.00415039 C-116.18495672 11.61732464 -136.56678137 21.50905836 -154.2890625 38.42578125 Z " fill="#000000" transform="translate(341.2890625,52.57421875)"/>
</svg>
