<?xml version="1.0" encoding="UTF-8"?>
<svg version="1.1" xmlns="http://www.w3.org/2000/svg" width="512" height="512">
<path d="M0 0 C1.08139755 -0.00953201 2.1627951 -0.01906403 3.27696228 -0.02888489 C4.43539139 -0.02797348 5.5938205 -0.02706207 6.78735352 -0.02612305 C7.98683121 -0.03040817 9.1863089 -0.0346933 10.4221344 -0.03910828 C12.95638397 -0.04484604 15.49065 -0.04535592 18.02490234 -0.04101562 C21.89847958 -0.0378563 25.77129257 -0.06132087 29.64477539 -0.08666992 C32.10896714 -0.08894304 34.57316093 -0.08964635 37.03735352 -0.08862305 C38.19375839 -0.09783279 39.35016327 -0.10704254 40.54161072 -0.11653137 C47.20368082 -0.07826974 52.26908007 0.07527025 57.22998047 5.02026367 C58.90503476 8.04420332 59.63873627 10.98591419 60.45922852 14.3449707 C60.63328217 15.04690048 60.80733582 15.74883026 60.98666382 16.47203064 C61.55596982 18.77903968 62.11138729 21.08913896 62.66625977 23.3996582 C63.05813038 25.00324559 63.45063533 26.60667808 63.84375 28.20996094 C64.86427132 32.38629247 65.87126438 36.56575145 66.8729248 40.74664307 C67.4724776 43.24844411 68.07450001 45.74964016 68.67700195 48.25073242 C69.80633839 52.94433688 70.92598477 57.64019485 72.04125977 62.3371582 C72.30475723 63.44259979 72.30475723 63.44259979 72.57357788 64.57037354 C73.06786981 66.6493218 73.55736734 68.72933432 74.04516602 70.80981445 C74.32303955 71.98938721 74.60091309 73.16895996 74.88720703 74.38427734 C75.47875977 77.2746582 75.47875977 77.2746582 75.47875977 80.2746582 C76.30556183 80.27351904 77.13236389 80.27237988 77.98422056 80.2712062 C126.96838722 80.20409722 175.952549 80.15261129 224.93675241 80.12146221 C230.8160707 80.11771002 236.69538889 80.11382706 242.57470703 80.10986328 C244.33043426 80.10868288 244.33043426 80.10868288 246.12163072 80.10747864 C265.08323833 80.09441856 284.04481869 80.07076139 303.00641013 80.04319981 C322.45734568 80.01516239 341.90826695 79.99848546 361.35922188 79.99239272 C373.36510058 79.98827283 385.3709023 79.97525235 397.37675732 79.9509088 C405.60544956 79.93507214 413.8341019 79.93025315 422.06280828 79.93415407 C426.81297835 79.93607884 431.56301372 79.93309232 436.31315994 79.91704178 C440.66147496 79.9024561 445.00956455 79.90169718 449.35788988 79.91196152 C450.93135983 79.91323036 452.50484377 79.9094135 454.07828612 79.90000866 C456.21760447 79.88796446 458.35610967 79.89446073 460.49541569 79.90551472 C461.6835606 79.90437556 462.87170551 79.9032364 464.09585482 79.90206271 C469.1040668 80.45367064 472.97579983 82.04146031 476.91625977 85.2746582 C481.94857921 94.93671155 476.65191851 108.1375259 474.15063477 118.02856445 C473.68827121 119.89738882 473.22709443 121.76650714 472.76701355 123.63589478 C471.52647801 128.66321555 470.27064027 133.68659287 469.01151657 138.70928574 C467.69899279 143.95409096 466.3987875 149.20194516 465.09814453 154.44970703 C464.56833654 156.58696553 464.03850549 158.7242183 463.50865173 160.86146545 C463.24470045 161.9262166 462.98074917 162.99096775 462.70879936 164.08798409 C461.90050435 167.34561449 461.09032366 170.60277137 460.27980042 173.85984802 C456.92048572 187.37149993 453.62897278 200.89771908 450.40159988 214.44147682 C449.71645803 217.31465336 449.02912063 220.18729481 448.34091187 223.05973816 C448.11861341 223.98763814 447.89631496 224.91553812 447.6672802 225.87155628 C447.2260707 227.71295182 446.78479376 229.5543312 446.34344673 231.39569378 C445.27707605 235.84906788 444.21640926 240.30365782 443.16784668 244.76126099 C442.18727239 248.92919843 441.19194492 253.09334407 440.18575478 257.25516891 C439.82375456 258.76442414 439.46720498 260.27500014 439.11687279 261.78700638 C435.75754908 276.26661808 430.60536067 288.82794233 417.61938477 297.0949707 C407.07371754 302.75028965 396.62264838 303.57492763 384.82063293 303.5262146 C382.97740315 303.53066981 382.97740315 303.53066981 381.0969364 303.53521502 C377.71668418 303.54149341 374.33665123 303.53898014 370.95641339 303.53269625 C367.29928791 303.52813549 363.6421828 303.53521648 359.98506165 303.54100037 C353.65719154 303.54960739 347.32934939 303.55144784 341.00147438 303.54905319 C331.84386539 303.54594761 322.68631787 303.55762156 313.52872439 303.57360299 C298.65733869 303.5995275 283.78595294 303.61956692 268.91455078 303.63305664 C268.02568535 303.63386701 267.13681992 303.63467738 266.22101917 303.63551231 C253.5967272 303.64674268 240.97243965 303.65201753 228.34814336 303.65489943 C227.45836836 303.65510342 226.56859335 303.65530741 225.65185547 303.65551758 C224.76316998 303.65571751 223.87448449 303.65591745 222.95886914 303.65612344 C208.13720611 303.65985689 193.31561007 303.67894206 178.49398059 303.71061194 C169.35945811 303.72951439 160.22510747 303.73549558 151.09057083 303.72479476 C144.83405986 303.7184739 138.57767218 303.72652106 132.32118825 303.74584888 C128.71302046 303.7565251 125.10515211 303.76069212 121.49698639 303.7473774 C117.58314051 303.73307954 113.66976688 303.74966313 109.75593567 303.76913452 C108.05121801 303.75544754 108.05121801 303.75544754 106.31206161 303.74148405 C99.17653673 303.81062287 93.33978264 304.68354925 87.96079952 309.68650186 C83.0602312 315.1959817 82.00084692 320.33342711 82.17407227 327.4934082 C82.75197237 332.76859889 84.51032222 336.46068558 88.42016602 340.0637207 C93.34162984 343.88850475 96.83936736 345.39862056 103.13825607 345.40494347 C104.32426682 345.40856781 105.51027757 345.41219216 106.73222804 345.41592634 C108.69634163 345.41432396 108.69634163 345.41432396 110.70013428 345.41268921 C112.10016753 345.41510652 113.50020008 345.41796856 114.9002316 345.42123854 C118.75647798 345.42900488 122.61270657 345.43061166 126.46895981 345.43128967 C130.62450453 345.43312706 134.78003879 345.44073263 138.93557739 345.44776917 C146.13991923 345.45930323 153.34425871 345.46754316 160.54860687 345.4738884 C171.93445889 345.48420647 183.32028164 345.50476803 194.70611572 345.52700806 C198.60012426 345.53448806 202.49413293 345.54190175 206.38814163 345.54929543 C207.8479508 345.55207127 207.8479508 345.55207127 209.33725105 345.5549032 C220.41957403 345.57583729 231.50190023 345.59466212 242.58422852 345.61254883 C244.10414303 345.6150061 244.10414303 345.6150061 245.65476289 345.61751302 C262.07481562 345.64379735 278.49487059 345.66244078 294.91493544 345.67914073 C311.76696564 345.69655704 328.61895165 345.72539771 345.47094655 345.7640301 C355.86859781 345.78743899 366.26617704 345.80142547 376.66385487 345.80335774 C383.7894441 345.80546597 390.91496167 345.81838568 398.04051873 345.83983706 C402.15273972 345.85187308 406.26481844 345.85901276 410.37705612 345.85312462 C414.14240942 345.84782965 417.90747249 345.85630393 421.67277732 345.875681 C423.67861549 345.88242186 425.68448651 345.8744321 427.69031787 345.86590326 C434.86613971 345.91892141 440.71023675 346.00860493 446.35375977 350.8996582 C448.1017211 354.58979881 448.59549703 358.20344604 448.47875977 362.2746582 C446.79893871 366.47421083 444.239382 368.82599739 440.47875977 371.2746582 C437.54458496 371.88421259 434.65661255 371.96951339 431.66625977 372.0246582 C430.48386719 372.06913086 430.48386719 372.06913086 429.27758789 372.11450195 C427.3451853 372.18477114 425.41196961 372.23202954 423.47875977 372.2746582 C424.11942383 372.69875977 424.76008789 373.12286133 425.42016602 373.55981445 C438.11250402 382.16639239 447.45377972 392.7448394 450.47875977 408.2746582 C452.95698454 423.18565769 450.37937944 437.45286051 441.79125977 449.8996582 C432.7253091 461.7371518 420.914838 469.72654281 405.90063477 471.7590332 C390.44745988 472.87692245 376.62405322 470.33512712 364.49438477 460.05981445 C363.82922852 459.47071289 363.16407227 458.88161133 362.47875977 458.2746582 C361.87547852 457.79899414 361.27219727 457.32333008 360.65063477 456.83325195 C352.67973363 449.9574521 346.27223801 436.76620387 345.47875977 426.2746582 C344.48397234 410.75222045 347.43916114 396.89163282 357.85375977 385.0246582 C362.66595616 379.93221743 367.18817366 375.41995126 373.47875977 372.2746582 C300.54875977 372.2746582 227.61875977 372.2746582 152.47875977 372.2746582 C155.44875977 374.2546582 158.41875977 376.2346582 161.47875977 378.2746582 C164.16625977 380.7121582 164.16625977 380.7121582 166.47875977 383.2746582 C166.95958008 383.77481445 167.44040039 384.2749707 167.93579102 384.7902832 C177.64284778 395.30830926 181.14247018 408.75405082 180.75610352 422.83325195 C179.57753685 437.45743833 173.22077318 449.76555366 162.58813477 459.82543945 C150.57325813 469.28941892 136.40662535 473.05539122 121.25610352 472.0637207 C106.52609564 470.00656545 94.57227988 462.92575678 85.07641602 451.54418945 C75.68793179 438.20749182 73.04287279 423.65362834 75.69360352 407.73168945 C78.83496007 393.90034341 86.4273744 383.904892 97.47875977 375.2746582 C99.12879747 374.24745163 100.79156286 373.23961643 102.47875977 372.2746582 C101.45137695 372.12770508 100.42399414 371.98075195 99.36547852 371.8293457 C85.3684522 369.64246915 73.55373698 364.62373524 64.72875977 352.9621582 C56.8438466 340.66169367 54.55988508 327.58125825 56.98657227 313.2824707 C60.10430391 301.77911601 67.17095966 291.35561764 77.29125977 284.9621582 C86.9662619 279.76424322 95.27145697 277.68153548 106.2507782 277.77586365 C108.11238397 277.76778682 108.11238397 277.76778682 110.01159793 277.75954682 C113.42629716 277.74863423 116.84010654 277.75539507 120.25473511 277.76982987 C123.94868598 277.78100817 127.64257143 277.76892963 131.33651733 277.75964355 C137.72826526 277.74658928 144.11988223 277.74769146 150.51163292 277.75823784 C159.76157731 277.77321607 169.01136896 277.76323432 178.26130471 277.74671865 C193.28244296 277.7202935 208.3035468 277.70939747 223.32470703 277.71044922 C224.67146294 277.7105367 224.67146294 277.7105367 226.04542605 277.71062595 C229.68348199 277.71089181 233.32153792 277.7112091 236.95959384 277.71158921 C246.98103829 277.71255608 257.00248169 277.71122649 267.02392578 277.70849609 C267.92157226 277.7082562 268.81921873 277.70801631 269.74406662 277.70776915 C284.71487468 277.7033616 299.68565083 277.68712662 314.65644008 277.6632753 C323.88307746 277.64921415 333.10959348 277.64631612 342.33623502 277.6578982 C348.65579258 277.66522456 354.97528897 277.66215625 361.29484066 277.65093976 C364.93942351 277.64487167 368.58383519 277.64376469 372.22840691 277.65581703 C376.18158247 277.66881139 380.13451005 277.65869761 384.08769226 277.64646912 C385.23584355 277.65404517 386.38399483 277.66162123 387.56693858 277.66942686 C395.18740005 277.61939454 401.04319305 276.87041972 407.29125977 272.1496582 C411.65595807 266.41319757 412.94581597 258.84655145 414.58496094 251.91503906 C414.77427689 251.12895264 414.96359283 250.34286621 415.15864563 249.53295898 C415.56792676 247.83120625 415.97539391 246.1290164 416.38121605 244.42643547 C417.04167239 241.65583791 417.70710343 238.88647244 418.37361145 236.11732483 C419.8088986 230.14998844 421.23778515 224.18112838 422.66625977 218.2121582 C424.50989106 210.51196994 426.35746093 202.81273767 428.20922852 195.11450195 C428.43334958 194.18272027 428.65747065 193.25093858 428.88838327 192.29092109 C433.26668265 174.11258273 437.78107606 155.96953894 442.3262465 137.83240819 C443.25065183 134.1427608 444.17396568 130.45284028 445.09738922 126.76294708 C446.89015054 119.59992624 448.68405735 112.43719299 450.47875977 105.2746582 C449.47172056 105.2765568 448.46468136 105.27845541 447.42712581 105.28041154 C403.05333696 105.36374222 358.67954005 105.44088306 314.30569458 105.4863739 C313.63407811 105.48706419 312.96246165 105.48775447 312.27049317 105.48846568 C297.67506605 105.50342961 283.07963807 105.51728061 268.48420881 105.52998485 C261.32679332 105.53622163 254.16937805 105.54270438 247.01196289 105.54931641 C246.29970748 105.5499702 245.58745207 105.550624 244.85361316 105.5512976 C221.76015603 105.57261093 198.66676 105.61017236 175.5733399 105.65614431 C151.84527395 105.70329393 128.11724182 105.73408231 104.38912982 105.74423315 C89.09592063 105.75081046 73.80288395 105.77182771 58.50973327 105.81424054 C48.49206178 105.84061234 38.47448133 105.84867181 28.45677762 105.84216509 C22.67175269 105.83895356 16.88703485 105.84397462 11.10206413 105.87068558 C5.80937684 105.89494579 0.51720432 105.89629269 -4.77550624 105.87915268 C-6.69351104 105.87703307 -8.61154743 105.88343666 -10.52948965 105.89907411 C-13.13144993 105.91906059 -15.73153759 105.90837762 -18.33346748 105.88989735 C-19.45773352 105.90959995 -19.45773352 105.90959995 -20.60471201 105.92970058 C-26.32629709 105.83749145 -28.65409642 104.19605217 -32.52124023 100.2746582 C-34.38829802 96.54054263 -34.07004076 92.3407712 -33.52124023 88.2746582 C-31.82699408 84.68168791 -29.48491167 82.67868097 -25.79721069 81.13259888 C-22.14205531 80.17535384 -19.0083319 80.03435262 -15.23071289 80.04760742 C-14.17601303 80.04716934 -14.17601303 80.04716934 -13.1000061 80.04672241 C-10.79497582 80.04810659 -8.49027598 80.06362423 -6.18530273 80.0793457 C-4.57962216 80.08307909 -2.97393929 80.08592452 -1.36825562 80.08792114 C2.84363166 80.09553199 7.05537947 80.11515841 11.26721191 80.1373291 C16.32835509 80.16145367 21.38954507 80.17058066 26.45072937 80.18223572 C34.12683628 80.20158444 41.80263763 80.23992462 49.47875977 80.2746582 C45.18875977 62.4546582 40.89875977 44.6346582 36.47875977 26.2746582 C21.93960657 26.14382871 21.93960657 26.14382871 7.40014648 26.06689453 C5.56955096 26.04043627 3.73898046 26.01215637 1.90844727 25.98168945 C0.96751221 25.98567749 0.02657715 25.98966553 -0.94287109 25.99377441 C-5.41972179 25.89717306 -8.54986273 25.73438314 -12.1105957 22.85546875 C-15.8426211 18.86000182 -15.92273706 16.14405874 -15.86889648 10.8215332 C-15.29460423 6.61435848 -13.67496048 5.07796508 -10.52124023 2.2746582 C-6.90814369 0.50883104 -4.00193599 0.01945257 0 0 Z M106.61938477 400.83325195 C100.7391889 407.53967972 99.742395 414.00743227 100.03735352 422.8371582 C101.06520891 430.84169579 104.89851966 436.82018105 111.18579102 441.7980957 C118.09597454 446.24792428 124.74052476 448.0409175 132.90454102 446.88793945 C140.51820433 445.07406215 146.86864211 440.97101544 151.16625977 434.3996582 C155.02880244 427.79203804 156.37690704 421.89768315 155.47875977 414.2746582 C153.46565363 406.59969106 149.89585859 399.96545416 143.01000977 395.77075195 C129.62426656 388.86134627 117.56410678 390.11224281 106.61938477 400.83325195 Z M376.47875977 401.2746582 C372.23397569 408.26086532 369.47333693 414.98336301 370.47875977 423.2746582 C373.06413669 432.83921323 376.72434753 438.66783907 385.12719727 443.9777832 C391.9941355 447.76486542 398.86831603 447.92485428 406.47875977 446.2746582 C414.72072062 443.23469808 420.26088673 437.41468786 424.35375977 429.7746582 C426.94376782 421.71685536 427.08164784 414.92124605 423.51000977 407.1730957 C419.52978559 400.2077034 414.12595941 394.84456812 406.41625977 392.3371582 C395.57929802 389.70203073 383.77378949 392.30785083 376.47875977 401.2746582 Z " fill="#000000" transform="translate(33.521240234375,19.725341796875)"/>
<path d="M0 0 C1.92824615 -0.01691895 1.92824615 -0.01691895 3.89544678 -0.03417969 C5.30766524 -0.02640354 6.71988145 -0.01821093 8.13209534 -0.00964355 C9.62899963 -0.01506758 11.12589859 -0.02219182 12.62278748 -0.03088379 C16.6786916 -0.04908857 20.73418783 -0.04206114 24.79009891 -0.02936745 C29.04026287 -0.01922308 33.29039249 -0.02863729 37.54055786 -0.03491211 C44.67839307 -0.04218514 51.81606263 -0.03261074 58.95387268 -0.0135498 C67.19735007 0.00821001 75.44043158 0.00117279 83.68389934 -0.02085543 C90.76945578 -0.03902926 97.85489329 -0.04155783 104.94046551 -0.03110075 C109.16884633 -0.02487562 113.39704132 -0.02400291 117.62541008 -0.0372467 C121.602358 -0.04883327 125.57879755 -0.0407288 129.55569077 -0.01766968 C131.01211136 -0.01239712 132.468575 -0.01387146 133.92497826 -0.02272034 C147.63664077 -0.09832541 147.63664077 -0.09832541 153.5171051 4.50793457 C156.49993562 8.60314663 156.16200253 13.65547468 155.5171051 18.50793457 C153.39520958 22.14546975 151.39173415 23.97554605 147.5171051 25.50793457 C144.62098122 25.76520348 144.62098122 25.76520348 141.19206238 25.77536011 C139.24053001 25.78815506 139.24053001 25.78815506 137.24957275 25.8012085 C135.80961597 25.80050949 134.36965928 25.79958643 132.92970276 25.79846191 C131.41177032 25.80444691 129.89384092 25.81125239 128.37591553 25.81881714 C124.25396389 25.83648728 120.13209528 25.84117294 116.01010942 25.84244871 C113.4344029 25.84387028 110.85871749 25.84813999 108.2830162 25.85344315 C99.29592803 25.8719467 90.30889919 25.88011334 81.3217926 25.87854004 C72.94657996 25.87733851 64.57162497 25.89844217 56.19647753 25.93002737 C49.00399362 25.95618506 41.81159389 25.96690755 34.61906278 25.96562922 C30.32414721 25.96511944 26.02946061 25.97081139 21.73459244 25.99198532 C17.69451818 26.01135931 13.65489152 26.01149819 9.61480141 25.99695206 C8.13375888 25.9948618 6.65268841 25.99957787 5.1716938 26.01167297 C3.1465576 26.02713815 1.12126863 26.0154127 -0.90388489 26.00241089 C-2.03618216 26.00350042 -3.16847942 26.00458996 -4.33508873 26.00571251 C-8.76109528 25.30580651 -12.0776325 23.29645035 -14.8578949 19.75793457 C-16.13322341 15.16675191 -16.14196244 11.11898855 -14.3578949 6.75793457 C-10.28410987 1.86939254 -6.299643 0.00853095 0 0 Z " fill="#000000" transform="translate(88.48289489746094,165.4920654296875)"/>
<path d="M0 0 C1.92845764 -0.01062721 1.92845764 -0.01062721 3.89587402 -0.02146912 C5.31852757 -0.01917535 6.74118079 -0.01666565 8.16383362 -0.01396179 C9.66368361 -0.0183095 11.16353139 -0.02349285 12.66337585 -0.02944946 C16.7356839 -0.04284429 20.80789916 -0.04341761 24.88022494 -0.04088616 C28.27989101 -0.0398168 31.67953828 -0.04469893 35.07920033 -0.04949158 C43.09945045 -0.0605884 51.11965375 -0.06102317 59.13990784 -0.05497742 C67.41398846 -0.04893624 75.6878991 -0.06125185 83.96195072 -0.08254749 C91.06609572 -0.10015975 98.17018658 -0.10616545 105.27435261 -0.10290974 C109.51721223 -0.10109617 113.75995059 -0.10374043 118.00279045 -0.11762428 C121.9927401 -0.13019198 125.98242461 -0.12826869 129.97237015 -0.11521339 C131.43608883 -0.11284575 132.89982612 -0.11558904 134.36352348 -0.12383652 C136.36276733 -0.1342887 138.36208658 -0.12440918 140.36132812 -0.11352539 C141.4797985 -0.11369313 142.59826887 -0.11386087 143.75063229 -0.1140337 C148.35468701 0.46230314 151.79003446 2.7157507 154.74415588 6.26069641 C155.95059154 9.88000339 156.06684147 12.45300646 155.74415588 16.26069641 C153.43123371 20.71521319 151.2203592 23.06108393 146.74415588 25.26069641 C143.77183628 25.63821983 143.77183628 25.63821983 140.41275024 25.64164734 C139.13559647 25.65010681 137.85844269 25.65856628 136.54258728 25.6672821 C135.1345965 25.66144966 133.72660698 25.65530518 132.31861877 25.64888 C130.83009455 25.65294685 129.34157335 25.65828936 127.85305786 25.66481018 C123.81581435 25.67847749 119.77880104 25.67318729 115.74155354 25.66367292 C111.51360919 25.65607187 107.2856844 25.66312331 103.05773926 25.66783142 C95.95683763 25.67328827 88.85602962 25.66609985 81.75514221 25.65180969 C73.55091914 25.63548957 65.3469198 25.64076728 57.14270216 25.65728891 C50.09456344 25.6709133 43.046492 25.67281859 35.99834436 25.6649729 C31.79068902 25.66030081 27.58313874 25.65965863 23.37549019 25.66958237 C19.41833872 25.67826342 15.46147495 25.67220949 11.50435448 25.6548996 C10.0539612 25.65094054 8.60354362 25.65205887 7.1531601 25.65868759 C5.16963072 25.6669155 3.18604829 25.65475651 1.20254517 25.64164734 C-0.46076796 25.63995072 -0.46076796 25.63995072 -2.15768337 25.63821983 C-6.70252849 25.08441207 -10.08965029 23.58238275 -13.13084412 20.13569641 C-14.71341131 16.09135803 -14.94243576 12.54623545 -14.25584412 8.26069641 C-10.77146152 1.41637345 -7.43868226 0.01365776 0 0 Z " fill="#000000" transform="translate(22.255844116210938,231.7393035888672)"/>
</svg>
