<?xml version="1.0" encoding="UTF-8"?>
<svg version="1.1" xmlns="http://www.w3.org/2000/svg" width="512" height="512">
<path d="M0 0 C1.66036034 -0.00642769 1.66036034 -0.00642769 3.35426331 -0.01298523 C5.69002602 -0.01871601 8.02580657 -0.01923804 10.36157227 -0.01489258 C13.92560399 -0.01173276 17.48880516 -0.03520797 21.05273438 -0.06054688 C23.32682187 -0.06282007 25.6009116 -0.06352327 27.875 -0.0625 C29.46591713 -0.07631462 29.46591713 -0.07631462 31.088974 -0.09040833 C37.75531002 -0.04893337 43.25914991 0.20627342 48.31762695 5.03051758 C49.92602807 8.10862458 50.71757461 11.26327811 51.484375 14.625 C51.74919426 15.73099297 51.74919426 15.73099297 52.0193634 16.85932922 C52.58577255 19.2336035 53.13896559 21.61072235 53.69140625 23.98828125 C54.04271669 25.4735212 54.39492487 26.95854909 54.74804688 28.44335938 C55.30083539 30.76916027 55.85236923 33.09522832 56.39995861 35.42225933 C58.44963617 44.12432268 60.55984454 52.8115271 62.66918945 61.49926758 C63.04258302 63.03817305 63.41594799 64.57708545 63.78928375 66.11600494 C64.69382875 69.84434367 65.5987588 73.57258874 66.50390625 77.30078125 C67.30992834 77.30137834 68.11595042 77.30197543 68.94639742 77.30259061 C116.69468599 77.33846753 164.44291146 77.39508027 212.19114152 77.4787022 C217.9215355 77.48871992 223.65192976 77.49856401 229.38232422 77.50830078 C230.5231652 77.51024215 231.66400618 77.51218353 232.8394181 77.51418373 C251.32316093 77.54522329 269.80689134 77.56218984 288.29065533 77.57397547 C307.25006786 77.58637689 326.20941509 77.61385547 345.16878641 77.65539432 C356.87217317 77.6805586 368.57545166 77.69389639 380.27886586 77.69221082 C388.29921448 77.69218112 396.31945264 77.7067675 404.33975823 77.73294553 C408.97032989 77.74762489 413.60067499 77.75576591 418.23126602 77.74658394 C422.46922305 77.73832251 426.70672404 77.74838125 430.94461326 77.77311787 C432.47902012 77.77882135 434.01346991 77.77775544 435.54786403 77.7692937 C437.63238539 77.75878166 439.71536566 77.77281607 441.79978371 77.79297256 C442.95793071 77.79449145 444.11607772 77.79601033 445.30932009 77.79757524 C450.09840002 78.55194331 453.21581345 80.88803431 456.44140625 84.42578125 C459.17449925 91.82120938 455.76773321 101.15394922 453.93457031 108.53466797 C453.67245255 109.61327591 453.41033478 110.69188385 453.14027405 111.80317688 C452.2732031 115.36389917 451.39646208 118.92216306 450.51953125 122.48046875 C449.90136291 125.00947779 449.28375956 127.53862498 448.66668701 130.06790161 C447.36642191 135.39337866 446.06119367 140.71761825 444.75244141 146.04101562 C443.43787298 151.38809786 442.12662048 156.73597375 440.81982422 162.08496094 C440.66161587 162.7325316 440.50340753 163.38010227 440.34040499 164.04729629 C440.02157454 165.35240923 439.70275373 166.65752453 439.3839426 167.96264219 C436.37654266 180.27275321 433.35117088 192.57831868 430.31391144 204.8810997 C428.43596387 212.49489956 426.57604365 220.11281898 424.73099136 227.73465538 C423.56087529 232.55981233 422.38030016 237.38237154 421.19753265 242.20444107 C420.64833485 244.45366493 420.10366241 246.70399936 419.56388092 248.95550156 C418.82127662 252.05041566 418.06244748 255.14092944 417.29980469 258.23095703 C417.08971016 259.12452534 416.87961563 260.01809364 416.6631546 260.93873978 C413.66653085 272.88629555 407.32668857 282.42350248 396.8671875 289.015625 C387.26690117 294.23627658 377.30575362 294.44874157 366.63050842 294.425354 C365.43777469 294.42676415 364.24504095 294.4281743 363.01616377 294.42962718 C360.40525343 294.43201182 357.79441677 294.43258645 355.18351364 294.43007088 C350.93463727 294.4259974 346.68578072 294.42878725 342.43690491 294.43241882 C337.06699819 294.43650387 331.69709593 294.43874833 326.32718765 294.43883482 C315.77608321 294.43903784 305.22502456 294.45151363 294.67393494 294.46844482 C293.01152026 294.47105052 291.34910557 294.47364933 289.68669087 294.47624135 C287.1675781 294.48017961 284.64846535 294.48412617 282.12935265 294.48810257 C272.63937817 294.50303872 263.14940231 294.51666896 253.65942383 294.52880859 C252.79222131 294.52992215 251.92501879 294.53103572 251.03153741 294.53218302 C236.97268537 294.54976529 222.91386211 294.55262646 208.85500092 294.55095819 C194.4131328 294.54967894 179.97137175 294.56741763 165.52954477 294.60197616 C156.62558048 294.62261823 147.72187269 294.62796964 138.81789481 294.61364785 C132.71643131 294.60518553 126.61516724 294.61492866 120.51374585 294.63895735 C116.99465748 294.65225662 113.47604754 294.65746743 109.95696259 294.64083672 C106.13914314 294.62299379 102.32208282 294.64381884 98.50428772 294.66827393 C97.39620839 294.65691855 96.28812905 294.64556317 95.14647156 294.63386369 C88.31216029 294.7190428 83.79214533 295.86166863 78.50390625 300.30078125 C74.16777622 304.75101997 72.77904052 308.94248748 72.06640625 315.05078125 C72.24197187 320.43135126 74.39587178 324.97332656 77.50390625 329.30078125 C82.53674213 333.58946241 87.41784952 335.4242514 94.01002216 335.43106651 C95.16181566 335.43469086 96.31360915 335.43831521 97.50030547 335.44204938 C98.77148717 335.44098113 100.04266886 335.43991288 101.35237122 335.43881226 C102.71186918 335.44122963 104.07136642 335.44409169 105.43086261 335.44736159 C109.17502397 335.45512708 112.91916702 335.45673466 116.66333544 335.45741272 C120.69820568 335.45925024 124.73306514 335.46685585 128.76792908 335.47389221 C135.76273782 335.48542562 142.75754414 335.49366586 149.75235939 335.50001144 C160.80608844 335.51032924 171.85978735 335.53089052 182.91349792 335.5531311 C186.69378748 335.56061106 190.47407715 335.56802475 194.25436687 335.57541847 C195.67152932 335.57819432 195.67152932 335.57819432 197.11732132 335.58102625 C207.87549318 335.60195969 218.63366837 335.62078507 229.3918457 335.63867188 C230.37547821 335.64031006 231.35911072 335.64194824 232.37255027 335.64363606 C248.31475545 335.66992442 264.25696296 335.68856573 280.19918064 335.70526378 C296.55965142 335.72267694 312.92007667 335.75151389 329.28051108 335.79015315 C339.37567748 335.81356787 349.47076964 335.82754904 359.56596341 335.82948078 C366.48316751 335.83158819 373.40029774 335.8445009 380.31746868 335.86596011 C384.31007634 335.87800222 388.30253732 335.88513178 392.2951622 335.87924767 C395.95005817 335.87395764 399.60465475 335.88241017 403.2595007 335.90180404 C405.20841711 335.90855411 407.15736735 335.90054901 409.10627681 335.89202631 C419.87887928 335.97414663 419.87887928 335.97414663 424.50390625 339.30078125 C427.45289927 343.62597101 428.15145365 347.12040204 427.50390625 352.30078125 C425.3891914 356.30363435 423.76072632 358.73948047 419.50390625 360.30078125 C416.72995792 360.59600065 414.03385515 360.80790356 411.25390625 360.92578125 C410.50882812 360.96445312 409.76375 361.003125 408.99609375 361.04296875 C407.16575385 361.13683233 405.33486482 361.21987843 403.50390625 361.30078125 C404.07238281 361.65269531 404.64085937 362.00460937 405.2265625 362.3671875 C417.60492384 370.28189934 425.92616462 380.82297702 429.50390625 395.30078125 C431.76459449 410.69656323 429.6583687 425.3825943 420.19140625 438.11328125 C410.67149749 449.43094102 398.68170565 456.33087375 383.87890625 458.05078125 C369.83105734 458.99664639 356.37779652 455.29488389 345.52734375 446.16796875 C334.08903468 435.61292679 328.22827199 422.69582252 327.55078125 407.171875 C327.37253771 392.45192953 333.07295172 380.36020629 342.90234375 369.58203125 C346.47475143 366.44946956 350.55056926 363.93633925 354.50390625 361.30078125 C284.21390625 361.30078125 213.92390625 361.30078125 141.50390625 361.30078125 C145.13390625 363.94078125 148.76390625 366.58078125 152.50390625 369.30078125 C163.65841003 381.57073541 168.20303536 394.60121911 167.81640625 410.97265625 C167.14617633 423.65117223 161.12543119 435.1519366 152.50390625 444.30078125 C140.15115036 454.54776533 127.46968097 458.76729175 111.35546875 458.1875 C98.45141303 456.86523256 86.32099885 450.57477714 77.62109375 440.99609375 C67.5750518 428.20685215 64.26688315 415.45080506 65.50390625 399.30078125 C67.32634124 386.72597979 73.23705894 374.96952521 83.328125 367.09765625 C86.02597146 365.1217687 88.7452736 363.19059187 91.50390625 361.30078125 C90.54871094 361.15382813 89.59351563 361.006875 88.609375 360.85546875 C75.22552146 358.53364371 64.16424499 353.87757346 55.87890625 342.55078125 C47.68613697 330.3885065 45.42727018 317.28443469 48.15234375 302.87109375 C51.69210559 291.22315951 58.95802963 281.80183046 69.3984375 275.57421875 C75.56044275 272.30331785 79.26333009 271.20585327 86.50390625 270.30078125 C85.18390625 264.36078125 83.86390625 258.42078125 82.50390625 252.30078125 C86.08407593 252.27105225 86.08407593 252.27105225 89.73657227 252.24072266 C97.63558693 252.1737201 105.53447152 252.09608203 113.4333353 252.01325417 C118.22090843 251.96337643 123.00846041 251.91704574 127.79614258 251.87890625 C132.41927535 251.84194566 137.0422274 251.79555671 141.665205 251.74271774 C143.42614499 251.72423095 145.18712363 251.70910204 146.94812202 251.69743729 C149.42076116 251.68047666 151.89299154 251.65141878 154.36547852 251.61962891 C155.44981674 251.61638863 155.44981674 251.61638863 156.55606079 251.61308289 C161.80710692 251.52722491 167.39397702 251.27004853 171.37890625 247.55078125 C172.82121873 244.66615629 173.37444172 242.53739441 173.50390625 239.30078125 C172.29318667 235.87040912 171.25812248 233.88637471 168.37496853 231.64781761 C164.76173182 229.95257008 161.59985021 229.89115589 157.69190979 229.93569946 C156.91191256 229.93258047 156.13191533 229.92946147 155.32828182 229.92624795 C152.71808972 229.91931108 150.10844768 229.93362979 147.49829102 229.94775391 C145.62553806 229.94692301 143.75278528 229.94470654 141.8800354 229.94120789 C137.8487132 229.93625876 133.81753648 229.94035501 129.78622627 229.95122147 C123.41177997 229.96757375 117.03751644 229.95912088 110.66307068 229.94638062 C93.68250285 229.91625074 76.70196787 229.91773082 59.72138685 229.93663347 C48.56430769 229.94896202 37.40743527 229.94712055 26.25037998 229.91824567 C19.91361319 229.90299901 13.57740702 229.91051283 7.24067509 229.93495584 C3.29827452 229.94502159 -0.64386841 229.93434108 -4.58623886 229.91784096 C-6.41397989 229.91438729 -8.24176024 229.91949502 -10.06944847 229.93380928 C-12.56600352 229.95215124 -15.06061294 229.93975927 -17.55711365 229.91983032 C-18.27939712 229.93254994 -19.0016806 229.94526956 -19.74585146 229.95837462 C-25.38211168 229.86149406 -27.67129276 228.14259491 -31.49609375 224.30078125 C-32.97047186 221.69893753 -33.42812898 219.28556732 -33.49609375 216.30078125 C-32.24609831 212.287638 -30.92591078 208.87314402 -27.49609375 206.30078125 C-23.48827523 204.96484174 -19.61563201 205.12287961 -15.43481445 205.09545898 C-14.50778717 205.08555939 -13.58075989 205.07565979 -12.62564087 205.06546021 C-9.557745 205.03384189 -6.48983364 205.00908639 -3.421875 204.984375 C-1.29623509 204.96380577 0.82940072 204.9428093 2.95503235 204.92140198 C8.55275154 204.86617819 14.15050766 204.81677022 19.74829102 204.76855469 C25.45918062 204.71834194 31.17001651 204.66265469 36.88085938 204.60742188 C48.0884958 204.49983652 59.29617883 204.39839234 70.50390625 204.30078125 C70.28734375 203.39714844 70.07078125 202.49351562 69.84765625 201.5625 C69.56921875 200.38300781 69.29078125 199.20351562 69.00390625 197.98828125 C68.72546875 196.81652344 68.44703125 195.64476562 68.16015625 194.4375 C67.50390625 191.30078125 67.50390625 191.30078125 67.50390625 188.30078125 C68.50535675 188.29491501 69.50680725 188.28904877 70.53860474 188.28300476 C79.98465731 188.22574696 89.43048035 188.15296929 98.8762989 188.06506634 C103.73229431 188.02037328 108.58820602 187.98111475 113.44433594 187.9543457 C118.13236468 187.92830218 122.82007118 187.88789223 127.50790024 187.83759499 C129.29477805 187.82093339 131.08171159 187.8094147 132.86865616 187.80316734 C135.37518195 187.79351852 137.88088466 187.7654505 140.38720703 187.7331543 C141.1230452 187.73458939 141.85888336 187.73602448 142.61701965 187.73750305 C147.29650167 187.65244578 150.54660315 186.81099775 154.50390625 184.30078125 C157.18123175 180.284793 157.315404 177.02071714 156.50390625 172.30078125 C154.26500906 169.23029367 152.82762913 167.6437651 149.12180996 166.68356705 C146.63800873 166.32038951 144.31286726 166.17607685 141.8049469 166.1762085 C140.88960175 166.17364548 139.97425659 166.17108246 139.03117371 166.16844177 C138.03934586 166.17054153 137.04751801 166.1726413 136.02563477 166.17480469 C134.9714032 166.17293655 133.91717163 166.17106842 132.83099365 166.16914368 C130.54476223 166.16514457 128.25852683 166.16306529 125.97229195 166.16268158 C121.11222274 166.15926234 116.25228688 166.13789867 111.39226437 166.11745071 C102.34539424 166.07943404 93.29866816 166.04816973 84.25170898 166.05029297 C77.95637178 166.05107931 71.66152502 166.02775205 65.36631584 165.98841095 C62.9681716 165.97794067 60.56997084 165.97643441 58.17181587 165.98406219 C54.81785964 165.99366817 51.46539385 165.97253074 48.11157227 165.94433594 C47.12176865 165.95453262 46.13196503 165.96472931 45.11216736 165.97523499 C40.61756404 165.90747405 37.48287021 165.77247031 33.90342712 162.88555908 C30.34580659 159.05326956 30.15734957 156.69443113 30.22265625 151.625 C30.6599484 148.01126627 32.0976887 145.96713043 34.50390625 143.30078125 C38.82230533 140.95900234 43.02860132 141.06453645 47.81640625 141.17578125 C48.55697266 141.18480469 49.29753906 141.19382813 50.06054688 141.203125 C51.87514092 141.22653912 53.68956696 141.2624051 55.50390625 141.30078125 C55.28734375 140.39714844 55.07078125 139.49351562 54.84765625 138.5625 C54.56921875 137.38300781 54.29078125 136.20351562 54.00390625 134.98828125 C53.72546875 133.81652344 53.44703125 132.64476562 53.16015625 131.4375 C52.50390625 128.30078125 52.50390625 128.30078125 52.50390625 125.30078125 C54.06245834 125.29198189 54.06245834 125.29198189 55.65249634 125.28300476 C65.451731 125.22575385 75.25074425 125.15297974 85.04975319 125.06506634 C90.08735169 125.02036802 95.12486942 124.98111061 100.16259766 124.9543457 C105.02568435 124.92830749 109.88846013 124.88790119 114.75135422 124.83759499 C116.60521956 124.82092982 118.45913867 124.80941336 120.31306839 124.80316734 C122.91298142 124.79352247 125.51209966 124.76545883 128.11181641 124.7331543 C128.87570679 124.73458939 129.63959717 124.73602448 130.42663574 124.73750305 C135.17729165 124.65420047 138.48979502 123.86388546 142.50390625 121.30078125 C145.17823803 117.28928357 145.32293036 114.01637464 144.50390625 109.30078125 C141.83241341 105.7387908 139.8418114 104.03726978 135.50390625 103.30078125 C133.21764325 103.20728502 130.92881303 103.17180678 128.64064026 103.16947937 C127.95063004 103.16736366 127.26061982 103.16524794 126.5497002 103.16306812 C124.238277 103.15707803 121.92690854 103.15806755 119.61547852 103.15893555 C117.9579967 103.15590345 116.30051571 103.15238185 114.64303589 103.14840698 C111.07392344 103.14052241 107.50482097 103.13537477 103.93570137 103.13211632 C98.29254727 103.12620478 92.64945619 103.10966379 87.0063324 103.09077454 C85.07432274 103.08443736 83.14231304 103.07811173 81.21030331 103.07179737 C80.24282756 103.06863156 79.27535181 103.06546575 78.27855861 103.062204 C65.14103909 103.02012176 52.00354926 102.98714063 38.8659668 102.97485352 C30.00331195 102.96647944 21.14081344 102.94401494 12.27823681 102.90549785 C7.58823021 102.88571882 2.89845743 102.87333881 -1.79159355 102.87833214 C-6.20186837 102.88297062 -10.61169955 102.86921727 -15.02188492 102.84132004 C-16.64039339 102.83439535 -18.2589476 102.83429542 -19.87745476 102.84152031 C-22.08744741 102.85038935 -24.29597086 102.83474929 -26.50584412 102.81303406 C-28.36053393 102.80945153 -28.36053393 102.80945153 -30.25269222 102.80579662 C-34.10733961 102.20560692 -35.74561569 101.01443615 -38.49609375 98.30078125 C-40.53579174 94.60989918 -41.00794012 91.48085998 -40.49609375 87.30078125 C-38.15597587 82.88055859 -35.98746062 80.45594811 -31.49609375 78.30078125 C-28.16142273 77.9400177 -28.16142273 77.9400177 -24.3190918 77.96020508 C-23.61610458 77.959767 -22.91311737 77.95932892 -22.18882751 77.95887756 C-19.87820111 77.96095824 -17.56831127 77.9842541 -15.2578125 78.0078125 C-13.65070492 78.01341104 -12.0435922 78.01767992 -10.43647766 78.02067566 C-6.21627551 78.03210415 -1.99638541 78.06155391 2.22369385 78.0947876 C6.53385192 78.12553168 10.84406065 78.13919025 15.15429688 78.15429688 C23.60430952 78.18642574 32.05406901 78.23759767 40.50390625 78.30078125 C40.35356934 77.66629059 40.20323242 77.03179993 40.04833984 76.37808228 C38.48853502 69.79305026 36.93183153 63.20729071 35.37695312 56.62109375 C34.7957231 54.16094338 34.213694 51.70098166 33.63085938 49.24121094 C32.79478762 45.71207811 31.96156197 42.18228389 31.12890625 38.65234375 C30.8664209 37.54710358 30.60393555 36.4418634 30.33349609 35.3031311 C30.09324707 34.28222382 29.85299805 33.26131653 29.60546875 32.20947266 C29.28570068 30.85712021 29.28570068 30.85712021 28.95947266 29.47744751 C28.50390625 27.30078125 28.50390625 27.30078125 28.50390625 25.30078125 C27.29855225 25.3164917 26.09319824 25.33220215 24.85131836 25.34838867 C20.35806013 25.40289312 15.86483085 25.43720577 11.37133789 25.46557617 C9.43053261 25.48061616 7.48976105 25.50105339 5.54907227 25.52709961 C2.75137993 25.5636942 -0.04586108 25.58055573 -2.84375 25.59375 C-3.70444595 25.60923386 -4.56514191 25.62471771 -5.45191956 25.64067078 C-10.90309434 25.64217652 -14.66759351 24.88397614 -19.49609375 22.30078125 C-22.72405724 18.7604342 -23.08010161 15.15440478 -22.91015625 10.51953125 C-22.17238478 6.56618977 -20.49516567 4.9738671 -17.49609375 2.30078125 C-11.85270648 -0.31630391 -6.09328058 -0.00522612 0 0 Z M94.68359375 390.5390625 C90.42675814 396.89612496 88.88985717 402.6865727 89.50390625 410.30078125 C91.52599784 417.85065584 93.94837941 424.35214218 100.71875 428.734375 C108.08883433 432.95097106 113.99922435 434.06239455 122.50390625 433.30078125 C130.28046474 431.132771 136.2769149 426.7584799 140.31640625 419.73828125 C143.75426354 413.31872249 144.71573334 406.84340164 142.8203125 399.73828125 C139.98232896 392.0133136 136.15743337 386.56158077 129.00390625 382.36328125 C116.67730044 376.77546747 102.91012224 379.82598444 94.68359375 390.5390625 Z M356.91015625 391.28125 C352.059025 398.24801349 351.47895297 405.01245712 352.50390625 413.30078125 C355.16598164 422.1866903 360.95768245 427.53739031 368.69140625 432.23828125 C376.18287132 434.3260666 383.69761264 434.54606813 390.87890625 431.30078125 C397.89828788 427.2603567 403.31323293 421.16143257 405.50390625 413.30078125 C406.52244197 404.5802844 405.7424958 397.50067848 400.50390625 390.30078125 C395.4976063 384.76033632 390.1021983 380.83785211 382.52734375 379.953125 C371.56178418 379.45235589 363.74512822 382.59245309 356.91015625 391.28125 Z " fill="#000000" transform="translate(47.49609375,26.69921875)"/>
</svg>
