<?xml version="1.0" encoding="UTF-8"?>
<svg version="1.1" xmlns="http://www.w3.org/2000/svg" width="512" height="512">
<path d="M0 0 C0.78425534 -0.00350607 1.56851068 -0.00701215 2.37653133 -0.01062447 C5.0083913 -0.0199394 7.64003004 -0.01501491 10.27189922 -0.01015663 C12.17632292 -0.01389284 14.08074509 -0.01849424 15.98516482 -0.02388728 C21.22177785 -0.03613626 26.45832708 -0.03585457 31.69495118 -0.03349853 C37.34129742 -0.03309084 42.98762308 -0.04412486 48.63395977 -0.05361366 C59.69733489 -0.07023487 70.7606887 -0.07572371 81.82407526 -0.07683842 C90.81556377 -0.07778833 99.80704525 -0.08189577 108.79853153 -0.08823967 C130.13571021 -0.10298795 151.4728823 -0.11528908 172.81006622 -0.11424255 C173.83360379 -0.11419582 173.83360379 -0.11419582 174.87781888 -0.11414814 C178.33628803 -0.11398192 181.79475717 -0.11378384 185.25322632 -0.11357872 C185.94008963 -0.11353883 186.62695294 -0.11349894 187.33463029 -0.11345784 C188.72363523 -0.11337697 190.11264017 -0.11329337 191.50164511 -0.11320706 C213.112646 -0.11198153 234.72358414 -0.12699514 256.33456707 -0.15435219 C280.61493088 -0.18507571 304.89524064 -0.20225919 329.17562789 -0.20042574 C342.03142502 -0.19976133 354.88715138 -0.20527609 367.74293232 -0.22678185 C378.68786563 -0.24497352 389.63269608 -0.24935749 400.57763795 -0.235763 C406.16252651 -0.22922332 411.74721762 -0.22915239 417.33208752 -0.2464695 C422.44515873 -0.26216074 427.55787527 -0.25937685 432.67093762 -0.24190123 C434.52016749 -0.23882265 436.36942358 -0.24249592 438.21862254 -0.25362138 C455.86838263 -0.35277205 455.86838263 -0.35277205 463.07162762 4.25726891 C463.8695573 4.71488609 464.66748699 5.17250328 465.48959637 5.64398766 C472.31532449 10.66157588 476.92132586 17.01915236 479.07162762 25.25726891 C479.37024721 29.24609295 479.34996231 33.22625455 479.33905315 37.22473717 C479.34358427 38.43970666 479.34811538 39.65467616 479.3527838 40.90646291 C479.363245 44.27134061 479.3647552 47.63600437 479.36239505 51.0008831 C479.36198648 54.63292022 479.37302986 58.26492558 479.38251019 61.89694786 C479.39911296 69.01024107 479.40461942 76.12350112 479.40573494 83.23681208 C479.40668582 89.02034124 479.41079812 94.80385948 479.41713619 100.58738518 C479.43474716 116.99186867 479.44397537 133.396326 479.44247524 149.80081901 C479.44235538 151.12697655 479.44235538 151.12697655 479.44223309 152.47992516 C479.44215132 153.36511224 479.44206956 154.25029933 479.44198532 155.16231027 C479.44117262 169.50444053 479.46030683 183.84646571 479.48850982 198.18856558 C479.51725308 212.92191299 479.5310493 227.65520918 479.52932227 242.38858533 C479.52865883 250.65742699 479.53413068 258.92615852 479.55567837 267.1949749 C479.57390922 274.23600951 479.57822197 281.27688408 479.56465952 288.3179321 C479.55813921 291.90809712 479.55797826 295.49795526 479.57536602 299.0880909 C479.59405038 302.98615718 479.58151751 306.88377783 479.56610394 310.78186607 C479.57639106 311.90814753 479.58667819 313.03442899 479.59727705 314.19484019 C479.50577017 324.68369867 476.5866468 332.6211557 469.36459637 340.27680016 C462.64717028 346.07873376 455.23024944 348.40919078 446.51519203 348.39148998 C445.73469782 348.39384221 444.95420361 348.39619444 444.15005806 348.39861795 C441.51297449 348.4053189 438.87594007 348.4048494 436.23884869 348.40443993 C434.33772791 348.40773788 432.43660784 348.4114633 430.53548867 348.41558141 C425.2940447 348.42561749 420.05261218 348.42932079 414.81115997 348.43197072 C409.16474696 348.43586904 403.51834305 348.44544774 397.87193584 348.45418358 C384.22674637 348.473962 370.58155614 348.48401623 356.93635592 348.49291137 C350.5136681 348.49729227 344.09098111 348.50265961 337.66829395 348.50790024 C316.32266252 348.52491438 294.97703229 348.53943377 273.63139534 348.54664898 C272.2506727 348.54712374 270.86995006 348.54759963 269.48922742 348.54807664 C268.80451057 348.54831302 268.11979372 348.54854939 267.41432787 348.54879293 C263.94519536 348.54999413 260.47606285 348.55120958 257.00693035 348.55243492 C256.31846928 348.55267507 255.6300082 348.55291522 254.92068467 348.55316265 C232.6027702 348.5610543 210.28490889 348.58448258 187.96701763 348.61699087 C164.3725825 348.65129581 140.7781899 348.67099964 117.18372685 348.67429322 C104.32170037 348.67645974 91.45975201 348.68522915 78.59774876 348.71075439 C67.64435924 348.73244139 56.69106681 348.74052166 45.73765825 348.73078761 C40.14861222 348.72623706 34.55976661 348.72817317 28.97074795 348.74754906 C23.85257683 348.7651394 18.73475294 348.76421638 13.61657835 348.74865177 C11.76656543 348.74626942 9.91652872 348.75063162 8.06655221 348.76248042 C-4.99297523 348.84093261 -15.07505334 347.86391767 -24.94790363 338.55023766 C-29.87560468 332.84499009 -33.04757243 325.8096192 -33.06259346 318.2620821 C-33.0670513 317.22422406 -33.07150915 316.18636602 -33.07610208 315.11705774 C-33.07591772 313.97311487 -33.07573335 312.829172 -33.0755434 311.65056419 C-33.07922009 310.43815797 -33.08289678 309.22575175 -33.08668488 307.97660595 C-33.09581436 304.60500751 -33.100422 301.23345775 -33.10307419 297.86185157 C-33.10697674 294.22772456 -33.11655523 290.59361165 -33.12528706 286.95949364 C-33.14505458 278.17901327 -33.1551188 269.39853175 -33.16401485 260.61803469 C-33.16839795 256.48261715 -33.17376476 252.34720089 -33.17900372 248.21178436 C-33.19601755 234.46314923 -33.21051096 220.7145149 -33.21775246 206.96587086 C-33.21966234 203.39755757 -33.22158267 199.82924428 -33.2235384 196.26093102 C-33.22402214 195.37404742 -33.22450588 194.48716383 -33.22500428 193.57340498 C-33.23330167 179.21168965 -33.25863297 164.85005769 -33.29111908 150.48837876 C-33.32420414 135.74157199 -33.34220259 120.99480756 -33.3453967 106.24796349 C-33.34756064 97.96900932 -33.35629204 89.69017667 -33.38185787 81.4112587 C-33.4035848 74.35918045 -33.41160559 67.30725323 -33.40189109 60.2551453 C-33.39735189 56.65891931 -33.39920994 53.06300478 -33.41865253 49.46682167 C-33.43958053 45.562039 -33.42928093 41.65768331 -33.41611958 37.75285912 C-33.42708882 36.6245313 -33.43805807 35.49620348 -33.44935971 34.33368391 C-33.36792209 24.31056934 -30.78342311 16.35590404 -23.85415363 9.01117516 C-16.82500541 2.60937485 -9.49787196 -0.05400992 0 0 Z " fill="#515379" transform="translate(32.928372383117676,81.74273109436035)"/>
<path d="M0 0 C28.52896845 -0.09345969 57.05791394 -0.16398733 85.58700466 -0.20724869 C98.83368995 -0.22786998 112.08028008 -0.25598252 125.3269043 -0.30175781 C136.87325465 -0.34163857 148.41953609 -0.36743596 159.96595341 -0.37635398 C166.07916454 -0.38156656 172.19217854 -0.39380946 178.30532646 -0.42292023 C184.06152871 -0.45010864 189.81745295 -0.45843793 195.5737133 -0.45243073 C197.68401094 -0.45352941 199.79431806 -0.46146266 201.90456009 -0.4768219 C204.79193162 -0.49680318 207.67826156 -0.49190932 210.56565857 -0.48101807 C211.81034815 -0.49849512 211.81034815 -0.49849512 213.08018297 -0.51632524 C222.2620776 -0.42308347 230.39691277 3.70273997 237 10 C242.69161195 17.02933005 245.25337709 23.35564584 245.24050903 32.47909546 C245.24307231 33.57709376 245.24307231 33.57709376 245.24568737 34.69727385 C245.24896937 37.13861567 245.23800002 39.57967979 245.22705078 42.02099609 C245.22648639 43.77555332 245.22680378 45.53011102 245.22793579 47.28466797 C245.22850921 52.04040084 245.21675665 56.79603267 245.20278788 61.55174208 C245.1902787 66.52453059 245.18910987 71.49732147 245.18673706 76.47012329 C245.18052285 85.8835099 245.1641128 95.29685002 245.14403808 104.71021616 C245.12167727 115.42840363 245.11068519 126.14659332 245.10064721 136.86479831 C245.07974655 158.90989148 245.04457168 180.95494281 245 203 C242.44718711 202.84569552 239.89447368 202.68997392 237.34179688 202.53344727 C236.62449402 202.49023598 235.90719116 202.44702469 235.16815186 202.40250397 C230.44572908 202.11153101 225.74983691 201.70164697 221.04492188 201.19946289 C178.47422568 196.81742557 137.8519986 202.31537455 99.03369141 221.03759766 C96.05771957 222.4459147 93.03541702 223.72552689 90 225 C89.5978125 223.6078125 89.5978125 223.6078125 89.1875 222.1875 C87.86196453 218.44337311 87.86196453 218.44337311 85 216 C81.59666774 215.19557601 79.07161918 214.68141051 75.6875 215.6875 C73.54800044 217.35155522 72.97438651 218.45160452 72 221 C71.7857865 224.20617914 71.68186114 227.38623289 71.69726562 230.59960938 C71.63671875 232.56640625 71.63671875 232.56640625 71 236 C68.45703125 237.96484375 68.45703125 237.96484375 66 239 C65.97421875 237.75863281 65.9484375 236.51726562 65.921875 235.23828125 C65.86557918 233.59631972 65.80823217 231.954394 65.75 230.3125 C65.73582031 229.49587891 65.72164063 228.67925781 65.70703125 227.83789062 C65.49778309 222.66946111 64.91707039 219.73299753 61 216 C58.11138291 214.55569145 56.20352299 214.62311494 53 215 C50.10865724 217.05014801 48.26362052 218.64542818 47.56762695 222.22167969 C47.43486177 224.85233062 47.46571985 227.43045938 47.5625 230.0625 C47.56830078 230.96033203 47.57410156 231.85816406 47.58007812 232.78320312 C47.68266549 238.66976075 47.68266549 238.66976075 50 244 C52.53442406 246.22816986 52.53442406 246.22816986 55 248 C54.21238281 248.59425781 53.42476563 249.18851563 52.61328125 249.80078125 C40.70352343 258.84067341 29.4250574 268.46679865 18.47070312 278.63818359 C16.05447539 280.87552063 13.61925179 283.09206354 11.1875 285.3125 C7.75293926 288.45553304 4.33754861 291.61601737 0.9453125 294.8046875 C0.25928955 295.44881592 -0.4267334 296.09294434 -1.13354492 296.7565918 C-2.48734566 298.02929001 -3.83912271 299.30414479 -5.1887207 300.58129883 C-9.88966417 305 -9.88966417 305 -11 305 C-11.1372475 273.8911672 -11.24324892 242.7824154 -11.30639198 211.67335116 C-11.31389509 207.99016004 -11.32166113 204.30696952 -11.32958984 200.6237793 C-11.33116371 199.89060597 -11.33273757 199.15743264 -11.33435912 198.40204193 C-11.36037772 186.57269164 -11.40763511 174.74351855 -11.46291678 162.91427294 C-11.51927606 150.75185913 -11.55240516 138.58953732 -11.56453097 126.42699832 C-11.57198318 119.60574006 -11.5897145 112.7848493 -11.63438034 105.96372414 C-11.67546509 99.52780809 -11.68759704 93.09245259 -11.67864609 86.65641785 C-11.68028079 84.30926136 -11.69199946 81.9620838 -11.71523285 79.61504173 C-11.85090852 65.18688041 -10.28719947 52.84636225 -5.69105077 39.14918363 C-2.69114849 29.81941921 -1.75773424 20.23211368 -0.921875 10.52734375 C-0.78724854 9.00457825 -0.78724854 9.00457825 -0.64990234 7.4510498 C-0.43070815 4.96757955 -0.21413744 2.48391051 0 0 Z " fill="#424566" transform="translate(267,82)"/>
<path d="M0 0 C9.96787215 -0.26875109 19.38275992 0.47512442 29.25 1.9375 C30.55324219 2.11990234 31.85648438 2.30230469 33.19921875 2.49023438 C42.69889987 3.84944994 42.69889987 3.84944994 45 5 C45.09297796 15.12753427 45.16390546 25.25496578 45.20724869 35.38284111 C45.22805896 40.08643626 45.25625566 44.78973783 45.30175781 49.49316406 C45.34545098 54.03842144 45.36918636 58.58339772 45.37950897 63.12884903 C45.38685845 64.85668483 45.40120964 66.5845065 45.42292023 68.31222153 C45.57925549 81.27746742 44.53216768 91.2256337 35.29296875 101.01953125 C28.17182806 107.17015873 20.55197846 109.15213788 11.3631134 109.12025452 C10.02394687 109.12153615 10.02394687 109.12153615 8.65772647 109.12284368 C5.65436584 109.12449598 2.65106059 109.11898116 -0.35229492 109.11352539 C-2.50049335 109.11324344 -4.64869188 109.11340141 -6.79689026 109.1139679 C-12.63950988 109.11425556 -18.48210909 109.10836382 -24.32472396 109.10139394 C-30.42663072 109.09515526 -36.52853792 109.09455619 -42.63044739 109.09336853 C-54.19012373 109.09025674 -65.74979066 109.08204538 -77.30946285 109.07201904 C-90.46768468 109.0608532 -103.62590697 109.05534626 -116.78413236 109.05032361 C-143.85609347 109.03986266 -170.92804621 109.02226614 -198 109 C-197.04112917 107.87035461 -196.08070809 106.74202498 -195.11962891 105.61425781 C-194.58496002 104.98577942 -194.05029114 104.35730103 -193.49942017 103.70977783 C-191.90238213 101.88868706 -190.23741752 100.29776251 -188.375 98.75 C-180.20490007 91.78456509 -172.40636759 84.39081294 -164.5625 77.0625 C-163.93045654 76.47243164 -163.29841309 75.88236328 -162.6472168 75.27441406 C-158.9427395 71.81635756 -158.9427395 71.81635756 -155.24365234 68.35253906 C-148.04851925 61.60568156 -140.75645207 55.10571996 -133 49 C-132.39736328 48.51950195 -131.79472656 48.03900391 -131.17382812 47.54394531 C-112.6341941 32.79859714 -92.61070747 19.77389343 -70.5 11.0625 C-69.42383423 10.63843872 -69.42383423 10.63843872 -68.32592773 10.20581055 C-63.93532973 8.54795411 -59.58248232 7.36385767 -54.98120117 6.43969727 C-52.7689664 5.99051039 -52.7689664 5.99051039 -49.8125 4.875 C-46.63343079 3.88595625 -44.31143129 3.64772008 -41 4 C-39.7934375 4.7734375 -39.7934375 4.7734375 -38.5625 5.5625 C-34.92272166 7.60432687 -32.9694045 7.11421881 -29 6 C-27.36799155 4.82853537 -27.36799155 4.82853537 -25.875 3.4375 C-23 1 -23 1 -20.375 0.375 C-18 1 -18 1 -16.125 3.4375 C-14.15186949 6.30430915 -14.15186949 6.30430915 -10.5625 7 C-6.5815106 7 -5.03865607 6.5177436 -2 4 C-1.29383262 2.68715962 -0.6202423 1.35555218 0 0 Z " fill="#424566" transform="translate(467,321)"/>
<path d="M0 0 C1.19806274 -0.0038269 2.39612549 -0.00765381 3.63049316 -0.01159668 C6.15878135 -0.01431376 8.68709775 -0.00696699 11.21533203 0.00976562 C15.08039148 0.031176 18.94359197 0.00995475 22.80859375 -0.015625 C25.26823326 -0.01298169 27.72787162 -0.00785665 30.1875 0 C31.91740173 -0.01214539 31.91740173 -0.01214539 33.68225098 -0.02453613 C39.96505075 0.0487238 43.81586183 0.31217916 48.59375 4.53125 C49.191875 5.046875 49.79 5.5625 50.40625 6.09375 C53.46247991 9.79339674 52.79115345 14.61361548 52.83203125 19.14453125 C52.840103 19.99170212 52.84817474 20.83887299 52.85649109 21.7117157 C52.8703169 23.50464846 52.88104578 25.29760738 52.88891602 27.09057617 C52.90612103 29.82326506 52.95001849 32.55474126 52.99414062 35.28710938 C53.00426887 37.03124113 53.01278456 38.77538314 53.01953125 40.51953125 C53.03703934 41.33222977 53.05454742 42.14492828 53.07258606 42.98225403 C53.05239001 48.30243658 52.21975526 51.38277429 48.59375 55.53125 C43.14394909 60.68855962 37.27534405 60.11226271 30.1875 60.0625 C28.98943726 60.0663269 27.79137451 60.07015381 26.55700684 60.07409668 C24.02871865 60.07681376 21.50040225 60.06946699 18.97216797 60.05273438 C15.10710852 60.031324 11.24390803 60.05254525 7.37890625 60.078125 C4.91926674 60.07548169 2.45962838 60.07035665 0 60.0625 C-1.72990173 60.07464539 -1.72990173 60.07464539 -3.49475098 60.08703613 C-9.57941751 60.01608651 -13.77585051 59.91313555 -18.40625 55.53125 C-22.64672899 50.65416866 -22.99973307 46.79907826 -22.9375 40.625 C-22.9413269 39.78207397 -22.94515381 38.93914795 -22.94909668 38.07067871 C-22.95180816 36.29564208 -22.94450057 34.52056498 -22.92773438 32.74560547 C-22.90631235 30.03912706 -22.92756049 27.33530277 -22.953125 24.62890625 C-22.95048159 22.89843168 -22.94535632 21.16795875 -22.9375 19.4375 C-22.94559692 18.63421265 -22.95369385 17.83092529 -22.96203613 17.0032959 C-22.87471242 11.73290529 -21.98284832 8.64478552 -18.40625 4.53125 C-12.95644909 -0.62605962 -7.08784405 -0.04976271 0 0 Z " fill="#BF7644" transform="translate(67.40625,191.46875)"/>
<path d="M0 0 C68.64 0 137.28 0 208 0 C208.33 1.32 208.66 2.64 209 4 C206.45528328 6.54471672 204.82974734 6.24236068 201.35949993 6.26748681 C200.5651545 6.26302537 199.77080908 6.25856392 198.95239258 6.25396729 C198.11088307 6.25708727 197.26937357 6.26020725 196.40236378 6.26342177 C193.56634955 6.27143578 190.73054729 6.26506495 187.89453125 6.25878906 C185.86794916 6.26149742 183.84136805 6.26505747 181.81478882 6.26940918 C176.29839557 6.27855398 170.78207683 6.27498033 165.26568222 6.26865101 C159.50369815 6.26360181 153.74172064 6.26827944 147.97973633 6.27142334 C138.30190887 6.27506615 128.6241119 6.27025565 118.94628906 6.26074219 C107.74343199 6.24985705 96.5406477 6.2533824 85.3377924 6.264395 C75.73439694 6.27345893 66.13102344 6.27475754 56.52762508 6.26951766 C50.78530114 6.26639303 45.04301146 6.26600209 39.3006897 6.27259064 C33.90320031 6.27835049 28.50580513 6.27439224 23.10832596 6.26280212 C21.12249534 6.26014823 19.13665685 6.26093297 17.15082932 6.26532745 C14.44964678 6.2707557 11.74877022 6.26398212 9.04760742 6.25396729 C8.253262 6.25842873 7.45891657 6.26289017 6.64050007 6.26748681 C1.22830009 6.22830009 1.22830009 6.22830009 -1 4 C-0.67 2.68 -0.34 1.36 0 0 Z " fill="#DBDFF5" transform="translate(46,374)"/>
<path d="M0 0 C3.16354127 0.18609066 4.65301437 0.35218282 7.1875 2.1875 C10.8102436 6.74947342 10.70466912 11.04932954 10.6875 16.625 C10.71585938 17.45837891 10.74421875 18.29175781 10.7734375 19.15039062 C10.78705052 23.45550675 10.54935566 26.31239078 7.78125 29.72265625 C4.9698203 32.39436128 4.15484411 33.08001732 0.375 33.5 C-3.56182188 33.11403707 -5.04646679 31.95353321 -7.8125 29.1875 C-9.23880596 24.90858211 -9.1173437 20.79612537 -9.1875 16.3125 C-9.22488281 15.41402344 -9.26226562 14.51554687 -9.30078125 13.58984375 C-9.36316311 8.89734154 -9.37673034 6.89144452 -6.3515625 3.1171875 C-5.51367188 2.48039062 -4.67578125 1.84359375 -3.8125 1.1875 C-2.8125 0.1875 -2.8125 0.1875 0 0 Z " fill="#DFE3F8" transform="translate(236.8125,295.8125)"/>
<path d="M0 0 C2.3181362 1.89111111 3.66914015 3.33828031 5 6 C5.26385085 9.09784879 5.23151467 12.20465323 5.25 15.3125 C5.270625 16.16779297 5.29125 17.02308594 5.3125 17.90429688 C5.34266126 22.77157048 5.17792775 26.05095743 2 30 C-0.6740203 32.10101595 -2.04284685 31.99846976 -5.5 31.875 C-9.29736911 30.92565772 -10.61471502 30.02747709 -13 27 C-14.81215899 23.37568203 -14.31311698 19.17895462 -14.375 15.1875 C-14.41238281 14.28451172 -14.44976562 13.38152344 -14.48828125 12.45117188 C-14.54996169 7.78744564 -14.5529017 5.7086867 -11.6015625 1.92578125 C-7.26898883 -1.28136413 -5.31240392 -1.19071122 0 0 Z " fill="#C4CEF9" transform="translate(438,297)"/>
<path d="M0 0 C2.87025334 2.06208331 4.72513773 3.64520374 5.44702148 7.20336914 C5.60156159 9.81975112 5.58351689 12.38060655 5.5 15 C5.50386719 16.33417969 5.50386719 16.33417969 5.5078125 17.6953125 C5.43484008 22.58446474 5.18117402 26.04715506 2 30 C-0.6740203 32.10101595 -2.04284685 31.99846976 -5.5 31.875 C-9.29736911 30.92565772 -10.61471502 30.02747709 -13 27 C-14.7482484 23.5035032 -14.22708836 19.53951945 -14.25 15.6875 C-14.270625 14.83220703 -14.29125 13.97691406 -14.3125 13.09570312 C-14.34266126 8.22842952 -14.17792775 4.94904257 -11 1 C-7.43954779 -1.79749817 -4.21263041 -1.10858695 0 0 Z " fill="#C4CEF8" transform="translate(352,297)"/>
<path d="M0 0 C4.57793505 0.5182568 6.04473754 2.18323201 9.3125 5.375 C11.05737162 8.86474324 10.62426616 12.77923297 10.6875 16.625 C10.72488281 17.47191406 10.76226562 18.31882812 10.80078125 19.19140625 C10.86176984 23.54870231 10.7264988 26.46264035 7.9140625 29.921875 C5.0976335 32.57760685 4.27340402 33.26823289 0.5 33.6875 C-3.43682188 33.30153707 -4.92146679 32.14103321 -7.6875 29.375 C-9.11380596 25.09608211 -8.9923437 20.98362537 -9.0625 16.5 C-9.09988281 15.60152344 -9.13726562 14.70304687 -9.17578125 13.77734375 C-9.23816311 9.08484154 -9.25173034 7.07894452 -6.2265625 3.3046875 C-5.38867188 2.66789062 -4.55078125 2.03109375 -3.6875 1.375 C-2.6875 0.375 -2.6875 0.375 0 0 Z " fill="#C3CCF7" transform="translate(322.6875,295.625)"/>
<path d="M0 0 C2.3181362 1.89111111 3.66914015 3.33828031 5 6 C5.26385085 9.09784879 5.23151467 12.20465323 5.25 15.3125 C5.270625 16.16779297 5.29125 17.02308594 5.3125 17.90429688 C5.34266126 22.77157048 5.17792775 26.05095743 2 30 C-0.6740203 32.10101595 -2.04284685 31.99846976 -5.5 31.875 C-9.29736911 30.92565772 -10.61471502 30.02747709 -13 27 C-14.81215899 23.37568203 -14.31311698 19.17895462 -14.375 15.1875 C-14.41238281 14.28451172 -14.44976562 13.38152344 -14.48828125 12.45117188 C-14.54996169 7.78744564 -14.5529017 5.7086867 -11.6015625 1.92578125 C-7.26898883 -1.28136413 -5.31240392 -1.19071122 0 0 Z " fill="#DFE3F9" transform="translate(169,297)"/>
<path d="M0 0 C2.87025334 2.06208331 4.72513773 3.64520374 5.44702148 7.20336914 C5.60156159 9.81975112 5.58351689 12.38060655 5.5 15 C5.50386719 16.33417969 5.50386719 16.33417969 5.5078125 17.6953125 C5.43484008 22.58446474 5.18117402 26.04715506 2 30 C-0.6740203 32.10101595 -2.04284685 31.99846976 -5.5 31.875 C-9.29736911 30.92565772 -10.61471502 30.02747709 -13 27 C-14.7482484 23.5035032 -14.22708836 19.53951945 -14.25 15.6875 C-14.270625 14.83220703 -14.29125 13.97691406 -14.3125 13.09570312 C-14.34266126 8.22842952 -14.17792775 4.94904257 -11 1 C-7.43954779 -1.79749817 -4.21263041 -1.10858695 0 0 Z " fill="#DFE3F9" transform="translate(83,297)"/>
<path d="M0 0 C4.57793505 0.5182568 6.04473754 2.18323201 9.3125 5.375 C11.05737162 8.86474324 10.62426616 12.77923297 10.6875 16.625 C10.72488281 17.47191406 10.76226562 18.31882812 10.80078125 19.19140625 C10.86176984 23.54870231 10.7264988 26.46264035 7.9140625 29.921875 C5.0976335 32.57760685 4.27340402 33.26823289 0.5 33.6875 C-3.43682188 33.30153707 -4.92146679 32.14103321 -7.6875 29.375 C-9.11380596 25.09608211 -8.9923437 20.98362537 -9.0625 16.5 C-9.09988281 15.60152344 -9.13726562 14.70304687 -9.17578125 13.77734375 C-9.23816311 9.08484154 -9.25173034 7.07894452 -6.2265625 3.3046875 C-5.38867188 2.66789062 -4.55078125 2.03109375 -3.6875 1.375 C-2.6875 0.375 -2.6875 0.375 0 0 Z " fill="#DEE2F8" transform="translate(53.6875,295.625)"/>
<path d="M0 0 C2.87990253 2.05885941 4.72438838 3.63987398 5.4465332 7.20361328 C5.60160187 9.81997908 5.58351729 12.38059405 5.5 15 C5.50386719 16.33417969 5.50386719 16.33417969 5.5078125 17.6953125 C5.43484008 22.58446474 5.18117402 26.04715506 2 30 C-0.61457103 32.05430581 -2.06354429 32 -5.4375 32 C-9.12873515 30.96386382 -10.62358403 29.88200179 -12.96801758 26.89453125 C-14.94274554 23.26929137 -14.71918094 19.53722307 -14.625 15.5 C-14.64433594 14.67113281 -14.66367187 13.84226562 -14.68359375 12.98828125 C-14.6495681 8.70785421 -14.3308545 5.85394566 -11.5859375 2.46875 C-7.46656709 -1.46394199 -5.53489075 -1.31336391 0 0 Z " fill="#C4CDF8" transform="translate(462,297)"/>
<path d="M0 0 C2.87990253 2.05885941 4.72438838 3.63987398 5.4465332 7.20361328 C5.60160187 9.81997908 5.58351729 12.38059405 5.5 15 C5.50386719 16.33417969 5.50386719 16.33417969 5.5078125 17.6953125 C5.43484008 22.58446474 5.18117402 26.04715506 2 30 C-0.61457103 32.05430581 -2.06354429 32 -5.4375 32 C-9.12873515 30.96386382 -10.62358403 29.88200179 -12.96801758 26.89453125 C-14.94274554 23.26929137 -14.71918094 19.53722307 -14.625 15.5 C-14.64433594 14.67113281 -14.66367187 13.84226562 -14.68359375 12.98828125 C-14.6495681 8.70785421 -14.3308545 5.85394566 -11.5859375 2.46875 C-7.46656709 -1.46394199 -5.53489075 -1.31336391 0 0 Z " fill="#C4CEF8" transform="translate(279,297)"/>
<path d="M0 0 C2.87990253 2.05885941 4.72438838 3.63987398 5.4465332 7.20361328 C5.60160187 9.81997908 5.58351729 12.38059405 5.5 15 C5.50386719 16.33417969 5.50386719 16.33417969 5.5078125 17.6953125 C5.43484008 22.58446474 5.18117402 26.04715506 2 30 C-0.61457103 32.05430581 -2.06354429 32 -5.4375 32 C-9.12873515 30.96386382 -10.62358403 29.88200179 -12.96801758 26.89453125 C-14.94274554 23.26929137 -14.71918094 19.53722307 -14.625 15.5 C-14.64433594 14.67113281 -14.66367188 13.84226562 -14.68359375 12.98828125 C-14.6495681 8.70785421 -14.3308545 5.85394566 -11.5859375 2.46875 C-7.46656709 -1.46394199 -5.53489075 -1.31336391 0 0 Z " fill="#DEE2F8" transform="translate(193,297)"/>
<path d="M0 0 C2.81346698 1.60869028 4.19630128 2.42575566 6 5 C6.89631575 8.84901865 6.83844768 12.56407806 6.75 16.5 C6.77320313 17.53253906 6.79640625 18.56507813 6.8203125 19.62890625 C6.76387041 26.91934247 6.76387041 26.91934247 4.71899414 29.81225586 C2.22611403 31.9835239 0.18310148 32.96636912 -3.0625 33.5625 C-6.67781108 32.87020639 -8.38108416 31.54408967 -11 29 C-12.86905348 25.26189305 -12.27116522 20.80168822 -12.3125 16.6875 C-12.34150391 15.73681641 -12.37050781 14.78613281 -12.40039062 13.80664062 C-12.44076288 9.36258682 -12.4611984 6.75598501 -10.10546875 2.89453125 C-6.71511398 -0.15615904 -4.53784237 -0.5235972 0 0 Z " fill="#C3CCF7" transform="translate(412,296)"/>
<path d="M0 0 C2.81346698 1.60869028 4.19630128 2.42575566 6 5 C6.89631575 8.84901865 6.83844768 12.56407806 6.75 16.5 C6.77320313 17.53253906 6.79640625 18.56507813 6.8203125 19.62890625 C6.76387041 26.91934247 6.76387041 26.91934247 4.71899414 29.81225586 C2.22611403 31.9835239 0.18310148 32.96636912 -3.0625 33.5625 C-6.67781108 32.87020639 -8.38108416 31.54408967 -11 29 C-12.86905348 25.26189305 -12.27116522 20.80168822 -12.3125 16.6875 C-12.34150391 15.73681641 -12.37050781 14.78613281 -12.40039062 13.80664062 C-12.44076288 9.36258682 -12.4611984 6.75598501 -10.10546875 2.89453125 C-6.71511398 -0.15615904 -4.53784237 -0.5235972 0 0 Z " fill="#DDE1F7" transform="translate(130,296)"/>
<path d="M0 0 C2.69990662 1.79993774 4.5418865 3.083773 6 6 C6.29259649 9.4308452 6.27791989 12.87062655 6.3125 16.3125 C6.34150391 17.26318359 6.37050781 18.21386719 6.40039062 19.19335938 C6.44076288 23.63741318 6.4611984 26.24401499 4.10546875 30.10546875 C1.58932255 32.36953351 0.55893979 32.93789558 -2.8125 33.3125 C-6.7307645 32.92835642 -8.21293267 31.70743683 -11 29 C-12.93430228 25.13139544 -12.35873235 20.4436692 -12.4375 16.1875 C-12.48326172 15.18912109 -12.52902344 14.19074219 -12.57617188 13.16210938 C-12.68625558 5.9779508 -12.68625558 5.9779508 -10.7409668 3.20581055 C-7.24708378 0.17063829 -4.54143871 -0.8696372 0 0 Z " fill="#C2CCF7" transform="translate(302,296)"/>
<path d="M0 0 C2.78025634 1.61323516 4.1985831 2.45563763 6 5 C6.84246476 8.68653552 6.74818579 12.23544223 6.625 16 C6.63144531 16.98484375 6.63789063 17.9696875 6.64453125 18.984375 C6.57781173 23.47277907 6.46467887 26.24134062 4.0859375 30.125 C1.58134085 32.37632283 0.54402283 32.93955302 -2.8125 33.3125 C-6.7307645 32.92835642 -8.21293267 31.70743683 -11 29 C-12.86905348 25.26189305 -12.27116522 20.80168822 -12.3125 16.6875 C-12.34150391 15.73681641 -12.37050781 14.78613281 -12.40039062 13.80664062 C-12.44076288 9.36258682 -12.4611984 6.75598501 -10.10546875 2.89453125 C-6.71511398 -0.15615904 -4.53784237 -0.5235972 0 0 Z " fill="#DEE2F8" transform="translate(216,296)"/>
<path d="M0 0 C0.64195312 0.07992188 1.28390625 0.15984375 1.9453125 0.2421875 C5.06796385 1.67076889 6.14356902 3.13847058 7.875 6.125 C8.45526303 9.63719694 8.43363728 13.0725581 8.375 16.625 C8.39046875 17.56214844 8.4059375 18.49929688 8.421875 19.46484375 C8.3974451 23.77061284 8.27623905 26.43290644 6.0859375 30.2109375 C3.90146744 32.10208649 2.82742171 32.89799167 0 33.25 C-0.63679688 33.35570312 -1.27359375 33.46140625 -1.9296875 33.5703125 C-5.61342817 32.82307685 -8.04708906 31.17863983 -10.125 28.125 C-11.0160354 24.27442716 -10.96346017 20.56147772 -10.875 16.625 C-10.89820313 15.59246094 -10.92140625 14.55992187 -10.9453125 13.49609375 C-10.88919857 6.24804486 -10.88919857 6.24804486 -8.88134766 3.29736328 C-6.15256563 0.85482316 -3.66162005 -0.60779928 0 0 Z " fill="#C2CCF6" transform="translate(386.125,295.875)"/>
<path d="M0 0 C2.69990662 1.79993774 4.5418865 3.083773 6 6 C6.31877503 9.43026143 6.32426215 12.86924526 6.375 16.3125 C6.41238281 17.26318359 6.44976562 18.21386719 6.48828125 19.19335938 C6.54754783 23.90505252 6.57609186 26.22700365 3.69140625 30.09765625 C0.25371986 32.52748683 -1.78330547 33.14795419 -6 33 C-8.85154669 31.39359362 -10.19767421 30.60719051 -12 28 C-12.89422495 24.15033702 -12.83845345 20.43617857 -12.75 16.5 C-12.77320312 15.46746094 -12.79640625 14.43492187 -12.8203125 13.37109375 C-12.76387041 6.08065753 -12.76387041 6.08065753 -10.71899414 3.18774414 C-7.23886266 0.15659226 -4.52653499 -0.8667833 0 0 Z " fill="#DCE0F6" transform="translate(106,296)"/>
<path d="M0 0 C2.40885417 0.1953125 4.81770833 0.390625 7.2265625 0.5859375 C7.2265625 6.1959375 7.2265625 11.8059375 7.2265625 17.5859375 C3.20522259 17.70119883 -0.81187403 17.80057137 -4.83398438 17.8605957 C-6.19974253 17.8856303 -7.56536817 17.91966968 -8.93066406 17.96313477 C-21.73611424 18.36038413 -21.73611424 18.36038413 -25.640625 15.37890625 C-27.75375839 12.61170777 -28.57653617 11.03171081 -28.7734375 7.5859375 C-28.19899902 7.58706543 -27.62456055 7.58819336 -27.03271484 7.58935547 C-24.40346033 7.57717073 -21.77705313 7.51943242 -19.1484375 7.4609375 C-18.24480469 7.46351563 -17.34117188 7.46609375 -16.41015625 7.46875 C-11.35812138 7.40898561 -11.35812138 7.40898561 -6.97509766 5.20556641 C-5.98853374 4.12992223 -5.0231489 3.03433827 -4.08349609 1.91748047 C-2.7734375 0.5859375 -2.7734375 0.5859375 0 0 Z " fill="#FBBA54" transform="translate(74.7734375,232.4140625)"/>
<path d="M0 0 C4.52228035 -0.16226122 9.03871682 -0.28108063 13.5625 -0.375 C15.47772461 -0.45041016 15.47772461 -0.45041016 17.43164062 -0.52734375 C28.07288802 -0.69318137 28.07288802 -0.69318137 32.40234375 2.7734375 C33.97631836 4.31005859 33.97631836 4.31005859 35 6 C35 7.32 35 8.64 35 10 C34.42556152 9.99887207 33.85112305 9.99774414 33.25927734 9.99658203 C30.63002283 10.00876677 28.00361563 10.06650508 25.375 10.125 C24.47136719 10.12242187 23.56773438 10.11984375 22.63671875 10.1171875 C17.57950349 10.18202858 17.57950349 10.18202858 13.18408203 12.38037109 C11.77292679 13.90517642 10.38532797 15.45169227 9 17 C6.4453125 17.5859375 6.4453125 17.5859375 4.125 17.375 C2.76375 17.25125 1.4025 17.1275 0 17 C0 11.39 0 5.78 0 0 Z " fill="#FDBC55" transform="translate(84,193)"/>
<path d="M0 0 C1.36125 -0.12375 2.7225 -0.2475 4.125 -0.375 C5.27355469 -0.47941406 5.27355469 -0.47941406 6.4453125 -0.5859375 C9 0 9 0 11.65625 2.96875 C14.29707098 5.82225455 16.09498862 6.48282646 19.9609375 6.8046875 C21.76500839 6.8573611 23.57016766 6.88014931 25.375 6.875 C26.30183594 6.895625 27.22867188 6.91625 28.18359375 6.9375 C30.45663414 6.98436681 32.72657785 7.00446394 35 7 C34.80194718 10.46592428 33.98227544 12.02287556 31.8359375 14.79296875 C26.70804406 18.7086196 19.72354683 17.51129917 13.625 17.3125 C12.31660156 17.28994141 11.00820312 17.26738281 9.66015625 17.24414062 C6.43961214 17.18537157 3.21965842 17.09569658 0 17 C0 11.39 0 5.78 0 0 Z " fill="#FDBC54" transform="translate(84,233)"/>
<path d="M0 0 C1.96259766 0.03383789 1.96259766 0.03383789 3.96484375 0.06835938 C7.18538786 0.12712843 10.40534158 0.21680342 13.625 0.3125 C13.625 5.9225 13.625 11.5325 13.625 17.3125 C12.26375 17.43625 10.9025 17.56 9.5 17.6875 C8.73429687 17.75710937 7.96859375 17.82671875 7.1796875 17.8984375 C4.625 17.3125 4.625 17.3125 1.96875 14.34375 C-0.67207098 11.49024545 -2.46998862 10.82967354 -6.3359375 10.5078125 C-8.14000839 10.4551389 -9.94516766 10.43235069 -11.75 10.4375 C-13.14025391 10.4065625 -13.14025391 10.4065625 -14.55859375 10.375 C-16.83163414 10.32813319 -19.10157785 10.30803606 -21.375 10.3125 C-21.17694718 6.84657572 -20.35727544 5.28962444 -18.2109375 2.51953125 C-13.08304406 -1.3961196 -6.09854683 -0.19879917 0 0 Z " fill="#FDBC55" transform="translate(67.375,192.6875)"/>
<path d="M0 0 C0.92683594 0.02707031 1.85367188 0.05414063 2.80859375 0.08203125 C5.08173992 0.15233474 7.35367927 0.25994248 9.625 0.375 C9.625 5.655 9.625 10.935 9.625 16.375 C1.045 16.375 -7.535 16.375 -16.375 16.375 C-16.375 6.375 -16.375 6.375 -14.0234375 2.7734375 C-9.81255337 -0.74429698 -5.2285385 -0.29088873 0 0 Z " fill="#FAB954" transform="translate(110.375,204.625)"/>
<path d="M0 0 C8.58 0 17.16 0 26 0 C26 4.95 26 9.9 26 15 C22.78961665 15.1626273 19.58752066 15.28117116 16.375 15.375 C15.01955078 15.45041016 15.01955078 15.45041016 13.63671875 15.52734375 C9.14173767 15.62577399 5.87134203 15.53739321 2.3515625 12.5390625 C0 9 0 9 0 0 Z " fill="#FDBC54" transform="translate(94,223)"/>
<path d="M0 0 C6.27 0 12.54 0 19 0 C19 6.27 19 12.54 19 19 C12.73 19 6.46 19 0 19 C0 12.73 0 6.46 0 0 Z " fill="#F9B853" transform="translate(73,212)"/>
<path d="M0 0 C8.25 0 16.5 0 25 0 C25 9 25 9 22.6171875 12.5390625 C18.51877727 16.03030085 14.26542635 15.67692263 9.125 15.375 C8.24585938 15.34792969 7.36671875 15.32085937 6.4609375 15.29296875 C4.30622399 15.22270635 2.15278407 15.11509935 0 15 C0 10.05 0 5.1 0 0 Z " fill="#FEBC55" transform="translate(46,223)"/>
<path d="M0 0 C3.04383319 -0.1627396 6.07890569 -0.28120531 9.125 -0.375 C9.9809375 -0.42527344 10.836875 -0.47554687 11.71875 -0.52734375 C16.10691675 -0.62860914 19.18959699 -0.45886182 22.6171875 2.4609375 C25 6 25 6 25 15 C16.75 15 8.5 15 0 15 C0 10.05 0 5.1 0 0 Z " fill="#FDBC54" transform="translate(46,205)"/>
<path d="M0 0 C1.89453125 0.078125 1.89453125 0.078125 4 1 C5.44921875 3.546875 5.44921875 3.546875 6.6875 6.75 C7.10386719 7.79671875 7.52023437 8.8434375 7.94921875 9.921875 C12.06659263 21.98317841 11.81737554 37.81396654 7.16796875 49.66015625 C5.90336737 52.19358845 4.49529986 54.59638046 3 57 C1.68 56.67 0.36 56.34 -1 56 C-0.55575602 51.91295535 0.18801616 48.31911057 1.515625 44.42578125 C3.19255813 38.91520811 3.4976462 33.79593695 3.4375 28.0625 C3.43427734 27.09900635 3.43105469 26.1355127 3.42773438 25.14282227 C3.30644817 18.9650677 2.60908262 13.75064581 -0.125 8.12109375 C-1.16486946 5.60033877 -1.22172713 3.70229935 -1 1 C-0.67 0.67 -0.34 0.34 0 0 Z " fill="#C3CDF7" transform="translate(457,193)"/>
<path d="M0 0 C1.65 0 3.3 0 5 0 C12.3232461 13.67005939 12.60638964 26.17630443 8.16796875 41.0390625 C7.07646001 43.80616492 5.91681349 45.74815607 4 48 C2.68 47.67 1.36 47.34 0 47 C0.42199264 43.03326915 1.05661564 39.75617862 2.5625 36.0625 C5.42851087 27.77660719 5.39830031 17.39102173 2 9.3125 C1.62875 8.58675781 1.2575 7.86101562 0.875 7.11328125 C-0.15822463 4.61785927 -0.14992326 2.6751932 0 0 Z " fill="#C4CEF9" transform="translate(443,198)"/>
<path d="M0 0 C14.19 0 28.38 0 43 0 C43 1.65 43 3.3 43 5 C40.85818355 7.14181645 35.97422074 6.16423544 33.00390625 6.16796875 C31.64808693 6.17296135 31.64808693 6.17296135 30.26487732 6.17805481 C28.34903473 6.18312796 26.43318328 6.18546302 24.51733398 6.18530273 C21.57846582 6.18748813 18.63997348 6.20563665 15.70117188 6.22460938 C13.84375129 6.22754337 11.98632891 6.22952813 10.12890625 6.23046875 C9.24554092 6.23765427 8.3621756 6.24483978 7.45204163 6.25224304 C1.22882139 6.22882139 1.22882139 6.22882139 -1 4 C-0.67 2.68 -0.34 1.36 0 0 Z " fill="#C0CAF4" transform="translate(424,374)"/>
<path d="M0 0 C14.19 0 28.38 0 43 0 C43 1.65 43 3.3 43 5 C40.85818355 7.14181645 35.97422074 6.16423544 33.00390625 6.16796875 C31.64808693 6.17296135 31.64808693 6.17296135 30.26487732 6.17805481 C28.34903473 6.18312796 26.43318328 6.18546302 24.51733398 6.18530273 C21.57846582 6.18748813 18.63997348 6.20563665 15.70117188 6.22460938 C13.84375129 6.22754337 11.98632891 6.22952813 10.12890625 6.23046875 C9.24554092 6.23765427 8.3621756 6.24483978 7.45204163 6.25224304 C1.22882139 6.22882139 1.22882139 6.22882139 -1 4 C-0.67 2.68 -0.34 1.36 0 0 Z " fill="#C0CAF4" transform="translate(366,374)"/>
<path d="M0 0 C2.25 0 2.25 0 5 1 C10.26301293 8.72139397 11.37329573 17.88935513 10 27 C8.42617899 31.29474187 6.42328723 35.12706773 4 39 C2.35 38.67 0.7 38.34 -1 38 C-0.50653034 34.84179417 0.26655354 32.39225792 1.5625 29.4375 C3.8105324 23.55032605 4.40860633 16.56260017 2.0625 10.62890625 C1.34061216 9.30293865 0.59618782 7.98885602 -0.17578125 6.69140625 C-1 5 -1 5 -0.75 2 C-0.5025 1.34 -0.255 0.68 0 0 Z " fill="#C5CEF9" transform="translate(431,202)"/>
<path d="M0 0 C2.7563971 0 4.43935557 0.46056914 6.4453125 2.390625 C10.23909653 7.55017128 10.78730381 12.48468378 10.57421875 18.7890625 C9.68262047 23.77473449 7.27684786 27.22577345 4 31 C2.35 30.67 0.7 30.34 -1 30 C-0.60794499 27.1772039 -0.32522603 25.39312116 1.515625 23.16796875 C4.21241944 19.22922951 3.65596593 14.58492853 3 10 C1.0554473 7.17134072 1.0554473 7.17134072 -1 5 C-0.75 2.1875 -0.75 2.1875 0 0 Z " fill="#C3CCF7" transform="translate(418,206)"/>
<path d="M0 0 C3.53571429 0.53571429 3.53571429 0.53571429 5 2 C5.12663091 4.82416382 5.18520548 7.61294793 5.1875 10.4375 C5.19974609 11.22705078 5.21199219 12.01660156 5.22460938 12.83007812 C5.22987279 14.88807435 5.12206285 16.94562009 5 19 C4.34 19.66 3.68 20.32 3 21 C-0.53571429 20.46428571 -0.53571429 20.46428571 -2 19 C-2.12663091 16.17583618 -2.18520548 13.38705207 -2.1875 10.5625 C-2.19974609 9.77294922 -2.21199219 8.98339844 -2.22460938 8.16992188 C-2.22987279 6.11192565 -2.12206285 4.05437991 -2 2 C-1.34 1.34 -0.68 0.68 0 0 Z " fill="#585B80" transform="translate(346,302)"/>
<path d="M0 0 C3.53571429 0.53571429 3.53571429 0.53571429 5 2 C5.12663091 4.82416382 5.18520548 7.61294793 5.1875 10.4375 C5.19974609 11.22705078 5.21199219 12.01660156 5.22460938 12.83007812 C5.22987279 14.88807435 5.12206285 16.94562009 5 19 C4.34 19.66 3.68 20.32 3 21 C-0.53571429 20.46428571 -0.53571429 20.46428571 -2 19 C-2.12663091 16.17583618 -2.18520548 13.38705207 -2.1875 10.5625 C-2.19974609 9.77294922 -2.21199219 8.98339844 -2.22460938 8.16992188 C-2.22987279 6.11192565 -2.12206285 4.05437991 -2 2 C-1.34 1.34 -0.68 0.68 0 0 Z " fill="#585B81" transform="translate(456,302)"/>
<path d="M0 0 C3.53571429 0.53571429 3.53571429 0.53571429 5 2 C5.12663091 4.82416382 5.18520548 7.61294793 5.1875 10.4375 C5.19974609 11.22705078 5.21199219 12.01660156 5.22460938 12.83007812 C5.22987279 14.88807435 5.12206285 16.94562009 5 19 C4.34 19.66 3.68 20.32 3 21 C-0.53571429 20.46428571 -0.53571429 20.46428571 -2 19 C-2.12663091 16.17583618 -2.18520548 13.38705207 -2.1875 10.5625 C-2.19974609 9.77294922 -2.21199219 8.98339844 -2.22460938 8.16992188 C-2.22987279 6.11192565 -2.12206285 4.05437991 -2 2 C-1.34 1.34 -0.68 0.68 0 0 Z " fill="#575A80" transform="translate(432,302)"/>
<path d="M0 0 C3.53571429 0.53571429 3.53571429 0.53571429 5 2 C5.12663091 4.82416382 5.18520548 7.61294793 5.1875 10.4375 C5.19974609 11.22705078 5.21199219 12.01660156 5.22460938 12.83007812 C5.22987279 14.88807435 5.12206285 16.94562009 5 19 C4.34 19.66 3.68 20.32 3 21 C-0.53571429 20.46428571 -0.53571429 20.46428571 -2 19 C-2.12663091 16.17583618 -2.18520548 13.38705207 -2.1875 10.5625 C-2.19974609 9.77294922 -2.21199219 8.98339844 -2.22460938 8.16992188 C-2.22987279 6.11192565 -2.12206285 4.05437991 -2 2 C-1.34 1.34 -0.68 0.68 0 0 Z " fill="#4C4F71" transform="translate(322,302)"/>
<path d="M0 0 C3.53571429 0.53571429 3.53571429 0.53571429 5 2 C5.12663091 4.82416382 5.18520548 7.61294793 5.1875 10.4375 C5.19974609 11.22705078 5.21199219 12.01660156 5.22460938 12.83007812 C5.22987279 14.88807435 5.12206285 16.94562009 5 19 C4.34 19.66 3.68 20.32 3 21 C-0.53571429 20.46428571 -0.53571429 20.46428571 -2 19 C-2.12663091 16.17583618 -2.18520548 13.38705207 -2.1875 10.5625 C-2.19974609 9.77294922 -2.21199219 8.98339844 -2.22460938 8.16992188 C-2.22987279 6.11192565 -2.12206285 4.05437991 -2 2 C-1.34 1.34 -0.68 0.68 0 0 Z " fill="#4A4E6F" transform="translate(273,302)"/>
<path d="M0 0 C3.53571429 0.53571429 3.53571429 0.53571429 5 2 C5.12663091 4.82416382 5.18520548 7.61294793 5.1875 10.4375 C5.19974609 11.22705078 5.21199219 12.01660156 5.22460938 12.83007812 C5.22987279 14.88807435 5.12206285 16.94562009 5 19 C4.34 19.66 3.68 20.32 3 21 C-0.53571429 20.46428571 -0.53571429 20.46428571 -2 19 C-2.12663091 16.17583618 -2.18520548 13.38705207 -2.1875 10.5625 C-2.19974609 9.77294922 -2.21199219 8.98339844 -2.22460938 8.16992188 C-2.22987279 6.11192565 -2.12206285 4.05437991 -2 2 C-1.34 1.34 -0.68 0.68 0 0 Z " fill="#595B80" transform="translate(236,302)"/>
<path d="M0 0 C3.53571429 0.53571429 3.53571429 0.53571429 5 2 C5.12663091 4.82416382 5.18520548 7.61294793 5.1875 10.4375 C5.19974609 11.22705078 5.21199219 12.01660156 5.22460938 12.83007812 C5.22987279 14.88807435 5.12206285 16.94562009 5 19 C4.34 19.66 3.68 20.32 3 21 C-0.53571429 20.46428571 -0.53571429 20.46428571 -2 19 C-2.12663091 16.17583618 -2.18520548 13.38705207 -2.1875 10.5625 C-2.19974609 9.77294922 -2.21199219 8.98339844 -2.22460938 8.16992188 C-2.22987279 6.11192565 -2.12206285 4.05437991 -2 2 C-1.34 1.34 -0.68 0.68 0 0 Z " fill="#5B5D82" transform="translate(187,302)"/>
<path d="M0 0 C3.53571429 0.53571429 3.53571429 0.53571429 5 2 C5.12663091 4.82416382 5.18520548 7.61294793 5.1875 10.4375 C5.19974609 11.22705078 5.21199219 12.01660156 5.22460938 12.83007812 C5.22987279 14.88807435 5.12206285 16.94562009 5 19 C4.34 19.66 3.68 20.32 3 21 C-0.53571429 20.46428571 -0.53571429 20.46428571 -2 19 C-2.12663091 16.17583618 -2.18520548 13.38705207 -2.1875 10.5625 C-2.19974609 9.77294922 -2.21199219 8.98339844 -2.22460938 8.16992188 C-2.22987279 6.11192565 -2.12206285 4.05437991 -2 2 C-1.34 1.34 -0.68 0.68 0 0 Z " fill="#595B80" transform="translate(163,302)"/>
<path d="M0 0 C3.53571429 0.53571429 3.53571429 0.53571429 5 2 C5.12663091 4.82416382 5.18520548 7.61294793 5.1875 10.4375 C5.19974609 11.22705078 5.21199219 12.01660156 5.22460938 12.83007812 C5.22987279 14.88807435 5.12206285 16.94562009 5 19 C4.34 19.66 3.68 20.32 3 21 C-0.53571429 20.46428571 -0.53571429 20.46428571 -2 19 C-2.12663091 16.17583618 -2.18520548 13.38705207 -2.1875 10.5625 C-2.19974609 9.77294922 -2.21199219 8.98339844 -2.22460938 8.16992188 C-2.22987279 6.11192565 -2.12206285 4.05437991 -2 2 C-1.34 1.34 -0.68 0.68 0 0 Z " fill="#595B80" transform="translate(77,302)"/>
<path d="M0 0 C3.53571429 0.53571429 3.53571429 0.53571429 5 2 C5.12663091 4.82416382 5.18520548 7.61294793 5.1875 10.4375 C5.19974609 11.22705078 5.21199219 12.01660156 5.22460938 12.83007812 C5.22987279 14.88807435 5.12206285 16.94562009 5 19 C4.34 19.66 3.68 20.32 3 21 C-0.53571429 20.46428571 -0.53571429 20.46428571 -2 19 C-2.12663091 16.17583618 -2.18520548 13.38705207 -2.1875 10.5625 C-2.19974609 9.77294922 -2.21199219 8.98339844 -2.22460938 8.16992188 C-2.22987279 6.11192565 -2.12206285 4.05437991 -2 2 C-1.34 1.34 -0.68 0.68 0 0 Z " fill="#5B5D82" transform="translate(53,302)"/>
<path d="M0 0 C18.15 0 36.3 0 55 0 C55 0.33 55 0.66 55 1 C46.42 1 37.84 1 29 1 C29 6.94 29 12.88 29 19 C31.64 19 34.28 19 37 19 C37 19.33 37 19.66 37 20 C30.55929529 20.10655578 24.37358711 19.96205088 18 19 C18 18.67 18 18.34 18 18 C20.64 18 23.28 18 26 18 C26 12.39 26 6.78 26 1 C17.42 1 8.84 1 0 1 C0 0.67 0 0.34 0 0 Z " fill="#B47B4E" transform="translate(55,192)"/>
<path d="M0 0 C1.65 0.33 3.3 0.66 5 1 C5 7.27 5 13.54 5 20 C3.35 20.33 1.7 20.66 0 21 C-1.55606751 19.44393249 -1.12970769 17.94042629 -1.1328125 15.78125 C-1.13410156 14.93175781 -1.13539063 14.08226562 -1.13671875 13.20703125 C-1.13285156 12.31371094 -1.12898438 11.42039062 -1.125 10.5 C-1.12886719 9.60667969 -1.13273437 8.71335937 -1.13671875 7.79296875 C-1.13542969 6.94347656 -1.13414062 6.09398437 -1.1328125 5.21875 C-1.13168457 4.43435547 -1.13055664 3.64996094 -1.12939453 2.84179688 C-1 1 -1 1 0 0 Z " fill="#484B6C" transform="translate(297,302)"/>
<path d="M0 0 C1.65 0.33 3.3 0.66 5 1 C5 7.27 5 13.54 5 20 C3.35 20.33 1.7 20.66 0 21 C-1.55606751 19.44393249 -1.12970769 17.94042629 -1.1328125 15.78125 C-1.13410156 14.93175781 -1.13539063 14.08226562 -1.13671875 13.20703125 C-1.13285156 12.31371094 -1.12898437 11.42039062 -1.125 10.5 C-1.12886719 9.60667969 -1.13273438 8.71335937 -1.13671875 7.79296875 C-1.13542969 6.94347656 -1.13414062 6.09398437 -1.1328125 5.21875 C-1.13168457 4.43435547 -1.13055664 3.64996094 -1.12939453 2.84179688 C-1 1 -1 1 0 0 Z " fill="#56587E" transform="translate(211,302)"/>
<path d="M0 0 C1.32 0.33 2.64 0.66 4 1 C4 7.27 4 13.54 4 20 C2.68 20.33 1.36 20.66 0 21 C-2.62723824 18.37276176 -2.26115971 16.45788327 -2.2734375 12.87890625 C-2.26570313 12.09386719 -2.25796875 11.30882812 -2.25 10.5 C-2.25773437 9.71496094 -2.26546875 8.92992187 -2.2734375 8.12109375 C-2.25330787 2.25330787 -2.25330787 2.25330787 0 0 Z " fill="#53557B" transform="translate(408,302)"/>
<path d="M0 0 C1.32 0.33 2.64 0.66 4 1 C4 7.27 4 13.54 4 20 C2.68 20.33 1.36 20.66 0 21 C-2.62723824 18.37276176 -2.26115971 16.45788327 -2.2734375 12.87890625 C-2.26570313 12.09386719 -2.25796875 11.30882812 -2.25 10.5 C-2.25773437 9.71496094 -2.26546875 8.92992187 -2.2734375 8.12109375 C-2.25330787 2.25330787 -2.25330787 2.25330787 0 0 Z " fill="#54567B" transform="translate(126,302)"/>
<path d="M0 0 C3.356022 -0.03563039 6.70684984 0.0067583 10.0625 0.0625 C11.00544922 0.05154297 11.94839844 0.04058594 12.91992188 0.02929688 C19.94800987 0.20071366 19.94800987 0.20071366 23.08959961 2.58764648 C24.90625 4.5 24.90625 4.5 26.41992188 6.41015625 C29.20981721 9.21729445 32.18290597 8.93303344 36 9 C36 9.33 36 9.66 36 10 C33.36 10 30.72 10 28 10 C28 16.27 28 22.54 28 29 C27.67 29 27.34 29 27 29 C26.67 26.36 26.34 23.72 26 21 C17.75 20.67 9.5 20.34 1 20 C1 19.67 1 19.34 1 19 C9.58 19 18.16 19 27 19 C26.57539556 10.65509723 26.57539556 10.65509723 21.95214844 5.07714844 C18.07648052 2.93864833 13.95670501 3.11264136 9.625 3.125 C8.69816406 3.104375 7.77132812 3.08375 6.81640625 3.0625 C4.54336586 3.01563319 2.27342215 2.99553606 0 3 C0 2.01 0 1.02 0 0 Z " fill="#B8653D" transform="translate(45,202)"/>
<path d="M0 0 C1.65 0 3.3 0 5 0 C6.8855253 1.8855253 6.13246689 4.57768831 6.13671875 7.08203125 C6.13285156 7.87996094 6.12898438 8.67789062 6.125 9.5 C6.12886719 10.29792969 6.13273437 11.09585937 6.13671875 11.91796875 C6.12660767 17.87339233 6.12660767 17.87339233 5 19 C3.35 19 1.7 19 0 19 C0 12.73 0 6.46 0 0 Z " fill="#505278" transform="translate(382,303)"/>
<path d="M0 0 C1.65 0 3.3 0 5 0 C6.8855253 1.8855253 6.13246689 4.57768831 6.13671875 7.08203125 C6.13285156 7.87996094 6.12898438 8.67789062 6.125 9.5 C6.12886719 10.29792969 6.13273437 11.09585937 6.13671875 11.91796875 C6.12660767 17.87339233 6.12660767 17.87339233 5 19 C3.35 19 1.7 19 0 19 C0 12.73 0 6.46 0 0 Z " fill="#505278" transform="translate(100,303)"/>
<path d="M0 0 C1.65 0.33 3.3 0.66 5 1 C5 5.95 5 10.9 5 16 C3.35 16.33 1.7 16.66 0 17 C-1.75559942 15.24440058 -1.13221919 12.96417558 -1.13671875 10.62890625 C-1.13285156 9.92636719 -1.12898438 9.22382813 -1.125 8.5 C-1.12886719 7.79746094 -1.13273437 7.09492188 -1.13671875 6.37109375 C-1.12661378 1.12661378 -1.12661378 1.12661378 0 0 Z " fill="#DCE0F6" transform="translate(95,133)"/>
<path d="M0 0 C1.65 0.33 3.3 0.66 5 1 C5 5.95 5 10.9 5 16 C3.35 16.33 1.7 16.66 0 17 C-1.75559942 15.24440058 -1.13221919 12.96417558 -1.13671875 10.62890625 C-1.13285156 9.92636719 -1.12898438 9.22382813 -1.125 8.5 C-1.12886719 7.79746094 -1.13273437 7.09492188 -1.13671875 6.37109375 C-1.12661378 1.12661378 -1.12661378 1.12661378 0 0 Z " fill="#E3E7FC" transform="translate(79,133)"/>
<path d="M0 0 C1.65 0 3.3 0 5 0 C6 1 6 1 6.1328125 4.08984375 C6.12894531 5.99443359 6.12894531 5.99443359 6.125 7.9375 C6.12757812 9.20464844 6.13015625 10.47179687 6.1328125 11.77734375 C6 15 6 15 5 17 C3.35 16.67 1.7 16.34 0 16 C0 10.72 0 5.44 0 0 Z " fill="#DBDEF5" transform="translate(62,133)"/>
<path d="M0 0 C1.65 0.33 3.3 0.66 5 1 C5 5.95 5 10.9 5 16 C3.35 16.33 1.7 16.66 0 17 C-1.75559942 15.24440058 -1.13221919 12.96417558 -1.13671875 10.62890625 C-1.13285156 9.92636719 -1.12898438 9.22382813 -1.125 8.5 C-1.12886719 7.79746094 -1.13273437 7.09492188 -1.13671875 6.37109375 C-1.12661378 1.12661378 -1.12661378 1.12661378 0 0 Z " fill="#DDE1F6" transform="translate(46,133)"/>
<path d="M0 0 C0.99 0 1.98 0 3 0 C3 2.64 3 5.28 3 8 C1.35 8.66 -0.3 9.32 -2 10 C-2.1953125 3.9453125 -2.1953125 3.9453125 -2 2 C-1.34 1.34 -0.68 0.68 0 0 Z " fill="#424566" transform="translate(347,303)"/>
</svg>
