<svg width="24" height="25" viewBox="0 0 24 25" fill="none" xmlns="http://www.w3.org/2000/svg">
<g clip-path="url(#clip0_2465_12643)">
<path d="M19.9932 12.3407C19.9932 11.6699 19.9387 11.1803 19.8209 10.6726H12.1602V13.7006H16.6568C16.5662 14.4531 16.0767 15.5864 14.9887 16.3479L14.9735 16.4492L17.3957 18.3257L17.5635 18.3424C19.1047 16.919 19.9932 14.8248 19.9932 12.3407Z" fill="#4285F4"/>
<path d="M12.1602 20.3187C14.3632 20.3187 16.2126 19.5934 17.5635 18.3423L14.9887 16.3478C14.2997 16.8283 13.375 17.1637 12.1602 17.1637C10.0025 17.1637 8.17116 15.7404 7.51834 13.7731L7.42266 13.7812L4.90403 15.7304L4.87109 15.8219C6.21284 18.4873 8.96891 20.3187 12.1602 20.3187Z" fill="#34A853"/>
<path d="M7.51756 13.7732C7.34531 13.2655 7.24562 12.7215 7.24562 12.1594C7.24562 11.5973 7.34531 11.0533 7.5085 10.5457L7.50394 10.4375L4.95375 8.45703L4.87031 8.49672C4.31731 9.60278 4 10.8448 4 12.1594C4 13.474 4.31731 14.716 4.87031 15.822L7.51756 13.7732Z" fill="#FBBC05"/>
<path d="M12.1602 7.15494C13.6923 7.15494 14.7258 7.81675 15.3151 8.36981L17.6178 6.12144C16.2036 4.80687 14.3632 4 12.1602 4C8.96891 4 6.21284 5.83131 4.87109 8.49669L7.50928 10.5456C8.17116 8.57831 10.0025 7.15494 12.1602 7.15494Z" fill="#EB4335"/>
</g>
<defs>
<clipPath id="clip0_2465_12643">
<rect width="16" height="16.375" fill="white" transform="translate(4 4)"/>
</clipPath>
</defs>
</svg>
