<?xml version="1.0" encoding="UTF-8"?>
<svg version="1.1" xmlns="http://www.w3.org/2000/svg" width="512" height="512">
<path d="M0 0 C9.29088653 8.05603096 18.40128146 16.43444812 25.04296875 26.859375 C26.19328586 28.82771246 26.19328586 28.82771246 28.3125 29.6875 C28.55613281 28.96175781 28.79976563 28.23601562 29.05078125 27.48828125 C30.46764759 24.34310117 32.14365811 22.38545719 34.5 19.875 C37.31566164 16.8489471 40.05562679 13.81128718 42.6875 10.625 C63.89193638 -13.59474614 99.61150334 -29.15014982 131.3125 -31.3125 C169.35125126 -32.94113452 205.13756014 -23.60408609 234.3125 1.6875 C235.53839844 2.73164062 235.53839844 2.73164062 236.7890625 3.796875 C257.51986413 21.89621265 271.92812218 45.23582743 279.3125 71.6875 C279.52277832 72.38456055 279.73305664 73.08162109 279.94970703 73.79980469 C295.88074743 128.01327391 274.23683115 192.4699647 248.60742188 239.83886719 C237.88398781 259.18298373 225.55329011 276.79726057 211.3125 293.6875 C210.47404541 294.68257568 210.47404541 294.68257568 209.61865234 295.69775391 C203.82714144 302.5401505 198.00274642 309.27230554 191.5078125 315.46484375 C189.59153344 317.40499105 187.83150907 319.39174119 186.05859375 321.4609375 C182.36629693 325.71367223 178.38130978 329.55337145 174.25 333.375 C173.51120605 334.06343994 172.77241211 334.75187988 172.01123047 335.46118164 C170.50324834 336.8656621 168.9938208 338.26859233 167.48291016 339.66992188 C165.47409399 341.53728485 163.47529367 343.4145894 161.48046875 345.296875 C155.51244295 350.91379276 149.47342262 356.33267636 143.0703125 361.45703125 C140.58502847 363.46708391 138.15415496 365.52920982 135.73364258 367.61645508 C127.88203544 374.36938537 119.6827544 380.59379779 111.3125 386.6875 C110.2913208 387.43217529 110.2913208 387.43217529 109.24951172 388.19189453 C98.23817155 396.1842901 86.92256128 403.59690373 75.3125 410.6875 C74.71451599 411.0537146 74.11653198 411.4199292 73.50042725 411.79724121 C69.36303742 414.32967966 65.21609734 416.84560819 61.05935669 419.34616089 C59.66550243 420.18623428 58.27356828 421.02950339 56.88375854 421.87625122 C33.02307467 436.38969659 33.02307467 436.38969659 22.3125 434.6875 C18.95303731 433.43169555 15.88016817 431.80525839 12.75 430.0625 C11.84088867 429.56959473 10.93177734 429.07668945 9.99511719 428.56884766 C-25.97823626 408.82467536 -59.87317976 384.8452275 -91.00488281 358.12744141 C-92.78652168 356.60275974 -94.5762341 355.08794495 -96.3671875 353.57421875 C-107.1586304 344.42859149 -107.1586304 344.42859149 -112.00561523 339.3684082 C-113.70960202 337.66541081 -115.48292515 336.10903591 -117.31640625 334.546875 C-121.9958266 330.47755765 -126.37763828 326.14461293 -130.75 321.75 C-131.8956543 320.61014648 -131.8956543 320.61014648 -133.06445312 319.44726562 C-137.26586432 315.23866639 -141.3000321 310.94339814 -145.17944336 306.4362793 C-147.05064451 304.26638876 -148.99352353 302.16719893 -150.9375 300.0625 C-156.03327707 294.4130222 -160.68999548 288.45898039 -165.33203125 282.43701172 C-166.60547093 280.79337542 -167.89339608 279.16254329 -169.1875 277.53515625 C-180.29008938 263.42561557 -189.86957925 248.31107506 -198.6875 232.6875 C-199.06471191 232.03023926 -199.44192383 231.37297852 -199.83056641 230.69580078 C-216.28287711 201.87751402 -228.71718934 166.85382397 -228.890625 133.3515625 C-228.89632507 132.47333832 -228.90202515 131.59511414 -228.90789795 130.6902771 C-228.91729788 128.83633609 -228.92386187 126.98237876 -228.92773438 125.12841797 C-228.93735321 122.35482781 -228.96838851 119.58200786 -229 116.80859375 C-229.09143541 101.55250167 -227.36701449 87.00020146 -223.0625 72.3125 C-222.81016602 71.44729736 -222.55783203 70.58209473 -222.29785156 69.69067383 C-212.01872003 35.96571106 -190.00953317 5.96431448 -159.6875 -12.3125 C-159.06520508 -12.68842285 -158.44291016 -13.0643457 -157.80175781 -13.45166016 C-109.06199199 -42.30837053 -43.25879525 -36.31667308 0 0 Z M-167.0625 33.71875 C-178.11990229 46.22414545 -186.12487393 60.35538141 -191.5 76.125 C-191.77803467 76.93396729 -192.05606934 77.74293457 -192.3425293 78.57641602 C-196.6026897 91.76151521 -198.25629182 104.7932021 -198.125 118.625 C-198.12129395 119.33471954 -198.11758789 120.04443909 -198.11376953 120.77566528 C-197.73707809 171.95932811 -174.99361583 220.93548962 -143.6875 260.6875 C-142.97078125 261.59757812 -142.2540625 262.50765625 -141.515625 263.4453125 C-136.69113108 269.4502677 -131.59935447 275.15739032 -126.359375 280.796875 C-124.01403906 283.33422674 -121.72110414 285.90733665 -119.4375 288.5 C-111.38517659 297.46637093 -102.84217613 306.24680699 -93.62890625 314.02734375 C-91.15305003 316.14452462 -88.77088732 318.35531829 -86.375 320.5625 C-81.89087072 324.65187787 -77.28482762 328.53369021 -72.5625 332.34375 C-69.99396808 334.43766189 -67.46718393 336.56920686 -64.95019531 338.72412109 C-58.63545911 344.1257246 -52.18125587 349.30916611 -45.53515625 354.29931641 C-44.25403471 355.26185038 -42.97556504 356.22792018 -41.69921875 357.19677734 C-22.2506571 371.94106028 -1.95828831 385.70463509 19.3125 397.6875 C19.90353516 398.08743164 20.49457031 398.48736328 21.10351562 398.89941406 C24.03551133 400.82043202 25.67390773 401.78773911 29.19921875 401.234375 C62.20761161 384.83371807 93.0781159 362.2211836 121.3125 338.6875 C121.89225586 338.20684082 122.47201172 337.72618164 123.06933594 337.23095703 C130.04820805 331.43789328 136.83030773 325.46791436 143.48046875 319.30078125 C146.06363869 316.91713892 148.68069248 314.57959039 151.3125 312.25 C159.18342844 305.17757154 166.76305214 297.72064592 173.62109375 289.65625 C175.55117842 287.40968493 177.55668139 285.24166096 179.5625 283.0625 C185.14830356 276.86131131 190.25486555 270.32069409 195.3125 263.6875 C195.76383301 263.09839844 196.21516602 262.50929688 196.68017578 261.90234375 C231.3180185 216.46747979 259.38629569 156.84843184 252.36914062 98.36767578 C249.31498721 76.16517817 240.94064991 54.82154283 226.3125 37.6875 C225.33216797 36.49060547 225.33216797 36.49060547 224.33203125 35.26953125 C210.23182977 18.70372076 191.1005637 8.31222975 170.3125 2.6875 C169.33144287 2.42066406 169.33144287 2.42066406 168.33056641 2.1484375 C142.31783569 -4.57312942 113.64669095 -0.20408352 90.3059082 12.83276367 C67.92680532 26.06488709 53.04782982 45.26330188 41.84936523 68.37915039 C39.63402531 72.80294032 38.0852568 75.69626867 33.3125 77.6875 C27.45293179 79.26507606 22.56210796 78.67589163 17.3125 75.6875 C15.00002421 73.34281702 13.73261016 70.63893377 12.3125 67.6875 C11.04737248 65.08052671 9.77630804 62.47651793 8.5 59.875 C8.15759277 59.17656982 7.81518555 58.47813965 7.46240234 57.75854492 C-5.58505332 31.64236387 -29.24101281 14.17720422 -56.12890625 4.44140625 C-96.26056717 -8.7426412 -138.15533469 3.8031952 -167.0625 33.71875 Z " fill="#000000" transform="translate(228.6875,54.3125)"/>
</svg>
