<?xml version="1.0" encoding="UTF-8"?>
<svg version="1.1" xmlns="http://www.w3.org/2000/svg" width="512" height="512">
<path d="M0 0 C0.69319336 0.16097168 1.38638672 0.32194336 2.10058594 0.48779297 C32.78772415 7.87911895 60.25808866 26.98394361 78.25976562 52.83642578 C82.71850765 59.52961884 82.71850765 59.52961884 89.24609375 63.84765625 C89.96925781 63.91855469 90.69242188 63.98945312 91.4375 64.0625 C92.15808594 64.15660156 92.87867188 64.25070313 93.62109375 64.34765625 C98.63695667 63.61463195 101.85817614 60.41541503 104.82421875 56.53125 C105.78599831 55.19275263 106.74012552 53.84873152 107.6875 52.5 C128.58623781 23.81424611 157.5255225 4.41281662 192.80541992 -1.40844727 C229.51454888 -6.91298731 266.99461169 1.52360053 297.1628418 23.46508789 C322.96606347 42.88970596 340.1432215 69.46613459 347 101 C347.18546387 101.84328857 347.37092773 102.68657715 347.56201172 103.55541992 C349.36591316 112.86055827 349.39752411 122.12046341 349.375 131.5625 C349.37418427 132.84932175 349.37418427 132.84932175 349.37335205 134.16213989 C349.32909911 149.41187948 348.12791239 164.03635477 345 179 C344.68651611 180.514729 344.68651611 180.514729 344.36669922 182.06005859 C334.67194306 227.35308792 312.7422785 269.87392926 284 306 C283.51466797 306.61246582 283.02933594 307.22493164 282.52929688 307.85595703 C276.38971371 315.58265602 270.14044345 323.14948831 263.4140625 330.375 C262.12613888 331.77546064 260.84434268 333.18261641 259.61010742 334.63061523 C254.31705554 340.83847547 248.57822674 346.57333195 242.80297852 352.32739258 C241.066064 354.058947 239.33456111 355.79578359 237.60351562 357.53320312 C231.90512533 363.2353724 226.16986539 368.80326643 220 374 C218.90517218 374.94927918 217.81139202 375.89976822 216.71875 376.8515625 C185.30160441 403.98521189 151.60476623 427.90803641 115.625 448.625 C114.76310059 449.12225586 113.90120117 449.61951172 113.01318359 450.13183594 C100.17493876 457.43395191 100.17493876 457.43395191 93.5625 457.375 C92.69753906 457.38273437 91.83257812 457.39046875 90.94140625 457.3984375 C81.8822437 456.17129994 74.4335877 450.88912192 66.8125 446.1875 C65.5627579 445.42225944 64.31300187 444.65704162 63.06323242 443.8918457 C52.18675941 437.20760167 41.51752941 430.23646705 31 423 C30.27345215 422.50226074 29.5469043 422.00452148 28.79833984 421.49169922 C2.0444071 403.10181971 -23.55783476 382.72453071 -47.30419922 360.578125 C-49.20852281 358.8059471 -51.12222856 357.04413536 -53.03515625 355.28125 C-61.90708117 347.06340656 -70.38431578 338.60185935 -78.50878906 329.64404297 C-79.86082494 328.15343891 -81.2228243 326.6718872 -82.5859375 325.19140625 C-87.64879407 319.65336689 -92.3887616 313.91761176 -97 308 C-98.13888672 306.55367188 -98.13888672 306.55367188 -99.30078125 305.078125 C-109.78088802 291.63951919 -119.58815009 277.83239164 -128 263 C-128.46937988 262.17870605 -128.93875977 261.35741211 -129.42236328 260.51123047 C-150.26622533 223.85524549 -163.48454459 183.88311627 -163.375 141.4375 C-163.37412384 140.60372833 -163.37324768 139.76995667 -163.37234497 138.91091919 C-163.32630527 125.59270144 -162.55994707 112.9022359 -159 100 C-158.76925781 99.14277344 -158.53851563 98.28554687 -158.30078125 97.40234375 C-148.30583332 61.49456786 -125.49989457 30.5160515 -93 12 C-64.96407609 -3.49169499 -31.07082882 -7.3828043 0 0 Z " fill="#000000" transform="translate(163,29)"/>
</svg>
