<?xml version="1.0" encoding="UTF-8"?>
<svg version="1.1" xmlns="http://www.w3.org/2000/svg" width="512" height="512">
<path d="M0 0 C1.0509082 -0.04350586 1.0509082 -0.04350586 2.12304688 -0.08789062 C13.67831877 -0.22358939 23.33797644 5.94498584 33 11.625 C34.22916274 12.33865767 35.45882822 13.05145007 36.68896484 13.76342773 C39.21177697 15.22518848 41.73178989 16.69159906 44.24951172 18.16210938 C48.77579577 20.80435265 53.3185633 23.41777704 57.86108398 26.03198242 C61.07842438 27.88416748 64.29347663 29.74026253 67.5078125 31.59765625 C73.98260022 35.33901656 80.45986343 39.07607483 86.9375 42.8125 C89.1041775 44.06248122 91.27084417 45.31248121 93.4375 46.5625 C95.04625 47.490625 95.04625 47.490625 96.6875 48.4375 C106.4375 54.0625 106.4375 54.0625 109.68701172 55.93725586 C111.85526264 57.1881448 114.02355697 58.43895852 116.19189453 59.68969727 C121.58467915 62.80048335 126.97672093 65.91254238 132.3671875 69.02734375 C134.51561406 70.26824811 136.66405156 71.50913352 138.8125 72.75 C139.86969238 73.36109619 140.92688477 73.97219238 142.01611328 74.60180664 C147.78947388 77.93480442 153.57428632 81.24618495 159.375 84.53125 C160.62910806 85.2428511 161.88317731 85.95452061 163.13720703 86.66625977 C165.50527618 88.01023489 167.87630959 89.34840234 170.24951172 90.68334961 C198.41233294 106.66197494 198.41233294 106.66197494 203.3125 122.0625 C204.10190659 126.16741429 204.36457129 130.13819955 204.4375 134.3125 C204.45619141 135.03566406 204.47488281 135.75882813 204.49414062 136.50390625 C204.3684417 147.31401369 199.08297025 156.35748393 193.625 165.375 C192.36641452 167.49303045 191.10862931 169.6115366 189.8515625 171.73046875 C189.20477539 172.81505371 188.55798828 173.89963867 187.89160156 175.01708984 C184.71210063 180.37902183 181.60716388 185.78343502 178.5 191.1875 C177.2423075 193.36986082 175.9844944 195.55215215 174.7265625 197.734375 C173.46346731 199.9270405 172.20044656 202.11974889 170.9375 204.3125 C163.06087411 217.98804314 155.16629908 231.65210958 147.20458984 245.27832031 C141.03830946 255.83870282 134.9325405 266.43376766 128.82861328 277.03027344 C125.70069852 282.45909942 122.56891552 287.88569281 119.4375 293.3125 C118.18748121 295.47915583 116.93748122 297.6458225 115.6875 299.8125 C103.1875 321.47916667 90.6875 343.14583333 78.1875 364.8125 C77.56866943 365.88516113 76.94983887 366.95782227 76.31225586 368.06298828 C75.06314482 370.22807071 73.81395871 372.39310982 72.56469727 374.55810547 C69.42547691 379.99865706 66.28759437 385.43997216 63.15234375 390.8828125 C55.29845867 404.51411678 47.4226264 418.13200386 39.4609375 431.70068359 C38.07319976 434.0798532 36.70495388 436.46886798 35.34375 438.86328125 C28.00292661 451.66950164 20.29981357 459.52506214 5.9375 464.3125 C3.08920003 464.48907144 0.28747791 464.58984402 -2.5625 464.625 C-3.3153125 464.65400391 -4.068125 464.68300781 -4.84375 464.71289062 C-16.27103917 464.83835917 -25.57092881 459.19128671 -35.125 453.5 C-36.84116624 452.49373385 -38.55734097 451.48748183 -40.27401733 450.48208618 C-42.04121158 449.44566744 -43.80614691 448.40548317 -45.57080078 447.36474609 C-51.045076 444.14102101 -56.5558982 440.98056164 -62.0625 437.8125 C-64.22933214 436.56278686 -66.39599844 435.31278615 -68.5625 434.0625 C-69.635 433.44375 -70.7075 432.825 -71.8125 432.1875 C-92.39583333 420.3125 -112.97916667 408.4375 -133.5625 396.5625 C-134.63604736 395.94318604 -135.70959473 395.32387207 -136.81567383 394.68579102 C-138.97190213 393.44173208 -141.12799049 392.19743058 -143.28393555 390.95288086 C-148.85915499 387.73493217 -154.43705605 384.5217505 -160.01953125 381.31640625 C-165.46994749 378.18555354 -170.91339303 375.04300515 -176.34912109 371.88671875 C-178.00644974 370.92518779 -179.66526488 369.96620592 -181.32666016 369.01171875 C-193.29292066 362.12142579 -200.85913344 355.36592822 -206.0625 342.3125 C-207.09066784 338.41169352 -207.25838556 334.65201602 -207.3125 330.625 C-207.33828125 329.48675781 -207.3640625 328.34851563 -207.390625 327.17578125 C-206.57455791 317.56756275 -202.52117972 309.92280335 -197.75 301.6875 C-197.13697021 300.61153564 -196.52394043 299.53557129 -195.89233398 298.42700195 C-193.96162911 295.04808388 -192.01473882 291.67901656 -190.0625 288.3125 C-189.43182617 287.22275879 -188.80115234 286.13301758 -188.15136719 285.01025391 C-184.69512922 279.04586197 -181.21864345 273.09365502 -177.72705078 267.14990234 C-174.82899789 262.20986557 -171.94622912 257.26090771 -169.0625 252.3125 C-170.32964844 252.26351562 -171.59679687 252.21453125 -172.90234375 252.1640625 C-174.60158096 252.08895809 -176.30079876 252.01341368 -178 251.9375 C-178.83080078 251.9065625 -179.66160156 251.875625 -180.51757812 251.84375 C-192.53835756 251.28246847 -202.41038826 248.56334017 -210.9375 239.5625 C-218.11273348 230.35931235 -218.64681863 221.03379789 -218.58007812 209.75610352 C-218.58550802 208.20598699 -218.59263552 206.65587564 -218.60131836 205.10577393 C-218.61945326 200.92174633 -218.61252481 196.73811613 -218.59980202 192.55408216 C-218.58962124 188.15900489 -218.59908189 183.76395993 -218.60534668 179.36888123 C-218.61260914 171.98926738 -218.6030731 164.60981404 -218.58398438 157.23022461 C-218.56222637 148.72090612 -218.56926479 140.21197122 -218.59129 131.70266205 C-218.60949373 124.37407817 -218.61197786 117.04560917 -218.60153532 109.71700996 C-218.59532659 105.34995269 -218.59439188 100.98307518 -218.60768127 96.61602974 C-218.6193116 92.50769904 -218.61108443 88.39985845 -218.58810425 84.2915802 C-218.58285487 82.79168444 -218.58426559 81.29174681 -218.59315491 79.79186821 C-218.6594209 67.46613898 -217.05620461 57.40593397 -208.28515625 48.2578125 C-201.85086101 42.62639065 -195.58115046 40.11828653 -187.09500122 40.31578064 C-185.87285416 40.34067566 -184.65070709 40.36557068 -183.39152527 40.39122009 C-182.73429159 40.40696012 -182.07705791 40.42270016 -181.39990807 40.43891716 C-177.78548836 40.52495624 -174.17069859 40.59234406 -170.55593872 40.66233826 C-169.78530256 40.67770783 -169.01466639 40.69307741 -168.22067761 40.70891273 C-157.46820473 40.9180267 -146.71411744 40.99619696 -135.96008492 41.08270931 C-127.20577701 41.15692918 -118.45605904 41.27565714 -109.70410156 41.49536133 C-102.05712094 41.68713778 -94.41436207 41.79289472 -86.764902 41.79898649 C-82.72027374 41.80525433 -78.68626299 41.85292504 -74.64426041 42.00465202 C-57.98541159 43.1810612 -57.98541159 43.1810612 -43.41530609 36.96364212 C-38.9177895 31.19008811 -36.21368781 24.91083759 -33.48449326 18.17389107 C-30.18233701 11.52916167 -24.46797385 6.95010768 -17.8125 3.875 C-16.81734375 3.40191406 -15.8221875 2.92882812 -14.796875 2.44140625 C-9.8314526 0.39139614 -5.35312939 0.07112218 0 0 Z M-196.21875 61.06640625 C-196.6621875 61.66324219 -197.105625 62.26007813 -197.5625 62.875 C-198.0265625 63.47441406 -198.490625 64.07382813 -198.96875 64.69140625 C-201.22618615 68.03724911 -201.19643687 70.32087431 -201.21640015 74.34561157 C-201.22500061 75.63257935 -201.23360107 76.91954712 -201.24246216 78.24551392 C-201.2468976 79.68011434 -201.25119594 81.1147152 -201.25537109 82.54931641 C-201.26327121 84.05385529 -201.2715401 85.55839227 -201.28015137 87.06292725 C-201.30638913 92.01328721 -201.32168398 96.9636557 -201.3359375 101.9140625 C-201.34129707 103.61830018 -201.34667458 105.3225378 -201.35206985 107.02677536 C-201.37370404 114.11770456 -201.39243935 121.20863148 -201.40369225 128.29958534 C-201.41992076 138.45919667 -201.45306545 148.61842486 -201.51009309 158.77789176 C-201.54882501 165.92194707 -201.56832896 173.06590007 -201.57361281 180.21005762 C-201.57726277 184.47608515 -201.58924519 188.74170421 -201.62171555 193.00761795 C-201.65185251 197.02473475 -201.65808831 201.0411972 -201.64633179 205.05840302 C-201.6461115 206.52894661 -201.65437978 207.99952104 -201.67198563 209.46995926 C-201.76316277 217.52690158 -201.8116284 224.1814469 -196.0625 230.3125 C-191.12085628 234.04886477 -186.76466274 234.43785416 -180.69085693 234.41688538 C-178.72313828 234.41422668 -178.72313828 234.41422668 -176.71566772 234.41151428 C-175.2632445 234.4046597 -173.81082141 234.39777704 -172.35839844 234.39086914 C-170.8271394 234.3873521 -169.29587902 234.3843853 -167.76461792 234.38192749 C-164.46562638 234.37625412 -161.16665126 234.36824098 -157.86766815 234.35890388 C-152.63736384 234.34570327 -147.40713303 234.34746508 -142.17681885 234.35313416 C-141.29278877 234.35405424 -140.40875869 234.35497432 -139.49793983 234.35592228 C-136.77466805 234.35889391 -134.05139654 234.36205886 -131.328125 234.36523438 C-120.07017627 234.37800097 -108.81257459 234.38017368 -97.5546875 234.33666992 C-89.34043397 234.30503381 -81.12671044 234.30200031 -72.91244149 234.33142942 C-68.5722032 234.34589602 -64.23302444 234.34641522 -59.89287567 234.31202888 C-55.79815872 234.27986944 -51.70516625 234.28597834 -47.61047745 234.31953049 C-46.12073006 234.32527756 -44.63085271 234.31780194 -43.14126968 234.29493904 C-32.03486189 234.13588917 -24.3349189 236.79865071 -14.80692911 242.30622661 C-12.16927986 243.82775376 -9.47823448 245.24831912 -6.79296875 246.68359375 C-4.94364698 247.7027127 -3.09594112 248.72477037 -1.25 249.75 C0.630266 250.79261195 2.51172117 251.8330831 4.39453125 252.87109375 C5.19866455 253.31767334 6.00279785 253.76425293 6.83129883 254.22436523 C11.10620704 256.43292741 15.19912865 256.95864155 19.9375 256.3125 C24.29694153 254.09165243 27.10580464 251.89173841 28.9375 247.3125 C29.89630761 240.14273819 27.90539858 234.81235289 24.8515625 228.421875 C24.43458099 227.51423401 24.01759949 226.60659302 23.58798218 225.67144775 C22.26199028 222.79414537 20.91296699 219.92838387 19.5625 217.0625 C18.6624729 215.12313275 17.76401963 213.18303428 16.8671875 211.2421875 C15.60402819 208.50933341 14.33869334 205.77776185 13.0609436 203.05169678 C12.68070038 202.24025208 12.30045715 201.42880737 11.90869141 200.59277344 C11.4090538 199.53095856 11.4090538 199.53095856 10.89932251 198.44769287 C10.58192108 197.74307922 10.26451965 197.03846558 9.9375 196.3125 C9.59285076 195.55133975 9.24820152 194.7901795 8.89310837 194.00595379 C7.8864872 191.16871661 7.68706801 189.08053054 7.6859436 186.08204651 C7.67786934 184.53233154 7.67786934 184.53233154 7.66963196 182.9513092 C7.67375595 181.82857101 7.67787994 180.70583282 7.68212891 179.54907227 C7.67669823 177.76289993 7.67669823 177.76289993 7.67115784 175.94064331 C7.66246973 172.68233958 7.66224673 169.4241513 7.6645093 166.16584134 C7.66376018 162.75065637 7.64868763 159.33554431 7.63412476 155.9203949 C7.58715895 144.2942054 7.56315752 132.66802823 7.55664062 121.04174805 C7.55288681 114.61598336 7.53483375 108.19041382 7.50154626 101.76473278 C7.48466543 98.36743371 7.47549944 94.97048955 7.48448563 91.57315254 C7.49154223 87.78357573 7.47430147 83.99482134 7.45166016 80.20532227 C7.45983261 79.08460831 7.46800507 77.96389435 7.47642517 76.80921936 C7.41089922 70.65067767 7.06319419 66.99468221 2.9375 62.3125 C-2.66180549 56.86452709 -8.93945775 56.06397234 -16.52536011 56.05180359 C-17.2436962 56.04797804 -17.9620323 56.04415249 -18.70213616 56.04021102 C-21.09170194 56.02995218 -23.48102424 56.03385951 -25.87060547 56.0378418 C-27.59100566 56.03349136 -29.31140392 56.02830711 -31.03179932 56.02235413 C-35.69301938 56.00898818 -40.35415824 56.00838281 -45.01539373 56.01091743 C-48.91189795 56.01198882 -52.80838584 56.00709942 -56.70488656 56.002312 C-65.90043814 55.99122502 -75.09594887 55.99077479 -84.29150391 55.99682617 C-93.76582184 56.00286531 -103.23999123 55.99055461 -112.71428382 55.9692561 C-120.85973075 55.95162076 -129.00513048 55.94564182 -137.15059578 55.94889385 C-142.01057292 55.95070385 -146.87044411 55.94809885 -151.7304039 55.93417931 C-156.30232422 55.92157421 -160.87401358 55.92357039 -165.44593048 55.93659019 C-167.11921645 55.93894973 -168.79251881 55.9362437 -170.46578598 55.92796707 C-184.13066531 55.5126683 -184.13066531 55.5126683 -196.21875 61.06640625 Z M20.9375 59.3125 C21.26517868 60.23151093 21.59285736 61.15052185 21.9304657 62.09738159 C23.39738081 67.27492227 23.14198488 72.41487966 23.05004883 77.75439453 C23.02758709 80.10629131 23.005281 82.45818958 22.98310852 84.81008911 C22.96782923 86.05248478 22.95254993 87.29488045 22.93680763 88.57492447 C22.87171024 94.53456818 22.85870114 100.49433962 22.84046304 106.45426726 C22.81190765 115.57434822 22.76824701 124.69322312 22.6394043 133.8125 C21.00843171 175.56379821 21.00843171 175.56379821 35.39334106 213.81559753 C37.7635383 217.64820258 39.46446337 221.72200178 41.1875 225.875 C41.96867187 227.64037109 41.96867187 227.64037109 42.765625 229.44140625 C45.98413535 237.32675661 46.63465662 247.20552034 43.375 255.1875 C39.34654652 262.77795445 34.07880508 268.3413433 25.9375 271.3125 C22.7345457 272.29191578 19.72032784 272.54036454 16.375 272.625 C15.42496094 272.66238281 14.47492188 272.69976562 13.49609375 272.73828125 C4.46939879 271.65824859 -3.66096467 267.20219673 -11.5625 262.9375 C-12.42230469 262.48117187 -13.28210938 262.02484375 -14.16796875 261.5546875 C-15.03035156 261.09578125 -15.89273438 260.636875 -16.78125 260.1640625 C-17.61073654 259.72907944 -18.44022308 259.29409637 -19.29484558 258.84593201 C-22.0625 257.3125 -22.0625 257.3125 -24.3183136 255.75819397 C-33.12362314 250.01532215 -41.85744629 250.31244769 -52.01171875 250.26953125 C-53.83772118 250.24766824 -55.66371515 250.22508775 -57.48970032 250.201828 C-61.29810335 250.1616019 -65.1057025 250.14627974 -68.91430664 250.14575195 C-73.7819424 250.14075417 -78.64368257 250.04817287 -83.50981426 249.93391895 C-87.27369514 249.85954152 -91.03615306 249.84435314 -94.80069923 249.84546471 C-96.59457169 249.83657583 -98.38847495 249.80660974 -100.18161583 249.75461769 C-109.41322146 249.16418815 -109.41322146 249.16418815 -117.58842659 252.59873199 C-120.53647504 256.12660033 -122.28804473 260.08493765 -124.0625 264.3125 C-124.81534711 265.59344911 -125.5911906 266.86184291 -126.41015625 268.1015625 C-126.97605469 269.03742188 -127.54195313 269.97328125 -128.125 270.9375 C-128.71410156 271.89914062 -129.30320312 272.86078125 -129.91015625 273.8515625 C-131.42922023 276.3601555 -131.42922023 276.3601555 -130.0625 279.3125 C-127.56682492 280.86733307 -125.09796185 282.26058688 -122.5 283.625 C-120.83848928 284.52223588 -119.17840347 285.42211397 -117.51953125 286.32421875 C-116.63088379 286.80681152 -115.74223633 287.2894043 -114.82666016 287.78662109 C-110.06279666 290.41638146 -105.37837122 293.18028813 -100.6875 295.9375 C-91.84567331 301.12162132 -82.96827369 306.23938418 -74.0625 311.3125 C-64.33963978 316.85282934 -54.65109562 322.4485368 -44.99121094 328.09814453 C-33.37816927 334.88810521 -21.72598089 341.60961456 -10.0625 348.3125 C-9.44777832 348.66582397 -8.83305664 349.01914795 -8.19970703 349.38317871 C-4.35906733 351.5902487 -0.51699631 353.79479982 3.32678223 355.99639893 C4.55356351 356.69928513 5.78005164 357.40268326 7.00622559 358.10662842 C8.71675479 359.08834549 10.42866559 360.0676541 12.140625 361.046875 C13.11676758 361.60600586 14.09291016 362.16513672 15.09863281 362.74121094 C18.00648972 364.35068523 20.95480241 365.84710211 23.9375 367.3125 C31.30711612 355.68122089 38.09470198 343.71049619 44.94970703 331.77197266 C48.1047263 326.28110763 51.27147963 320.79702655 54.4375 315.3125 C55.68756112 313.14586859 56.937561 310.97920186 58.1875 308.8125 C70.6875 287.14583333 83.1875 265.47916667 95.6875 243.8125 C96.30633057 242.73983887 96.92516113 241.66717773 97.56274414 240.56201172 C98.81185518 238.39692929 100.06104129 236.23189018 101.31030273 234.06689453 C104.44952309 228.62634294 107.58740563 223.18502784 110.72265625 217.7421875 C116.76805223 207.25017795 122.8287532 196.76777225 128.9375 186.3125 C133.95683512 177.71947267 138.95780804 169.11604805 143.9375 160.5 C144.54851562 159.44490234 145.15953125 158.38980469 145.7890625 157.30273438 C149.60509514 150.69192012 153.31481808 144.0312148 156.9375 137.3125 C144.62385351 130.11135058 132.29838201 122.93228587 119.9375 115.8125 C111.58950899 111.00399261 103.25506813 106.17344315 94.9375 101.3125 C86.65972913 96.47573564 78.36808071 91.66385931 70.0625 86.875 C68.99531738 86.25963379 67.92813477 85.64426758 66.82861328 85.01025391 C61.75148248 82.08386801 56.6729627 79.15991397 51.59243774 76.23942566 C49.8124866 75.21600745 48.03289331 74.19196987 46.25341797 73.16772461 C44.02400663 71.88471373 41.79390624 70.60289912 39.56298828 69.32250977 C35.09566964 66.75072933 30.66150008 64.16312365 26.3203125 61.3828125 C23.31419603 59.13849745 23.31419603 59.13849745 20.9375 59.3125 Z M-15.546875 22.44921875 C-21.93468487 30.20605815 -21.93468487 30.20605815 -25.0625 39.3125 C-21.00848214 39.65670906 -17.10432893 39.85032401 -13.0625 39.3125 C-10.72280012 36.55295872 -10.72280012 36.55295872 -9.0625 33.3125 C-4.76325168 30.55707267 -0.55786559 29.86219003 4.50976562 30.61401367 C10.0476362 32.20732096 14.89603519 35.50339972 19.8125 38.4375 C21.05503891 39.16532791 22.29838074 39.89178663 23.54248047 40.61694336 C26.09924783 42.1094066 28.65179973 43.60871043 31.20117188 45.11376953 C35.73766817 47.78880558 40.30229356 50.41430626 44.86816406 53.03881836 C48.08143843 54.88588627 51.2911738 56.73896671 54.5 58.59375 C58.83158507 61.0967949 63.16494603 63.59671773 67.5 66.09375 C78.98709095 72.71159168 90.45695745 79.35737232 101.90332031 86.04541016 C109.19372711 90.3023291 116.49912153 94.53268046 123.8125 98.75 C124.87968262 99.36609131 125.94686523 99.98218262 127.04638672 100.61694336 C132.11842238 103.54305917 137.19418638 106.46219038 142.28256226 109.35978699 C144.06320843 110.37431375 145.84258187 111.39103736 147.62158203 112.40844727 C149.84920789 113.68157954 152.07920622 114.95057335 154.31201172 116.21459961 C171.86422828 126.26337616 171.86422828 126.26337616 173.9375 133.3125 C174.07177899 140.31767816 171.73540459 145.4498122 168.25 151.375 C167.51958496 152.65866455 167.51958496 152.65866455 166.77441406 153.96826172 C165.17908016 156.75984505 163.56033978 159.53682844 161.9375 162.3125 C160.83171671 164.21986976 159.7262516 166.12742403 158.62109375 168.03515625 C156.29208526 172.0447029 153.95205333 176.04759179 151.60546875 180.046875 C147.87424029 186.41021035 144.18271942 192.79599555 140.5 199.1875 C139.87770508 200.26725098 139.25541016 201.34700195 138.61425781 202.45947266 C137.35221274 204.64964534 136.09033148 206.83991243 134.82861328 209.03027344 C131.70069849 214.45909946 128.56886837 219.88566556 125.4375 225.3125 C124.5084082 226.92318359 124.5084082 226.92318359 123.56054688 228.56640625 C120.44971667 233.95937516 117.33754851 239.35156364 114.22265625 244.7421875 C108.08551669 255.36636003 101.9673093 266.00070637 95.88934326 276.65881348 C90.03137165 286.93097237 84.12460152 297.17279113 78.15380859 307.37988281 C73.91109834 314.63490533 69.6975539 321.90626215 65.5 329.1875 C64.57356689 330.79395386 64.57356689 330.79395386 63.62841797 332.43286133 C60.72875249 337.46299326 57.8321393 342.49485322 54.94094849 347.52986145 C51.48175194 353.55397213 48.00937797 359.570173 44.52050781 365.57714844 C43.14507352 367.95382423 41.78537947 370.33860632 40.4296875 372.7265625 C39.745944 373.90171289 39.06118216 375.0762719 38.375 376.25 C37.83746094 377.18714844 37.29992187 378.12429688 36.74609375 379.08984375 C33.68322779 382.8539274 30.12055329 384.10124048 25.4375 384.9375 C13.25642148 384.301175 -0.2909416 373.17255553 -10.4453125 367.19140625 C-17.28266862 363.16973266 -24.1689409 359.23655146 -31.0625 355.3125 C-40.78439623 349.77379797 -50.47146418 344.17874162 -60.12939453 338.52905273 C-67.38461757 334.28632709 -74.65606072 330.07256757 -81.9375 325.875 C-83.01499512 325.25375244 -84.09249023 324.63250488 -85.20263672 323.99243164 C-90.70388027 320.82172982 -96.20689264 317.65411733 -101.7109375 314.48828125 C-107.1158108 311.3787372 -112.51399507 308.25780043 -117.90966797 305.13232422 C-121.07044371 303.30791486 -124.2398928 301.49926679 -127.41015625 299.69140625 C-129.39875613 298.54482327 -131.38705172 297.39771235 -133.375 296.25 C-134.28217773 295.73808105 -135.18935547 295.22616211 -136.12402344 294.69873047 C-141.73360055 291.43667443 -146.98056202 288.34407896 -148.76171875 281.70703125 C-148.7317513 275.10420209 -147.21170805 270.79821897 -143.796875 265.171875 C-141.91177062 262.06400021 -140.29436744 258.88464538 -138.6875 255.625 C-137.82125 253.871875 -136.955 252.11875 -136.0625 250.3125 C-140.0225 250.3125 -143.9825 250.3125 -148.0625 250.3125 C-149.04347656 252.03210938 -150.02445313 253.75171875 -151.03515625 255.5234375 C-152.39826411 257.91155753 -153.76150355 260.29960186 -155.125 262.6875 C-155.48264435 263.31386353 -155.8402887 263.94022705 -156.20877075 264.58557129 C-161.44786643 273.75891146 -166.71323151 282.91655343 -172 292.0625 C-178.21651743 302.82712474 -178.21651743 302.82712474 -184.375 313.625 C-184.90758423 314.55747559 -184.90758423 314.55747559 -185.45092773 315.50878906 C-189.26485575 322.27509662 -191.12601602 327.52846783 -190.0625 335.3125 C-186.08971954 348.27224984 -174.28220788 353.57640195 -163.0625 359.625 C-160.63464209 360.95064648 -158.20999065 362.28211431 -155.78515625 363.61328125 C-155.1942067 363.93676544 -154.60325714 364.26024963 -153.99440002 364.59353638 C-149.44712103 367.08673235 -144.95538551 369.65926117 -140.5 372.3125 C-133.57341544 376.43091624 -126.60768016 380.47735231 -119.625 384.5 C-118.51761475 385.13808594 -117.41022949 385.77617187 -116.26928711 386.43359375 C-113.99880921 387.74156691 -111.728219 389.04934513 -109.45751953 390.35693359 C-103.9908002 393.50582054 -98.52675113 396.65933264 -93.0625 399.8125 C-90.89584689 401.0625235 -88.72918021 402.31252347 -86.5625 403.5625 C-73.5625 411.0625 -73.5625 411.0625 -70.31005859 412.93896484 C-68.15159502 414.18419484 -65.99306677 415.42931272 -63.83447266 416.67431641 C-58.29175259 419.87136337 -52.75029992 423.07057595 -47.2109375 426.2734375 C-32.94275836 434.52371962 -32.94275836 434.52371962 -18.625 442.6875 C-17.66762939 443.23253174 -17.66762939 443.23253174 -16.69091797 443.78857422 C-9.74773078 447.69714484 -2.52763629 448.81699855 5.29296875 446.6640625 C14.93982907 442.29778529 19.47943163 432.2939271 24.375 423.5 C25.07780471 422.25161445 25.78151612 421.00373896 26.48608398 419.75634766 C27.93307077 417.19398163 29.37707615 414.62997061 30.81933594 412.06494141 C34.0026034 406.41403459 37.25165368 400.80116788 40.5 395.1875 C41.74097486 393.03911416 42.98186024 390.89067664 44.22265625 388.7421875 C44.83512207 387.68225586 45.44758789 386.62232422 46.07861328 385.53027344 C49.20074605 380.12579355 52.31891204 374.71902588 55.4375 369.3125 C56.68748122 367.1458225 57.93748121 364.97915583 59.1875 362.8125 C60.115625 361.20375 60.115625 361.20375 61.0625 359.5625 C111.6875 271.8125 111.6875 271.8125 113.56225586 268.56298828 C114.8131448 266.39473736 116.06395852 264.22644303 117.31469727 262.05810547 C120.42548335 256.66532085 123.53754238 251.27327907 126.65234375 245.8828125 C133.47252637 234.07620516 140.2607326 222.25223 147.01486206 210.40777588 C151.61144494 202.34986313 156.2511772 194.31858015 160.9375 186.3125 C165.83860192 177.93097737 170.71722165 169.53689587 175.55200195 161.11694336 C176.25833295 159.88797563 176.96598125 158.65976391 177.67504883 157.43237305 C185.72609189 144.2616824 185.72609189 144.2616824 186.9375 129.3125 C184.44424363 120.0815151 178.4558196 115.68718278 170.48046875 110.97265625 C168.36618996 109.76602917 166.24744075 108.5672118 164.125 107.375 C162.38162455 106.38272306 160.63825558 105.39043448 158.89529419 104.39743042 C157.09602174 103.3735303 155.29497255 102.35281199 153.49365234 101.33251953 C147.95604116 98.19202365 142.44852119 94.9993389 136.9375 91.8125 C134.77097173 90.56226015 132.60430466 89.31226078 130.4375 88.0625 C126.10416667 85.5625 121.77083333 83.0625 117.4375 80.5625 C116.36483887 79.94366943 115.29217773 79.32483887 114.18701172 78.68725586 C112.02192929 77.43814482 109.85689018 76.18895871 107.69189453 74.93969727 C102.25134294 71.80047691 96.81002784 68.66259437 91.3671875 65.52734375 C79.89324831 58.91616926 68.43542415 52.27892947 57.00244141 45.59716797 C48.3585387 40.54906024 39.69057087 35.54333206 31.015625 30.54882812 C30.005 29.96681641 28.994375 29.38480469 27.953125 28.78515625 C26.96425293 28.21732422 25.97538086 27.64949219 24.95654297 27.06445312 C22.86308325 25.84961672 20.77934951 24.61792447 18.70361328 23.37304688 C17.65415527 22.74591797 16.60469727 22.11878906 15.5234375 21.47265625 C14.11650635 20.62199585 14.11650635 20.62199585 12.68115234 19.75415039 C3.5371138 14.94942111 -7.65268671 15.12214169 -15.546875 22.44921875 Z " fill="#000000" transform="translate(263.0625,23.6875)"/>
<path d="M0 0 C11.89122215 8.84706928 19.56311393 21.30483852 22 36 C22.34927422 39.91187122 22.54522162 42.14398866 20.41015625 45.49609375 C17.6208006 48.39394946 14.75036443 49.96761888 11.125 51.5625 C10.1352417 52.00855591 10.1352417 52.00855591 9.12548828 52.46362305 C-15.82082889 63.37800865 -42.14493235 63.40190568 -67.5390625 54.38671875 C-81.95227722 48.61167222 -81.95227722 48.61167222 -85 42 C-86.13144833 29.94493236 -79.01939144 17.81278923 -72.15234375 8.4921875 C-54.22081849 -12.27063122 -22.2795917 -14.77488712 0 0 Z M-49 12 C-50.546875 12.8353125 -50.546875 12.8353125 -52.125 13.6875 C-59.54458178 19.65542447 -64.11748667 25.91629022 -67 35 C-48.28753933 44.48748006 -27.66653321 46.41379331 -7.61254883 40.21533203 C-1.09715342 38.25462489 -1.09715342 38.25462489 4 34 C-0.27882708 22.51892361 -7.76550769 14.87562088 -18.5 9.125 C-28.32499413 5.8823636 -40.05468955 7.06287673 -49 12 Z " fill="#000000" transform="translate(174,180)"/>
<path d="M0 0 C8.5061366 5.50191587 13.69776044 11.53692292 16.4765625 21.234375 C18.18103321 29.22505881 16.61657 37.33268228 12.68359375 44.4296875 C8.33873297 50.76594281 2.58970399 54.72821087 -4.47265625 57.60546875 C-14.51579596 59.33704456 -23.37089987 58.4061345 -32.16796875 52.9453125 C-39.14037507 47.5273604 -42.58624784 39.74931617 -44.09765625 31.23046875 C-44.8979121 22.58770559 -42.28892547 14.73508908 -36.8359375 8.05078125 C-27.65189179 -1.56666887 -12.61239387 -5.87842428 0 0 Z M-23.09765625 18.23046875 C-25.79585637 22.05794751 -27.07890916 25.14313753 -27.16015625 29.85546875 C-25.64782604 34.6593412 -23.34205007 37.58457995 -19.22265625 40.60546875 C-15.01856521 41.84196611 -11.42421782 41.81662386 -7.41015625 40.04296875 C-3.52181571 36.99535049 -1.04811534 34.26934227 -0.09765625 29.35546875 C0.28279801 24.56355675 -1.25706488 22.04284138 -4.09765625 18.23046875 C-7.76547983 14.98182501 -11.22692871 14.75324833 -15.953125 14.95703125 C-19.12442391 15.3613863 -20.72399388 16.06026315 -23.09765625 18.23046875 Z " fill="#000000" transform="translate(156.09765625,102.76953125)"/>
<path d="M0 0 C1.14809278 0.71414842 2.27680501 1.46127143 3.375 2.25 C4.261875 2.8275 5.14875 3.405 6.0625 4 C12.1564369 9.92923591 14.48743592 15.99314662 14.75 24.375 C14.6739979 31.89920775 12.76270865 37.45190384 7.73046875 43.09375 C1.36985627 48.95183102 -6.04001393 51.42965591 -14.625 51.25 C-23.72044516 49.95654789 -29.41978736 45.29868966 -35 38.25 C-38.95241982 30.95322494 -39.77042941 23.68219085 -37.5625 15.75 C-34.8662778 8.38626106 -29.33999748 3.06533948 -22.625 -0.75 C-15.99634529 -2.95955157 -6.377293 -3.12132383 0 0 Z M-20.625 20.25 C-22.04501879 23.7112958 -21.75442622 24.91996314 -20.375 28.4375 C-18.76689118 31.45397879 -18.76689118 31.45397879 -15.625 33.25 C-11.60464268 33.69670637 -9.32878189 33.63249016 -5.75 31.6875 C-2.95894692 28.48599794 -2.625 26.46894271 -2.625 22.25 C-3.85324485 19.34099903 -4.88691813 17.78447308 -7.4375 15.9375 C-13.62092999 13.99413629 -16.65511582 15.1458632 -20.625 20.25 Z " fill="#000000" transform="translate(196.625,370.75)"/>
<path d="M0 0 C2.6495391 0.45700469 4.08458331 1.36494373 5.90234375 3.328125 C6.95211339 6.47743393 7.0036597 8.71626956 6.96484375 12.015625 C6.95582031 13.00949219 6.94679687 14.00335938 6.9375 15.02734375 C6.92589844 15.78660156 6.91429687 16.54585937 6.90234375 17.328125 C7.794375 17.27011719 8.68640625 17.21210938 9.60546875 17.15234375 C10.7759375 17.10722656 11.94640625 17.06210938 13.15234375 17.015625 C14.3125 16.95761719 15.47265625 16.89960938 16.66796875 16.83984375 C19.90234375 17.328125 19.90234375 17.328125 22.29296875 19.66015625 C24.26760217 22.93363835 24.52947647 24.56532865 23.90234375 28.328125 C21.03261195 32.94019397 21.03261195 32.94019397 18.05859375 33.9609375 C15.71260134 34.36043621 13.53076756 34.42560182 11.15234375 34.390625 C10.353125 34.38160156 9.55390625 34.37257812 8.73046875 34.36328125 C8.1271875 34.35167969 7.52390625 34.34007812 6.90234375 34.328125 C6.94875 35.06417969 6.99515625 35.80023438 7.04296875 36.55859375 C7.33530808 44.46219634 7.33530808 44.46219634 5.33984375 48.453125 C2.10507248 50.94141059 -0.03302543 51.328125 -4.09765625 51.328125 C-7.04521357 49.98250101 -8.64042897 49.24257956 -10.09765625 46.328125 C-10.16831242 44.28757495 -10.18187601 42.24478243 -10.16015625 40.203125 C-10.15113281 39.10742188 -10.14210937 38.01171875 -10.1328125 36.8828125 C-10.12121094 36.03976563 -10.10960937 35.19671875 -10.09765625 34.328125 C-10.83371094 34.36292969 -11.56976563 34.39773437 -12.328125 34.43359375 C-22.19848335 34.70740818 -22.19848335 34.70740818 -26.09765625 31.328125 C-27.66236858 28.19870035 -27.79467583 24.71730277 -27.09765625 21.328125 C-25.5 19.0859375 -25.5 19.0859375 -23.09765625 17.328125 C-19.86328125 16.9375 -19.86328125 16.9375 -16.34765625 17.078125 C-15.1771875 17.11421875 -14.00671875 17.1503125 -12.80078125 17.1875 C-11.90875 17.23390625 -11.01671875 17.2803125 -10.09765625 17.328125 C-10.1440625 16.43609375 -10.19046875 15.5440625 -10.23828125 14.625 C-10.29242188 12.86929688 -10.29242188 12.86929688 -10.34765625 11.078125 C-10.3940625 9.91796875 -10.44046875 8.7578125 -10.48828125 7.5625 C-10.09765625 4.328125 -10.09765625 4.328125 -8.33203125 1.93359375 C-5.32897966 -0.22419332 -3.57864978 -0.18659626 0 0 Z " fill="#000000" transform="translate(232.09765625,143.671875)"/>
</svg>
