<?xml version="1.0" encoding="utf-8"?>
<!-- Generator: Adobe Illustrator 27.5.0, SVG Export Plug-In . SVG Version: 6.00 Build 0)  -->
<svg version="1.1" xmlns="http://www.w3.org/2000/svg" xmlns:xlink="http://www.w3.org/1999/xlink" x="0px" y="0px"
	 viewBox="0 0 3710 3710" style="enable-background:new 0 0 3710 3710;" xml:space="preserve">
<g id="Background">
	<g>
		<g>
			<rect style="fill:#FFFFFF;" width="3710" height="3710"/>
		</g>
	</g>
</g>
<g id="Illustration">
	<g>
		<path style="fill:#F4F7FA;" d="M1893.801,469.432c-724.334-21.389-1351.76,504.185-1446.554,1193.805
			c-103.642,754.005,462.896,1461.588,1168.692,1541.087c1562.372,175.98,1719.846-646.729,1643.812-1494.957
			C3202.467,1070.303,2630.101,491.174,1893.801,469.432z"/>
		<g>
			
				<linearGradient id="SVGID_1_" gradientUnits="userSpaceOnUse" x1="4571.7529" y1="1701.5457" x2="4272.9966" y2="1850.9241" gradientTransform="matrix(0.9434 0.3317 -0.3317 0.9434 -376.3018 -1155.8105)">
				<stop  offset="0" style="stop-color:#AA80F9"/>
				<stop  offset="0.9964" style="stop-color:#6165D7"/>
			</linearGradient>
			<path style="fill:url(#SVGID_1_);" d="M2143.416,2843.885c-46.525-16.723-124.848-44.876-178.968-120.985
				c-98.39-138.37-52.908-345.425,27.182-474.606c68.793-110.962,189.281-179.287,430.258-315.941
				c226.951-128.702,302.868-141.036,325.873-225.356c32.795-120.207-88.316-216.762-29.031-351.258
				c7.115-16.139,31.549-71.571,84.226-90.285c90.173-32.035,199.819,66.01,249.906,136.813
				c48.313,68.295,97.896,191.373,51.392,286.603c-33.693,68.996-89.203,64.76-104.169,129.012
				c-15.059,64.646,36.592,88.432,55.708,196.982c7.638,43.366,22.968,130.413-18.612,202.617
				c-53.762,93.362-154.002,77.394-176.277,156.137c-16.095,56.894,30.976,83.832,26.627,150.411
				c-5.725,87.649-94.28,147.758-168.641,196.793C2631.326,2778.565,2395.091,2934.346,2143.416,2843.885z"/>
			<path style="opacity:0.16;fill:#FFFFFF;" d="M2834.951,1304.367c-48.722,32.493,87.297,184.106,44.21,379.824
				c-46.36,210.583-271.784,343.759-375.96,405.304c-177.74,105.005-252.041,80.548-367.464,200.537
				c-45.683,47.489-140.853,146.425-133.186,286.46c0.712,13.01,10.817,157.94,121.039,228.598
				c125.021,80.146,283.792,3.798,420.599-61.985c82.666-39.751,247.802-119.156,237.763-210.179
				c-6.137-55.643-76.322-102.814-134.521-117.199c-83.065-20.534-153.088,22.907-160.337,8.256
				c-6.529-13.195,44-61.132,112.69-96.034c137.393-69.811,206.974-16.096,309.27-81.551
				c12.399-7.933,109.733-72.222,113.597-173.104c2.229-58.183-26.577-130.051-73.368-142.846
				c-52.919-14.472-106.003,52.864-118.129,41.205c-11.595-11.148,29.895-79.485,80.766-141.035
				c74.746-90.438,107.461-90.864,135.619-148.501c42.961-87.936,12.891-181.268,8.376-194.624
				C3013.607,1362.353,2876.607,1276.586,2834.951,1304.367z"/>
		</g>
		<g>
			<g>
				<polygon style="fill:#CBD0D8;" points="1408.649,1053.071 676.658,1103.322 676.658,2962.237 1408.649,3011.163 				"/>
				<g>
					<defs>
						<polygon id="SVGID_00000181795555787107860230000003485509933965201803_" points="733.235,1184.573 733.235,2880.884 
							1408.649,2921.854 1408.649,1142.38 						"/>
					</defs>
					
						<use xlink:href="#SVGID_00000181795555787107860230000003485509933965201803_"  style="overflow:visible;opacity:0.6;fill:#FFFFFF;"/>
					<clipPath id="SVGID_00000049214613194328302530000014456198144963265722_">
						<use xlink:href="#SVGID_00000181795555787107860230000003485509933965201803_"  style="overflow:visible;opacity:0.6;"/>
					</clipPath>
					<path style="clip-path:url(#SVGID_00000049214613194328302530000014456198144963265722_);fill:#FFFFFF;" d="M3412.585,2481.31
						l-726.338-19.249c-2.42,359.918-4.415,874.19-0.48,921.917c-0.2-2.429-1.552-15.277-8.529-29.784l-96.229,75.119
						c-10.316-21.637-10.63-39.732-11.466-88.09c-0.475-27.44-0.805-66.824-0.983-117.061
						c-0.299-84.078-0.188-200.118,0.337-344.909c0.888-246.323,2.684-494.073,2.701-496.547l0.546-74.851l249.178,4.191v-539.181
						l-469.926,8.067l-280.762,507.041l-385.675-6.195l518.004,846.144l-81.932,90.335l-569.464-938.621l-245.047-3.936
						c0.344,85.127,0.909,236.458,1.247,387.161c0.299,133.114,0.363,239.684,0.193,316.746
						c-0.341,153.675-0.967,155.431-4.444,165.172l-45.777-36.444c-1.827,5.144-2.228,9.5-2.289,10.321
						c2.398-31.974,1.327-498.693-0.104-843.778l-255.893-4.11c-46.474,248.094-155.131,827.786-158.785,843.803l-85.23-48.809
						l-0.208,0.951c4.641-22.416,100.682-537.827,164.83-882.707l9.235-49.641l536.21,3.422l-333.128-549.08l-653.782,21.054
						v-130.913l696.941-29.191l421.784,688.971l419.927,2.679l196.485-358.011l-519.129,8.911V775.24l54.38-4.686v944.543
						l508.404-11.346l512.717-934.211l94.386,84.77l-468.647,846.351l488.506-10.902v623.347l528.232,8.885V2481.31z"/>
				</g>
			</g>
			<g>
				
					<rect x="1907.915" y="1159.885" transform="matrix(-1 -1.224647e-16 1.224647e-16 -1 4669.541 4061.6521)" style="fill:#CBD0D8;" width="853.711" height="1741.882"/>
				<g>
					<defs>
						
							<rect id="SVGID_00000138571412340095512780000000243554595002180512_" x="1508.19" y="1639.186" transform="matrix(6.123234e-17 -1 1 6.123234e-17 268.7288 4331.5923)" width="1583.941" height="784.492"/>
					</defs>
					
						<use xlink:href="#SVGID_00000138571412340095512780000000243554595002180512_"  style="overflow:visible;opacity:0.6;fill:#FFFFFF;"/>
					<clipPath id="SVGID_00000016032971291288591230000016955709175738888073_">
						<use xlink:href="#SVGID_00000138571412340095512780000000243554595002180512_"  style="overflow:visible;opacity:0.6;"/>
					</clipPath>
					<path style="clip-path:url(#SVGID_00000016032971291288591230000016955709175738888073_);fill:#FFFFFF;" d="M3002.798,2383.992
						h-648.914c-2.262,294.447-4.128,715.227-0.448,753.996c-0.187-1.972-1.451-12.387-7.976-23.778l-90.599,68.445
						c-9.779-17.073-10.076-31.959-10.87-71.743c-0.451-22.577-0.764-55.006-0.933-96.389c-0.284-69.262-0.178-164.885,0.32-284.215
						c0.843-202.99,2.546-407.148,2.562-409.187l0.518-61.672h232.601v-437.199h-444.953l-279.046,427.456h-400.662l533.462,706.908
						l-81.951,81.567l-595.015-788.475H940.32c0.387,76.306,1.021,211.947,1.4,347.023c0.336,119.306,0.408,214.827,0.216,283.912
						c-0.383,137.772-1.086,139.388-4.991,148.359l-51.595-29.626c-2.066,4.75-2.519,8.696-2.589,9.438
						c2.712-28.923,1.501-448.7-0.118-759.107H587.933c-54.68,228.709-183.951,769.076-188.333,784.173l-102.879-39.383
						l-0.252,0.901c5.635-21.211,121.398-504.666,197.833-824.448l10.946-45.787h611.662l-374.559-496.342H-46.393V1504.28h838.261
						l468.545,620.885h440.411l197.744-302.913h-533.893V934.594h57.683v821.411h519.455l490.035-750.657l86.768,74.707
						l-441.264,675.95h459.389v503.445h466.055V2383.992z"/>
				</g>
			</g>
			<g>
				<polygon style="fill:#97A6B7;" points="1907.915,1159.885 1408.649,1053.071 1408.649,3011.163 1907.915,2901.767 				"/>
				<g>
					<defs>
						<polygon id="SVGID_00000078741170209998566600000017901408274302419879_" points="1408.649,1142.38 1408.649,2921.854 
							1907.915,2822.32 1907.915,1239.332 						"/>
					</defs>
					
						<use xlink:href="#SVGID_00000078741170209998566600000017901408274302419879_"  style="overflow:visible;opacity:0.6;fill:#FFFFFF;"/>
					<clipPath id="SVGID_00000099638973732798241910000004128431007989305779_">
						<use xlink:href="#SVGID_00000078741170209998566600000017901408274302419879_"  style="overflow:visible;opacity:0.6;"/>
					</clipPath>
					<path style="clip-path:url(#SVGID_00000099638973732798241910000004128431007989305779_);fill:#D8DEE8;" d="M2406.864,2338.179
						l-279.589,25.215c-1.052,278.393-1.921,676.329-0.208,712.505c-0.087-1.84-0.675-11.52-3.713-21.46l-42.693,77.062
						c-4.666-15.003-4.808-29.219-5.187-67.216c-0.215-21.566-0.365-52.589-0.446-92.208c-0.136-66.313-0.085-157.922,0.153-272.269
						c0.403-194.482,1.216-390.073,1.224-392.026l0.248-59.068l107.958-6.395v-406.879l-212.098-10.475l-145.721,428.618
						l-229.043,13.014l299.708,691.291l-43.317,92.677l-344.773-778.946l-176.844,10.048c0.263,87.149,0.694,242.045,0.952,396.29
						c0.228,136.223,0.277,245.305,0.147,324.231c-0.26,157.413-0.738,159.377-3.393,170.289l-35.376-25.261
						c-1.428,5.819-1.741,10.442-1.789,11.309c1.874-33.77,1.037-517.116-0.082-874.613l-213.151,12.111
						c-41.721,280.369-143.269,962.367-146.786,981.983l-83.998-28.582l-0.21,1.188c4.675-27.887,98.833-648.695,159.112-1046.825
						l8.513-56.218l433.041-11.205l-255.603-577.483l-646.626-63.012v-166.572l682.077,87.573l310.918,717.146l256.946-6.648
						l105.834-305.836l-299.106-14.772V852.597l34.44,9.297v875.925l287.093,18.904l237.716-686.941l39.181,79.084l-208.197,612.381
						l216.279,14.241v465.298l196.412-11.635V2338.179z"/>
				</g>
			</g>
			<g>
				
					<linearGradient id="SVGID_00000165199940112360566900000011440950657808190606_" gradientUnits="userSpaceOnUse" x1="829.5275" y1="1814.2493" x2="868.5089" y2="2766.5217">
					<stop  offset="0" style="stop-color:#FFC444"/>
					<stop  offset="0.9964" style="stop-color:#F36F56"/>
				</linearGradient>
				<path style="fill:url(#SVGID_00000165199940112360566900000011440950657808190606_);" d="M864.02,2766.695
					c-0.77,0-1.55-0.073-2.333-0.225c-6.59-1.28-10.893-7.661-9.611-14.251l6.629-34.089c1.282-6.59,7.67-10.888,14.251-9.611
					c6.59,1.28,10.893,7.661,9.611,14.251l-6.629,34.089C874.808,2762.665,869.721,2766.695,864.02,2766.695z"/>
				
					<linearGradient id="SVGID_00000114773318515896797620000013029100647382279609_" gradientUnits="userSpaceOnUse" x1="893.8018" y1="1884.3408" x2="929.4518" y2="2755.2317">
					<stop  offset="0" style="stop-color:#FFC444"/>
					<stop  offset="0.9964" style="stop-color:#F36F56"/>
				</linearGradient>
				<path style="fill:url(#SVGID_00000114773318515896797620000013029100647382279609_);" d="M884.194,2662.932
					c-0.77,0-1.55-0.073-2.333-0.225c-6.59-1.28-10.893-7.661-9.611-14.251l13.545-69.672c1.28-6.59,7.673-10.895,14.251-9.612
					c6.59,1.28,10.893,7.661,9.611,14.251l-13.545,69.673C894.984,2658.901,889.895,2662.932,884.194,2662.932z M911.287,2523.587
					c-0.77,0-1.55-0.073-2.333-0.226c-6.59-1.28-10.893-7.661-9.611-14.251l13.545-69.672c1.282-6.59,7.661-10.888,14.251-9.611
					c6.59,1.28,10.893,7.661,9.611,14.251l-13.545,69.672C922.077,2519.556,916.988,2523.587,911.287,2523.587z M938.378,2384.242
					c-0.77,0-1.55-0.073-2.333-0.226c-6.59-1.28-10.893-7.661-9.611-14.251l13.547-69.672c1.282-6.59,7.665-10.895,14.251-9.612
					c6.59,1.28,10.893,7.661,9.611,14.251l-13.547,69.672C949.166,2380.211,944.079,2384.242,938.378,2384.242z"/>
				
					<linearGradient id="SVGID_00000147191278747551164100000014173330687930500260_" gradientUnits="userSpaceOnUse" x1="969.4672" y1="1808.5435" x2="1008.4481" y2="2760.8025">
					<stop  offset="0" style="stop-color:#FFC444"/>
					<stop  offset="0.9964" style="stop-color:#F36F56"/>
				</linearGradient>
				<path style="fill:url(#SVGID_00000147191278747551164100000014173330687930500260_);" d="M965.47,2244.897
					c-0.77,0-1.55-0.073-2.333-0.226c-6.59-1.28-10.893-7.661-9.611-14.251l6.629-34.089c1.111-5.711,6.113-9.835,11.931-9.835
					h34.729c6.713,0,12.155,5.441,12.155,12.155c0,6.713-5.442,12.155-12.155,12.155h-24.71l-4.716,24.254
					C976.258,2240.867,971.171,2244.897,965.47,2244.897z"/>
				
					<linearGradient id="SVGID_00000011749938582945094240000017305290064267456956_" gradientUnits="userSpaceOnUse" x1="1367.5531" y1="1802.7723" x2="1405.4608" y2="2728.8191">
					<stop  offset="0" style="stop-color:#FFC444"/>
					<stop  offset="0.9964" style="stop-color:#F36F56"/>
				</linearGradient>
				<path style="fill:url(#SVGID_00000011749938582945094240000017305290064267456956_);" d="M1692.168,2210.806h-68.535
					c-6.713,0-12.155-5.441-12.155-12.155c0-6.714,5.442-12.155,12.155-12.155h68.535c6.713,0,12.155,5.441,12.155,12.155
					C1704.323,2205.365,1698.882,2210.806,1692.168,2210.806z M1555.097,2210.806h-68.535c-6.713,0-12.155-5.441-12.155-12.155
					c0-6.714,5.441-12.155,12.155-12.155h68.535c6.713,0,12.155,5.441,12.155,12.155
					C1567.252,2205.365,1561.811,2210.806,1555.097,2210.806z M1418.026,2210.806h-68.536c-6.713,0-12.155-5.441-12.155-12.155
					c0-6.714,5.442-12.155,12.155-12.155h68.536c6.713,0,12.155,5.441,12.155,12.155
					C1430.182,2205.365,1424.74,2210.806,1418.026,2210.806z M1280.956,2210.806h-68.536c-6.713,0-12.155-5.441-12.155-12.155
					c0-6.714,5.442-12.155,12.155-12.155h68.536c6.713,0,12.155,5.441,12.155,12.155
					C1293.111,2205.365,1287.669,2210.806,1280.956,2210.806z M1143.885,2210.806h-68.536c-6.713,0-12.155-5.441-12.155-12.155
					c0-6.714,5.442-12.155,12.155-12.155h68.536c6.714,0,12.155,5.441,12.155,12.155
					C1156.04,2205.365,1150.598,2210.806,1143.885,2210.806z"/>
				
					<linearGradient id="SVGID_00000019667962234544905420000007892214839585877168_" gradientUnits="userSpaceOnUse" x1="1768.4419" y1="1775.8203" x2="1807.4242" y2="2728.1177">
					<stop  offset="0" style="stop-color:#FFC444"/>
					<stop  offset="0.9964" style="stop-color:#F36F56"/>
				</linearGradient>
				<path style="fill:url(#SVGID_00000019667962234544905420000007892214839585877168_);" d="M1795.433,2210.806h-34.729
					c-6.713,0-12.155-5.441-12.155-12.155c0-6.714,5.442-12.155,12.155-12.155h26.818l10.858-24.52
					c2.717-6.137,9.9-8.915,16.035-6.193c6.139,2.718,8.911,9.896,6.193,16.035l-14.061,31.754
					C1804.6,2207.971,1800.242,2210.806,1795.433,2210.806z"/>
				
					<linearGradient id="SVGID_00000129927505372234078960000012157248383731530884_" gradientUnits="userSpaceOnUse" x1="1881.1477" y1="1814.7557" x2="1915.064" y2="2643.2954">
					<stop  offset="0" style="stop-color:#FFC444"/>
					<stop  offset="0.9964" style="stop-color:#F36F56"/>
				</linearGradient>
				<path style="fill:url(#SVGID_00000129927505372234078960000012157248383731530884_);" d="M1841.002,2107.888
					c-1.643,0-3.315-0.336-4.914-1.045c-6.139-2.718-8.911-9.896-6.193-16.035l31.513-71.168c2.718-6.137,9.896-8.915,16.035-6.193
					c6.139,2.718,8.911,9.896,6.193,16.035l-31.513,71.168C1850.114,2105.188,1845.666,2107.888,1841.002,2107.888z
					 M1904.029,1965.553c-1.643,0-3.315-0.336-4.914-1.045c-6.139-2.718-8.911-9.896-6.193-16.035l31.513-71.168
					c2.718-6.137,9.895-8.914,16.035-6.193c6.139,2.718,8.911,9.896,6.193,16.035l-31.513,71.168
					C1913.141,1962.854,1908.693,1965.553,1904.029,1965.553z"/>
				
					<linearGradient id="SVGID_00000116227927248693777350000017733755307086517416_" gradientUnits="userSpaceOnUse" x1="1990.2933" y1="1766.7655" x2="2029.2753" y2="2719.0508">
					<stop  offset="0" style="stop-color:#FFC444"/>
					<stop  offset="0.9964" style="stop-color:#F36F56"/>
				</linearGradient>
				<path style="fill:url(#SVGID_00000116227927248693777350000017733755307086517416_);" d="M1967.056,1823.219
					c-1.643,0-3.315-0.336-4.914-1.045c-6.138-2.718-8.911-9.896-6.193-16.035l14.061-31.754c1.947-4.399,6.305-7.234,11.114-7.234
					h34.729c6.714,0,12.155,5.442,12.155,12.155c0,6.713-5.442,12.155-12.155,12.155h-26.818l-10.858,24.52
					C1976.167,1820.519,1971.719,1823.219,1967.056,1823.219z"/>
				
					<linearGradient id="SVGID_00000089563316813922970860000004261692376507159442_" gradientUnits="userSpaceOnUse" x1="2213.8308" y1="1757.8279" x2="2251.0347" y2="2666.6814">
					<stop  offset="0" style="stop-color:#FFC444"/>
					<stop  offset="0.9964" style="stop-color:#F36F56"/>
				</linearGradient>
				<path style="fill:url(#SVGID_00000089563316813922970860000004261692376507159442_);" d="M2334.024,1791.461h-79.543
					c-6.713,0-12.155-5.442-12.155-12.155c0-6.714,5.442-12.155,12.155-12.155h79.543c6.713,0,12.155,5.442,12.155,12.155
					C2346.179,1786.02,2340.737,1791.461,2334.024,1791.461z M2174.939,1791.461h-79.543c-6.713,0-12.155-5.442-12.155-12.155
					c0-6.714,5.442-12.155,12.155-12.155h79.543c6.713,0,12.155,5.442,12.155,12.155
					C2187.094,1786.02,2181.653,1791.461,2174.939,1791.461z"/>
				
					<linearGradient id="SVGID_00000157294437181636720180000000594918493059838112_" gradientUnits="userSpaceOnUse" x1="2429.6802" y1="1748.7788" x2="2468.6606" y2="2701.0288">
					<stop  offset="0" style="stop-color:#FFC444"/>
					<stop  offset="0.9964" style="stop-color:#F36F56"/>
				</linearGradient>
				<path style="fill:url(#SVGID_00000157294437181636720180000000594918493059838112_);" d="M2448.294,1791.461h-34.729
					c-6.713,0-12.155-5.442-12.155-12.155c0-6.714,5.442-12.155,12.155-12.155h34.729c6.713,0,12.155,5.442,12.155,12.155
					C2460.449,1786.02,2455.008,1791.461,2448.294,1791.461z"/>
			</g>
		</g>
		<g>
			
				<linearGradient id="SVGID_00000102526407480139717790000012684627573333686203_" gradientUnits="userSpaceOnUse" x1="2244.2661" y1="777.5961" x2="2662.1931" y2="1059.1785">
				<stop  offset="0" style="stop-color:#FFC444"/>
				<stop  offset="0.9964" style="stop-color:#F36F56"/>
			</linearGradient>
			<path style="fill:url(#SVGID_00000102526407480139717790000012684627573333686203_);" d="M3028.732,936.103
				c0,178.04-249.425,502.923-362.302,640.834c-28.09,34.319-80.599,34.319-108.688,0
				c-112.878-137.911-362.302-462.795-362.302-640.834c0-230.108,186.539-416.647,416.647-416.647
				S3028.732,705.995,3028.732,936.103z"/>
			
				<linearGradient id="SVGID_00000067193710499146049450000006023368549898031762_" gradientUnits="userSpaceOnUse" x1="1894.7609" y1="1296.337" x2="2312.6882" y2="1577.9197">
				<stop  offset="0" style="stop-color:#FFC444"/>
				<stop  offset="0.9964" style="stop-color:#F36F56"/>
			</linearGradient>
			
				<circle style="fill:url(#SVGID_00000067193710499146049450000006023368549898031762_);" cx="2612.085" cy="1779.641" r="85.161"/>
			
				<linearGradient id="SVGID_00000128445213798206130520000016623151421831524495_" gradientUnits="userSpaceOnUse" x1="2547.0603" y1="784.8383" x2="2966.6541" y2="1865.6089">
				<stop  offset="0" style="stop-color:#FFC444"/>
				<stop  offset="0.9964" style="stop-color:#F36F56"/>
			</linearGradient>
			<path style="fill:url(#SVGID_00000128445213798206130520000016623151421831524495_);" d="M3017.457,936.103
				c0,178.04-249.425,502.923-362.302,640.834c-28.089,34.319-80.599,34.319-108.688,0
				c-112.878-137.911-362.303-462.795-362.303-640.834c0-230.108,186.539-416.647,416.647-416.647
				C2830.917,519.456,3017.457,705.995,3017.457,936.103z"/>
			<circle style="fill:#FFFFFF;" cx="2600.81" cy="936.103" r="232.37"/>
			
				<linearGradient id="SVGID_00000165933960599152510670000009985205528690789292_" gradientUnits="userSpaceOnUse" x1="2710.0173" y1="1613.8799" x2="2437.502" y2="2027.5198">
				<stop  offset="0" style="stop-color:#FFC444"/>
				<stop  offset="0.9964" style="stop-color:#F36F56"/>
			</linearGradient>
			<circle style="fill:url(#SVGID_00000165933960599152510670000009985205528690789292_);" cx="2600.81" cy="1779.641" r="85.161"/>
			<g style="opacity:0.5;">
				<path style="fill:#FFFFFF;" d="M2598.969,1405.869c26.435-174.081,141.389-229.801,121.659-394.175
					c-22.755-189.567-190.604-240.057-194.654-408.774c-0.652-27.162,3.044-53.355,10.013-78.436
					c-199.319,31.139-351.823,203.562-351.823,411.619c0,178.04,249.425,502.923,362.302,640.835
					c16.533,20.2,41.526,28.496,65.021,24.917C2591.285,1525.607,2590.674,1460.497,2598.969,1405.869z"/>
			</g>
			<g>
				<g>
					
						<linearGradient id="SVGID_00000129183132576197305950000016549697432179424414_" gradientUnits="userSpaceOnUse" x1="2568.6917" y1="765.2262" x2="2866.1211" y2="1777.3759">
						<stop  offset="0" style="stop-color:#AA80F9"/>
						<stop  offset="0.9964" style="stop-color:#6165D7"/>
					</linearGradient>
					<polygon style="fill:url(#SVGID_00000129183132576197305950000016549697432179424414_);" points="2604.837,769.917 
						2440.45,887.709 2768.919,887.709 					"/>
				</g>
				
					<linearGradient id="SVGID_00000060002318422481466480000003450958116422288565_" gradientUnits="userSpaceOnUse" x1="2526.7803" y1="724.5775" x2="2746.2185" y2="1471.3243">
					<stop  offset="0" style="stop-color:#AA80F9"/>
					<stop  offset="0.9964" style="stop-color:#6165D7"/>
				</linearGradient>
				<path style="fill:url(#SVGID_00000060002318422481466480000003450958116422288565_);" d="M2458.872,906.795v166.82h291.931
					v-166.82H2458.872z M2589.088,1007.509h-87.566v-65.083h87.566V1007.509z M2700.115,1056.187h-64.388v-113.76h64.388V1056.187z"
					/>
			</g>
		</g>
		<g>
			<g>
				<g>
					
						<linearGradient id="SVGID_00000132051340661454931680000003243429667892709050_" gradientUnits="userSpaceOnUse" x1="823.1445" y1="949.0527" x2="1228.6198" y2="1993.4568">
						<stop  offset="0" style="stop-color:#AA80F9"/>
						<stop  offset="0.9964" style="stop-color:#6165D7"/>
					</linearGradient>
					<path style="fill:url(#SVGID_00000132051340661454931680000003243429667892709050_);" d="M1277.713,1095.227
						c0,172.049-241.031,486-350.111,619.271c-27.144,33.164-77.887,33.164-105.031,0
						c-109.08-133.271-350.111-447.222-350.111-619.271c0-222.365,180.262-402.627,402.627-402.627
						C1097.45,692.6,1277.713,872.863,1277.713,1095.227z"/>
					
						<ellipse transform="matrix(0.7071 -0.7071 0.7071 0.7071 -512.4898 934.4699)" style="fill:#FFFFFF;" cx="871.76" cy="1085.865" rx="279.75" ry="279.75"/>
					<g style="opacity:0.2;">
						
							<linearGradient id="SVGID_00000178199602631020799950000015597053739238026639_" gradientUnits="userSpaceOnUse" x1="677.9583" y1="1005.4186" x2="1083.4343" y2="2049.825">
							<stop  offset="0" style="stop-color:#AA80F9"/>
							<stop  offset="0.9964" style="stop-color:#6165D7"/>
						</linearGradient>
						<path style="fill:url(#SVGID_00000178199602631020799950000015597053739238026639_);" d="M873.307,1549.186
							c25.545-168.223,136.632-222.068,117.565-380.911c-21.99-183.189-184.19-231.979-188.104-395.019
							c-0.63-26.248,2.941-51.56,9.676-75.797c-192.612,30.091-339.985,196.713-339.985,397.768
							c0,172.049,241.031,486,350.111,619.271c15.977,19.521,40.128,27.538,62.833,24.079
							C865.882,1664.896,865.291,1601.976,873.307,1549.186z"/>
					</g>
				</g>
				
					<linearGradient id="SVGID_00000000918383484175587340000017699171310722256512_" gradientUnits="userSpaceOnUse" x1="980.6181" y1="1750.1982" x2="717.2726" y2="2149.9194">
					<stop  offset="0" style="stop-color:#AA80F9"/>
					<stop  offset="0.9964" style="stop-color:#6165D7"/>
				</linearGradient>
				
					<circle style="fill:url(#SVGID_00000000918383484175587340000017699171310722256512_);" cx="875.086" cy="1910.382" r="82.296"/>
			</g>
			<g>
				<defs>
					
						<ellipse id="SVGID_00000176740842866277097050000016366059111487093683_" transform="matrix(0.7071 -0.7071 0.7071 0.7071 -514.9927 935.5067)" cx="871.76" cy="1089.405" rx="253.876" ry="253.875"/>
				</defs>
				<clipPath id="SVGID_00000098934738191542738870000002050392439475456652_">
					<use xlink:href="#SVGID_00000176740842866277097050000016366059111487093683_"  style="overflow:visible;"/>
				</clipPath>
				<g style="clip-path:url(#SVGID_00000098934738191542738870000002050392439475456652_);">
					<g>
						
							<linearGradient id="SVGID_00000048498650760312010080000011431400576235968191_" gradientUnits="userSpaceOnUse" x1="875.5233" y1="482.9831" x2="705.0886" y2="1425.5938">
							<stop  offset="0" style="stop-color:#AA80F9"/>
							<stop  offset="0.9964" style="stop-color:#6165D7"/>
						</linearGradient>
						
							<ellipse style="fill:url(#SVGID_00000048498650760312010080000011431400576235968191_);" cx="768.768" cy="1073.407" rx="70.313" ry="104.985"/>
						
							<linearGradient id="SVGID_00000107584019300821519310000015754450516611670956_" gradientUnits="userSpaceOnUse" x1="925.0292" y1="497.7177" x2="755.4583" y2="1435.5505">
							<stop  offset="0" style="stop-color:#AA80F9"/>
							<stop  offset="0.9964" style="stop-color:#6165D7"/>
						</linearGradient>
						<path style="fill:url(#SVGID_00000107584019300821519310000015754450516611670956_);" d="M785.052,1157.485
							c-10.88,0-21.755,0-32.635,0c-2.854,118.077-5.707,236.543-8.561,356.173c-0.169,7.089,2.523,12.588,7.476,17.663
							c4.953,5.074,11.744,7.256,18.835,7.256c6.336,0,12.405-2.906,16.83-7.44c4.424-4.534,6.836-8.111,6.684-14.444
							C790.805,1396.108,787.929,1275.563,785.052,1157.485z"/>
					</g>
					<g>
						
							<linearGradient id="SVGID_00000176741837272447229190000001881645677671848094_" gradientUnits="userSpaceOnUse" x1="1082.0055" y1="525.4827" x2="911.6481" y2="1467.6649">
							<stop  offset="0" style="stop-color:#AA80F9"/>
							<stop  offset="0.9964" style="stop-color:#6165D7"/>
						</linearGradient>
						<path style="fill:url(#SVGID_00000176741837272447229190000001881645677671848094_);" d="M1038.002,972.683l-17.305,0.119
							v125.645h-13.891V972.914l-17.364,0.112v125.421h-20.837V973.004l-17.364-0.111v125.554h-20.837V972.783l-10.147-0.1
							c0,0-14.362,114.661-11.652,167.823c0.333,6.532,4.592,12.726,9.921,17.369c9.892,8.619,30.013,20.517,62.611,20.517
							c32.281,0,51.987-11.898,61.879-20.517c5.329-4.643,8.136-10.837,8.468-17.369
							C1054.19,1087.344,1038.002,972.683,1038.002,972.683z"/>
						
							<linearGradient id="SVGID_00000176028517575236364730000016855172733894771330_" gradientUnits="userSpaceOnUse" x1="1129.9924" y1="539.2977" x2="960.4215" y2="1477.1305">
							<stop  offset="0" style="stop-color:#AA80F9"/>
							<stop  offset="0.9964" style="stop-color:#6165D7"/>
						</linearGradient>
						<path style="fill:url(#SVGID_00000176028517575236364730000016855172733894771330_);" d="M997.533,1157.485
							c-10.88,0-21.755,0-32.635,0c-2.854,118.077-5.707,236.543-8.561,356.173c-0.169,7.089,2.523,12.588,7.476,17.663
							c4.953,5.074,11.743,7.256,18.835,7.256c6.336,0,12.405-2.906,16.83-7.44c4.424-4.534,6.836-8.111,6.684-14.444
							C1003.286,1396.108,1000.41,1275.563,997.533,1157.485z"/>
					</g>
				</g>
			</g>
		</g>
		<g>
			
				<linearGradient id="SVGID_00000030487327854944415080000007898040553714332595_" gradientUnits="userSpaceOnUse" x1="2543.2405" y1="2296.7427" x2="2840.8574" y2="2296.7427">
				<stop  offset="0" style="stop-color:#311944"/>
				<stop  offset="1" style="stop-color:#A03976"/>
			</linearGradient>
			<path style="fill:url(#SVGID_00000030487327854944415080000007898040553714332595_);" d="M2827.992,2449.215
				c-6.465,0-12.03-4.871-12.754-11.448l-23.121-210.785l-11.955,5.891c-3.977,1.959-8.704,1.73-12.467-0.614
				c-3.767-2.344-6.059-6.469-6.059-10.909v-6.071l-8.828,3.849c-2.643,1.157-5.595,1.388-8.393,0.653l-191.58-50.237
				c-6.862-1.8-10.969-8.821-9.171-15.684c1.802-6.861,8.828-10.962,15.686-9.168l187.27,49.105l22.728-9.913
				c3.964-1.736,8.543-1.348,12.174,1.026c3.625,2.374,5.808,6.415,5.808,10.748v5.041l9.882-4.867
				c3.767-1.855,8.187-1.757,11.86,0.261c3.672,2.016,6.13,5.696,6.59,9.861l25.12,229.011c0.774,7.052-4.32,13.396-11.37,14.17
				C2828.933,2449.187,2828.46,2449.215,2827.992,2449.215z"/>
			<g>
				
					<linearGradient id="SVGID_00000001647201823424025460000014719708632839605639_" gradientUnits="userSpaceOnUse" x1="3226.2712" y1="2262.7148" x2="2692.8567" y2="2329.3914">
					<stop  offset="0" style="stop-color:#D8DEE8"/>
					<stop  offset="1" style="stop-color:#FFFFFF"/>
				</linearGradient>
				<path style="fill:url(#SVGID_00000001647201823424025460000014719708632839605639_);" d="M3201.172,2309.088
					c0,31.837-130.871,32.951-292.311,32.951c-161.438,0-292.311-1.114-292.311-32.951c0-31.834,130.873-57.643,292.311-57.643
					C3070.301,2251.445,3201.172,2277.254,3201.172,2309.088z"/>
				
					<linearGradient id="SVGID_00000075125309574197549020000003770060740150640565_" gradientUnits="userSpaceOnUse" x1="3229.5156" y1="2288.6721" x2="2696.1008" y2="2355.3489">
					<stop  offset="0" style="stop-color:#D8DEE8"/>
					<stop  offset="1" style="stop-color:#FFFFFF"/>
				</linearGradient>
				<path style="fill:url(#SVGID_00000075125309574197549020000003770060740150640565_);" d="M2616.797,2309.088
					c0,0-13.596,37.302-13.596,37.845c0,0.544,609.612,0,609.612,0l-11.419-37.845H2616.797z"/>
			</g>
			<path style="fill:#D8DEE8;" d="M3212.726,2347.206c0,33.187-136.427,60.09-304.719,60.09
				c-168.293,0-304.721-26.902-304.721-60.09c0-33.188,136.428-60.091,304.721-60.091
				C3076.299,2287.115,3212.726,2314.019,3212.726,2347.206z"/>
			
				<linearGradient id="SVGID_00000016036459162884179900000009314908337663578280_" gradientUnits="userSpaceOnUse" x1="2929.353" y1="2527.0942" x2="2732.3733" y2="3255.062">
				<stop  offset="0" style="stop-color:#FF9085"/>
				<stop  offset="1" style="stop-color:#FB6FBB"/>
			</linearGradient>
			<path style="fill:url(#SVGID_00000016036459162884179900000009314908337663578280_);" d="M3183.547,2347.478
				c0-28.233-123.364-51.118-275.54-51.118c-152.178,0-275.541,22.886-275.541,51.118h-0.173l56.013,722.016
				c0,36.041,98.364,65.257,219.701,65.257c121.336,0,219.699-29.216,219.699-65.257l56.011-722.016H3183.547z"/>
			<g style="opacity:0.3;">
				
					<linearGradient id="SVGID_00000054230129797261317620000009098157028675495304_" gradientUnits="userSpaceOnUse" x1="3410.4602" y1="2235.5276" x2="2625.0303" y2="3006.3684">
					<stop  offset="0" style="stop-color:#FF9085"/>
					<stop  offset="1" style="stop-color:#FB6FBB"/>
				</linearGradient>
				<path style="fill:url(#SVGID_00000054230129797261317620000009098157028675495304_);" d="M3183.547,2347.478
					c0-28.233-123.364-51.118-275.54-51.118c-52.831,0-102.186,2.758-144.114,7.541c-6.514,19.752-10.002,40.713-8.943,62.61
					c6.073,125.552,155.904,167.479,207.736,286.045c31.594,72.272,32.812,291.099-86.308,481.523
					c10.328,0.443,20.888,0.672,31.629,0.672c121.336,0,219.699-29.216,219.699-65.257l56.011-722.016H3183.547z"/>
			</g>
		</g>
		<g>
			
				<linearGradient id="SVGID_00000048475804233324569760000013547904884039988897_" gradientUnits="userSpaceOnUse" x1="2854.3582" y1="2707.0935" x2="2696.2512" y2="3131.4868" gradientTransform="matrix(0.9982 0.0606 -0.0606 0.9982 -85.0607 -57.703)">
				<stop  offset="0" style="stop-color:#FFC444"/>
				<stop  offset="0.9964" style="stop-color:#F36F56"/>
			</linearGradient>
			<path style="fill:url(#SVGID_00000048475804233324569760000013547904884039988897_);" d="M2279.333,3018.528
				c-52.766-20.642-72.149-36.199-79.211-57.35c-20.283-60.749,66.376-151.731,150.153-193.594
				c77.123-38.537,147.778-33.438,246.933-26.281c96.099,6.936,164.991,11.907,223.623,63.823
				c44.045,38.999,91.088,112.271,67.898,163.452c-13.142,29.004-45.161,42.799-118.816,59.62
				C2481.926,3093.967,2315.825,3032.804,2279.333,3018.528z"/>
			
				<linearGradient id="SVGID_00000178896292715549415540000013293124315157570201_" gradientUnits="userSpaceOnUse" x1="2823.2668" y1="3039.1543" x2="2801.0767" y2="2808.9316" gradientTransform="matrix(0.9982 0.0606 -0.0606 0.9982 -85.0607 -57.703)">
				<stop  offset="0" style="stop-color:#FFC444"/>
				<stop  offset="0.9964" style="stop-color:#F36F56"/>
			</linearGradient>
			<path style="fill:url(#SVGID_00000178896292715549415540000013293124315157570201_);" d="M2402.836,2906.942
				c-141.431,5.47-175.582,47.158-175.131,86.662c12.052,7.932,28.68,15.947,51.628,24.924
				c36.492,14.275,202.593,75.439,490.579,9.669c35.012-7.996,60.601-15.311,79.241-23.898
				C2911.175,2855.004,2644.766,2897.586,2402.836,2906.942z"/>
			
				<linearGradient id="SVGID_00000091005124267583616250000014801218333265599657_" gradientUnits="userSpaceOnUse" x1="2632.9895" y1="3014.8425" x2="2638.5374" y2="2634.8291" gradientTransform="matrix(0.9982 0.0606 -0.0606 0.9982 -85.0607 -57.703)">
				<stop  offset="0" style="stop-color:#FFC444"/>
				<stop  offset="0.9964" style="stop-color:#F36F56"/>
			</linearGradient>
			<path style="fill:url(#SVGID_00000091005124267583616250000014801218333265599657_);" d="M2391.947,2769.226
				c-14.4,3.117-34.666,12.289-33.521,19.756c1.053,6.873,20.377,13.151,34.992,6.889c12.933-5.541,21.742-20.715,18.256-26.066
				C2408.904,2765.556,2398.571,2767.792,2391.947,2769.226z"/>
			
				<linearGradient id="SVGID_00000124882573608982424810000000064345366866495933_" gradientUnits="userSpaceOnUse" x1="2699.8638" y1="3015.8113" x2="2705.4114" y2="2635.8042" gradientTransform="matrix(0.9982 0.0606 -0.0606 0.9982 -85.0607 -57.703)">
				<stop  offset="0" style="stop-color:#FFC444"/>
				<stop  offset="0.9964" style="stop-color:#F36F56"/>
			</linearGradient>
			<path style="fill:url(#SVGID_00000124882573608982424810000000064345366866495933_);" d="M2458.325,2754.108
				c-10.94,0.894-25.702,7.002-25.582,14.505c0.1,6.213,10.395,12.737,19.633,12.307c13.995-0.651,24.832-17.228,21.798-23.38
				C2471.934,2752.997,2461.97,2753.811,2458.325,2754.108z"/>
			
				<linearGradient id="SVGID_00000121960715873396284110000003749686168376663964_" gradientUnits="userSpaceOnUse" x1="2780.3452" y1="3016.9856" x2="2785.8928" y2="2636.9746" gradientTransform="matrix(0.9982 0.0606 -0.0606 0.9982 -85.0607 -57.703)">
				<stop  offset="0" style="stop-color:#FFC444"/>
				<stop  offset="0.9964" style="stop-color:#F36F56"/>
			</linearGradient>
			<path style="fill:url(#SVGID_00000121960715873396284110000003749686168376663964_);" d="M2531.715,2745.591
				c-6.416,0.163-28.532,0.722-29.404,6.245c-0.801,5.073,16.285,14.603,33.59,14.475c16.541-0.122,33.21-9.067,32.472-14.173
				C2567.507,2746.158,2542.74,2745.313,2531.715,2745.591z"/>
			
				<linearGradient id="SVGID_00000003083902063793474030000009559017087828012426_" gradientUnits="userSpaceOnUse" x1="2835.9231" y1="3017.7878" x2="2841.4707" y2="2637.7847" gradientTransform="matrix(0.9982 0.0606 -0.0606 0.9982 -85.0607 -57.703)">
				<stop  offset="0" style="stop-color:#FFC444"/>
				<stop  offset="0.9964" style="stop-color:#F36F56"/>
			</linearGradient>
			<path style="fill:url(#SVGID_00000003083902063793474030000009559017087828012426_);" d="M2592.257,2755.44
				c-7.363-1.284-13.431,6.786-12.326,9.751c1.54,4.129,18.955,3.632,20.572-1.128
				C2601.446,2761.29,2597.279,2756.316,2592.257,2755.44z"/>
			
				<linearGradient id="SVGID_00000017515672565350167360000013536851028730460351_" gradientUnits="userSpaceOnUse" x1="2892.2424" y1="3018.5955" x2="2897.79" y2="2638.605" gradientTransform="matrix(0.9982 0.0606 -0.0606 0.9982 -85.0607 -57.703)">
				<stop  offset="0" style="stop-color:#FFC444"/>
				<stop  offset="0.9964" style="stop-color:#F36F56"/>
			</linearGradient>
			<path style="fill:url(#SVGID_00000017515672565350167360000013536851028730460351_);" d="M2658.934,2755.779
				c-13.501-10.628-34.174-2.732-35.446,4.025c-1.861,9.897,35.509,30.022,43.723,22.415
				C2671.908,2777.87,2668.399,2763.23,2658.934,2755.779z"/>
			
				<linearGradient id="SVGID_00000130611877743917830100000016882647273641569954_" gradientUnits="userSpaceOnUse" x1="2949.3416" y1="3019.4294" x2="2954.8892" y2="2639.4355" gradientTransform="matrix(0.9982 0.0606 -0.0606 0.9982 -85.0607 -57.703)">
				<stop  offset="0" style="stop-color:#FFC444"/>
				<stop  offset="0.9964" style="stop-color:#F36F56"/>
			</linearGradient>
			<path style="fill:url(#SVGID_00000130611877743917830100000016882647273641569954_);" d="M2701.595,2765.16
				c-4.165,0.208-8.45,5.254-7.981,9.397c0.796,7.032,15.203,10.667,18.086,7.273
				C2714.583,2778.437,2708.663,2764.808,2701.595,2765.16z"/>
			
				<linearGradient id="SVGID_00000004532033146147194680000001631527048231509173_" gradientUnits="userSpaceOnUse" x1="2984.7217" y1="3019.9407" x2="2990.2693" y2="2639.9502" gradientTransform="matrix(0.9982 0.0606 -0.0606 0.9982 -85.0607 -57.703)">
				<stop  offset="0" style="stop-color:#FFC444"/>
				<stop  offset="0.9964" style="stop-color:#F36F56"/>
			</linearGradient>
			<path style="fill:url(#SVGID_00000004532033146147194680000001631527048231509173_);" d="M2742.82,2767.661
				c-6.791-3.385-14.707,1.145-15.103,4.642c-0.618,5.444,16.332,14.151,20.361,10.499
				C2750.695,2780.429,2749.757,2771.119,2742.82,2767.661z"/>
			
				<linearGradient id="SVGID_00000078012680076695017100000004058446154867564182_" gradientUnits="userSpaceOnUse" x1="2582.0137" y1="3014.0911" x2="2587.5613" y2="2634.0901" gradientTransform="matrix(0.9982 0.0606 -0.0606 0.9982 -85.0607 -57.703)">
				<stop  offset="0" style="stop-color:#FFC444"/>
				<stop  offset="0.9964" style="stop-color:#F36F56"/>
			</linearGradient>
			<path style="fill:url(#SVGID_00000078012680076695017100000004058446154867564182_);" d="M2325.268,2789.266
				c-0.404-4.383,11.516-10.785,15.29-7.719c2.522,2.049,2.453,9.177-1.977,12.231
				C2333.279,2797.436,2325.576,2792.605,2325.268,2789.266z"/>
			
				<linearGradient id="SVGID_00000168812301890737547820000012819358151389475765_" gradientUnits="userSpaceOnUse" x1="2750.3381" y1="3016.5361" x2="2755.8857" y2="2636.5388" gradientTransform="matrix(0.9982 0.0606 -0.0606 0.9982 -85.0607 -57.703)">
				<stop  offset="0" style="stop-color:#FFC444"/>
				<stop  offset="0.9964" style="stop-color:#F36F56"/>
			</linearGradient>
			<path style="fill:url(#SVGID_00000168812301890737547820000012819358151389475765_);" d="M2498.095,2780.606
				c-4.331,1.313-7.421,8.675-5.129,13.276c3.344,6.712,17.082,5.412,19.075,1.157
				C2514.177,2790.479,2504.656,2778.617,2498.095,2780.606z"/>
			
				<linearGradient id="SVGID_00000106841584869567328160000005992736440634254985_" gradientUnits="userSpaceOnUse" x1="2792.8616" y1="2759.7991" x2="2815.05" y2="2937.3079" gradientTransform="matrix(0.9982 0.0606 -0.0606 0.9982 -85.0607 -57.703)">
				<stop  offset="0" style="stop-color:#AB316D"/>
				<stop  offset="1" style="stop-color:#792D3D"/>
			</linearGradient>
			<path style="fill:url(#SVGID_00000106841584869567328160000005992736440634254985_);" d="M2295.233,3060.409
				c-20.32-5.387-51.259-14.485-54.732-33.285c-5.234-28.328,54.06-66.954,105.375-85.36c51.538-18.486,69.089-7.273,197.829-15.369
				c39.009-2.453,62.601-5.067,125.205-8.283c60.801-3.122,101.79-3.904,142.05,19.191c12.775,7.328,35.652,20.846,37.134,41.026
				c1.759,23.952-27.607,43.913-41.614,53.19C2692.997,3106.676,2460.489,3104.223,2295.233,3060.409z"/>
			
				<linearGradient id="SVGID_00000124884707982528422460000001358458248101700533_" gradientUnits="userSpaceOnUse" x1="2804.4312" y1="2812.644" x2="2821.1445" y2="2946.3501" gradientTransform="matrix(0.9982 0.0606 -0.0606 0.9982 -85.0607 -57.703)">
				<stop  offset="0" style="stop-color:#AB316D"/>
				<stop  offset="1" style="stop-color:#792D3D"/>
			</linearGradient>
			<path style="opacity:0.3;fill:url(#SVGID_00000124884707982528422460000001358458248101700533_);" d="M2309.005,3061.065
				c-19.875-4.153-50.149-11.111-53.833-24.52c-5.552-20.205,51.571-46.688,101.247-58.938
				c49.892-12.303,67.164-4.057,192.405-7.742c37.948-1.116,60.881-2.595,121.794-3.874c59.16-1.242,99.063-1.14,138.641,15.91
				c12.558,5.41,35.053,15.379,36.82,29.736c2.097,17.041-26.179,30.747-39.672,37.112
				C2697.101,3100.31,2470.639,3094.836,2309.005,3061.065z"/>
			
				<linearGradient id="SVGID_00000058591798110808314700000003542280752157624200_" gradientUnits="userSpaceOnUse" x1="2272.27" y1="2866.4309" x2="3922.8342" y2="2975.4592" gradientTransform="matrix(0.9982 0.0606 -0.0606 0.9982 -85.0607 -57.703)">
				<stop  offset="0.0036" style="stop-color:#E38DDD"/>
				<stop  offset="1" style="stop-color:#9571F6"/>
			</linearGradient>
			<path style="fill:url(#SVGID_00000058591798110808314700000003542280752157624200_);" d="M2527.801,3044.257
				c-0.584-12.993,28.56-25.203,39.446-28.876c32.638-11.013,42.949,6.859,83.542-3.187c15.392-3.809,26.022-9.376,46.241-8.929
				c13.354,0.296,17.837,2.926,27.539,4.141c34.483,4.318,48.191-20.1,79.282-24.216c38.263-5.066,82.121,23.357,81.367,43.225
				c-0.701,18.462-39.976,30.853-64.321,38.303C2686.21,3105.934,2529.137,3074.004,2527.801,3044.257z"/>
			
				<linearGradient id="SVGID_00000126282052127996545600000017886919028132820662_" gradientUnits="userSpaceOnUse" x1="2792.322" y1="2890.1301" x2="2842.2512" y2="3234.0881" gradientTransform="matrix(0.9982 0.0606 -0.0606 0.9982 -85.0607 -57.703)">
				<stop  offset="0" style="stop-color:#FFC444"/>
				<stop  offset="0.9964" style="stop-color:#F36F56"/>
			</linearGradient>
			<path style="fill:url(#SVGID_00000126282052127996545600000017886919028132820662_);" d="M2228.324,3206.419
				c-16.183-11.306-23.835-27.276-23.835-27.276c-9.468-19.759-8.498-43.892,0.179-61.236
				c14.222-28.431,48.479-37.276,67.501-41.905c141.624-34.463,224.213-41.131,224.213-41.131
				c118.541-9.572,162.195-12.451,225.893-10.173c98.282,3.515,131.002,15.256,145.973,40.218
				c13.202,22.011,13.276,55.424-1.005,79.339c-35.743,59.854-133.958,14.251-317.652,39.66
				C2448.037,3197.961,2276.142,3239.827,2228.324,3206.419z"/>
			
				<linearGradient id="SVGID_00000056401939070272607060000006727618536832466829_" gradientUnits="userSpaceOnUse" x1="3321.9731" y1="2770.5425" x2="1555.6362" y2="3231.8538" gradientTransform="matrix(0.9982 0.0606 -0.0606 0.9982 -85.0607 -57.703)">
				<stop  offset="0.0036" style="stop-color:#E38DDD"/>
				<stop  offset="1" style="stop-color:#9571F6"/>
			</linearGradient>
			<path style="fill:url(#SVGID_00000056401939070272607060000006727618536832466829_);" d="M2274.065,3030.189
				c-17.207,7.924-20.633,12.865-34.434,20.709c-28.482,16.188-39.609,9.759-49.616,23.508c-6.577,9.036-10.195,23.387-4.403,31.846
				c7.991,11.67,31.089,8.033,47.989,5.178c45.791-7.738,52.656-24.212,97.791-37.023c37.763-10.719,73.868-10.8,77.896-10.784
				c25.168,0.099,32.608,1.297,42.191,0.991c0,0,7.26-0.455,14.025-1.286c33.928-4.17,91.817-31.414,89.138-39.49
				c-2.269-6.84-42.127,17.705-85.555,0.801c-10.991-4.278-29.956-13.433-54.631-15.666c-33.975-3.074-36.162,15.334-74.293,12.548
				c-13.306-0.972-25.364-4.114-43.414,0.264C2287.566,3024.013,2280.174,3027.376,2274.065,3030.189z"/>
			<g style="opacity:0.3;">
				
					<linearGradient id="SVGID_00000131352858213262743510000015441853524341068698_" gradientUnits="userSpaceOnUse" x1="2792.2192" y1="2890.135" x2="2842.1509" y2="3234.1099" gradientTransform="matrix(0.9982 0.0606 -0.0606 0.9982 -85.0607 -57.703)">
					<stop  offset="0" style="stop-color:#FFC444"/>
					<stop  offset="0.9964" style="stop-color:#F36F56"/>
				</linearGradient>
				<path style="fill:url(#SVGID_00000131352858213262743510000015441853524341068698_);" d="M2816.972,3113.057
					c-30.494-1.739-51.817-13.575-61.865-18.574c-89.025-44.295-241.133-23.633-339.426,16.463
					c-86.291,35.2-114.119,78.448-173.222,66.07c-16.855-3.53-31.51-10.616-44.094-19.167c0.909,7.311,2.896,14.558,6.124,21.295
					c0,0,7.653,15.969,23.835,27.276c47.817,33.408,219.712-8.458,321.265-22.505c183.694-25.409,281.909,20.194,317.652-39.66
					c7.336-12.283,10.856-27.069,10.783-41.531C2860.229,3109.68,2839.582,3114.346,2816.972,3113.057z"/>
			</g>
		</g>
		<g>
			
				<linearGradient id="SVGID_00000072276723958722173360000007845200691176747710_" gradientUnits="userSpaceOnUse" x1="2725.3796" y1="2897.9358" x2="3249.1602" y2="2897.9358">
				<stop  offset="0.0036" style="stop-color:#E38DDD"/>
				<stop  offset="1" style="stop-color:#9571F6"/>
			</linearGradient>
			<path style="fill:url(#SVGID_00000072276723958722173360000007845200691176747710_);" d="M2846.926,3096.315l-26.68-36.698
				c0,0-35.495-16.727-77.33-61.747c-41.834-45.02-4.047-120.074,62.996-150.588c67.043-30.515,136.557-71.693,130.542-108.135
				c-6.014-36.441-21.016-39.591-21.016-39.591s28.282,0.751,41.913,25.729s30.845,43.567,114.15,51.187
				c83.306,7.619,167.791,77.631,177.085,159.341c9.294,81.71-97.415,109.157-97.415,109.157l-16.99,48.564L2846.926,3096.315z"/>
			<path style="opacity:0.71;fill:#FFFFFF;" d="M2916.635,2699.987c-0.761-0.299-1.197-0.43-1.197-0.43
				c3.759,2.725,7.067,5.521,9.982,8.372C2921.775,2702.788,2918.369,2700.751,2916.635,2699.987z"/>
			
				<linearGradient id="SVGID_00000129924623461525574280000014793020657137974922_" gradientUnits="userSpaceOnUse" x1="3038.9724" y1="2677.8899" x2="2925.2939" y2="2994.6738">
				<stop  offset="0.0036" style="stop-color:#E38DDD"/>
				<stop  offset="1" style="stop-color:#9571F6"/>
			</linearGradient>
			<path style="fill:url(#SVGID_00000129924623461525574280000014793020657137974922_);" d="M3030.975,2966.525
				c-30.864-55.039-93.43-134.938-84.598-195.002c7.914-53.815-23.185-68.967-29.742-71.537c1.734,0.765,5.14,2.801,8.785,7.942
				c36.375,35.569,9.948,79.921-9.163,108.342c-20.643,30.698-17.208,78.994-23.407,126.471
				c-6.199,47.476,0.232,86.908-60.533,95.863c-19.49,2.872-37.186-0.294-52.24-5.913c23.707,19.159,40.169,26.926,40.169,26.926
				l26.68,36.698l167.119-1.618C3042.503,3055.745,3052.937,3005.692,3030.975,2966.525z"/>
			
				<linearGradient id="SVGID_00000052079308989494840920000017986200506678518426_" gradientUnits="userSpaceOnUse" x1="3125.573" y1="2708.9666" x2="3011.895" y2="3025.7493">
				<stop  offset="0.0036" style="stop-color:#E38DDD"/>
				<stop  offset="1" style="stop-color:#9571F6"/>
			</linearGradient>
			<path style="fill:url(#SVGID_00000052079308989494840920000017986200506678518426_);" d="M3248.586,2935.813
				c-9.294-81.71-93.779-151.721-177.085-159.341c-83.306-7.62-100.52-26.209-114.15-51.187
				c-13.63-24.978-41.913-25.729-41.913-25.729s32.609,3.358,45.147,56.464c12.539,53.105,73.597,74.098,137.446,93.021
				c63.849,18.924,136.409,93.018,53.14,195.929C3151.172,3044.97,3257.881,3017.523,3248.586,2935.813z"/>
			
				<linearGradient id="SVGID_00000115510076907725020460000009414316414339410083_" gradientUnits="userSpaceOnUse" x1="2846.7864" y1="2313.7424" x2="2989.2847" y2="3088.0762">
				<stop  offset="0" style="stop-color:#FF9085"/>
				<stop  offset="1" style="stop-color:#FB6FBB"/>
			</linearGradient>
			<path style="fill:url(#SVGID_00000115510076907725020460000009414316414339410083_);" d="M2868.108,3207.841l-43.44-140.242
				c0,0,16.645-2.251,39.048-12.721l29.135,21.562l34.975-16.777l38.731,16.035l46.38-18.077l35.087,15.773l35.087-17.265
				l18.498,16.326l15.533-21.906l12.934,19.979c0,0,13.098-13.155,15.207-8.724c1.725,3.625-29.939,108.025-41.514,145.877
				c-2.744,8.974-9.664,16.058-18.583,18.973c-29.277,9.569-101.103,26.118-197.002,0.525
				C2878.614,3224.626,2871.038,3217.302,2868.108,3207.841z"/>
			
				<linearGradient id="SVGID_00000088092377312180242240000000710667818598196918_" gradientUnits="userSpaceOnUse" x1="2954.4866" y1="3109.1345" x2="3105.051" y2="3367.2456">
				<stop  offset="0" style="stop-color:#FF9085"/>
				<stop  offset="1" style="stop-color:#FB6FBB"/>
			</linearGradient>
			<path style="fill:url(#SVGID_00000088092377312180242240000000710667818598196918_);" d="M2966.556,3075.698l-38.731-16.034
				l13.127,177.982c16.551,2.146,32.075,3.081,46.44,3.155l25.543-183.18L2966.556,3075.698z"/>
			
				<linearGradient id="SVGID_00000143594377715861062780000014215292555637846974_" gradientUnits="userSpaceOnUse" x1="2878.4036" y1="3153.5164" x2="3028.9685" y2="3411.6282">
				<stop  offset="0" style="stop-color:#FF9085"/>
				<stop  offset="1" style="stop-color:#FB6FBB"/>
			</linearGradient>
			<path style="fill:url(#SVGID_00000143594377715861062780000014215292555637846974_);" d="M2824.667,3067.599l43.441,140.242
				c2.93,9.461,10.506,16.784,20.075,19.338c6.4,1.708,12.689,3.223,18.869,4.57l-43.337-176.871
				C2841.313,3065.349,2824.667,3067.599,2824.667,3067.599z"/>
			
				<linearGradient id="SVGID_00000172418814906799979590000017136317755453371549_" gradientUnits="userSpaceOnUse" x1="3030.7087" y1="3064.6716" x2="3181.2739" y2="3322.7834">
				<stop  offset="0" style="stop-color:#FF9085"/>
				<stop  offset="1" style="stop-color:#FB6FBB"/>
			</linearGradient>
			<path style="fill:url(#SVGID_00000172418814906799979590000017136317755453371549_);" d="M3101.608,3072.455l-18.498-16.326
				l-46.226,181.421c13.892-1.944,25.729-4.517,35.25-7.046l45.007-179.954L3101.608,3072.455z"/>
		</g>
		<g>
			<g>
				
					<linearGradient id="SVGID_00000036224904183539896660000009479485528353925278_" gradientUnits="userSpaceOnUse" x1="1651.3929" y1="2470.2065" x2="1753.8286" y2="2470.2065">
					<stop  offset="0" style="stop-color:#FF9085"/>
					<stop  offset="1" style="stop-color:#FB6FBB"/>
				</linearGradient>
				<path style="fill:url(#SVGID_00000036224904183539896660000009479485528353925278_);" d="M1748.918,2454.341l-40.199-49.581
					l-40.293,36.839c-19.526,17.853-22.669,47.465-7.327,69.019l17.822,25.036l61.722-25.54l11.983-34.753
					C1755.102,2468.183,1753.699,2460.238,1748.918,2454.341z"/>
				
					<linearGradient id="SVGID_00000168117156924669867550000006819421777208912516_" gradientUnits="userSpaceOnUse" x1="1659.7666" y1="2353.2539" x2="1833.8866" y2="2353.2539">
					<stop  offset="0" style="stop-color:#FF9085"/>
					<stop  offset="1" style="stop-color:#FB6FBB"/>
				</linearGradient>
				<path style="fill:url(#SVGID_00000168117156924669867550000006819421777208912516_);" d="M1833.887,2353.254
					c0,44.153-12.151,81.468-46.771,93.72c-7.803,2.77-16.752,4.245-26.944,4.245c-55.464,0-100.405-43.873-100.405-97.965
					c0-53.38,43.721-96.744,98.118-97.939c0.762-0.026,1.525-0.026,2.287-0.026
					C1815.635,2255.289,1833.887,2299.137,1833.887,2353.254z"/>
				<g>
					
						<linearGradient id="SVGID_00000172432013249239237950000017120784497450188969_" gradientUnits="userSpaceOnUse" x1="746.7086" y1="3068.8022" x2="1091.4998" y2="3068.8022">
						<stop  offset="0" style="stop-color:#444B8C"/>
						<stop  offset="0.9964" style="stop-color:#26264F"/>
					</linearGradient>
					
						<circle style="fill:url(#SVGID_00000172432013249239237950000017120784497450188969_);" cx="919.104" cy="3068.802" r="172.396"/>
					
						<ellipse transform="matrix(0.7071 -0.7071 0.7071 0.7071 -1900.7715 1548.7362)" style="fill:#FFFFFF;" cx="919.104" cy="3068.802" rx="118.963" ry="118.963"/>
				</g>
				
					<linearGradient id="SVGID_00000108272874930152487470000004252893916547072667_" gradientUnits="userSpaceOnUse" x1="861.639" y1="3072.5269" x2="973.3768" y2="3072.5269">
					<stop  offset="0" style="stop-color:#444B8C"/>
					<stop  offset="0.9964" style="stop-color:#26264F"/>
				</linearGradient>
				
					<circle style="opacity:0.6;fill:url(#SVGID_00000108272874930152487470000004252893916547072667_);" cx="917.508" cy="3072.527" r="55.869"/>
				
					<linearGradient id="SVGID_00000178899293924624913340000000036934462875310745_" gradientUnits="userSpaceOnUse" x1="2024.519" y1="500.116" x2="2027.842" y2="550.1974" gradientTransform="matrix(0.9065 0.4221 -0.7442 1.5981 -792.9082 1021.1049)">
					<stop  offset="0" style="stop-color:#AB316D"/>
					<stop  offset="1" style="stop-color:#792D3D"/>
				</linearGradient>
				<path style="fill:url(#SVGID_00000178899293924624913340000000036934462875310745_);" d="M749.424,2794.929
					c-1.312,2.818-3.672,4.499-5.27,3.754L532.885,2700.3c-1.598-0.744-1.83-3.632-0.518-6.45l0,0
					c1.312-2.818,3.672-4.499,5.27-3.754l211.269,98.383C750.504,2789.223,750.736,2792.111,749.424,2794.929L749.424,2794.929z"/>
				<g>
					
						<linearGradient id="SVGID_00000032641637672348214800000007252983714834459549_" gradientUnits="userSpaceOnUse" x1="1218.1279" y1="2557.2483" x2="1228.9125" y2="2719.7856">
						<stop  offset="0" style="stop-color:#AB316D"/>
						<stop  offset="1" style="stop-color:#792D3D"/>
					</linearGradient>
					
						<rect x="1058.898" y="2671.65" style="fill:url(#SVGID_00000032641637672348214800000007252983714834459549_);" width="336.867" height="48.62"/>
					
						<linearGradient id="SVGID_00000023962212289419634120000002899745859304979624_" gradientUnits="userSpaceOnUse" x1="1038.0612" y1="2647.3398" x2="1420.075" y2="2647.3398">
						<stop  offset="0" style="stop-color:#AB316D"/>
						<stop  offset="1" style="stop-color:#792D3D"/>
					</linearGradient>
					<path style="fill:url(#SVGID_00000023962212289419634120000002899745859304979624_);" d="M1420.075,2647.34
						c0,17.262-13.994,31.256-31.256,31.256h-319.503c-17.262,0-31.255-13.994-31.255-31.256l0,0
						c0-17.262,13.994-31.256,31.255-31.256h319.503C1406.081,2616.084,1420.075,2630.078,1420.075,2647.34L1420.075,2647.34z"/>
				</g>
				
					<linearGradient id="SVGID_00000018236616106862504610000014761436170242279351_" gradientUnits="userSpaceOnUse" x1="673.2638" y1="3007.2312" x2="875.4729" y2="3007.2312">
					<stop  offset="0" style="stop-color:#AB316D"/>
					<stop  offset="1" style="stop-color:#792D3D"/>
				</linearGradient>
				<path style="fill:url(#SVGID_00000018236616106862504610000014761436170242279351_);" d="M765.074,2939.961
					c0,0-90.301,28.721-91.81,129.159c-0.024,1.6,0.595,2.8,1.718,3.94c1.123,1.14,2.656,1.441,4.256,1.441h32.605
					c3.984,0,7.863-0.931,11.07-3.293l152.559-112.187L765.074,2939.961z"/>
				
					<linearGradient id="SVGID_00000030458455031426429200000010154564346794915994_" gradientUnits="userSpaceOnUse" x1="899.1469" y1="3085.0652" x2="1250.002" y2="3085.0652">
					<stop  offset="0" style="stop-color:#AB316D"/>
					<stop  offset="1" style="stop-color:#792D3D"/>
				</linearGradient>
				<path style="fill:url(#SVGID_00000030458455031426429200000010154564346794915994_);" d="M1187.231,3034.222
					c-11.584-1.737-195.592,1.372-263.062,2.58c-13.666,0.245-25.023,11.39-25.023,25.058v10.244
					c0,12.69,9.882,23.379,22.481,24.893l328.374,39.428L1187.231,3034.222z"/>
				<g>
					
						<linearGradient id="SVGID_00000153668203505797062510000015525624257131040942_" gradientUnits="userSpaceOnUse" x1="1838.5471" y1="3068.8022" x2="2183.3384" y2="3068.8022">
						<stop  offset="0" style="stop-color:#444B8C"/>
						<stop  offset="0.9964" style="stop-color:#26264F"/>
					</linearGradient>
					
						<circle style="fill:url(#SVGID_00000153668203505797062510000015525624257131040942_);" cx="2010.943" cy="3068.802" r="172.396"/>
					
						<ellipse transform="matrix(0.7071 -0.7071 0.7071 0.7071 -1580.9794 2320.7825)" style="fill:#FFFFFF;" cx="2010.943" cy="3068.802" rx="118.963" ry="118.963"/>
				</g>
				
					<linearGradient id="SVGID_00000127726188380042938460000001023399960232746129_" gradientUnits="userSpaceOnUse" x1="1953.4775" y1="3072.5269" x2="2065.2153" y2="3072.5269">
					<stop  offset="0" style="stop-color:#444B8C"/>
					<stop  offset="0.9964" style="stop-color:#26264F"/>
				</linearGradient>
				
					<circle style="opacity:0.6;fill:url(#SVGID_00000127726188380042938460000001023399960232746129_);" cx="2009.346" cy="3072.527" r="55.869"/>
				
					<linearGradient id="SVGID_00000121984441735655582600000000056880611315835529_" gradientUnits="userSpaceOnUse" x1="3759.9758" y1="-130.0807" x2="4050.4958" y2="-130.0807" gradientTransform="matrix(0.6844 0.7291 -0.7291 0.6844 -828.4741 232.3055)">
					<stop  offset="0" style="stop-color:#AB316D"/>
					<stop  offset="1" style="stop-color:#792D3D"/>
				</linearGradient>
				<path style="fill:url(#SVGID_00000121984441735655582600000000056880611315835529_);" d="M2037.367,3097.584
					c-15.426,14.481-39.67,13.715-54.152-1.711l-146.398-155.949c-14.481-15.426-13.715-39.67,1.711-54.152l2.328-2.185
					c15.426-14.481,39.671-13.715,54.152,1.71l146.398,155.949c14.481,15.426,13.715,39.67-1.711,54.151L2037.367,3097.584z"/>
				
					<linearGradient id="SVGID_00000016057503412729884650000006670385684728155305_" gradientUnits="userSpaceOnUse" x1="1802.3647" y1="2924.1228" x2="2174.8186" y2="2924.1228">
					<stop  offset="0" style="stop-color:#FF9085"/>
					<stop  offset="1" style="stop-color:#FB6FBB"/>
				</linearGradient>
				<path style="fill:url(#SVGID_00000016057503412729884650000006670385684728155305_);" d="M2174.328,2942.532
					c-21.559-70.607-97.462-131.163-192.118-131.163c-101.096,0-170.268,100.355-170.268,100.355l-9.578,125.153l84.012-11.202
					c18.094-2.412,35.096-10.03,48.942-21.924l44.667-38.696c6.242-5.363,14.199-8.631,22.429-8.631h161.158
					c3.565,0,6.918-1.37,9.038-4.235C2174.732,2949.323,2175.369,2945.941,2174.328,2942.532z"/>
				
					<linearGradient id="SVGID_00000002368511121403525060000011689957417888708776_" gradientUnits="userSpaceOnUse" x1="644.2452" y1="2800.6357" x2="1975.8394" y2="2800.6357">
					<stop  offset="0" style="stop-color:#FF9085"/>
					<stop  offset="1" style="stop-color:#FB6FBB"/>
				</linearGradient>
				<path style="fill:url(#SVGID_00000002368511121403525060000011689957417888708776_);" d="M1975.825,2748.753
					c1.596,42.301-130.893,284.717-150.048,292.698s-76.62,95.561-180.377,95.561h-377.1c-22.092,0-42.779-10.289-54.656-28.902
					c-30.233-47.249-91.753-134.313-138.108-143.571c-53.379-10.663-318.613-40.068-404.267-49.486
					c-16.026-1.788-27.871-15.132-26.977-31.222c2.906-51.495,24.934-156.616,153.496-184.398H1391.5
					c8.875,0,14.684,6.222,14.684,15.097v19.666c0,11.685-3.751,22.923-11.732,31.479
					c-31.892,34.192-111.489,126.551-76.627,158.412c43.099,39.364,67.214,117.581,162.99,117.581
					c60.179,0,126.765-10.089,171.428-31.063c26.435-12.386,45.25-28.573,50.581-48.75c14.366-54.272-36.692-379.461-41.481-431.563
					c-2.65-28.892,21.177-48.623,42.951-60.467c0.031-0.031,0.036-0.031,0.036-0.031c18.326-9.961,40.963-6.194,55.105,9.066
					C1817.697,2541.814,1974.516,2714.306,1975.825,2748.753z"/>
				
					<linearGradient id="SVGID_00000101081796748780957420000018335462476478077105_" gradientUnits="userSpaceOnUse" x1="1652.3278" y1="2747.4761" x2="1788.4248" y2="2747.4761">
					<stop  offset="0" style="stop-color:#FF9085"/>
					<stop  offset="1" style="stop-color:#FB6FBB"/>
				</linearGradient>
				<path style="opacity:0.5;fill:url(#SVGID_00000101081796748780957420000018335462476478077105_);" d="M1767.258,2924.117
					c-61.743,62.733-110.684,101.011-110.684,101.011l-4.246-14.526c26.435-12.386,45.206-28.573,50.538-48.75
					c14.366-54.272-36.714-379.461-41.503-431.563c-2.65-28.892,21.166-48.623,42.94-60.467
					c-1.406,1.246-34.447,31.447,0.031,114.771C1739.579,2669.738,1828.97,2861.385,1767.258,2924.117z"/>
				
					<linearGradient id="SVGID_00000047033528865187188120000014030642321359479231_" gradientUnits="userSpaceOnUse" x1="1371.455" y1="3017.1987" x2="1666.6476" y2="3017.1987">
					<stop  offset="0" style="stop-color:#AB316D"/>
					<stop  offset="1" style="stop-color:#792D3D"/>
				</linearGradient>
				<path style="fill:url(#SVGID_00000047033528865187188120000014030642321359479231_);" d="M1666.648,3017.199
					c0,14.385-11.661,26.046-26.046,26.046h-243.1c-14.385,0-26.046-11.661-26.046-26.046l0,0c0-14.385,11.661-26.046,26.046-26.046
					h243.1C1654.986,2991.152,1666.648,3002.814,1666.648,3017.199L1666.648,3017.199z"/>
				
					<linearGradient id="SVGID_00000031891982008753470310000012126083243555318452_" gradientUnits="userSpaceOnUse" x1="632.6582" y1="2902.1082" x2="1204.8512" y2="2902.1082">
					<stop  offset="0" style="stop-color:#FF9085"/>
					<stop  offset="1" style="stop-color:#FB6FBB"/>
				</linearGradient>
				<path style="fill:url(#SVGID_00000031891982008753470310000012126083243555318452_);" d="M1202.469,3038.8
					c0,0,33.526-259.491-150.992-273.383H788.211c0,0-161.754,59.884-155.369,200.354
					C990.404,3006.209,1202.469,3038.8,1202.469,3038.8z"/>
				
					<linearGradient id="SVGID_00000014622703493252277680000008254562107150249103_" gradientUnits="userSpaceOnUse" x1="632.6579" y1="2898.2898" x2="1204.8505" y2="2898.2898">
					<stop  offset="0" style="stop-color:#FF9085"/>
					<stop  offset="1" style="stop-color:#FB6FBB"/>
				</linearGradient>
				<path style="opacity:0.3;fill:url(#SVGID_00000014622703493252277680000008254562107150249103_);" d="M640.807,2968.424
					c32.006-98.095,147.404-140.496,147.404-140.496h263.267c118.75,10.418,147.184,121.995,152.371,199.761
					c3.765-55.813,4.933-248.382-152.371-258.8H788.211c0,0-161.754,59.409-155.369,199.879
					C635.514,2969.072,638.151,2968.123,640.807,2968.424z"/>
				
					<linearGradient id="SVGID_00000063620948401085188610000017803254120364697508_" gradientUnits="userSpaceOnUse" x1="684.3077" y1="1420.326" x2="763.1007" y2="2607.8333">
					<stop  offset="0" style="stop-color:#FF9085"/>
					<stop  offset="1" style="stop-color:#FB6FBB"/>
				</linearGradient>
				<path style="fill:url(#SVGID_00000063620948401085188610000017803254120364697508_);" d="M1027.642,2249.662
					c0-33.545-27.194-60.739-60.74-60.739H536.199c-33.546,0-60.74,27.194-60.74,60.739v368.194
					c0,33.545,27.194,60.739,60.74,60.739h430.704c33.546,0,60.74-27.194,60.74-60.739V2249.662z"/>
				
					<linearGradient id="SVGID_00000065038969888469938900000012646335772723071376_" gradientUnits="userSpaceOnUse" x1="744.3867" y1="2582.7822" x2="752.7811" y2="2709.2959">
					<stop  offset="0" style="stop-color:#AB316D"/>
					<stop  offset="1" style="stop-color:#792D3D"/>
				</linearGradient>
				<path style="fill:url(#SVGID_00000065038969888469938900000012646335772723071376_);" d="M996.387,2690.75
					c0,6.713-5.442,12.155-12.155,12.155H518.869c-6.713,0-12.155-5.442-12.155-12.155l0,0c0-6.713,5.442-12.155,12.155-12.155
					h465.362C990.945,2678.595,996.387,2684.037,996.387,2690.75L996.387,2690.75z"/>
				
					<linearGradient id="SVGID_00000113332211645280275410000005363840727805460914_" gradientUnits="userSpaceOnUse" x1="745.1133" y1="2192.6182" x2="752.6563" y2="2306.3003">
					<stop  offset="0" style="stop-color:#FF9085"/>
					<stop  offset="1" style="stop-color:#FB6FBB"/>
				</linearGradient>
				<path style="opacity:0.5;fill:url(#SVGID_00000113332211645280275410000005363840727805460914_);" d="M1027.642,2289.636
					c0,3.836-3.11,6.946-6.946,6.946H482.404c-3.836,0-6.946-3.11-6.946-6.946l0,0c0-3.836,3.11-6.946,6.946-6.946h538.292
					C1024.533,2282.69,1027.642,2285.8,1027.642,2289.636L1027.642,2289.636z"/>
				
					<linearGradient id="SVGID_00000023987510745429756570000010172724640663846318_" gradientUnits="userSpaceOnUse" x1="1889.776" y1="2544.9172" x2="1903.0044" y2="2744.2854">
					<stop  offset="0.0036" style="stop-color:#F36F56"/>
					<stop  offset="1" style="stop-color:#FFC444"/>
				</linearGradient>
				<path style="fill:url(#SVGID_00000023987510745429756570000010172724640663846318_);" d="M1923.639,2736.922
					c0,11.901-9.648,21.55-21.549,21.55h-2.048c-11.901,0-21.549-9.648-21.549-21.55v-43.722c0-11.901,9.648-21.549,21.549-21.549
					h2.048c11.901,0,21.549,9.648,21.549,21.549V2736.922z"/>
				
					<linearGradient id="SVGID_00000183970014912877489190000014232312418077161650_" gradientUnits="userSpaceOnUse" x1="1774.3062" y1="2351.2764" x2="1833.9636" y2="2351.2764">
					<stop  offset="0.0036" style="stop-color:#F36F56"/>
					<stop  offset="1" style="stop-color:#FFC444"/>
				</linearGradient>
				<path style="fill:url(#SVGID_00000183970014912877489190000014232312418077161650_);" d="M1774.306,2256.33v189.608
					c3.473,0.654,7.224-0.024,11.132-0.024h1.678c34.62-10.419,46.848-49.037,46.848-93.19
					C1833.964,2303.444,1822.926,2263.223,1774.306,2256.33z"/>
				<path style="fill:#FFFFFF;" d="M1781.252,2456.333c0,5.754-4.665,10.419-10.419,10.419l0,0c-5.754,0-10.419-4.665-10.419-10.419
					v-204.898c0-5.754,4.665-10.418,10.419-10.418l0,0c5.754,0,10.419,4.665,10.419,10.418V2456.333z"/>
				<g>
					
						<linearGradient id="SVGID_00000175286915964807644500000006713826828508378294_" gradientUnits="userSpaceOnUse" x1="1687.4847" y1="2360.8293" x2="1732.6318" y2="2360.8293">
						<stop  offset="0" style="stop-color:#AB316D"/>
						<stop  offset="1" style="stop-color:#792D3D"/>
					</linearGradient>
					<path style="fill:url(#SVGID_00000175286915964807644500000006713826828508378294_);" d="M1732.632,2368.799
						c0,11.901-9.648,21.549-21.549,21.549h-2.048c-11.901,0-21.549-9.648-21.549-21.549v-15.94c0-11.902,9.648-21.55,21.549-21.55
						h2.048c11.901,0,21.549,9.648,21.549,21.55V2368.799z"/>
					
						<linearGradient id="SVGID_00000051358107557187317340000000754014439717099911_" gradientUnits="userSpaceOnUse" x1="1299.1437" y1="2859.709" x2="1490.6847" y2="2859.709" gradientTransform="matrix(0.7019 -0.1685 0.2334 0.9724 0.8184 -169.5438)">
						<stop  offset="0" style="stop-color:#AB316D"/>
						<stop  offset="1" style="stop-color:#792D3D"/>
					</linearGradient>
					<path style="fill:url(#SVGID_00000051358107557187317340000000754014439717099911_);" d="M1714.587,2360.06
						c2.88,12.001-1.807,23.416-10.469,25.495l-103.074,24.739c-8.663,2.079-18.02-5.964-20.901-17.966l0,0
						c-2.88-12.001,1.807-23.416,10.469-25.495l103.074-24.739C1702.349,2340.015,1711.706,2348.059,1714.587,2360.06
						L1714.587,2360.06z"/>
				</g>
				<g>
					
						<linearGradient id="SVGID_00000181772398620720063880000012137257952028389519_" gradientUnits="userSpaceOnUse" x1="1612.2977" y1="2198.0513" x2="1669.9895" y2="2184.2046">
						<stop  offset="0" style="stop-color:#AB316D"/>
						<stop  offset="1" style="stop-color:#792D3D"/>
					</linearGradient>
					
						<ellipse style="fill:url(#SVGID_00000181772398620720063880000012137257952028389519_);" cx="1641.144" cy="2191.128" rx="27.668" ry="53.475"/>
					<g>
						
							<linearGradient id="SVGID_00000108308998325565281590000002545456338514406807_" gradientUnits="userSpaceOnUse" x1="1659.2178" y1="2274.4299" x2="1705.4812" y2="2263.3259">
							<stop  offset="0" style="stop-color:#AB316D"/>
							<stop  offset="1" style="stop-color:#792D3D"/>
						</linearGradient>
						<path style="fill:url(#SVGID_00000108308998325565281590000002545456338514406807_);" d="M1706.585,2318.562
							c-1.763,0-1.736-1.429-1.736-3.192v-38.522c-6.946-6.485-48.99-44.176-55.972-50.015c-1.353-1.132-2.427-3.144-1.296-4.497
							c1.132-1.355,2.7-1.532,4.05-0.401c7.743,6.475,53.627,49.376,55.572,51.2c0.644,0.603,1.119,1.447,1.119,2.329v39.906
							C1708.322,2317.133,1708.349,2318.562,1706.585,2318.562z"/>
					</g>
				</g>
			</g>
			<g>
				<g>
					<path style="fill:#FFFFFF;" d="M621.818,2510.807c13.18,32.712,51.683,56.657,97.159,56.657h52.619
						c45.476,0,83.98-23.945,97.159-56.657c1.021-2.533,0.459-6.266-1.51-8.415c-1.969-2.149-5.11-4.385-8.451-4.385H631.78
						c-3.342,0-6.482,2.236-8.451,4.385C621.36,2504.54,620.797,2508.274,621.818,2510.807z"/>
					<path style="fill:#FFFFFF;" d="M623.413,2398.052c13.18-32.712,51.683-56.324,97.159-56.324h52.618
						c45.476,0,83.98,23.612,97.159,56.324c1.021,2.532,0.459,4.696-1.51,6.845c-1.969,2.149-5.11,2.816-8.451,2.816H633.374
						c-3.342,0-6.482-0.667-8.451-2.815C622.955,2402.749,622.392,2400.585,623.413,2398.052z"/>
					<path style="fill:#FFFFFF;" d="M874.837,2468.488c0,6.713-5.442,12.155-12.155,12.155H640.419
						c-6.713,0-12.155-5.442-12.155-12.155l0,0c0-6.713,5.442-12.155,12.155-12.155h222.263
						C869.395,2456.333,874.837,2461.775,874.837,2468.488L874.837,2468.488z"/>
					<g>
						<path style="fill:#FFFFFF;" d="M669.021,2420.247c11.453,0,17.294,5.683,22.448,10.696c4.654,4.528,8.673,8.438,16.888,8.438
							c8.213,0,12.232-3.91,16.885-8.438c5.153-5.013,10.992-10.696,22.444-10.696c11.451,0,17.292,5.683,22.444,10.696
							c4.653,4.528,8.671,8.438,16.884,8.438c8.213,0,12.231-3.91,16.884-8.438c5.153-5.013,10.993-10.696,22.445-10.696
							c11.451,0,17.292,5.683,22.444,10.696c4.653,4.528,8.671,8.438,16.884,8.438c2.202,0,3.986,1.784,3.986,3.986
							c0,2.202-1.784,3.986-3.986,3.986c-11.451,0-17.291-5.683-22.444-10.696c-4.653-4.528-8.671-8.438-16.884-8.438
							c-8.213,0-12.231,3.91-16.884,8.438c-5.153,5.013-10.993,10.696-22.444,10.696s-17.291-5.683-22.445-10.696
							c-4.653-4.528-8.671-8.438-16.884-8.438c-8.213,0-12.232,3.91-16.885,8.438c-5.152,5.013-10.992,10.696-22.444,10.696
							c-11.453,0-17.293-5.683-22.447-10.696c-4.654-4.528-8.674-8.438-16.889-8.438s-12.234,3.91-16.888,8.438
							c-5.153,5.013-10.994,10.696-22.448,10.696c-2.202,0-3.986-1.784-3.986-3.986c0-2.202,1.784-3.986,3.986-3.986
							c8.215,0,12.234-3.91,16.889-8.438C651.727,2425.929,657.568,2420.247,669.021,2420.247z"/>
					</g>
				</g>
				<path style="fill:#FFFFFF;" d="M899.147,2609.138c0,5.754-4.664,10.418-10.419,10.418H603.954
					c-5.754,0-10.419-4.665-10.419-10.418l0,0c0-5.754,4.664-10.419,10.419-10.419h284.774
					C894.482,2598.72,899.147,2603.385,899.147,2609.138L899.147,2609.138z"/>
			</g>
		</g>
	</g>
</g>
</svg>
