<?xml version="1.0" encoding="UTF-8"?>
<svg version="1.1" xmlns="http://www.w3.org/2000/svg" width="736" height="736">
<path d="M0 0 C7.30806055 8.97847439 4.77128432 26.55803399 3.875 37.50390625 C3.11927809 43.00313262 2.62517285 46.06164252 -1.8125 49.6875 C-4.46972656 50.14160156 -4.46972656 50.14160156 -7.453125 50.078125 C-8.52304687 50.06523437 -9.59296875 50.05234375 -10.6953125 50.0390625 C-11.80648438 50.00554687 -12.91765625 49.97203125 -14.0625 49.9375 C-15.75246094 49.91042969 -15.75246094 49.91042969 -17.4765625 49.8828125 C-20.25606896 49.83570222 -23.0338534 49.76993361 -25.8125 49.6875 C-25.24873657 50.51435303 -25.24873657 50.51435303 -24.67358398 51.35791016 C-23.52961987 53.03572419 -22.38565856 54.71354014 -21.24169922 56.39135742 C-19.89569071 58.36549224 -18.54966152 60.33961297 -17.20361328 62.3137207 C-13.77980073 67.33512721 -10.35625879 72.3567175 -6.93359375 77.37890625 C-5.68491454 79.21095025 -4.43621681 81.04298163 -3.1875 82.875 C-2.26106689 84.23431641 -2.26106689 84.23431641 -1.31591797 85.62109375 C2.26728519 90.87683488 5.85769843 96.1275514 9.45410156 101.37426758 C14.75457094 109.10889466 20.0383804 116.85090131 25.1875 124.6875 C25.8371875 125.66460937 26.486875 126.64171875 27.15625 127.6484375 C27.7853125 128.61007812 28.414375 129.57171875 29.0625 130.5625 C29.61679687 131.40554688 30.17109375 132.24859375 30.7421875 133.1171875 C33.54902178 138.1088009 34.43916079 142.36276437 34.3125 148.0625 C34.29445313 149.12210938 34.27640625 150.18171875 34.2578125 151.2734375 C34.22300781 152.46839844 34.22300781 152.46839844 34.1875 153.6875 C33.14851563 154.12320313 32.10953125 154.55890625 31.0390625 155.0078125 C6.90090999 165.25333628 -7.24611658 179.9574821 -20.515625 202.20703125 C-29.87309215 217.86572913 -39.19111814 230.47330069 -55.75 239.0625 C-56.69758179 239.56366333 -56.69758179 239.56366333 -57.66430664 240.07495117 C-67.12505715 244.7351535 -77.30858022 244.98349952 -87.6706543 244.97460938 C-89.52716866 244.98485893 -89.52716866 244.98485893 -91.42118835 244.99531555 C-94.09531194 245.0088435 -96.76917613 245.01892651 -99.44330406 245.02302551 C-103.70827251 245.02983259 -107.97308892 245.05170471 -112.23799133 245.07556152 C-121.32529138 245.12431653 -130.41262446 245.1566128 -139.5 245.1875 C-149.24561384 245.22081939 -158.99116751 245.25761257 -168.73669177 245.31163073 C-172.26430152 245.33074072 -175.79183545 245.34623025 -179.31949425 245.35197449 C-195.47687122 245.37908636 -211.52613011 245.80469421 -227.63751507 246.98258209 C-240.70185065 247.92032277 -253.71932649 247.88898113 -266.8125 247.6875 C-267.08191406 248.61949219 -267.35132813 249.55148437 -267.62890625 250.51171875 C-269.25961613 254.88718785 -271.06143801 256.00817001 -274.8125 258.6875 C-279.74691849 260.33230616 -284.07660499 260.2777043 -288.9375 258.625 C-292.56414042 256.18095972 -295.35186505 253.30864719 -297.8125 249.6875 C-297.8125 249.0275 -297.8125 248.3675 -297.8125 247.6875 C-303.0925 247.6875 -308.3725 247.6875 -313.8125 247.6875 C-311.75788651 256.14767319 -308.79665357 263.98622422 -301.56640625 269.35546875 C-292.13353709 274.77976619 -281.84194757 276.63085905 -271.1171875 274.03515625 C-262.57820259 270.56898293 -256.87664504 264.13477212 -251.8125 256.6875 C-248.94231559 255.25240779 -246.47706277 255.57591494 -243.2734375 255.58984375 C-241.97148437 255.59306641 -240.66953125 255.59628906 -239.328125 255.59960938 C-237.94791601 255.60796534 -236.56770768 255.61643029 -235.1875 255.625 C-233.79948074 255.63001499 -232.41145978 255.6345779 -231.0234375 255.63867188 C-227.61974868 255.65049024 -224.21614561 255.66696566 -220.8125 255.6875 C-219.06727414 260.92317759 -221.75495557 265.75882624 -223.8125 270.6875 C-228.35412466 279.16519937 -234.03750774 286.95866376 -241.8125 292.6875 C-240.89211945 292.68527939 -239.97173889 292.68305878 -239.02346802 292.68077087 C-155.20803527 292.48866752 -71.56541494 293.28417464 12.1875 296.6875 C11.35687042 295.93939056 10.52624084 295.19128113 9.67044067 294.42050171 C8.57327281 293.42552212 7.47626589 292.43036504 6.37939453 291.43505859 C5.83277664 290.94359848 5.28615875 290.45213837 4.72297668 289.94578552 C0.78881064 286.36681442 -2.17921303 282.89566123 -4.9375 278.3125 C-5.29585937 277.73628906 -5.65421875 277.16007812 -6.0234375 276.56640625 C-11.06267728 268.31183064 -11.06267728 268.31183064 -10.51074219 264.72827148 C-9.33487883 261.29154357 -6.65890402 258.94876108 -4.1875 256.375 C-3.63771484 255.79395508 -3.08792969 255.21291016 -2.52148438 254.61425781 C-1.43542283 253.46985412 -0.34600276 252.32862652 0.74707031 251.19091797 C1.88312435 250.00518563 3.00317835 248.80412365 4.1171875 247.59765625 C27.45710329 222.92237214 64.80328218 209.33116799 97.96484375 206.34765625 C101.1875 206.6875 101.1875 206.6875 103.04296875 208.48828125 C103.48253906 209.31714844 103.92210937 210.14601563 104.375 211 C104.85710938 211.90878906 105.33921875 212.81757813 105.8359375 213.75390625 C113.69481698 230.81176317 114.68576674 248.99571387 108.1875 266.6875 C102.66594875 279.5186696 94.01763881 291.04592502 82.1875 298.6875 C79.89453125 299.3984375 79.89453125 299.3984375 78.1875 299.6875 C78.1875 300.3475 78.1875 301.0075 78.1875 301.6875 C79.9509375 301.625625 79.9509375 301.625625 81.75 301.5625 C88.62388525 301.54046832 95.40313491 302.68638157 102.1875 303.6875 C102.5175 304.6775 102.8475 305.6675 103.1875 306.6875 C100.23538496 308.16355752 97.45596094 308.00616833 94.1640625 308.1875 C93.43101898 308.22810547 92.69797546 308.26871094 91.94271851 308.31054688 C90.36394925 308.39673351 88.7850542 308.48064016 87.20605469 308.5625 C84.93902909 308.6808922 82.67268974 308.80845005 80.40625 308.9375 C50.88804512 310.5521765 21.33518385 310.84120472 -8.21944213 310.83288372 C-12.87864317 310.83267479 -17.53783854 310.83824436 -22.19703674 310.84294128 C-31.27882834 310.8511482 -40.36061344 310.85399165 -49.44240844 310.85455366 C-56.85753652 310.85503416 -64.27266251 310.85711498 -71.68778992 310.86025429 C-92.87828124 310.86903801 -114.06876756 310.8736779 -135.25926071 310.87292381 C-136.39493026 310.87288386 -137.53059981 310.8728439 -138.70068359 310.87280273 C-139.83780003 310.87276185 -140.97491648 310.87272097 -142.14649099 310.87267885 C-160.48584073 310.87227427 -178.82516976 310.88180229 -197.16451353 310.8959411 C-216.15923147 310.91046509 -235.15393943 310.91720246 -254.14866304 310.91634732 C-264.74618698 310.91602053 -275.34368906 310.91858885 -285.94120789 310.92952538 C-325.20938794 310.96811457 -364.45587934 310.93185606 -403.70898438 309.7355957 C-404.42462748 309.71391452 -405.14027058 309.69223334 -405.87759984 309.66989516 C-410.54515166 309.52734586 -415.21227387 309.3743603 -419.87927246 309.21455383 C-421.57411223 309.15775741 -421.57411223 309.15775741 -423.30319118 309.09981358 C-430.82455629 308.82398133 -438.31261138 308.31604408 -445.8125 307.6875 C-445.8125 306.6975 -445.8125 305.7075 -445.8125 304.6875 C-436.25099801 302.95102749 -426.65991401 301.75687036 -417 300.75 C-416.18889771 300.66479095 -415.37779541 300.57958191 -414.54211426 300.49179077 C-391.7246464 298.13435843 -368.8131487 297.1035688 -345.90820312 295.98681641 C-340.16202312 295.70660651 -334.41681815 295.40990298 -328.671875 295.10546875 C-327.86639221 295.06279373 -327.06090942 295.02011871 -326.23101807 294.97615051 C-324.42482957 294.88023096 -322.61866198 294.78391774 -320.8125 294.6875 C-321.57481934 293.977146 -322.33713867 293.26679199 -323.12255859 292.53491211 C-335.5924455 280.78370175 -343.43477078 266.79650193 -345.8125 249.6875 C-345.87772873 247.39666711 -345.8983841 245.10414206 -345.875 242.8125 C-345.86597656 241.66007813 -345.85695313 240.50765625 -345.84765625 239.3203125 C-345.83605469 238.45148438 -345.82445312 237.58265625 -345.8125 236.6875 C-345.21211096 236.68511165 -344.61172192 236.68272329 -343.99313927 236.68026257 C-329.32560132 236.62090229 -314.6582088 236.54521966 -299.99085045 236.45178509 C-292.89756133 236.40698513 -285.80432066 236.36753497 -278.7109375 236.34106445 C-272.52208557 236.3179554 -266.33338898 236.28441599 -260.14466059 236.23879844 C-256.87341893 236.21503829 -253.60235946 236.19775489 -250.33103561 236.18988609 C-225.94972348 236.67531947 -225.94972348 236.67531947 -203.8125 227.6875 C-202.78125 227.006875 -201.75 226.32625 -200.6875 225.625 C-192.09719825 217.9439781 -188.96072249 206.54983697 -187.53515625 195.546875 C-186.81243581 181.78627777 -193.40493562 168.41023326 -202.25 158.3125 C-203.75338153 156.75381012 -205.27313408 155.21066207 -206.8125 153.6875 C-207.69808594 152.75164062 -207.69808594 152.75164062 -208.6015625 151.796875 C-220.83981284 139.82818965 -239.48657971 134.44160878 -256.25 134.1875 C-277.70120135 134.43866756 -298.4893337 143.00182915 -314.8125 156.6875 C-315.54082031 157.25855469 -316.26914062 157.82960938 -317.01953125 158.41796875 C-332.95230242 171.50460566 -342.12616229 192.3022578 -347.8125 211.6875 C-344.5125 211.6875 -341.2125 211.6875 -337.8125 211.6875 C-337.71195312 210.69234375 -337.61140625 209.6971875 -337.5078125 208.671875 C-336.89732169 204.43885512 -335.4393893 200.8173584 -333.6875 196.9375 C-333.21618652 195.8870752 -333.21618652 195.8870752 -332.73535156 194.81542969 C-322.30093434 172.10154844 -304.44936781 156.39085177 -281.3671875 147.3359375 C-264.80595099 141.56648418 -245.36579055 141.6421672 -229.31420898 149.04516602 C-215.2298287 155.9726872 -203.75214406 166.47597404 -198.43359375 181.56640625 C-198.12615234 182.61634766 -198.12615234 182.61634766 -197.8125 183.6875 C-197.62429688 184.31398438 -197.43609375 184.94046875 -197.2421875 185.5859375 C-195.40717227 194.56083017 -196.46542556 203.64052794 -200.8125 211.6875 C-206.64448941 220.08711307 -213.21647327 224.18299221 -223.07199097 226.2809391 C-228.72378386 227.11939574 -234.42808157 226.95545858 -240.12890625 226.93041992 C-241.55716539 226.93149464 -242.9854241 226.93343614 -244.41368103 226.93617249 C-248.26644186 226.94099016 -252.1190856 226.93340644 -255.97183228 226.92321944 C-260.00856379 226.91439957 -264.04529206 226.91619707 -268.08203125 226.9165802 C-274.85044299 226.91564607 -281.61880967 226.90699153 -288.38720703 226.89331055 C-296.22005179 226.87753687 -304.05284741 226.87231432 -311.8857069 226.8730461 C-319.42437104 226.87365532 -326.96301914 226.86856285 -334.50167847 226.86025429 C-337.71060308 226.85671792 -340.91952202 226.85489056 -344.12844849 226.85436058 C-347.8975919 226.85335966 -351.66669373 226.84728383 -355.43582344 226.83719444 C-356.82220772 226.83426294 -358.20859679 226.83304538 -359.59498405 226.83362198 C-361.4793428 226.83410933 -363.3636998 226.82786336 -365.24804688 226.82121277 C-366.83304993 226.818699 -366.83304993 226.818699 -368.45007324 226.81613445 C-370.8125 226.6875 -370.8125 226.6875 -371.8125 225.6875 C-372.12978485 197.13186353 -352.66266345 165.59526338 -333.8125 145.6875 C-333.05195313 144.8625 -332.29140625 144.0375 -331.5078125 143.1875 C-318.20139243 129.22666583 -300.93381614 119.10632611 -282.8125 112.6875 C-283.91658203 111.92566406 -283.91658203 111.92566406 -285.04296875 111.1484375 C-298.48665083 101.6650475 -298.48665083 101.6650475 -300.8125 94.6875 C-301.2975824 89.44861007 -300.66881117 86.11970699 -297.8125 81.6875 C-293.98381753 78.23234752 -291.522646 76.59628307 -286.41381836 76.39941406 C-285.04615578 76.34627045 -285.04615578 76.34627045 -283.65086365 76.29205322 C-279.45943589 76.16774649 -275.26812268 76.07742639 -271.07543945 76.0078125 C-268.87044554 75.9611905 -266.66579455 75.89305941 -264.4621582 75.80273438 C-245.10763844 75.02326014 -245.10763844 75.02326014 -240.48486328 79.01367188 C-238.2273543 81.80035032 -236.5680692 84.57061516 -234.8125 87.6875 C-226.39337834 96.66483484 -217.39608832 100.13076037 -205.0696106 100.93026733 C-201.71876529 100.98437657 -198.37849262 100.99214534 -195.02807808 100.945364 C-192.81977346 100.91721499 -190.61251074 100.91285293 -188.40403748 100.91487122 C-182.13689671 100.91836577 -175.8704949 100.8949784 -169.60375977 100.8215332 C-165.74335532 100.77794963 -161.88451489 100.77328018 -158.02393913 100.79311562 C-156.56350077 100.79301845 -155.1029828 100.77826101 -153.64285469 100.74815941 C-142.28295991 100.51977943 -142.28295991 100.51977943 -138.6194458 103.42904663 C-137.07736526 105.45627968 -135.92432219 107.40209064 -134.8125 109.6875 C-134.18601562 110.62078125 -133.55953125 111.5540625 -132.9140625 112.515625 C-132.42679687 113.31484375 -131.93953125 114.1140625 -131.4375 114.9375 C-130.93476563 115.74703125 -130.43203125 116.5565625 -129.9140625 117.390625 C-128.8125 119.6875 -128.8125 119.6875 -128.8125 123.6875 C-129.86308594 123.97882813 -130.91367187 124.27015625 -131.99609375 124.5703125 C-140.10141045 126.90156884 -147.23635731 129.19143064 -153.8125 134.6875 C-154.42222656 135.16445313 -155.03195312 135.64140625 -155.66015625 136.1328125 C-161.84655733 141.54421389 -167.52434623 151.44641987 -168.8125 159.6875 C-169.74378501 174.09951718 -168.06838531 186.04445206 -158.8125 197.6875 C-158.33425781 198.30238281 -157.85601562 198.91726563 -157.36328125 199.55078125 C-149.3442039 208.66061472 -137.54797949 212.5690666 -125.8125 213.6875 C-119.75205568 213.99986027 -113.68919697 214.0174981 -107.62207031 214.00317383 C-104.81796626 214.00000617 -102.01491249 214.02357372 -99.2109375 214.04882812 C-86.44960861 214.0957869 -75.20245792 213.00531991 -63.6875 207.0625 C-63.01082275 206.71767578 -62.33414551 206.37285156 -61.63696289 206.01757812 C-55.51271859 202.76300059 -50.60426405 198.70234431 -45.8125 193.6875 C-45.19246094 193.08679688 -44.57242187 192.48609375 -43.93359375 191.8671875 C-32.03316086 179.56741123 -26.06156071 161.95954691 -26.28222656 145.1003418 C-27.10208587 125.58654088 -35.36000979 106.65327644 -41.56704712 88.33729553 C-43.94864046 81.30327742 -46.27818874 74.25381222 -48.5625 67.1875 C-49.06487183 65.65863159 -49.06487183 65.65863159 -49.57739258 64.09887695 C-49.87669678 63.16906006 -50.17600098 62.23924316 -50.484375 61.28125 C-50.87254395 60.08532227 -50.87254395 60.08532227 -51.26855469 58.86523438 C-51.8125 56.6875 -51.8125 56.6875 -51.8125 52.6875 C-51.23242188 52.40777344 -50.65234375 52.12804687 -50.0546875 51.83984375 C-43.34636608 48.39712434 -38.72706756 44.69068672 -35.4375 37.8125 C-34.07093762 30.97968808 -34.15803168 25.59054297 -37.59375 19.40625 C-39.30020393 16.99971241 -41.44459369 15.41543163 -43.8125 13.6875 C-44.1425 12.6975 -44.4725 11.7075 -44.8125 10.6875 C-34.23582305 3.98228593 -12.37862069 -5.77668966 0 0 Z M-6.8125 12.6875 C-8.76207399 16.7800581 -9.08210267 20.11148473 -9.0625 24.625 C-9.06765625 25.80964844 -9.0728125 26.99429687 -9.078125 28.21484375 C-8.81243706 31.68832283 -8.05870553 34.44835468 -6.8125 37.6875 C-6.4825 37.6875 -6.1525 37.6875 -5.8125 37.6875 C-4.56144924 29.24290739 -4.346752 21.11555098 -5.8125 12.6875 C-6.1425 12.6875 -6.4725 12.6875 -6.8125 12.6875 Z M66.25 226.5625 C65.41275391 226.83191406 64.57550781 227.10132813 63.71289062 227.37890625 C62.91173828 227.64316406 62.11058594 227.90742188 61.28515625 228.1796875 C60.54789307 228.42058105 59.81062988 228.66147461 59.05102539 228.90966797 C56.99045238 229.63109858 56.99045238 229.63109858 55.1875 231.6875 C55.68121094 232.09742188 56.17492187 232.50734375 56.68359375 232.9296875 C57.32425781 233.46851563 57.96492188 234.00734375 58.625 234.5625 C59.26308594 235.09617187 59.90117188 235.62984375 60.55859375 236.1796875 C62.57093145 238.04242695 63.12682663 239.13447718 63.42578125 241.859375 C63.55073591 246.19990532 63.44665071 249.11736844 61.625 253.125 C58.18830193 256.737939 55.02119254 258.56901808 49.9453125 258.78125 C44.76793021 258.43260473 40.98625747 257.39791427 37.1875 253.6875 C35.53189249 250.10808688 34.29585973 246.46896261 33.1875 242.6875 C25.47327319 247.37259535 25.47327319 247.37259535 19.1875 253.6875 C19.4886802 259.94344299 22.43049926 262.94976241 26.56640625 267.34375 C33.97876336 273.97178915 42.03811619 276.06902093 51.765625 275.9609375 C60.51479452 275.26180295 67.41123424 271.19509555 73.1875 264.6875 C79.33563268 256.31237703 82.08127509 248.1027158 81.1875 237.6875 C80.36223125 232.61534265 78.66439626 228.19094775 76.1875 223.6875 C72.93566196 223.6875 69.31050159 225.55405886 66.25 226.5625 Z " fill="#000000" transform="translate(547.8125,276.3125)"/>
<path d="M0 0 C1.01805725 0.36027283 2.0361145 0.72054565 3.08502197 1.09173584 C5.22744833 1.85164736 7.36869073 2.61490435 9.50878906 3.38134766 C12.73982846 4.53764316 15.97498932 5.68174298 19.2109375 6.82421875 C36.71756652 13.03281222 36.71756652 13.03281222 45.21875 16.53125 C46.24129883 16.95116211 47.26384766 17.37107422 48.31738281 17.80371094 C52.58694625 20.16641904 55.53549918 22.68227466 56.94140625 27.41015625 C57.13283203 28.99376953 57.13283203 28.99376953 57.328125 30.609375 C57.46863281 31.67800781 57.60914063 32.74664062 57.75390625 33.84765625 C57.84027344 34.65589844 57.92664063 35.46414062 58.015625 36.296875 C61.99743873 37.82987329 65.74389779 39.00154571 70.015625 39.296875 C72.53094434 37.92006862 74.07637601 36.30218605 76.04296875 34.2265625 C81.16406685 29.21701307 87.6937332 28.04583875 94.640625 27.796875 C102.88628456 28.06849673 107.86212291 31.02466785 114.015625 36.296875 C119.43361791 43.30292517 122.96734225 51.19980322 126.265625 59.359375 C127.20531278 61.63428662 128.14543052 63.90902068 129.0859375 66.18359375 C129.56321289 67.34681152 130.04048828 68.5100293 130.53222656 69.70849609 C132.04146524 73.3593832 133.5814779 76.99572132 135.1328125 80.62890625 C135.63651367 81.8089624 136.14021484 82.98901855 136.65917969 84.20483398 C137.63004822 86.47696715 138.60201375 88.74863196 139.57519531 91.01977539 C140.01186523 92.04707764 140.44853516 93.07437988 140.8984375 94.1328125 C141.28402832 95.03563965 141.66961914 95.9384668 142.06689453 96.86865234 C142.9021745 99.00650479 143.52494081 101.05849492 144.015625 103.296875 C144.68537354 103.34078369 145.35512207 103.38469238 146.04516602 103.42993164 C154.34493036 104.04161042 162.52403736 105.14324466 170.74536133 106.39868164 C172.9730755 106.7374085 175.20222688 107.06524647 177.43164062 107.39257812 C178.86468188 107.60872267 180.29762838 107.82549653 181.73046875 108.04296875 C183.01042725 108.23560303 184.29038574 108.4282373 185.60913086 108.62670898 C188.64599654 109.2241573 191.20366979 110.02939668 194.015625 111.296875 C192.98894588 114.534863 191.88212421 117.58523671 190.453125 120.671875 C189.26314738 123.67268812 188.79058725 125.50622959 188.515625 128.609375 C188.350625 129.82625 188.185625 131.043125 188.015625 132.296875 C184.78307495 134.45190836 183.86951396 134.55477108 180.13623047 134.58740234 C179.14444794 134.60016205 178.15266541 134.61292175 177.13082886 134.62606812 C176.05898346 134.62829376 174.98713806 134.63051941 173.8828125 134.6328125 C172.22319992 134.6427977 172.22319992 134.6427977 170.53005981 134.65298462 C168.18477034 134.66311916 165.83945198 134.66780139 163.49414062 134.66748047 C159.92528853 134.67183273 156.35769399 134.70808758 152.7890625 134.74609375 C150.50781671 134.75196607 148.22656507 134.75593268 145.9453125 134.7578125 C144.88561249 134.77218353 143.82591248 134.78655457 142.73410034 134.80136108 C134.96929775 134.75408785 128.7450755 133.32934623 122.6328125 128.359375 C118.56001263 123.53776439 115.28492041 118.62041288 112.22265625 113.10546875 C108.6522782 106.79408724 104.58791895 100.76446883 100.63818359 94.68676758 C100.04215332 93.7614624 99.44612305 92.83615723 98.83203125 91.8828125 C98.29006104 91.0479834 97.74809082 90.2131543 97.18969727 89.35302734 C96.015625 87.296875 96.015625 87.296875 96.015625 85.296875 C86.64835375 90.17782565 77.30234071 95.08703487 68.078125 100.234375 C67.3577002 100.63624023 66.63727539 101.03810547 65.89501953 101.45214844 C63.60143819 102.73292059 61.30851007 104.01485682 59.015625 105.296875 C55.35240668 107.34480551 51.68534893 109.38562775 48.015625 111.421875 C47.1481665 111.907771 46.28070801 112.39366699 45.38696289 112.89428711 C44.58379639 113.33909424 43.78062988 113.78390137 42.953125 114.2421875 C42.24027344 114.63937988 41.52742188 115.03657227 40.79296875 115.44580078 C39.015625 116.296875 39.015625 116.296875 37.015625 116.296875 C37.44594822 109.05485016 40.53458586 102.97827363 43.453125 96.421875 C44.54553167 93.93193032 45.63074643 91.43888456 46.71484375 88.9453125 C46.98986725 88.31427612 47.26489075 87.68323975 47.54824829 87.03308105 C50.41780187 80.42280492 53.1068558 73.74473133 55.765625 67.046875 C56.19544678 65.96422363 56.62526855 64.88157227 57.06811523 63.76611328 C58.05350231 61.27750713 59.03504345 58.78737858 60.015625 56.296875 C56.715625 55.636875 53.415625 54.976875 50.015625 54.296875 C49.62246094 55.52019531 49.22929687 56.74351562 48.82421875 58.00390625 C46.79515097 64.08400253 44.43783781 70.026447 42.078125 75.984375 C41.36982544 77.7802002 41.36982544 77.7802002 40.6472168 79.61230469 C35.15424982 93.52736711 29.58805807 107.41348894 24.015625 121.296875 C26.07643861 121.80378084 28.13936026 122.30212119 30.203125 122.796875 C31.92595703 123.21453125 31.92595703 123.21453125 33.68359375 123.640625 C38.70814712 124.63022051 41.77504603 124.81069547 46.21875 122.1640625 C47.02248047 121.69395752 47.82621094 121.22385254 48.65429688 120.73950195 C49.9469043 119.96352661 49.9469043 119.96352661 51.265625 119.171875 C53.13479213 118.07835886 55.0046137 116.98596078 56.875 115.89453125 C58.3590332 115.02272217 58.3590332 115.02272217 59.87304688 114.13330078 C65.39207446 110.90815119 70.9502375 107.75364792 76.515625 104.609375 C78.11712402 103.69164307 78.11712402 103.69164307 79.75097656 102.75537109 C80.75612305 102.1877002 81.76126953 101.6200293 82.796875 101.03515625 C84.1281543 100.27779175 84.1281543 100.27779175 85.48632812 99.50512695 C88.02094412 98.29433404 90.24847997 97.71548959 93.015625 97.296875 C94.73249279 99.71137495 96.4359336 102.13352288 98.12109375 104.5703125 C99.26585488 106.2178244 100.42984627 107.85251322 101.62890625 109.4609375 C102.08652344 110.10804688 102.54414063 110.75515625 103.015625 111.421875 C103.428125 111.98132813 103.840625 112.54078125 104.265625 113.1171875 C106.74596675 120.32568072 102.24495129 128.28118854 99.453125 134.796875 C99.02837891 135.81007813 98.60363281 136.82328125 98.16601562 137.8671875 C97.1246974 140.34763092 96.07443959 142.82386184 95.015625 145.296875 C95.55300293 145.33651367 96.09038086 145.37615234 96.64404297 145.41699219 C110.74632684 146.4715319 124.83575894 147.68416369 138.91778564 148.9798584 C140.75552935 149.14778633 142.59354133 149.312807 144.43182373 149.47473145 C176.74149502 152.33105428 176.74149502 152.33105428 184.015625 160.296875 C188.16814735 166.7888176 189.82215754 172.77685611 190.2265625 180.39453125 C190.32884659 181.85512718 190.32884659 181.85512718 190.43319702 183.3452301 C190.65482913 186.66136795 190.83855252 189.97806883 191.015625 193.296875 C191.08495239 194.52992371 191.15427979 195.76297241 191.22570801 197.03338623 C191.71787437 205.89141021 192.1420357 214.75172407 192.54364014 223.61425781 C192.67439748 226.47265116 192.81005542 229.33080346 192.94579506 232.18896389 C193.07778201 234.97456104 193.20772255 237.7602505 193.33695602 240.54597664 C193.42718372 242.48904936 193.51834237 244.43207879 193.60952759 246.37510681 C193.75893848 249.68197716 193.88906244 252.98906959 194.015625 256.296875 C194.06225281 257.12961945 194.10888062 257.96236389 194.15692139 258.82034302 C194.34824685 263.78373714 194.34824685 263.78373714 192.81225586 266.15332031 C188.96138909 268.60439518 184.76681844 270.26097612 180.578125 272.046875 C179.62357422 272.47097656 178.66902344 272.89507812 177.68554688 273.33203125 C176.76451172 273.72777344 175.84347656 274.12351562 174.89453125 274.53125 C174.0547876 274.89444336 173.21504395 275.25763672 172.34985352 275.63183594 C169.7350879 276.37680211 168.56864902 276.04258468 166.015625 275.296875 C164.23791652 266.74250506 162.46409616 258.18734007 160.69494152 249.63119698 C159.87292159 245.65625527 159.04967278 241.6815772 158.22338867 237.70751953 C157.42277136 233.85666199 156.62567801 230.00508899 155.83080482 226.15304184 C155.5302751 224.69955487 155.22857517 223.24630923 154.92555809 221.79333878 C152.67639072 211.00278451 150.76288006 200.17981188 149.015625 189.296875 C147.84544327 189.30353683 146.67526154 189.31019867 145.46961975 189.31706238 C134.42062807 189.37798105 123.37167064 189.42289928 112.32254887 189.45231152 C106.64261415 189.46794116 100.96281544 189.48913018 95.28295898 189.52319336 C89.79756274 189.55588299 84.31229701 189.57374832 78.82681084 189.58150673 C76.7381224 189.587033 74.64944079 189.59782437 72.56080818 189.61406517 C69.62640286 189.63596697 66.69253106 189.63883659 63.75805664 189.63745117 C62.90209396 189.648237 62.04613129 189.65902283 61.16423035 189.6701355 C51.15245051 189.61926983 43.11028869 186.43154619 36.015625 179.296875 C28.8957518 169.81892414 27.40034032 160.95866608 28.015625 149.296875 C28.31718619 147.29183835 28.6410593 145.28956455 29.015625 143.296875 C22.58975778 141.32646528 22.58975778 141.32646528 16.015625 141.296875 C14.90822768 142.07625843 13.82730446 142.89377754 12.765625 143.734375 C8.51875455 146.89462615 5.28902809 147.68960428 0.015625 147.296875 C-12.49697844 144.09139906 -24.69557784 139.30924926 -36.83251953 134.93115234 C-40.00362207 133.78994844 -43.17942306 132.6625182 -46.35546875 131.53515625 C-48.39873944 130.8003182 -50.44171899 130.06466997 -52.484375 129.328125 C-53.42095947 128.99776245 -54.35754395 128.6673999 -55.32250977 128.32702637 C-64.15249001 125.10953878 -71.70013791 121.53692546 -76.234375 112.921875 C-77.82615777 107.3506353 -77.05813399 102.60618729 -74.95703125 97.30859375 C-74.50320068 96.1486792 -74.04937012 94.98876465 -73.58178711 93.79370117 C-73.07052406 92.52377502 -72.55887374 91.25400472 -72.046875 89.984375 C-71.51291883 88.63615374 -70.97982133 87.28759214 -70.44750977 85.9387207 C-68.96699201 82.19940526 -67.4690591 78.46729417 -65.96643066 74.73681641 C-64.9498297 72.21104636 -63.93694339 69.68381126 -62.92480469 67.15625 C-58.31019931 55.63915243 -53.64812647 44.14199604 -48.949646 32.65887451 C-48.0414585 30.43655723 -47.13658454 28.2129251 -46.23291016 25.98876953 C-44.74744591 22.33562268 -43.24323089 18.69042958 -41.734375 15.046875 C-41.10873657 13.50519653 -41.10873657 13.50519653 -40.47045898 11.93237305 C-37.75358974 5.44724911 -35.18628411 0.23136176 -28.984375 -3.515625 C-18.91262232 -7.50236043 -9.72246944 -3.49114314 0 0 Z M-24.984375 10.296875 C-26.4450035 12.94426416 -26.984375 14.19135834 -26.984375 17.296875 C-19.83164823 19.95393012 -12.67672088 22.60493229 -5.51887512 25.24816895 C-1.55679726 26.71228902 2.40039395 28.18895838 6.35546875 29.671875 C8.2629217 30.38047523 10.17046829 31.0888235 12.078125 31.796875 C12.93744629 32.12236328 13.79676758 32.44785156 14.68212891 32.78320312 C20.3840663 34.88667876 26.0263933 36.27228602 32.015625 37.296875 C33.005625 35.316875 33.995625 33.336875 35.015625 31.296875 C24.94561047 26.88717912 14.64559076 23.2703723 4.265625 19.671875 C1.78902586 18.81002818 -0.68720637 17.94714135 -3.16314697 17.08340454 C-4.68983328 16.55115571 -6.21694277 16.02011841 -7.74456787 15.49057007 C-11.2972055 14.25523151 -14.81993257 12.9763059 -18.32519531 11.61181641 C-21.80686998 10.12778433 -21.80686998 10.12778433 -24.984375 10.296875 Z " fill="#000000" transform="translate(281.984375,178.703125)"/>
<path d="M0 0 C5.98832926 5.35631562 11.92825841 11.01987157 16 18 C15.67 18.99 15.34 19.98 15 21 C14.18547363 21.06993164 13.37094727 21.13986328 12.53173828 21.21191406 C-10.47433463 23.14520795 -10.47433463 23.14520795 -33 28 C-33.71978027 28.20463867 -34.43956055 28.40927734 -35.18115234 28.62011719 C-67.67535598 38.1108931 -100.45560237 57.76920342 -120 86 C-121.32 85.67 -122.64 85.34 -124 85 C-124.77110667 56.86888629 -117.85457628 34.24609683 -100 12 C-99.43667969 11.27039063 -98.87335937 10.54078125 -98.29296875 9.7890625 C-87.28273528 -3.76611544 -70.5081812 -12.24833346 -53.625 -15.6875 C-33.98001846 -17.38103289 -15.83884405 -11.91259539 0 0 Z " fill="#000000" transform="translate(647,452)"/>
<path d="M0 0 C1.984375 1.85546875 1.984375 1.85546875 3.02978516 3.58178711 C4.52372801 5.85282354 5.75138575 7.27895589 7.984375 8.85546875 C12.92620847 9.87332654 17.83490553 9.83703245 22.859375 9.79296875 C24.22920052 9.8060903 25.59899987 9.82233648 26.96875 9.84179688 C30.30831928 9.87707402 33.64480326 9.88056159 36.984375 9.85546875 C36.77692316 13.48587603 36.01794725 14.81814979 33.54956055 17.56201172 C29.42037481 20.6972236 24.97508911 21.02472957 19.94140625 21.55078125 C18.97716232 21.66976776 18.0129184 21.78875427 17.01945496 21.91134644 C13.94724712 22.28746929 10.87272525 22.63551809 7.796875 22.98046875 C4.73962863 23.33695804 1.68332257 23.69959669 -1.37214661 24.0710144 C-3.26772124 24.30002824 -5.16441669 24.52002909 -7.06230164 24.72903442 C-18.69934269 25.88566968 -18.69934269 25.88566968 -28.640625 31.23046875 C-30.10104626 34.0185457 -30.94056058 35.70276303 -31.015625 38.85546875 C-29.35907788 43.9122968 -28.36624861 45.59250104 -24.015625 48.85546875 C-23.685625 44.56546875 -23.355625 40.27546875 -23.015625 35.85546875 C-17.03901128 33.53123008 -11.13060791 32.22349096 -4.828125 31.16796875 C-4.0561377 31.03672607 -3.28415039 30.9054834 -2.48876953 30.77026367 C1.70162383 30.09714619 5.7250392 29.61037478 9.984375 29.85546875 C11.92350387 31.79459762 11.15915274 35.29066144 11.171875 37.85546875 C11.12609442 48.35035766 9.67810231 57.61818752 2.34765625 65.6484375 C-2.5557494 70.11108759 -7.72984913 72.93547038 -14.453125 73.29296875 C-22.82464351 72.88425825 -27.17649379 68.84377303 -32.765625 62.91796875 C-39.48776399 55.82912887 -46.54571026 52.65054424 -56.140625 50.79296875 C-60.015625 49.85546875 -60.015625 49.85546875 -61.21875 48.078125 C-65.36434498 36.51516647 -63.88074259 22.22351212 -58.83203125 11.29296875 C-53.40056439 1.19936461 -44.85971854 -4.83422901 -34.015625 -8.14453125 C-22.01905949 -11.53486498 -9.59791003 -7.24090115 0 0 Z " fill="#000000" transform="translate(433.015625,146.14453125)"/>
<path d="M0 0 C7.20030578 0.00379434 14.40059786 0.00239112 21.60090315 -0.00180078 C100.33032682 -0.0463902 100.33032682 -0.0463902 131.71882308 0.57388282 C132.74749054 0.59329806 133.77615801 0.61271331 134.83599722 0.63271689 C137.61150671 0.68751175 140.38669295 0.74982925 143.16193831 0.8165586 C144.34073844 0.84104009 144.34073844 0.84104009 145.54335272 0.86601615 C148.66085317 0.95206177 151.18140417 1.1356286 154.16022933 2.12857032 C154.16022933 2.78857032 154.16022933 3.44857032 154.16022933 4.12857032 C150.28723845 5.00363595 146.54327714 5.36213425 142.58063948 5.57754493 C141.93558203 5.61352664 141.29052458 5.64950835 140.62591994 5.68658042 C138.48389254 5.80500531 136.34162025 5.91807563 134.19929183 6.03091407 C132.67534428 6.11361184 131.15140856 6.19652784 129.62748396 6.27964759 C124.68037582 6.54776237 119.73282658 6.80716619 114.78522933 7.06607032 C113.07925453 7.15592657 111.37328123 7.2458111 109.6673094 7.33572364 C88.00354973 8.47437084 66.33824731 9.54742334 44.66022933 10.37857032 C43.6608232 10.41940742 42.66141707 10.46024451 41.63172591 10.5023191 C5.75572857 11.94569202 -30.0477171 11.15413613 -65.89268816 9.39089942 C-70.61165189 9.16126366 -75.33121279 8.94460859 -80.05070817 8.72622657 C-88.31376066 8.34182664 -96.57586837 7.94073053 -104.83747804 7.52650809 C-110.21163565 7.2573535 -115.58614071 6.99779418 -120.96112955 6.74579787 C-124.40223546 6.58282978 -127.84295944 6.41267568 -131.28362215 6.24062705 C-132.88960901 6.16169655 -134.49573838 6.08560612 -136.10200441 6.01257682 C-138.30559331 5.91184953 -140.50840946 5.80054779 -142.71135271 5.68667579 C-143.94918504 5.62688544 -145.18701738 5.5670951 -146.46235979 5.50549293 C-149.83792429 5.12877638 -152.67078011 4.32586232 -155.83977067 3.12857032 C-152.69131086 1.29216158 -150.35548052 0.86402503 -146.72796953 0.8117063 C-145.1658722 0.78250791 -145.1658722 0.78250791 -143.57221735 0.75271964 C-142.42631317 0.74155993 -141.28040899 0.73040023 -140.09978044 0.71890235 C-138.87662315 0.69982699 -137.65346586 0.68075164 -136.39324319 0.66109824 C-132.97763754 0.61105757 -129.56217932 0.5704835 -126.1464082 0.53494 C-123.95043476 0.51118549 -121.75453221 0.48390294 -119.55861413 0.45550895 C-79.70799931 -0.05681267 -39.85316154 -0.02342148 0 0 Z " fill="#000000" transform="translate(372.8397706747055,596.871429681778)"/>
<path d="M0 0 C1.13993408 -0.02602295 2.27986816 -0.0520459 3.4543457 -0.07885742 C11.02481495 -0.09586708 11.02481495 -0.09586708 14.98828125 2.2734375 C17.88062623 5.60551801 18.09125542 7.92403804 18.03515625 12.33984375 C17.71393435 15.27592462 16.63166075 17.08420498 14.8125 19.375 C10.75506815 22.07995457 7.15690995 21.71556309 2.4375 21.6875 C1.39625977 21.68186035 0.35501953 21.6762207 -0.71777344 21.67041016 C-35.55871612 21.17631647 -70.32968863 17.25202193 -104.9609375 13.6796875 C-106.09443634 13.56310791 -107.22793518 13.44652832 -108.39578247 13.32641602 C-113.67808632 12.77446818 -118.93723354 12.17804807 -124.1875 11.375 C-124.1875 10.385 -124.1875 9.395 -124.1875 8.375 C-83.10542512 3.25551611 -41.39884884 0.51156973 0 0 Z " fill="#000000" transform="translate(216.1875,323.625)"/>
<path d="M0 0 C2.50991437 3.49866851 3.0625 5.57751799 3.0625 9.875 C1.15669137 15.19120303 1.15669137 15.19120303 -1.77636719 17.02416992 C-5.77643726 18.59898287 -9.93823763 18.21059018 -14.1875 18.1875 C-15.30463379 18.18258545 -16.42176758 18.1776709 -17.57275391 18.17260742 C-47.28572131 17.7935659 -76.99823135 15.10930234 -106.5625 12.3125 C-107.69790222 12.20676666 -108.83330444 12.10103333 -110.00311279 11.99209595 C-113.22432422 11.6894607 -116.44429293 11.37616487 -119.6640625 11.05859375 C-120.61815002 10.96905426 -121.57223755 10.87951477 -122.55523682 10.78726196 C-127.27756683 10.30643375 -131.47987115 9.62565088 -135.9375 7.875 C-132.02628243 3.96378243 -125.27030146 4.57948926 -119.9375 4 C-118.81551712 3.87460342 -118.81551712 3.87460342 -117.67086792 3.74667358 C-99.82891044 1.78442963 -81.91303015 0.75086042 -64 -0.3125 C-63.28418762 -0.35500633 -62.56837524 -0.39751266 -61.83087158 -0.44130707 C-53.05408753 -0.96071952 -44.27622956 -1.45630275 -35.49688721 -1.93060303 C-32.17962207 -2.11177643 -28.8630214 -2.3023232 -25.54638672 -2.49462891 C-23.6754846 -2.59720768 -21.80455564 -2.69929859 -19.93359375 -2.80078125 C-19.12197281 -2.84994186 -18.31035187 -2.89910248 -17.47413635 -2.94975281 C-4.9679254 -3.59381838 -4.9679254 -3.59381838 0 0 Z " fill="#000000" transform="translate(194.9375,387.125)"/>
<path d="M0 0 C0.97141434 -0.01678299 1.94282867 -0.03356598 2.94367981 -0.05085754 C6.46615979 0.2315052 8.20501279 1.4967159 10.46948242 4.15161133 C12.04846295 7.30957239 12.28876413 10.75831769 11.46948242 14.15161133 C8.71123935 17.70652495 7.28243505 19.03080037 2.76977539 19.70141602 C1.29153004 19.68686247 -0.18660087 19.64198421 -1.66333008 19.57348633 C-2.48503693 19.55380798 -3.30674377 19.53412964 -4.15335083 19.51385498 C-6.94860349 19.43053176 -9.73787425 19.29802288 -12.53051758 19.15161133 C-14.03841858 19.07366333 -14.03841858 19.07366333 -15.57678223 18.99414062 C-23.52691967 18.55931703 -31.46559138 17.99131336 -39.40551758 17.40161133 C-40.62432617 17.31335083 -41.84313477 17.22509033 -43.09887695 17.13415527 C-63.96711266 15.61945914 -84.75963001 13.66708876 -105.53051758 11.15161133 C-105.53051758 10.16161133 -105.53051758 9.17161133 -105.53051758 8.15161133 C-81.02703186 4.78901177 -56.53008975 2.86300749 -31.84301758 1.46411133 C-30.6801825 1.39749298 -29.51734741 1.33087463 -28.3192749 1.26223755 C-24.94852255 1.07093583 -21.57751091 0.88539858 -18.20629883 0.70239258 C-17.20723007 0.64629822 -16.20816132 0.59020386 -15.17881775 0.53240967 C-10.12089782 0.26669843 -5.06438745 0.08121022 0 0 Z " fill="#000000" transform="translate(147.530517578125,435.848388671875)"/>
<path d="M0 0 C3.02569262 -0.09678306 6.05040823 -0.16011629 9.07714844 -0.21386719 C10.02428711 -0.24375732 10.97142578 -0.27364746 11.94726562 -0.30444336 C18.54757164 -0.36026625 18.54757164 -0.36026625 21.77636719 1.90332031 C23.80047478 5.01989146 24.13726078 7.40003654 24.20214844 11.09863281 C22.61375909 14.67250884 21.48580486 15.90952853 18.20214844 18.09863281 C15.36571127 18.33654748 12.6658736 18.42977077 9.82714844 18.41113281 C8.92504639 18.40694336 8.02294434 18.40275391 7.09350586 18.3984375 C-14.88948267 18.06175303 -36.91241918 15.5480993 -58.73535156 13.03613281 C-59.45927094 12.95431763 -60.18319031 12.87250244 -60.92904663 12.78820801 C-62.9787464 12.55423166 -65.02705764 12.31071572 -67.07519531 12.06347656 C-68.23269287 11.92546631 -69.39019043 11.78745605 -70.58276367 11.64526367 C-73.81190374 11.09624365 -76.72435204 10.21814636 -79.79785156 9.09863281 C-79.46785156 8.43863281 -79.13785156 7.77863281 -78.79785156 7.09863281 C-77.02075195 6.64379883 -77.02075195 6.64379883 -74.64550781 6.35253906 C-73.74074707 6.23894043 -72.83598633 6.1253418 -71.90380859 6.00830078 C-70.89946777 5.89373535 -69.89512695 5.77916992 -68.86035156 5.66113281 C-67.81218262 5.53625488 -66.76401367 5.41137695 -65.68408203 5.28271484 C-43.88242078 2.76750086 -21.93314928 0.7732105 0 0 Z " fill="#000000" transform="translate(124.7978515625,491.9013671875)"/>
<path d="M0 0 C-0.15026816 7.06260351 -3.43155726 10.83407481 -8 16 C-8.52722656 16.62132812 -9.05445313 17.24265625 -9.59765625 17.8828125 C-17.3829597 26.41412782 -28.13377332 30.66852081 -38.5625 35.0625 C-39.53904541 35.48128418 -40.51559082 35.90006836 -41.52172852 36.33154297 C-42.44397217 36.70811035 -43.36621582 37.08467773 -44.31640625 37.47265625 C-45.56079468 37.98711304 -45.56079468 37.98711304 -46.83032227 38.51196289 C-47.54631592 38.67301514 -48.26230957 38.83406738 -49 39 C-52 37 -52 37 -52.70776367 35.02880859 C-52.93556519 33.8505249 -52.93556519 33.8505249 -53.16796875 32.6484375 C-53.33876953 31.79765625 -53.50957031 30.946875 -53.68554688 30.0703125 C-53.93401367 28.73613281 -53.93401367 28.73613281 -54.1875 27.375 C-54.45336914 26.02921875 -54.45336914 26.02921875 -54.72460938 24.65625 C-55.16089998 22.43942208 -55.58550418 20.22098831 -56 18 C-53.97841038 17.11333788 -51.95650489 16.22739293 -49.93359375 15.34375 C-47.81796544 14.37467392 -45.72925964 13.34605174 -43.66015625 12.28125 C-36.18607198 8.47459879 -29.39613015 6.20388642 -21.08520508 4.99853516 C-15.81395937 4.22243819 -11.1316521 2.83697192 -6.19921875 0.76953125 C-4 0 -4 0 0 0 Z " fill="#000000" transform="translate(506,446)"/>
<path d="M0 0 C1.42662219 2.85324437 1.31033868 4.83454549 1 8 C-0.44946289 10.67041016 -0.44946289 10.67041016 -3 13 C-6.04834682 13.71176151 -9.00656137 13.57911776 -12.12109375 13.4609375 C-13.04031113 13.44259857 -13.9595285 13.42425964 -14.90660095 13.40536499 C-25.54542362 13.10666166 -36.13396393 12.0765105 -46.71459961 10.97363281 C-50.08929148 10.62221008 -53.46527518 10.28646423 -56.84179688 9.953125 C-59.03134066 9.73266938 -61.22079732 9.51134642 -63.41015625 9.2890625 C-64.39790543 9.19001617 -65.3856546 9.09096985 -66.40333557 8.98892212 C-73.32065041 8.26293962 -80.15155336 7.21117448 -87 6 C-86.67 5.01 -86.34 4.02 -86 3 C-67.46481391 0.72531746 -48.96539646 -1.26142861 -30.3125 -2.25 C-29.5536853 -2.29074646 -28.79487061 -2.33149292 -28.01306152 -2.37347412 C-4.44883058 -3.61467484 -4.44883058 -3.61467484 0 0 Z " fill="#000000" transform="translate(188,549)"/>
<path d="M0 0 C0.9204007 -0.00729126 1.84080139 -0.01458252 2.78909302 -0.02209473 C3.63325775 -0.015448 4.47742249 -0.00880127 5.34716797 -0.00195312 C6.08208466 0.00348511 6.81700134 0.00892334 7.57418823 0.01452637 C9.5078125 0.28125 9.5078125 0.28125 12.5078125 2.28125 C13.62633112 6.23334911 14.03006993 8.31756484 12.04394531 11.98242188 C8.52748636 15.16984751 5.49949768 14.92967193 0.9921875 14.75 C-0.30999725 14.72311096 -0.30999725 14.72311096 -1.63848877 14.69567871 C-13.87748355 14.33513486 -26.06722853 13.01246276 -38.2421875 11.78125 C-40.70434045 11.53948066 -43.16657982 11.29858976 -45.62890625 11.05859375 C-51.58436483 10.4762404 -57.53867555 9.88316223 -63.4921875 9.28125 C-63.4921875 7.96125 -63.4921875 6.64125 -63.4921875 5.28125 C-56.63344515 4.55315317 -49.77296748 3.84336465 -42.91113281 3.14501953 C-40.58747651 2.906507 -38.26421295 2.6641297 -35.94140625 2.41748047 C-23.9629646 1.14813868 -12.05390037 0.05467588 0 0 Z " fill="#000000" transform="translate(170.4921875,283.71875)"/>
<path d="M0 0 C1.7265625 1.69921875 1.7265625 1.69921875 2.2265625 5.13671875 C1.7265625 8.69921875 1.7265625 8.69921875 0.0390625 11.07421875 C-5.1824932 14.74342006 -10.94503215 13.56940819 -16.97265625 12.9921875 C-18.39624199 12.86400383 -18.39624199 12.86400383 -19.84858704 12.73323059 C-22.88669186 12.4577573 -25.92375585 12.17217087 -28.9609375 11.88671875 C-30.95372008 11.70576288 -32.94655829 11.52541851 -34.93945312 11.34570312 C-46.73425631 10.2717267 -58.50834017 9.05988344 -70.2734375 7.69921875 C-70.6034375 6.70921875 -70.9334375 5.71921875 -71.2734375 4.69921875 C-67.90812901 3.01656451 -64.09047059 3.10139376 -60.3828125 2.76171875 C-59.48661194 2.67672119 -58.59041138 2.59172363 -57.66705322 2.50415039 C-55.76063427 2.32412566 -53.85403125 2.14604147 -51.94726562 1.96972656 C-49.07640602 1.70411931 -46.2061453 1.43270706 -43.3359375 1.16015625 C-4.38933004 -2.5114208 -4.38933004 -2.5114208 0 0 Z " fill="#000000" transform="translate(192.2734375,245.30078125)"/>
<path d="M0 0 C3.58216984 2.21027501 5.40029413 4.15509291 7 8 C7.57865799 12.2009067 7.46725091 15.8933531 5.8125 19.8125 C2.73518731 23.52649808 0.3352031 25.62911025 -4.375 26.9375 C-9.83403908 27.03162136 -13.37225648 25.49923745 -17.375 21.8125 C-19.43954462 18.23924969 -20.32330902 15.09023506 -20 11 C-18.50912486 6.3358096 -16.4039364 2.41506189 -12 0 C-7.81974477 -1.39341841 -4.26686312 -0.97485449 0 0 Z " fill="#010101" transform="translate(498,294)"/>
<path d="" fill="#000000" transform="translate(0,0)"/>
</svg>
