<?xml version="1.0" encoding="UTF-8"?>
<svg version="1.1" xmlns="http://www.w3.org/2000/svg" width="512" height="512">
<path d="M0 0 C10.87007585 7.33581622 17.74859297 16.58586585 21.109375 29.3046875 C23.38705474 42.94079649 21.50444899 54.56598057 14.109375 66.3046875 C6.9407003 75.38902485 6.9407003 75.38902485 3.109375 77.3046875 C4.2953125 77.59601563 5.48125 77.88734375 6.703125 78.1875 C35.56658142 85.42587148 59.61726222 97.56195104 81.109375 118.3046875 C81.96144531 119.09359375 82.81351562 119.8825 83.69140625 120.6953125 C105.20992045 141.16331656 118.97287555 170.07747442 124.17236328 199.07836914 C124.34889435 200.05979385 124.52542542 201.04121857 124.70730591 202.05238342 C124.83998871 202.79564377 124.97267151 203.53890411 125.109375 204.3046875 C125.96048859 204.31055374 126.81160217 204.31641998 127.68850708 204.32246399 C135.7218367 204.38044352 143.75488985 204.45255036 151.78795052 204.54040241 C155.91753297 204.58506983 160.04701761 204.62433377 164.17675781 204.65112305 C168.16455996 204.6771925 172.15198493 204.7176202 176.13955307 204.76787376 C177.65847953 204.78451796 179.1774712 204.79604747 180.69647598 204.80230141 C182.82946263 204.81196958 184.96148968 204.84005876 187.09423828 204.87231445 C188.91291916 204.88896904 188.91291916 204.88896904 190.76834106 204.90596008 C195.65909742 205.48963528 198.94820695 207.11996963 202.38452148 210.62597656 C204.25378189 213.52895253 204.99922465 215.79530244 205.70703125 219.1640625 C205.95130859 220.28039062 206.19558594 221.39671875 206.44726562 222.546875 C206.80594727 224.28324219 206.80594727 224.28324219 207.171875 226.0546875 C209.18545568 240.29326093 209.18545568 240.29326093 216.609375 251.8046875 C217.1971875 252.26875 217.785 252.7328125 218.390625 253.2109375 C222.92765711 256.09813975 227.93919134 255.81818873 233.109375 255.3046875 C237.21207394 254.2389797 241.14356426 252.7943829 245.109375 251.3046875 C253.8557703 248.01923952 261.56084212 245.48706466 270.734375 248.4921875 C274.08511025 250.71790452 275.77156227 253.70769916 277.82421875 257.1171875 C278.17013565 257.68978806 278.51605255 258.26238861 278.87245178 258.8523407 C283.42838918 266.43293848 287.78972011 274.1267854 292.14453125 281.82397461 C292.83974906 283.05197418 293.53506056 284.27992073 294.23046875 285.5078125 C294.73500076 286.39962975 294.73500076 286.39962975 295.24972534 287.3094635 C297.15895086 290.67220846 299.11783058 293.99593356 301.14453125 297.2890625 C305.04939723 303.69136352 308.4326557 309.24448953 307.6640625 317.046875 C305.21676752 327.00839962 292.89574199 335.89900329 284.859375 341.6171875 C280.4973621 345.88006374 278.16872465 350.72752202 278.06640625 356.89453125 C279.50820575 367.17725514 287.63902757 372.96621089 295.109375 379.3046875 C296.90873589 380.85832069 298.70022568 382.42110925 300.484375 383.9921875 C301.31710937 384.71792969 302.14984375 385.44367188 303.0078125 386.19140625 C306.47245351 389.67536682 307.43695075 392.48901812 307.609375 397.3671875 C307.48522843 401.8182868 306.68915462 404.65745813 304.45703125 408.5 C303.91127441 409.45495361 303.36551758 410.40990723 302.80322266 411.39379883 C302.24425293 412.35439209 301.6852832 413.31498535 301.109375 414.3046875 C300.11606143 416.08067535 299.12513313 417.85799962 298.13671875 419.63671875 C294.81683285 425.53891615 291.46763773 431.4242594 288.109375 437.3046875 C287.22596436 438.85687988 287.22596436 438.85687988 286.32470703 440.44042969 C284.59781503 443.46451086 282.85605364 446.47950046 281.109375 449.4921875 C280.58206787 450.41813721 280.05476074 451.34408691 279.51147461 452.2980957 C276.43540503 457.55962543 273.70854398 461.50510301 268.109375 464.3046875 C259.52444404 465.25370694 252.43278976 463.17716572 244.421875 460.3046875 C233.30722161 456.10892197 233.30722161 456.10892197 221.71875 457.00390625 C221.10515625 457.33003906 220.4915625 457.65617187 219.859375 457.9921875 C219.23546875 458.30542969 218.6115625 458.61867188 217.96875 458.94140625 C212.99539171 462.58783911 211.34095466 466.95752352 210.14453125 472.80078125 C209.81588205 474.26109626 209.48710197 475.72138182 209.15820312 477.18164062 C208.66188467 479.46254653 208.17136534 481.74457894 207.68481445 484.02758789 C207.20671849 486.24713102 206.70772645 488.46124435 206.20703125 490.67578125 C206.00207787 491.68855385 206.00207787 491.68855385 205.79298401 492.7217865 C204.52826981 498.26785895 202.19318021 502.26788861 197.37072754 505.45303345 C194.281968 506.61629947 191.60807568 506.56688166 188.30883789 506.5793457 C187.63353531 506.58445663 186.95823273 506.58956757 186.26246643 506.59483337 C184.03556394 506.60870569 181.80897175 506.60777445 179.58203125 506.60546875 C178.03030788 506.60935697 176.47858556 506.6136919 174.92686462 506.61845398 C171.67622425 506.62591109 168.42569249 506.62562862 165.17504883 506.62036133 C161.01432068 506.61456715 156.85403776 506.63149858 152.69338322 506.654706 C149.48914501 506.66945485 146.28501374 506.67031349 143.0807476 506.66719627 C141.54698238 506.6677089 140.01321107 506.67293573 138.47947884 506.68300819 C136.33246247 506.69537815 134.18630972 506.68857855 132.03930664 506.67700195 C130.20874474 506.67794609 130.20874474 506.67794609 128.34120178 506.6789093 C123.68847304 506.14015749 121.15202464 504.36781776 117.921875 501.07421875 C115.74299186 497.74484775 114.9826521 494.87125318 114.109375 490.9921875 C113.94695312 490.30012207 113.78453125 489.60805664 113.6171875 488.89501953 C113.10242559 486.7008469 112.6043169 484.5034089 112.109375 482.3046875 C111.45791083 479.42590296 110.78862823 476.55202567 110.109375 473.6796875 C109.820625 472.40867187 109.531875 471.13765625 109.234375 469.828125 C107.80863748 465.36279428 105.98503363 461.77841928 102.25 458.84375 C101.31414062 458.39128906 101.31414062 458.39128906 100.359375 457.9296875 C99.74578125 457.61257813 99.1321875 457.29546875 98.5 456.96875 C89.32762079 454.42086688 81.13236263 458.3915387 72.57226562 461.4609375 C64.69253755 464.15321799 56.74138556 466.31480529 48.796875 462.8671875 C44.64758439 458.91088715 41.5094269 454.27196168 39.0625 449.0859375 C38.23470545 447.12667214 38.23470545 447.12667214 36.109375 446.3046875 C36.17125 447.5421875 36.233125 448.7796875 36.296875 450.0546875 C36.22706495 464.92422902 29.16088481 478.65873356 19.109375 489.3046875 C5.13242716 502.72158342 -10.56826136 506.96543756 -29.390625 506.61328125 C-44.38847688 505.99605408 -58.60189387 499.30224561 -68.890625 488.3046875 C-79.15892111 476.02111832 -85.0171557 462.36379972 -84.890625 446.3046875 C-85.44592927 446.30837467 -86.00123354 446.31206184 -86.57336521 446.31586075 C-100.1033331 446.4043103 -113.63325013 446.47018927 -127.16344547 446.51193619 C-133.70664817 446.53280408 -140.24964207 446.56110793 -146.79272461 446.60644531 C-153.10805245 446.64993035 -159.42317954 446.67383061 -165.73864555 446.68419647 C-168.14718218 446.69158297 -170.55570792 446.70600703 -172.96415901 446.72760773 C-176.33970952 446.75667598 -179.71443221 446.76064192 -183.09008789 446.75878906 C-184.08415146 446.77317017 -185.07821503 446.78755127 -186.10240173 446.80236816 C-192.23956765 446.76595531 -195.89936349 445.9571385 -200.890625 442.3046875 C-206.69953856 436.26875892 -205.47150906 426.69782628 -205.421875 418.9296875 C-205.42457457 417.43570707 -205.42846085 415.94172837 -205.43347168 414.44775391 C-205.43934499 411.3276281 -205.43087469 408.2079626 -205.41210938 405.08789062 C-205.38932038 401.10673373 -205.40245526 397.12665573 -205.42639923 393.14553833 C-205.44091652 390.06380213 -205.43622432 386.9823179 -205.42588806 383.90057373 C-205.4232371 382.43349069 -205.42643261 380.9663841 -205.43580627 379.49932861 C-205.48992602 368.65077197 -203.95874487 362.00020605 -197.265625 353.2421875 C-193.54733487 348.25677057 -190.07062495 343.1535707 -186.65576172 337.95874023 C-186.0739917 337.07617554 -186.0739917 337.07617554 -185.48046875 336.17578125 C-185.10340286 335.57795837 -184.72633698 334.9801355 -184.33784485 334.36419678 C-182.890625 332.3046875 -182.890625 332.3046875 -181.13447571 330.56916809 C-173.097237 321.7743888 -174.9738585 309.81957538 -175.09375 298.6953125 C-175.09197917 296.3633371 -175.08668829 294.03136198 -175.07806396 291.69940186 C-175.06283525 285.56571063 -175.08658201 279.43284478 -175.12127686 273.29925537 C-175.17176375 263.52820954 -175.16991531 253.75721028 -175.15486908 243.98607635 C-175.15620997 240.60865196 -175.1783807 237.23187341 -175.20343018 233.85455322 C-175.27480378 214.09616805 -173.49760118 195.01978741 -166.890625 176.3046875 C-166.55224609 175.3448999 -166.55224609 175.3448999 -166.20703125 174.36572266 C-158.70417148 153.56860076 -147.18350804 136.15005909 -131.890625 120.3046875 C-131.10171875 119.45261719 -130.3128125 118.60054688 -129.5 117.72265625 C-109.14265014 96.32047552 -80.53659756 83.130987 -51.890625 77.3046875 C-52.39851562 76.90378906 -52.90640625 76.50289063 -53.4296875 76.08984375 C-62.56521263 68.54533704 -68.88164032 59.13254467 -70.11816406 47.08837891 C-71.12647281 31.57374155 -67.68380906 20.73966536 -58.640625 8.1796875 C-43.66802033 -7.47349011 -18.65210606 -10.93920815 0 0 Z M-34.4765625 28.7734375 C-38.3189796 33.30438021 -39.2461172 36.20667003 -39.171875 41.98828125 C-38.60274944 46.67566257 -35.79126232 49.40405018 -32.578125 52.6171875 C-29.17730467 54.75258631 -26.90631244 55.23545151 -22.890625 55.3046875 C-17.71207368 53.69755088 -14.18561721 51.63524869 -10.890625 47.3046875 C-9.0233766 42.76872336 -8.61439375 39.39119708 -9.828125 34.6171875 C-12.90989901 29.66767167 -16.29057463 26.24513125 -21.828125 24.2421875 C-26.64506766 24.34049245 -30.87418639 25.43724682 -34.4765625 28.7734375 Z M-112.578125 144.6875 C-133.13780733 167.95605939 -144.04852167 196.44399901 -144.0324707 227.55078125 C-144.03594513 228.65100616 -144.03941956 229.75123108 -144.04299927 230.88479614 C-144.0503239 233.26263937 -144.05568673 235.64048929 -144.05928993 238.01834106 C-144.06648804 241.78498812 -144.08217788 245.55150738 -144.10063171 249.31811523 C-144.15295719 260.02359338 -144.20153116 270.72897197 -144.21655273 281.43457031 C-144.22584866 287.99265586 -144.25597139 294.55047038 -144.29787254 301.10842896 C-144.31017084 303.60260544 -144.31530595 306.09682813 -144.31307411 308.59103394 C-144.3107189 312.08057587 -144.33290371 315.56917883 -144.3605957 319.05859375 C-144.35399429 320.08324738 -144.34739288 321.107901 -144.34059143 322.16360474 C-144.42292261 328.49412744 -145.50292638 332.93804326 -148.890625 338.3046875 C-149.56641602 339.38532471 -149.56641602 339.38532471 -150.25585938 340.48779297 C-150.66126953 341.04354004 -151.06667969 341.59928711 -151.484375 342.171875 C-151.95190186 342.8215625 -152.41942871 343.47125 -152.90112305 344.140625 C-153.39265869 344.81351563 -153.88419434 345.48640625 -154.390625 346.1796875 C-159.47027721 353.24371534 -164.35356991 360.41659168 -169.14453125 367.67919922 C-169.85996094 368.76225342 -169.85996094 368.76225342 -170.58984375 369.8671875 C-171.01096436 370.50785156 -171.43208496 371.14851563 -171.8659668 371.80859375 C-172.890625 373.3046875 -172.890625 373.3046875 -173.890625 374.3046875 C-173.890625 387.8346875 -173.890625 401.3646875 -173.890625 415.3046875 C-109.870625 415.3046875 -45.850625 415.3046875 20.109375 415.3046875 C18.129375 411.6746875 16.149375 408.0446875 14.109375 404.3046875 C12.57570941 398.26024075 13.16192623 393.75900318 16.109375 388.3046875 C18.46196907 385.49106229 21.10897225 383.09883736 23.859375 380.6796875 C24.5503125 380.050625 25.24125 379.4215625 25.953125 378.7734375 C29.78741595 375.29951224 33.69906289 371.92620677 37.67895508 368.62036133 C41.57274845 365.03892209 42.34674259 361.06708028 42.671875 355.9921875 C42.44901486 348.85097358 39.26482346 344.40619667 34.28125 339.5078125 C32.26405172 337.72021402 30.19306947 336.0141974 28.109375 334.3046875 C26.3502699 332.7734183 24.60051653 331.23135186 22.859375 329.6796875 C22.04984375 328.96554687 21.2403125 328.25140625 20.40625 327.515625 C16.29880578 323.56186067 13.3989719 320.41143496 12.94873047 314.51245117 C13.57936307 305.84556568 19.69214689 297.44625765 23.984375 290.1796875 C24.98467359 288.47490133 25.98496222 286.77010918 26.98455811 285.06491089 C27.66824068 283.89926574 28.35285621 282.73416732 29.03839111 281.5696106 C31.40090151 277.54749644 33.69377384 273.49098985 35.9609375 269.4140625 C36.57469238 268.32367676 37.18844727 267.23329102 37.82080078 266.10986328 C38.98626202 264.03761402 40.13896714 261.95812242 41.27685547 259.87060547 C44.52710025 254.15194483 46.82465512 250.60102745 53.109375 248.3046875 C60.69959996 246.92161687 67.60311954 249.80933673 74.671875 252.3046875 C76.83593207 253.06590068 79.00386114 253.81620829 81.17578125 254.5546875 C82.12396729 254.88984375 83.07215332 255.225 84.04907227 255.5703125 C87.86700376 256.48649422 91.18891975 256.42284182 95.109375 256.3046875 C95.18465769 250.63454958 95.23850026 244.96471519 95.27416992 239.29418945 C95.28907094 237.37323934 95.30939877 235.45232208 95.33569336 233.53149414 C95.54179457 218.06582099 94.66151682 203.17613399 89.546875 188.4296875 C89.17115356 187.33479004 89.17115356 187.33479004 88.7878418 186.21777344 C77.36934909 154.51434697 54.61506438 131.7638639 24.84765625 116.6484375 C-22.08590765 94.87570726 -77.19820417 108.17036743 -112.578125 144.6875 Z M143.109375 236.3046875 C141.789375 241.2546875 140.469375 246.2046875 139.109375 251.3046875 C134.33413579 264.99370657 127.02299999 275.38634865 113.90625 282.015625 C97.57447465 289.5428399 81.64624272 286.77788249 65.109375 281.3046875 C60.92675991 287.47015136 56.91794497 293.71371185 53.109375 300.1171875 C52.59503906 300.94927734 52.08070313 301.78136719 51.55078125 302.63867188 C51.07511719 303.44240234 50.59945312 304.24613281 50.109375 305.07421875 C49.67625 305.79198486 49.243125 306.50975098 48.796875 307.24926758 C47.87580122 309.31540948 47.87580122 309.31540948 48.82348633 311.4206543 C50.71560286 314.19290858 53.25151924 316.16030978 55.796875 318.3046875 C61.75094449 323.55356437 65.73812994 329.05946786 69.109375 336.3046875 C69.46773438 337.05621094 69.82609375 337.80773437 70.1953125 338.58203125 C73.94722858 348.37487644 73.85011973 362.55777513 70.484375 372.4296875 C69.74356895 374.07849541 68.95233646 375.70569498 68.109375 377.3046875 C67.696875 378.13871094 67.284375 378.97273437 66.859375 379.83203125 C62.38049179 388.08997218 55.72332068 394.84861122 48.109375 400.3046875 C49.61674373 405.66516168 52.12228779 410.02349854 54.984375 414.7421875 C55.85715924 416.19898612 56.72955945 417.65601489 57.6015625 419.11328125 C58.02147461 419.81179199 58.44138672 420.51030273 58.87402344 421.22998047 C60.66122828 424.23149563 62.38746275 427.26531216 64.109375 430.3046875 C65.965625 429.9025 65.965625 429.9025 67.859375 429.4921875 C68.68695313 429.31300781 69.51453125 429.13382813 70.3671875 428.94921875 C72.20757537 428.51664895 74.03681724 428.03385323 75.8515625 427.50390625 C89.74049984 423.53294991 103.21772589 424.11478329 116.1171875 430.8828125 C130.70208802 439.70528638 136.92217451 451.53351895 141.046875 467.6796875 C141.7275 470.5259375 142.408125 473.3721875 143.109375 476.3046875 C154.329375 476.3046875 165.549375 476.3046875 177.109375 476.3046875 C177.83125 473.2109375 178.553125 470.1171875 179.296875 466.9296875 C183.01276004 451.85318876 189.1052093 440.00308153 202.77734375 431.55078125 C217.17007848 423.860191 231.41526261 423.68073814 246.76953125 428.33203125 C249.88284484 429.23871556 252.90370357 429.84115815 256.109375 430.3046875 C256.38088379 429.81178223 256.65239258 429.31887695 256.93212891 428.81103516 C258.19763812 426.51619513 259.46581606 424.22284306 260.734375 421.9296875 C261.1878833 421.10782959 261.6413916 420.28597168 262.10864258 419.43920898 C264.9942358 414.23445952 267.9862977 409.1342962 271.24609375 404.15234375 C272.43996123 402.14964523 272.43996123 402.14964523 271.109375 399.3046875 C269.51605371 397.72805254 269.51605371 397.72805254 267.546875 396.1796875 C256.16845752 386.45297579 249.09745219 375.76935767 247.359375 360.6796875 C246.39978572 345.84296096 250.75634226 333.0388291 260.609375 321.8046875 C264.23567618 318.0353247 268.04347678 314.59200946 272.109375 311.3046875 C269.81516189 305.1634707 266.4083231 299.698671 263.109375 294.0546875 C262.46742188 292.9409375 261.82546875 291.8271875 261.1640625 290.6796875 C260.54789063 289.62265625 259.93171875 288.565625 259.296875 287.4765625 C258.45189453 286.0239502 258.45189453 286.0239502 257.58984375 284.54199219 C256.30364161 282.19385566 256.30364161 282.19385566 254.109375 281.3046875 C252.33314322 281.84390072 250.55925311 282.39316138 248.80371094 282.99633789 C234.61853661 287.81784518 220.04793235 288.5549897 206.109375 282.3046875 C202.91158151 280.5223108 200.00991478 278.53210623 197.109375 276.3046875 C196.243125 275.7271875 195.376875 275.1496875 194.484375 274.5546875 C183.35924538 264.01509101 180.75410846 250.88362133 177.109375 236.3046875 C165.889375 236.3046875 154.669375 236.3046875 143.109375 236.3046875 Z M-53.890625 446.3046875 C-52.71317274 456.90175785 -50.6516151 462.40945288 -43.09765625 469.54296875 C-36.79931805 474.57049181 -29.44432009 476.80229858 -21.44921875 476.0859375 C-11.51838966 474.5091341 -4.6632425 469.37077386 1.296875 461.3671875 C4.47115618 456.00374688 5.109375 452.62985022 5.109375 446.3046875 C-14.360625 446.3046875 -33.830625 446.3046875 -53.890625 446.3046875 Z " fill="#000000" transform="translate(204.890625,5.6953125)"/>
<path d="M0 0 C11.25685663 8.22616446 19.56849393 20.30565487 22.15625 34.21484375 C23.92849674 50.38659523 21.16899932 65.246517 11.43359375 78.51171875 C0.97109179 90.88329978 -13.03927373 97.54198328 -28.9921875 99.00390625 C-44.02818754 99.5708374 -57.53911242 94.13895433 -68.9375 84.53125 C-79.2693205 74.63551283 -85.47611059 61.33983087 -85.85522461 47.00830078 C-85.98191948 33.14068737 -82.87980372 22.06631891 -74.5625 10.78125 C-74.1396875 10.18699219 -73.716875 9.59273438 -73.28125 8.98046875 C-56.12895826 -13.44499376 -22.02943146 -14.77583818 0 0 Z M-51.1171875 31.68359375 C-55.04250367 37.38060667 -55.41898906 43.05555693 -54.5625 49.78125 C-52.28445628 57.17694542 -48.31608926 62.05378823 -41.5625 65.78125 C-35.35305624 68.42601308 -28.96788587 68.326225 -22.61328125 66.09765625 C-16.64713487 63.08106538 -12.03449731 57.78924451 -9.125 51.84375 C-7.69140418 44.0386172 -8.12449756 37.56805597 -12.5625 30.78125 C-17.06692354 25.84425134 -21.60518042 22.25066998 -28.39453125 21.4453125 C-38.90212743 21.30759826 -44.30826772 23.71874108 -51.1171875 31.68359375 Z " fill="#000000" transform="translate(396.5625,317.21875)"/>
<path d="M0 0 C4.61581142 2.18643699 6.72864085 4.49599804 9 9 C9.43359375 11.90234375 9.43359375 11.90234375 9.4375 14.9375 C9.45683594 15.93652344 9.47617188 16.93554688 9.49609375 17.96484375 C8.76382161 22.44496545 7.01121688 25.52074695 3.3034668 28.24780273 C1.27697513 29.48657208 -0.782427 30.62660397 -2.875 31.75 C-14.09527868 38.07035207 -24.3258472 45.10982398 -33.76953125 53.921875 C-35.81782622 55.83026891 -37.92035597 57.63624726 -40.0625 59.4375 C-50.29139455 68.41846942 -58.05479085 79.51595689 -65.8203125 90.59765625 C-68.7520038 94.70355899 -71.30223077 97.83179882 -76 100 C-81.11367224 100.80214467 -84.82614922 100.6189395 -89.4375 98.1875 C-94.21788904 94.10668009 -96.10387028 91.62441713 -96.625 85.1875 C-96.53911093 77.03877469 -91.65684441 71.26782316 -87 65 C-86.5992627 64.44521973 -86.19852539 63.89043945 -85.78564453 63.31884766 C-79.89113459 55.16635034 -73.33417358 47.70643089 -66.38134766 40.44433594 C-65.15491961 39.16198382 -63.94170513 37.86702339 -62.73046875 36.5703125 C-56.40243246 29.97224869 -49.29130389 24.4777606 -42 19 C-41.42588379 18.56510254 -40.85176758 18.13020508 -40.26025391 17.68212891 C-12.91935264 -2.91140341 -12.91935264 -2.91140341 0 0 Z " fill="#000000" transform="translate(96,44)"/>
<path d="M0 0 C26.98747747 14.2380221 51.39771174 35.81607319 69.31640625 60.4140625 C69.74211914 60.99494629 70.16783203 61.57583008 70.60644531 62.17431641 C82.1595921 78.0499792 82.1595921 78.0499792 81.25390625 84.9765625 C80.56899993 89.25358388 79.21827789 92.12004605 76.31640625 95.4140625 C71.33782298 98.9701934 66.22853604 99.22819185 60.31640625 98.4140625 C53.69777169 95.63423598 50.30076448 89.09888791 46.31640625 83.4140625 C29.9064291 61.04438081 10.49638286 43.06888226 -13.77441406 29.44311523 C-18.61752943 26.67241222 -22.87143753 23.85053116 -24.68359375 18.4140625 C-25.21446799 13.35770298 -25.2732756 9.53242463 -22.87109375 4.9765625 C-16.65030557 -2.31064651 -9.06765731 -4.30177767 0 0 Z " fill="#000000" transform="translate(280.68359375,45.5859375)"/>
</svg>
