<?xml version="1.0" encoding="UTF-8"?>
<svg version="1.1" xmlns="http://www.w3.org/2000/svg" width="512" height="512">
<path d="M0 0 C1.34887374 0.00774836 1.34887374 0.00774836 2.72499746 0.01565325 C16.47836446 0.22405038 30.19215108 1.54985187 43.89033091 2.71573305 C48.12078982 3.07384301 52.35208842 3.42177595 56.58328247 3.77107239 C64.84081855 4.4543421 73.09755845 5.1468014 81.35405196 5.84254406 C90.98534593 6.65380432 100.61739099 7.45597203 110.24946772 8.25787576 C127.438448 9.68924629 144.62671038 11.12906165 161.81459045 12.57357788 C178.46736114 13.97311702 195.1206567 15.36618818 211.77455139 16.75228882 C232.85639625 18.50694111 253.93775864 20.2672798 275.01873584 22.03232562 C281.72330307 22.59351137 288.42803687 23.15267898 295.13282967 23.71116257 C303.30314261 24.39183222 311.47313428 25.07622414 319.64274896 25.76522563 C323.80610394 26.11627688 327.96957136 26.46579794 332.13341522 26.81100655 C335.95099782 27.12756162 339.7681613 27.44876075 343.58505272 27.77354045 C345.60595634 27.9443402 347.6272638 28.11034127 349.64858538 28.2761215 C364.95590541 29.59015451 378.81330737 31.02324189 390.207901 42.29330444 C397.21962421 51.36179979 399.5666198 59.08995302 399.43319702 70.34635925 C399.42344517 71.79255558 399.42344517 71.79255558 399.41349632 73.267968 C399.28368932 83.69918901 398.48786414 94.05482229 397.60316467 104.44442749 C397.42995247 106.5578159 397.25750602 108.67126718 397.08575439 110.78477478 C396.62296035 116.45004363 396.14887685 122.11431144 395.67197204 127.77840781 C395.273218 132.52761838 394.88027694 137.27730286 394.48731881 142.02699596 C393.5604135 153.22997711 392.62441311 164.43217165 391.68226624 175.63388062 C390.7127959 187.16204434 389.75750916 198.69132068 388.809313 210.22125214 C387.99137339 220.16212519 387.16536365 230.10230448 386.33275968 240.04196006 C385.83697595 245.96108377 385.34404089 251.88040704 384.85861778 257.80039024 C384.40255143 263.3573588 383.93634456 268.91338686 383.46245003 274.46886253 C383.29079185 276.50061969 383.12261521 278.53267462 382.95827484 280.56503677 C381.64700963 296.73954451 380.37899828 311.71066686 368.082901 323.60580444 C356.85501038 332.92778422 344.82912463 333.79505639 330.895401 332.64486694 C328.207901 332.29330444 328.207901 332.29330444 326.207901 331.29330444 C326.2393219 333.20623291 326.2393219 333.20623291 326.27137756 335.1578064 C326.34432368 339.9343828 326.38989774 344.71091096 326.42762756 349.48788452 C326.44761946 351.5468883 326.47482228 353.60583621 326.50965881 355.66464233 C326.77585171 371.81237325 326.0487724 383.96897951 314.582901 396.35580444 C307.53708916 403.24328344 299.56172344 406.41230436 289.82745266 406.42752552 C289.18623922 406.42987775 288.54502577 406.43222998 287.88438162 406.43465349 C285.72710332 406.44133177 283.56988542 406.44088562 281.41259766 406.44047546 C279.85368478 406.44377482 278.29477277 406.44750054 276.73586184 406.45161694 C272.44493822 406.46163695 268.15402859 406.46535374 263.86309493 406.46800625 C259.23782038 406.47190932 254.61255691 406.48148769 249.98728943 406.49021912 C238.81342834 406.50998386 227.63956634 406.52004994 216.46569213 406.52894691 C211.20370588 406.53332995 205.94172064 406.53869674 200.67973518 406.54393578 C183.18746493 406.56094837 165.69519531 406.57544241 148.20291805 406.58268452 C143.66331926 406.58459441 139.12372048 406.58651474 134.5841217 406.58847046 C132.89167834 406.58919607 132.89167834 406.58919607 131.1650442 406.58993634 C112.88859481 406.59823611 94.61221089 406.62357202 76.33579009 406.65605114 C57.57175311 406.68912491 38.80774939 406.70713358 20.04368311 406.71032876 C9.50838923 406.7124936 -1.02680919 406.72123848 -11.56207466 406.74678993 C-20.53474406 406.76850128 -29.50729482 406.7765452 -38.47998751 406.76682315 C-43.056548 406.76227968 -47.63286374 406.76416744 -52.20939064 406.78358459 C-56.40362131 406.80122574 -60.59742884 406.80021093 -64.79166406 406.7846873 C-66.30452135 406.78231267 -67.81740802 406.78662732 -69.33022047 406.79851595 C-81.32383522 406.88688923 -91.29758677 405.24434696 -100.7217865 397.34017944 C-108.83418411 389.31962029 -113.08587659 380.21501169 -113.19799131 368.82278883 C-113.18897624 367.45511652 -113.18897624 367.45511652 -113.17977905 366.05981445 C-113.18516459 365.06758263 -113.19055013 364.07535081 -113.19609886 363.05305135 C-113.21033688 359.74840445 -113.20328486 356.44416046 -113.19615173 353.13949585 C-113.20185747 350.76195454 -113.20882252 348.38441598 -113.21694946 346.00688171 C-113.23301426 340.23116123 -113.23498594 334.45556579 -113.22973656 328.67982771 C-113.22568581 323.98237572 -113.22714913 319.28495581 -113.23248482 314.58750534 C-113.23323324 313.91748792 -113.23398166 313.2474705 -113.23475276 312.55714952 C-113.23628433 311.19575536 -113.23782268 309.83436122 -113.23936773 308.47296707 C-113.25307819 295.7218848 -113.24766546 282.97086397 -113.23618252 270.21978311 C-113.22625292 258.57181143 -113.2391886 246.92399866 -113.26311671 235.27605148 C-113.28753945 223.29643546 -113.29710772 211.31689337 -113.29046398 199.33725297 C-113.28697863 192.619402 -113.28949582 185.9016911 -113.30671501 179.18385696 C-113.32220435 172.86526614 -113.31820608 166.54697822 -113.29940987 160.22839928 C-113.29572949 157.91415527 -113.29881628 155.59988872 -113.30929565 153.28566551 C-113.32254469 150.11701789 -113.31092266 146.94936731 -113.29330444 143.78076172 C-113.30290945 142.87344162 -113.31251446 141.96612151 -113.32241052 141.03130686 C-113.20031674 130.297519 -109.3432356 120.94911026 -101.792099 113.29330444 C-90.07793276 103.37280071 -77.71479229 102.73799533 -63.104599 103.04330444 C-61.42037557 103.0634107 -59.73612882 103.08165414 -58.05186462 103.09799194 C-53.96469042 103.14163721 -49.87865829 103.21043217 -45.792099 103.29330444 C-45.75254089 102.53751099 -45.71298279 101.78171753 -45.67222595 101.00302124 C-44.93712953 88.59947677 -43.66716534 76.25112162 -42.37290955 63.89511108 C-42.11020751 61.36413756 -41.85339229 58.83254626 -41.60240173 56.30038452 C-41.234875 52.59470942 -40.84939655 48.89127634 -40.46006775 45.18783569 C-40.35260727 44.07189529 -40.24514679 42.9559549 -40.13442993 41.80619812 C-38.58412411 27.55443189 -34.36887784 16.10482421 -23.07725525 6.90267944 C-15.72184968 1.72246219 -8.8754951 -0.08068577 0 0 Z M-13.542099 27.16830444 C-16.95147858 31.90355386 -18.04071548 35.90432015 -18.66172791 41.67245483 C-18.80172211 42.94049454 -18.94171631 44.20853424 -19.08595276 45.51499939 C-19.23040514 46.89029714 -19.37463607 48.26561817 -19.5186615 49.64096069 C-19.67217866 51.0591892 -19.82627076 52.47735558 -19.98091125 53.89546204 C-20.30287142 56.86136662 -20.62015998 59.82771885 -20.93370056 62.79452515 C-21.3352673 66.5937763 -21.74493979 70.39209461 -22.15766335 74.19014835 C-22.55166429 77.81928178 -22.94153766 81.4488552 -23.3311615 85.07846069 C-23.4428813 86.11410502 -23.4428813 86.11410502 -23.55685806 87.17067146 C-23.7672696 89.12805365 -23.97433805 91.08579433 -24.18125916 93.04354858 C-24.29958099 94.15653824 -24.41790283 95.26952789 -24.53981018 96.41624451 C-24.85033539 99.47607258 -24.85033539 99.47607258 -24.792099 103.29330444 C-24.11916563 103.29390153 -23.44623227 103.29449862 -22.75290698 103.2951138 C17.14628086 103.33102154 57.04539109 103.3876817 96.94450887 103.4712254 C101.73713992 103.48124264 106.52977132 103.49108681 111.32240295 103.50082397 C112.27651427 103.50276535 113.23062558 103.50470672 114.21364935 103.50670692 C129.65474637 103.53771304 145.09582853 103.5547037 160.5369508 103.56649867 C176.38547018 103.57891741 192.23391169 103.60643518 208.0823819 103.64791751 C217.8587404 103.67303216 227.63496973 103.6864232 237.41136094 103.68473402 C244.11887452 103.68470422 250.82625669 103.6993642 257.53371904 103.72546872 C261.40139788 103.74009074 265.26880725 103.7483383 269.13650894 103.73910713 C273.33681581 103.7292521 277.5364137 103.75038338 281.73666382 103.77432251 C282.94972602 103.76656209 284.16278822 103.75880167 285.41260988 103.75080609 C297.65289143 103.87408885 307.08026221 107.41372733 315.89149475 115.91830444 C322.69832652 123.25135014 325.31708586 131.62123934 325.36611938 141.45596313 C325.37105736 142.17808605 325.37599534 142.90020896 325.38108295 143.64421439 C325.39644162 146.06402597 325.40481415 148.48381104 325.41322327 150.90365601 C325.42280307 152.63821648 325.43281322 154.37277462 325.44322205 156.10733032 C325.47026606 160.81767213 325.49127837 165.52802396 325.51122403 170.23840046 C325.53308667 175.16050862 325.56047401 180.08258592 325.58728027 185.00466919 C325.63720339 194.32600169 325.68214365 203.64735133 325.72530264 212.96871734 C325.77467825 223.58047862 325.82959519 234.19220895 325.88498223 244.8039403 C325.99879643 266.63369951 326.10563672 288.46348827 326.207901 310.29330444 C332.72446051 312.46549095 341.11723185 313.44624446 347.707901 311.16830444 C353.85623003 307.87455675 357.21212325 305.21534456 359.56878531 298.5291841 C360.62947601 294.8184682 360.95834477 291.12746672 361.25201416 287.29016113 C361.32808138 286.41806216 361.40414859 285.54596319 361.48252088 284.64743698 C361.73293458 281.74391478 361.9668826 278.83931015 362.20082092 275.93441772 C362.37763025 273.84416102 362.55543633 271.75398843 362.73416138 269.66389465 C363.21571001 263.99684064 363.68276138 258.328677 364.14680648 252.66016626 C364.63584355 246.71156347 365.13686164 240.76396841 365.63619995 234.81622314 C366.47370386 224.81835242 367.30201723 214.81975294 368.12464905 204.82064819 C369.07272995 193.29780206 370.03414683 181.77613029 371.0030815 170.25502026 C371.93762329 159.14017195 372.86360918 148.02462734 373.78544044 136.90871811 C374.17640776 132.19527513 374.57011741 127.48207349 374.96607018 122.76904678 C375.43350283 117.19965729 375.89331703 111.62968666 376.34755516 106.05920601 C376.51431186 104.02827534 376.68351845 101.9975439 376.85551834 99.96705055 C377.66208949 90.42731507 378.36812891 80.8895252 378.55819702 71.31500244 C378.58568628 70.5897824 378.61317553 69.86456236 378.64149779 69.11736596 C378.68444542 62.53100132 375.97335518 59.0998157 371.520401 54.54330444 C364.51119519 49.10185378 353.50055557 49.6401098 345.02185059 48.95184326 C343.59001137 48.83102148 342.15821766 48.70965949 340.72646576 48.5878073 C336.81039412 48.25610715 332.89371835 47.93210868 328.97689474 47.6094265 C324.74524922 47.25945205 320.51420675 46.90232126 316.28308105 46.54612732 C307.99954354 45.84995811 299.71546046 45.1605022 291.43115973 44.47348092 C284.69315261 43.9145784 277.95534936 43.35327638 271.21768379 42.79027176 C270.25769706 42.71005726 269.29771032 42.62984277 268.30863308 42.54719753 C266.35818217 42.38421259 264.40773168 42.22122264 262.4572816 42.05822773 C244.17222045 40.53047837 225.88652781 39.01039938 207.60061318 37.4929045 C191.93395663 36.19258816 176.26787382 34.88553688 160.60218811 33.57357788 C142.392137 32.04853735 124.18173076 30.52784913 105.9707523 29.01391947 C104.02544388 28.85218763 102.08013597 28.6904497 100.13482857 28.5287056 C99.17782448 28.44913637 98.22082039 28.36956715 97.23481617 28.28758674 C90.5138949 27.72847892 83.79323623 27.16628154 77.0726757 26.60285568 C68.86928021 25.91519331 60.66550449 25.2322935 52.46121692 24.5553541 C48.28076185 24.21030336 44.10050563 23.86320441 39.9207077 23.51027489 C36.08352877 23.18633622 32.24588065 22.86866895 28.40779222 22.55569609 C26.38465843 22.38917892 24.36205464 22.21625906 22.33948702 22.04300058 C15.77697474 21.5142756 9.22296336 21.1494199 2.64071751 21.03783607 C1.36135462 21.01284432 0.08199174 20.98785257 -1.23613971 20.96210349 C-6.68698036 21.46979311 -9.78950951 23.2451427 -13.542099 27.16830444 Z M-88.042099 130.48080444 C-88.52163025 131.01060913 -89.0011615 131.54041382 -89.495224 132.08627319 C-94.81120266 141.13304411 -92.792099 152.46258142 -92.792099 162.29330444 C38.547901 162.29330444 169.887901 162.29330444 305.207901 162.29330444 C307.24111377 142.61743144 307.24111377 142.61743144 299.61024475 128.55111694 C294.9085673 124.91515305 291.91978756 124.16838145 286.06147289 124.16187668 C284.11955383 124.15611496 284.11955383 124.15611496 282.13840407 124.15023685 C280.69324182 124.15101714 279.24807962 124.15189593 277.80291748 124.15286255 C276.27430277 124.15027973 274.74568874 124.14726681 273.21707565 124.14385915 C269.00545011 124.13577613 264.7938416 124.13399885 260.58220923 124.13326168 C256.04426783 124.1314134 251.50633532 124.12386722 246.96839905 124.11712646 C237.04080571 124.10353361 227.1132164 124.09751701 217.1856153 124.09311581 C210.98953462 124.09035512 204.7934555 124.0861181 198.59737587 124.08161163 C181.44998491 124.06941797 164.30259521 124.05911869 147.1552 124.05573654 C145.50839645 124.05540719 145.50839645 124.05540719 143.82832413 124.05507119 C142.72779548 124.05485291 141.62726683 124.05463463 140.49338883 124.05440974 C138.26321646 124.05396627 136.03304408 124.05351971 133.8028717 124.05307007 C132.69662399 124.05284864 131.59037628 124.05262721 130.45060591 124.05239907 C112.51992013 124.0484499 94.58927497 124.03099269 76.65860488 124.00771055 C58.25961741 123.98401268 39.86065032 123.97153541 21.46164733 123.97036862 C11.12716671 123.96945101 0.792739 123.96367691 -9.54172707 123.94554901 C-18.3407118 123.93016916 -27.13962726 123.92501505 -35.93862287 123.93328711 C-40.42945515 123.93720107 -44.92014784 123.93622777 -49.41096306 123.92222977 C-53.52102848 123.90953551 -57.63084879 123.91064877 -61.74091365 123.92282048 C-63.22881016 123.92478526 -64.71672376 123.92166313 -66.2045962 123.91297612 C-68.22575166 123.90192141 -70.24698765 123.91114132 -72.26814747 123.92136765 C-73.95280557 123.92047201 -73.95280557 123.92047201 -75.67149717 123.91955829 C-80.72369005 124.52464595 -84.71931264 126.63769165 -88.042099 130.48080444 Z M-92.792099 183.29330444 C-92.792099 196.49330444 -92.792099 209.69330444 -92.792099 223.29330444 C38.547901 223.29330444 169.887901 223.29330444 305.207901 223.29330444 C305.207901 210.09330444 305.207901 196.89330444 305.207901 183.29330444 C173.867901 183.29330444 42.527901 183.29330444 -92.792099 183.29330444 Z M-92.792099 244.29330444 C-104.50171755 318.15600574 -104.50171755 318.15600574 -86.792099 381.29330444 C-80.12612494 386.55867273 -73.00178216 385.85433938 -64.83016968 385.80123901 C-63.28984792 385.80585005 -61.74953056 385.81220434 -60.20922238 385.82014799 C-55.98371437 385.83683649 -51.75856802 385.82859723 -47.53305876 385.81620312 C-42.97335405 385.80715305 -38.41371153 385.82112209 -33.85401917 385.8321228 C-24.92470713 385.84991263 -15.99552955 385.84606609 -7.06621223 385.83447224 C0.18996945 385.82544059 7.44611343 385.82421276 14.70229912 385.8285675 C15.73482809 385.82918044 16.76735707 385.82979337 17.8311748 385.83042488 C19.92869069 385.83170377 22.02620656 385.83300062 24.12372243 385.83431524 C43.79341604 385.84572225 63.46303509 385.83260513 83.13271647 385.81111377 C100.01417924 385.79324004 116.89553201 385.79634895 133.7769928 385.81478882 C153.37760366 385.8361888 172.97814919 385.8446264 192.5787701 385.83233976 C194.66828627 385.83106555 196.75780246 385.82980807 198.84731865 385.8285675 C199.87542259 385.8279504 200.90352654 385.8273333 201.96278514 385.8266975 C209.21167213 385.82324218 216.4605177 385.8290768 223.70939827 385.83848572 C232.54125744 385.84969727 241.37297439 385.84668331 250.20481724 385.82536274 C254.71190689 385.81484137 259.21875929 385.81074901 263.72584724 385.82395935 C267.85064091 385.83586648 271.9749771 385.82934871 276.09972917 385.80804914 C277.59288273 385.80357595 279.08607483 385.80586546 280.57920367 385.81555229 C282.60740515 385.82770254 284.63571471 385.81285637 286.66388798 385.79666901 C288.35440693 385.79569489 288.35440693 385.79569489 290.07907778 385.7947011 C296.62239869 384.7461282 300.44614445 380.3448061 304.207901 375.29330444 C318.01691577 333.86626014 305.207901 287.96124336 305.207901 244.29330444 C173.867901 244.29330444 42.527901 244.29330444 -92.792099 244.29330444 Z " fill="#000000" transform="translate(112.79209899902344,52.706695556640625)"/>
<path d="M0 0 C0.99556412 -0.00686325 1.99112823 -0.0137265 3.01686096 -0.02079773 C6.31037632 -0.03911009 9.60341727 -0.0352214 12.89697266 -0.02954102 C15.18616898 -0.03410108 17.47536393 -0.03940612 19.76455688 -0.04542542 C24.56461138 -0.05436555 29.36449959 -0.0519235 34.16455078 -0.04199219 C40.31388342 -0.03050875 46.4626413 -0.05070035 52.61189842 -0.07990932 C57.34056238 -0.09826303 62.06908845 -0.09798035 66.79777908 -0.0922718 C69.06477285 -0.09211845 71.33177589 -0.09817438 73.59873581 -0.11056328 C76.77061653 -0.12545311 79.94143364 -0.11480967 83.11328125 -0.09765625 C84.04855148 -0.10732422 84.98382172 -0.11699219 85.94743347 -0.12695312 C91.64846249 -0.06244608 94.82127544 0.64802049 99.18603516 4.40405273 C100.64394971 7.31988183 100.3456545 9.90445336 100.37890625 13.16113281 C100.39117249 14.20290932 100.39117249 14.20290932 100.40368652 15.26573181 C100.42853585 17.56834042 100.44505543 19.87088739 100.45947266 22.17358398 C100.46479633 22.95985357 100.47012001 23.74612316 100.47560501 24.5562191 C100.50233491 28.71813355 100.52171006 32.88001802 100.53613281 37.04199219 C100.55277848 41.33971963 100.59755501 45.63667989 100.64850426 49.93411732 C100.68216948 53.2395668 100.69370936 56.54483404 100.69935989 59.85043907 C100.70607471 61.43449452 100.72130301 63.01853788 100.7452507 64.60242653 C100.77689201 66.8218488 100.77694207 69.03920022 100.76953125 71.25878906 C100.7776181 72.52072586 100.78570496 73.78266266 100.79403687 75.08283997 C100.02418989 79.28813341 98.44764037 80.73794686 95.18603516 83.40405273 C92.90582785 84.54415639 91.64023921 84.53436355 89.1068573 84.54449463 C87.82620644 84.55305984 87.82620644 84.55305984 86.51968384 84.5617981 C85.58095428 84.56291595 84.64222473 84.56403381 83.67504883 84.56518555 C82.68792404 84.57015045 81.70079926 84.57511536 80.6837616 84.58023071 C77.40716869 84.59487595 74.13062421 84.60165846 70.85400391 84.60717773 C68.58197528 84.61292748 66.30994668 84.61868523 64.03791809 84.62445068 C59.26884738 84.63496756 54.49979357 84.64080565 49.73071289 84.64428711 C43.61721553 84.64977162 37.50394092 84.67379599 31.39051342 84.70225906 C26.69537197 84.72087578 22.00028426 84.72609055 17.30510902 84.72762299 C15.05123998 84.73065249 12.79737195 84.73869101 10.54353905 84.75180817 C7.39058841 84.76884728 4.23818298 84.76699339 1.08520508 84.76049805 C0.15254822 84.76971283 -0.78010864 84.77892761 -1.74102783 84.78842163 C-6.54500974 84.75739254 -10.01965157 84.68743322 -13.81396484 81.40405273 C-16.86820414 77.53237168 -17.19232894 74.53576701 -17.20214844 69.67358398 C-17.2074054 69.01764252 -17.21266235 68.36170105 -17.21807861 67.68588257 C-17.23122474 65.52919321 -17.22256039 63.3732489 -17.21240234 61.21655273 C-17.21442465 59.71109883 -17.21733739 58.20564588 -17.22109985 56.70019531 C-17.22551588 53.54962815 -17.21911563 50.39931667 -17.20507812 47.2487793 C-17.18798639 43.21696113 -17.19783148 39.18574213 -17.21579552 35.15394592 C-17.22665302 32.0466259 -17.22317805 28.93944716 -17.21541214 25.8321228 C-17.21341556 24.3458143 -17.21585035 22.85949283 -17.2228508 21.37319946 C-17.23049804 19.29329611 -17.21881698 17.21435356 -17.20214844 15.13452148 C-17.19976166 13.95269287 -17.19737488 12.77086426 -17.19491577 11.55322266 C-16.67048057 7.21792523 -15.07839 4.83966715 -12.23983765 1.61680603 C-8.30203789 -0.35179662 -4.34050343 -0.02080169 0 0 Z M4.18603516 21.40405273 C4.18603516 35.26405273 4.18603516 49.12405273 4.18603516 63.40405273 C28.93603516 63.40405273 53.68603516 63.40405273 79.18603516 63.40405273 C79.18603516 49.54405273 79.18603516 35.68405273 79.18603516 21.40405273 C54.43603516 21.40405273 29.68603516 21.40405273 4.18603516 21.40405273 Z " fill="#000000" transform="translate(286.81396484375,325.595947265625)"/>
</svg>
