<?xml version="1.0" encoding="UTF-8"?>
<svg version="1.1" xmlns="http://www.w3.org/2000/svg" width="512" height="512">
<path d="M0 0 C0.72848145 0.00974854 1.45696289 0.01949707 2.20751953 0.02954102 C22.41452966 0.67649869 40.03661539 11.63364585 56.88964844 21.76147461 C69.68066762 29.41280095 82.41229272 34.61272034 96.8125 38.4375 C96.76609375 37.85742188 96.7196875 37.27734375 96.671875 36.6796875 C96.41028928 31.01822514 96.98430622 27.90372607 100.8125 23.4375 C105.31824246 19.47790814 109.50885868 19.25975647 115.296875 19.19921875 C116.03069397 19.191147 116.76451294 19.18307526 117.52056885 19.17475891 C119.07391004 19.16093801 120.62728134 19.15020694 122.18066406 19.14233398 C123.76148439 19.13082945 125.34226634 19.11040156 126.92285156 19.08081055 C129.21445952 19.03792077 131.50491438 19.02193535 133.796875 19.01171875 C134.49504333 18.99421066 135.19321167 18.97670258 135.91253662 18.95866394 C141.39373523 18.98258007 144.38650024 20.45157992 148.8125 23.4375 C152.47665557 27.46807112 152.93808738 30.97687223 152.95294189 36.3006134 C152.95865204 37.52453293 152.96436218 38.74845245 152.97024536 40.00946045 C152.9714907 41.36804189 152.9726158 42.72662345 152.97363281 44.08520508 C152.97826156 45.51431913 152.98328629 46.94343195 152.98867798 48.37254333 C153.0017988 52.25694172 153.00824635 56.14132282 153.01268864 60.02573991 C153.01561995 62.4528535 153.01972488 64.87996238 153.02419281 67.30707359 C153.03786708 74.9017808 153.04753401 82.49647722 153.0513947 90.09119588 C153.05587504 98.85660226 153.07342202 107.62185267 153.1023953 116.38721162 C153.12401601 123.16353386 153.13409919 129.93981222 153.13543582 136.71616858 C153.1364836 140.76291028 153.14238549 144.80950534 153.16025543 148.85621071 C153.17674285 152.66392616 153.17888847 156.47138486 153.17011642 160.27912331 C153.1693464 161.67469979 153.17368431 163.07029011 153.18357468 164.46583176 C153.19630886 166.37499097 153.18862032 168.28425349 153.17999268 170.19343567 C153.18145924 171.26066266 153.1829258 172.32788965 153.1844368 173.42745686 C152.5856941 178.27301496 150.85546767 181.49628527 147.25 184.75 C143.10236525 187.62143944 139.91145653 187.62762393 134.98828125 187.67578125 C134.20865524 187.683853 133.42902924 187.69192474 132.6257782 187.70024109 C130.97230249 187.7140838 129.31879817 187.72480512 127.6652832 187.73266602 C125.15194367 187.74981615 122.63994148 187.79369048 120.12695312 187.83789062 C118.51823881 187.84802345 116.90951334 187.85653771 115.30078125 187.86328125 C114.5557283 187.88078934 113.81067535 187.89829742 113.04304504 187.91633606 C107.53703022 187.89376804 104.36102634 186.56027766 99.8125 183.4375 C96.82386148 179.77400762 96.48704465 177.10236007 96.8125 172.4375 C95.86375 173.2625 94.915 174.0875 93.9375 174.9375 C91.0625 177.4375 91.0625 177.4375 88.8125 177.4375 C88.544375 178.01242188 88.27625 178.58734375 88 179.1796875 C86.77885374 181.50147217 85.37980042 183.46020761 83.8125 185.5625 C82.47366963 187.51707936 81.14112365 189.47596835 79.8125 191.4375 C79.38743164 192.02208984 78.96236328 192.60667969 78.52441406 193.20898438 C70.54380978 204.35776825 68.72265464 213.82750284 69.09814453 227.51513672 C69.27190497 236.10959545 68.03510404 242.84702425 62.05541992 249.34765625 C54.19717988 256.76596766 46.1589282 256.87546469 35.82658386 256.83190918 C34.39223402 256.83680112 32.95788813 256.84299233 31.5235489 256.85036707 C27.59086334 256.86675153 23.65837844 256.86445173 19.7256707 256.8589921 C15.48082074 256.85632004 11.23602404 256.87085704 6.99119568 256.88308716 C-1.32180199 256.90413625 -9.63472991 256.9086823 -17.94775108 256.90689927 C-24.70570729 256.90559133 -31.46364174 256.90939744 -38.22159386 256.91682434 C-40.16869074 256.91892355 -42.11578762 256.92102115 -44.06288451 256.92311716 C-45.03203332 256.92416069 -46.00118213 256.92520422 -46.99969908 256.92627937 C-65.3270426 256.9451798 -83.65434609 256.9441322 -101.98169532 256.93731004 C-118.74226061 256.93173531 -135.50267302 256.95255738 -152.26320259 256.98567051 C-169.47809457 257.01941697 -186.69291333 257.03457461 -203.907839 257.02995348 C-213.57060756 257.02770968 -223.23323483 257.03293879 -232.89597511 257.05784607 C-241.1227753 257.07887158 -249.34935674 257.08243884 -257.57616595 257.06354648 C-261.77192706 257.05439614 -265.96728043 257.0532238 -270.16300964 257.07390213 C-274.00807187 257.09264229 -277.8523933 257.08807539 -281.69742759 257.06535631 C-283.08433303 257.06117813 -284.4712956 257.06534435 -285.85814057 257.07895225 C-295.1914543 257.16425558 -302.95230877 256.17661419 -310.09427005 249.71141195 C-318.20859556 241.30191883 -317.62551769 231.02090011 -317.59155273 220.08251953 C-317.59726113 218.42270449 -317.6042272 216.76289336 -317.61235046 215.10308838 C-317.63024632 210.61124146 -317.6291201 206.11959027 -317.62340808 201.62771845 C-317.6203107 197.8704291 -317.62641487 194.11317705 -317.63244683 190.35589302 C-317.64647904 181.48771854 -317.64494194 172.61964042 -317.63354492 163.75146484 C-317.62206797 154.6196195 -317.63613522 145.488068 -317.6629414 136.35626137 C-317.68513403 128.5003615 -317.69172766 120.64455362 -317.68586498 112.78862464 C-317.68250236 108.10353995 -317.68486401 103.41864353 -317.70211601 98.73358536 C-317.71763973 94.32573187 -317.71356978 89.91831186 -317.69481087 85.51047516 C-317.69113979 83.89888717 -317.69418997 82.28726669 -317.70469666 80.67570877 C-317.76863567 70.05199382 -317.36292667 60.70319282 -309.8125 52.5 C-302.85507154 46.18182244 -296.05044599 45.27328618 -286.95840454 45.36676025 C-286.1332322 45.37099463 -285.30805985 45.37522901 -284.45788229 45.3795917 C-282.65159222 45.38944436 -280.8453138 45.40164098 -279.03905296 45.41587639 C-276.09844884 45.439012 -273.15786233 45.45618889 -270.21720886 45.47175598 C-267.04663714 45.48854296 -263.87607156 45.50565999 -260.70551133 45.52450705 C-252.82445457 45.57075117 -244.94352658 45.59600091 -237.06234741 45.60858154 C-235.9165177 45.61041608 -234.77068799 45.61225062 -233.59013617 45.61414075 C-228.86146643 45.6212369 -224.13279613 45.62754153 -219.4041245 45.63323832 C-206.01347757 45.65001378 -192.62368543 45.68750192 -179.23339844 45.79052734 C-168.58869265 45.87229608 -157.94495909 45.90732848 -147.29993951 45.88901305 C-141.67630003 45.88103051 -136.05486989 45.89545242 -130.43162918 45.9666214 C-97.77756759 46.95998622 -97.77756759 46.95998622 -69.12343025 32.9435606 C-66.42009683 30.84049726 -63.56879339 29.2466025 -60.5703125 27.59765625 C-58.81723174 26.56591355 -57.06461253 25.53338612 -55.3125 24.5 C-46.83544144 19.54338738 -38.34533184 14.61004834 -29.8125 9.75 C-28.28906982 8.8674353 -28.28906982 8.8674353 -26.73486328 7.96704102 C-18.12248402 3.09554354 -9.98822416 -0.15512653 0 0 Z M-19.77734375 24.05957031 C-22.43821653 25.58083915 -25.12306691 27.05327425 -27.8125 28.5234375 C-41.24698724 35.90949291 -54.46234922 43.65743282 -67.61328125 51.53515625 C-71.91156344 54.10473319 -76.2375906 56.60927227 -80.60546875 59.05859375 C-81.61198486 59.6302124 -82.61850098 60.20183105 -83.65551758 60.79077148 C-85.52807504 61.85152567 -87.40893258 62.89782463 -89.29956055 63.92602539 C-96.04586902 67.78003837 -99.72215993 72.0414798 -102.1875 79.4375 C-102.72630057 85.79534673 -101.85590808 90.15001057 -98.1875 95.4375 C-94.82919891 99.16370486 -91.13007454 101.4870049 -86.1875 102.4375 C-77.68752743 102.68004522 -71.7170059 99.51270609 -64.5625 95.25 C-62.95072876 94.31909546 -62.95072876 94.31909546 -61.30639648 93.36938477 C-57.92272551 91.40982023 -54.55441434 89.42569375 -51.1875 87.4375 C-47.91183121 85.51977796 -44.63426047 83.60535278 -41.35595703 81.69213867 C-39.34464356 80.51542069 -37.33629664 79.33361127 -35.33154297 78.14575195 C-32.62993135 76.55200394 -29.91541448 74.98574861 -27.1875 73.4375 C-25.85114502 72.67203857 -25.85114502 72.67203857 -24.48779297 71.89111328 C-20.87007624 69.93002593 -18.10794474 68.50013051 -13.97265625 68.21875 C-9.94619015 69.98068187 -7.54907804 72.71955939 -4.625 75.9375 C7.31068652 88.4515678 20.65808912 97.5310245 38.359375 98.58984375 C42.64727895 98.64831517 46.87512276 98.44445086 51.14453125 98.06640625 C51.90427246 98.00493408 52.66401367 97.94346191 53.44677734 97.88012695 C54.9579856 97.75373907 56.46775004 97.60835376 57.97509766 97.44213867 C61.26771391 97.16731051 63.26441213 97.04914746 66.01104736 98.99530029 C68.4691409 102.32769727 68.33036152 104.56314329 68.35839844 108.68457031 C68.36873611 109.40691864 68.37907379 110.12926697 68.38972473 110.87350464 C68.41915662 113.25443886 68.4206519 115.63452315 68.421875 118.015625 C68.43685649 119.66902285 68.45358357 121.32240572 68.47198486 122.97576904 C68.51567458 127.32243537 68.53566093 131.66889982 68.55072021 136.01574707 C68.57028555 140.45332789 68.61225617 144.89069051 68.65234375 149.328125 C68.72766338 158.03119293 68.77794406 166.73417522 68.8125 175.4375 C71.34958987 172.92744202 73.69101727 170.39641463 75.9375 167.625 C81.7654215 160.90913338 89.1571453 156.8119884 96.8125 152.4375 C96.8125 120.7575 96.8125 89.0775 96.8125 56.4375 C93.32030543 55.27343514 89.94731651 54.16353445 86.4140625 53.2109375 C75.13710059 50.07403612 65.03098491 46.12943228 54.8125 40.4375 C54.17425293 40.08284668 53.53600586 39.72819336 52.87841797 39.36279297 C50.25724259 37.89985728 47.64198347 36.42680014 45.03125 34.9453125 C13.77661465 16.42865713 13.77661465 16.42865713 -19.77734375 24.05957031 Z M113.8125 36.4375 C113.8125 80.6575 113.8125 124.8775 113.8125 170.4375 C121.0725 170.4375 128.3325 170.4375 135.8125 170.4375 C135.8125 126.2175 135.8125 81.9975 135.8125 36.4375 C128.5525 36.4375 121.2925 36.4375 113.8125 36.4375 Z M-299.1875 66.4375 C-300.26667226 69.67501678 -300.30175601 72.01501771 -300.28515625 75.41796875 C-300.28193359 76.58134766 -300.27871094 77.74472656 -300.27539062 78.94335938 C-300.26701172 80.15830078 -300.25863281 81.37324219 -300.25 82.625 C-300.24548828 83.85154297 -300.24097656 85.07808594 -300.23632812 86.34179688 C-300.22453065 89.37374668 -300.20806921 92.40559906 -300.1875 95.4375 C-289.62631585 93.04333326 -280.93227715 88.11760935 -274.1875 79.4375 C-270.91258317 73.95076571 -268.35103566 68.73144075 -267.1875 62.4375 C-271.39559884 62.32093217 -275.60327996 62.25012389 -279.8125 62.1875 C-281.00230469 62.15398437 -282.19210937 62.12046875 -283.41796875 62.0859375 C-292.14899738 61.89961449 -292.14899738 61.89961449 -299.1875 66.4375 Z M-250.1875 62.4375 C-251.5075 67.0575 -252.8275 71.6775 -254.1875 76.4375 C-260.4531356 91.05731639 -270.64874952 101.95923227 -285.375 108.375 C-290.33817621 110.35601025 -294.80376082 111.24111352 -300.1875 112.4375 C-300.1875 137.8475 -300.1875 163.2575 -300.1875 189.4375 C-294.2475 191.4175 -288.3075 193.3975 -282.1875 195.4375 C-269.20483447 202.53112137 -260.20303028 211.87357411 -254.1875 225.4375 C-252.2075 232.3675 -252.2075 232.3675 -250.1875 239.4375 C-167.0275 239.4375 -83.8675 239.4375 1.8125 239.4375 C3.7925 233.4975 5.7725 227.5575 7.8125 221.4375 C16.25971077 206.10737675 28.02193146 196.55716757 44.8125 191.4375 C48.2775 190.4475 48.2775 190.4475 51.8125 189.4375 C51.8125 164.6875 51.8125 139.9375 51.8125 114.4375 C46.2025 114.4375 40.5925 114.4375 34.8125 114.4375 C13.61181739 111.40883106 -1.80914787 103.18521899 -16.1875 87.4375 C-21.95137381 89.02656146 -26.75386936 91.88190516 -31.875 94.875 C-32.78531982 95.40125977 -33.69563965 95.92751953 -34.63354492 96.46972656 C-36.53149741 97.56775624 -38.42804722 98.66821376 -40.32324219 99.77099609 C-43.14219654 101.4111412 -45.96493557 103.04456155 -48.7890625 104.67578125 C-53.258193 107.25789992 -57.72380106 109.84600393 -62.1875 112.4375 C-61.56763208 116.246244 -60.41520181 119.37333938 -58.8125 122.875 C-50.80273997 141.88947381 -51.28242856 161.48631901 -58.8125 180.5625 C-67.15766524 199.01297699 -81.53809078 211.19087242 -100.1875 218.4375 C-118.43957761 224.99513267 -138.57209897 223.20165254 -156.0234375 215.125 C-173.77159091 205.97749236 -186.16106737 191.15099831 -192.4453125 172.21484375 C-197.62747331 152.8226525 -195.60829728 133.17076547 -186.1875 115.4375 C-176.40395769 99.58568461 -161.94710671 87.61474718 -143.875 82.5 C-135.66256162 80.59354109 -127.59731529 79.80814535 -119.1875 79.4375 C-118.92195312 78.62925781 -118.65640625 77.82101563 -118.3828125 76.98828125 C-118.02960938 75.91964844 -117.67640625 74.85101563 -117.3125 73.75 C-116.96445313 72.69425781 -116.61640625 71.63851562 -116.2578125 70.55078125 C-115.31771598 67.81626691 -114.26141325 65.12228314 -113.1875 62.4375 C-158.3975 62.4375 -203.6075 62.4375 -250.1875 62.4375 Z M-166.1875 115.4375 C-174.78866771 126.6445977 -180.74022935 141.0685919 -179.1875 155.4375 C-177.03654959 170.16879906 -171.79516571 180.9979135 -161.1875 191.4375 C-160.5996875 192.02402344 -160.011875 192.61054688 -159.40625 193.21484375 C-149.43006055 202.46164199 -135.55588044 206.42085195 -122.1875 206.4375 C-106.22110465 205.37564783 -92.41577928 198.63459281 -81.765625 186.73046875 C-72.1111427 174.04535009 -67.76700652 160.34702692 -69.1875 144.4375 C-70.11930104 139.27023966 -71.47213952 134.39724836 -73.1875 129.4375 C-73.51878906 128.42558594 -73.85007812 127.41367188 -74.19140625 126.37109375 C-75.54866481 123.29374512 -76.57624072 121.58007172 -79.1875 119.4375 C-82.73357965 118.45025981 -86.08159515 117.85581022 -89.72094727 117.40405273 C-99.31296999 116.20076728 -105.50788189 111.88274986 -111.71484375 104.5625 C-113.50466724 101.97983693 -114.83898707 99.27138985 -116.1875 96.4375 C-136.02709987 95.70571148 -152.34663766 100.30860789 -166.1875 115.4375 Z M-300.1875 207.4375 C-300.33320522 211.64546686 -300.42171087 215.85278166 -300.5 220.0625 C-300.54189453 221.25230469 -300.58378906 222.44210938 -300.62695312 223.66796875 C-300.86565576 230.73155048 -300.86565576 230.73155048 -298.5625 237.25 C-294.85166286 240.74417957 -289.57156263 240.0389002 -284.79492188 239.96484375 C-283.50134766 239.91457031 -282.20777344 239.86429688 -280.875 239.8125 C-279.56208984 239.78542969 -278.24917969 239.75835937 -276.89648438 239.73046875 C-273.65849021 239.6598216 -270.42383042 239.56120566 -267.1875 239.4375 C-270.42011797 227.28757252 -276.35061033 218.19678033 -287.1875 211.4375 C-291.69294013 209.00369311 -295.01260747 207.4375 -300.1875 207.4375 Z M32.5 215.6875 C25.5594417 222.78946663 21.98764283 230.1293505 18.8125 239.4375 C23.37466465 239.58282035 27.93623362 239.67158477 32.5 239.75 C33.79357422 239.79189453 35.08714844 239.83378906 36.41992188 239.87695312 C37.66708984 239.89306641 38.91425781 239.90917969 40.19921875 239.92578125 C41.34608154 239.95196533 42.49294434 239.97814941 43.67456055 240.00512695 C47.87167416 239.24590427 49.30033715 237.84189781 51.8125 234.4375 C52.4946215 231.35886713 52.4946215 231.35886713 52.30078125 228.04296875 C52.28466797 226.84091797 52.26855469 225.63886719 52.25195312 224.40039062 C52.21005859 223.15451172 52.16816406 221.90863281 52.125 220.625 C52.09116211 218.72717773 52.09116211 218.72717773 52.05664062 216.79101562 C51.99779078 213.67197381 51.9156137 210.55534098 51.8125 207.4375 C44.87958829 207.4375 38.0005682 211.5285338 32.5 215.6875 Z " fill="#000000" transform="translate(359.1875,27.5625)"/>
<path d="M0 0 C1.46191205 0.38919079 2.92408085 0.77741812 4.38647461 1.16479492 C8.69045723 2.31134389 12.98759649 3.48207489 17.28399658 4.65667725 C20.69183515 5.58644257 24.10141566 6.50963823 27.51123047 7.43212891 C34.66950271 9.37002432 41.82441158 11.32000346 48.97753143 13.27682495 C50.92712805 13.80966526 52.87713246 14.34099113 54.82720947 14.87207031 C58.53370383 15.88368119 62.23783533 16.90352592 65.94140625 17.92578125 C67.04749741 18.2266011 68.15358856 18.52742096 69.29319763 18.83735657 C81.54199619 22.23943791 92.99653839 25.78361725 100.04296875 37.203125 C100.88531347 38.89275489 101.68914998 40.60262679 102.4375 42.3359375 C103.39584188 44.72435463 103.39584188 44.72435463 105.375 47.5 C117.75027007 40.62730537 130.09612844 33.7147457 142.3125 26.5625 C143.2806665 25.99595703 144.24883301 25.42941406 145.24633789 24.84570312 C147.24118092 23.67779831 149.23588948 22.5096638 151.23046875 21.34130859 C156.91929345 18.01016605 162.61247251 14.68692158 168.3125 11.375 C169.3842749 10.74730713 170.4560498 10.11961426 171.56030273 9.47290039 C188.32843273 -0.25168822 188.32843273 -0.25168822 197.875 0 C198.61476074 0.01135986 199.35452148 0.02271973 200.11669922 0.03442383 C205.91628998 0.2405039 210.4456574 1.33188129 215.375 4.5 C215.99503906 4.850625 216.61507813 5.20125 217.25390625 5.5625 C224.27241696 9.92822588 228.07233044 16.55974782 230.3125 24.375 C232.40037807 34.31128719 230.84303595 41.56392809 226.3359375 50.578125 C221.25797041 58.14449827 214.86691116 62.30835301 206.9375 66.5625 C204.87149338 67.70018561 202.80641742 68.83956264 200.7421875 69.98046875 C199.68612305 70.56103027 198.63005859 71.1415918 197.54199219 71.73974609 C192.50316507 74.54038929 187.53330778 77.4558393 182.5625 80.375 C170.95652041 87.17045094 159.31105748 93.8959063 147.65722656 100.60888672 C143.30975264 103.11376123 138.9637285 105.62114384 134.61791992 108.12890625 C132.46206013 109.37279012 130.3059741 110.61628198 128.1496582 111.859375 C122.5914509 115.06404661 117.03690763 118.27486336 111.48828125 121.49609375 C105.12934727 125.18545388 98.75646631 128.84977894 92.375 132.5 C91.58432129 132.95584473 90.79364258 133.41168945 89.97900391 133.88134766 C70.76907815 144.90400917 54.62089388 144.73581007 33.6875 139.875 C32.05917746 139.50955139 30.43050966 139.145638 28.80151367 138.78320312 C22.59250121 137.39627346 16.39310981 135.96832865 10.1953125 134.53222656 C7.67613662 133.94868507 5.15623694 133.3682562 2.63549805 132.79150391 C0.41305788 132.28133248 -1.8070728 131.76093963 -4.02416992 131.22802734 C-16.6437708 128.31526221 -27.72211118 129.17747784 -39.4375 135.1875 C-41.79679999 137.21252045 -41.79679999 137.21252045 -41.83203125 139.47265625 C-41.77618577 141.02303321 -41.69849388 142.57274245 -41.6015625 144.12109375 C-41.64250267 148.27652106 -43.12506064 151.24835474 -45.625 154.5 C-54.44452493 160.53189275 -69.99984343 164.84294704 -80.62109375 164.01171875 C-84.92495359 162.91268242 -87.11880487 161.15128425 -89.625 157.5 C-90.53249691 155.09546658 -91.3197592 152.76588211 -92.0378418 150.30712891 C-92.25029132 149.60296656 -92.46274084 148.89880421 -92.68162823 148.1733036 C-95.01574594 140.35437698 -97.1241248 132.47469511 -99.20703125 124.5859375 C-99.62881836 122.99907415 -100.05091992 121.41229436 -100.47331238 119.82559204 C-101.57634878 115.6788256 -102.67528718 111.53098462 -103.77325439 107.38287354 C-105.08156587 102.44331549 -106.3948959 97.50508968 -107.70760918 92.56669998 C-108.779453 88.533452 -109.84958486 84.49976625 -110.915802 80.46502686 C-112.92800153 72.85504552 -114.95971694 65.25159413 -117.04443359 57.66113281 C-117.60605228 55.6035728 -118.16697066 53.54582334 -118.72760582 51.48799515 C-119.24504852 49.59989075 -119.77188361 47.71436817 -120.29902649 45.82894897 C-123.82109013 32.88892203 -123.82109013 32.88892203 -121.5 26.3125 C-117.055386 19.645579 -110.18592105 18.19376668 -102.8125 16.25 C-101.86568359 15.981875 -100.91886719 15.71375 -99.94335938 15.4375 C-92.9305787 13.54554541 -86.01995584 11.77049419 -79.3125 15.1875 C-76.69310876 17.44139479 -74.73945013 19.78142127 -72.625 22.5 C-72.13733154 22.11255615 -71.64966309 21.7251123 -71.1472168 21.32592773 C-47.9867146 2.97700555 -30.25657281 -8.28370517 0 0 Z M-50.625 27.5 C-51.41084473 28.10392578 -52.19668945 28.70785156 -53.00634766 29.33007812 C-58.23567037 33.35747957 -63.43837284 37.41781609 -68.625 41.5 C-67.06404526 50.14654466 -64.85005593 58.61154367 -62.59765625 67.09765625 C-62.40464872 67.82641905 -62.2116412 68.55518185 -62.01278496 69.30602837 C-60.99508782 73.14667166 -59.97336977 76.98621965 -58.94848633 80.82495117 C-57.89081504 84.79006584 -56.84811965 88.75896629 -55.80849552 92.72884464 C-55.00450385 95.78762179 -54.18932907 98.84333595 -53.37103081 101.89831352 C-52.9812155 103.36166 -52.59571352 104.82616246 -52.21458626 106.29179573 C-51.68363627 108.32950654 -51.13699127 110.36235767 -50.58618164 112.39477539 C-50.27910782 113.55264053 -49.972034 114.71050568 -49.65565491 115.90345764 C-49.31553879 116.76031662 -48.97542267 117.6171756 -48.625 118.5 C-45.71628449 119.82635201 -45.71628449 119.82635201 -43.27734375 118.57421875 C-42.38144531 118.11660156 -41.48554687 117.65898437 -40.5625 117.1875 C-19.86544734 107.42218026 2.22329756 114.84102756 23.28125 119.8359375 C24.14283722 120.03911087 25.00442444 120.24228424 25.89212036 120.45161438 C30.20184315 121.46818327 34.50767708 122.49726972 38.80810547 123.55249023 C57.83393647 128.14586029 69.38717628 126.28788617 86.375 116.25 C87.60862091 115.53161706 88.84284534 114.8142696 90.07763672 114.09790039 C92.61176783 112.62591261 95.14263018 111.14853818 97.67089844 109.66650391 C102.20050099 107.01330785 106.75054985 104.39594134 111.30078125 101.77832031 C114.51766295 99.9273368 117.73188441 98.07181568 120.9453125 96.21484375 C127.42010022 92.47348344 133.89736343 88.73642517 140.375 85 C142.5416775 83.75001878 144.70834417 82.50001879 146.875 81.25 C159.875 73.75 159.875 73.75 163.13012695 71.87231445 C165.28001869 70.63181188 167.42959959 69.39077044 169.57885742 68.14916992 C174.64296479 65.22456618 179.71000902 62.30546233 184.7883606 59.40567017 C187.18037117 58.03936128 189.57059708 56.66994714 191.96069336 55.30029297 C193.64328963 54.33778986 195.32844836 53.37977069 197.01367188 52.421875 C198.03654297 51.83535156 199.05941406 51.24882812 200.11328125 50.64453125 C201.45966675 49.87653198 201.45966675 49.87653198 202.83325195 49.09301758 C208.77642455 45.36818795 212.42732341 42.08763281 214.25 35.1875 C214.42420306 30.0485097 213.48330301 25.77091149 209.90625 21.91796875 C205.08795263 17.82005408 201.77391794 16.95576224 195.57177734 17.02636719 C189.39703165 17.94121419 184.41886787 21.39905312 179.1875 24.625 C177.95402997 25.36098263 176.71913913 26.09458877 175.48291016 26.82592773 C172.970715 28.31631349 170.46643856 29.81875765 167.96826172 31.33251953 C163.72991878 33.89706972 159.44913821 36.38655703 155.1640625 38.87207031 C152.24163905 40.56735014 149.32550047 42.27304882 146.41015625 43.98046875 C140.98945349 47.14873746 135.54933992 50.28244255 130.10473633 53.40942383 C125.77472283 55.90002458 121.45463808 58.40760803 117.13378906 60.9140625 C114.77608063 62.26943188 112.40594553 63.59524029 110.0234375 64.90625 C103.90766901 68.38519731 100.52447354 70.90516169 97.58984375 77.328125 C94.19371852 83.39965435 86.82612268 87.59374794 80.36743164 89.75610352 C66.18271393 93.28231995 52.20160167 88.61890945 38.59814453 84.73828125 C35.09691604 83.74200873 31.58691833 82.78307154 28.07421875 81.828125 C25.83533626 81.2052822 23.59703155 80.58035789 21.359375 79.953125 C20.31465027 79.66753723 19.26992554 79.38194946 18.19354248 79.08770752 C17.22442932 78.80771912 16.25531616 78.52773071 15.25683594 78.23925781 C13.98353424 77.87951874 13.98353424 77.87951874 12.68450928 77.51251221 C9.86855925 76.27797126 8.30698402 74.88222317 6.375 72.5 C6.04405042 68.72717474 6.17745183 66.09264452 7.375 62.5 C14.82455191 61.18705764 20.20745823 62.10328446 27.40234375 64.24609375 C28.43130264 64.53605728 29.46026154 64.82602081 30.520401 65.12477112 C33.78904826 66.0469753 37.05110588 66.98998985 40.3125 67.9375 C43.57059407 68.88028305 46.82975213 69.81785339 50.09388733 70.73951721 C52.1176996 71.31118345 54.1382055 71.89474011 56.15452576 72.49229431 C63.28446754 74.50984009 71.27042711 76.45697594 78.1875 72.875 C83.77067265 68.71498901 87.06707438 64.75035614 88.28515625 57.87109375 C88.49517655 52.32838407 86.538131 47.99545415 83.1875 43.6875 C77.27751499 39.090845 70.70854519 36.77510291 63.54736328 34.84277344 C62.70394379 34.60810364 61.86052429 34.37343384 60.99154663 34.13165283 C58.22844769 33.36553942 55.46214994 32.61186554 52.6953125 31.859375 C50.7576196 31.32737502 48.82002968 30.79499983 46.88253784 30.26226807 C42.83095683 29.15052753 38.77766267 28.0453143 34.72314453 26.94433594 C29.54573163 25.53758277 24.37382251 24.1116581 19.20314217 22.68038559 C15.20595673 21.57680763 11.20561156 20.48505609 7.20428085 19.39661407 C5.29675691 18.87591579 3.39031018 18.35125339 1.48501968 17.8224411 C-1.18634692 17.08258484 -3.86168292 16.35921994 -6.53857422 15.63964844 C-7.31291809 15.42151489 -8.08726196 15.20338135 -8.8850708 14.9786377 C-25.89820476 10.48477644 -37.47085363 17.35779899 -50.625 27.5 Z M-98.3125 32.75 C-99.28574219 33.00265625 -100.25898437 33.2553125 -101.26171875 33.515625 C-102.43154297 34.00289063 -102.43154297 34.00289063 -103.625 34.5 C-104.89763323 38.31789969 -103.96772654 40.87455934 -102.93774414 44.61645508 C-102.74591553 45.33923645 -102.55408691 46.06201782 -102.35644531 46.80670166 C-101.71562061 49.21317839 -101.06290106 51.61626287 -100.41015625 54.01953125 C-99.95633148 55.71437744 -99.50325516 57.4094242 -99.05088806 59.10466003 C-97.84970937 63.59802875 -96.63850129 68.08863499 -95.4251709 72.57873535 C-94.22490606 77.02684573 -93.03362196 81.47735672 -91.84179688 85.92773438 C-89.98911075 92.84189319 -88.13148221 99.75470309 -86.27001953 106.66650391 C-83.81095773 115.79879612 -81.36816934 124.93537111 -78.93359375 134.07421875 C-78.59465591 135.34642776 -78.25571808 136.61863678 -77.9065094 137.92939758 C-77.14569334 140.78618174 -76.38529166 143.64307624 -75.625 146.5 C-70.345 145.18 -65.065 143.86 -59.625 142.5 C-62.62572049 129.41422204 -65.98074989 116.45522642 -69.484375 103.49609375 C-70.03939862 101.43537094 -70.59418347 99.3745838 -71.14874268 97.31373596 C-72.59302974 91.94899527 -74.04050933 86.58512129 -75.4887085 81.22143555 C-76.97230681 75.72432628 -78.45281102 70.22638387 -79.93359375 64.72851562 C-82.82774102 53.98487013 -85.7252695 43.24213981 -88.625 32.5 C-92.32104229 31.43143146 -94.57428766 31.73184871 -98.3125 32.75 Z " fill="#000000" transform="translate(122.625,320.5)"/>
<path d="M0 0 C2.375 1.6875 2.375 1.6875 4 4 C4.25 7.25 4.25 7.25 4 10 C4.66 10.04125 5.32 10.0825 6 10.125 C10.85180109 11.54010865 15.57080676 14.6210848 18.2109375 19.015625 C19.36551354 21.91921226 19.44255153 23.90213932 19 27 C16.4406719 30.56754825 14.96663184 31.8209941 10.625 32.625 C7.06098825 32.01051522 6.26406462 31.63813106 3.625 29.5 C0.11775865 26.70690282 -2.58182231 26.46967584 -6.984375 26.53125 C-9.52384753 27.12182501 -10.48109514 27.89391467 -12 30 C-11.92421045 33.61462786 -11.92421045 33.61462786 -11 37 C-8.19305977 38.40347012 -5.49264973 38.41620453 -2.375 38.75 C6.21616074 39.96224967 11.09889591 42.29158676 16.4375 49.125 C21.0224675 55.54645311 20.59431314 62.35034087 20 70 C18.37404884 76.2393427 14.2891764 80.48180626 9 84 C8.0925 84.28875 7.185 84.5775 6.25 84.875 C3.44708804 86.27645598 3.37802325 87.11501561 2.375 90 C2.17648438 90.70125 1.97796875 91.4025 1.7734375 92.125 C1 94 1 94 -2 96 C-6.41996204 96.57295804 -8.28073636 96.54726581 -11.875 93.8125 C-14 91 -14 91 -14.3125 88.4375 C-14.72532752 85.90813164 -14.72532752 85.90813164 -16.65234375 85.0078125 C-18.07584276 84.36631015 -19.50035901 83.72706123 -20.92578125 83.08984375 C-25.22717743 80.82978813 -27.49037545 77.56072517 -29 72.9375 C-29 69.35069842 -28.18488309 67.80913541 -26 65 C-23 63 -23 63 -19.625 63.125 C-16 64 -16 64 -13.5625 66 C-10.15390262 68.66036868 -7.28082042 69.1898751 -3 69 C0.09235783 68.29574678 0.09235783 68.29574678 2 66 C2.42394557 63.20306041 2.23404491 60.85534791 2 58 C1.01 57.90203125 0.02 57.8040625 -1 57.703125 C-12.08231217 56.49889199 -19.13648197 54.77523155 -26.5546875 46.09765625 C-30.68411849 40.10440101 -30.709201 34.05610104 -30 27 C-28.30448891 20.31948324 -24.80767335 15.68443793 -19 12 C-15.5625 10.625 -15.5625 10.625 -13 10 C-12.896875 8.906875 -12.79375 7.81375 -12.6875 6.6875 C-11.80239521 1.94011976 -11.80239521 1.94011976 -9 0 C-5.41563853 -1.19478716 -3.63093708 -0.96330984 0 0 Z " fill="#000000" transform="translate(240,131)"/>
</svg>
