<?xml version="1.0" encoding="UTF-8"?>
<svg version="1.1" xmlns="http://www.w3.org/2000/svg" width="512" height="512">
<path d="M0 0 C1.85237129 -0.00350512 3.70473956 -0.0091681 5.55709839 -0.01681519 C10.57481389 -0.03103248 15.59197914 -0.01402141 20.60964203 0.00946999 C25.88835889 0.02966531 31.16705476 0.02369409 36.44580078 0.0213623 C45.32626323 0.02141586 54.20651285 0.04114387 63.08691406 0.07324219 C73.29146764 0.10995224 83.49574073 0.11894238 93.70035172 0.11194468 C103.57012904 0.10558722 113.43981208 0.11650156 123.30957031 0.13591003 C127.48113368 0.14399475 131.65264824 0.14681022 135.82421875 0.1452179 C178.16696832 0.14305025 228.35210485 0.29935975 261.75 30.61523438 C262.58015625 31.36417969 263.4103125 32.113125 264.265625 32.88476562 C283.13309239 50.79728451 292.51461635 74.27537999 293.9375 100.00585938 C294.12245929 109.94742105 292.92662601 119.76099157 291.75 129.61523438 C292.89275391 130.34226563 292.89275391 130.34226563 294.05859375 131.08398438 C314.28187279 144.21270485 327.61367042 161.66290345 332.75 185.61523438 C340.30592031 228.44650835 328.17128713 276.48139903 304.03125 312.36914062 C281.85337236 343.92704528 249.07961111 361.77319118 211.45117188 368.45385742 C199.26116087 370.44081087 187.09242059 371.54073602 174.74609375 371.84960938 C173.7031012 371.87689873 173.7031012 371.87689873 172.63903809 371.90473938 C169.17021706 371.99254147 165.70264707 372.06117505 162.23291016 372.09838867 C160.32517822 372.1357312 160.32517822 372.1357312 158.37890625 372.17382812 C157.24525635 372.18728271 156.11160645 372.2007373 154.94360352 372.21459961 C151.32797177 372.66817745 148.91987718 373.86076498 145.75 375.61523438 C144.76 375.94523437 143.77 376.27523438 142.75 376.61523438 C138.09174279 384.26652373 136.13075761 393.42452493 134.87475586 402.17626953 C134.7229335 403.16803696 134.57111115 404.15980438 134.41468811 405.18162537 C133.92114268 408.42105614 133.44321043 411.66259341 132.96484375 414.90429688 C132.62023888 417.17648469 132.27439789 419.44848534 131.92738342 421.7203064 C131.01990762 427.67642205 130.12456195 433.63428589 129.23321533 439.59283447 C127.80548345 449.13537219 126.3671374 458.67624623 124.91378975 468.21491623 C124.41116938 471.53352466 123.91860899 474.85351974 123.42674255 478.17373657 C123.11686911 480.22021809 122.80659264 482.26663863 122.49584961 484.31298828 C122.3633078 485.22647537 122.23076599 486.13996246 122.09420776 487.08113098 C119.69947886 502.62578448 119.69947886 502.62578448 114.375 507.55273438 C113.52808594 508.37064453 113.52808594 508.37064453 112.6640625 509.20507812 C107.56250079 512.96357563 102.63125691 512.91216183 96.54101562 512.90576172 C95.16208382 512.91583755 95.16208382 512.91583755 93.7552948 512.92611694 C90.72222463 512.94508598 87.68937576 512.94902022 84.65625 512.95117188 C82.54544992 512.95759921 80.43465074 512.96432753 78.32385254 512.97134399 C73.90224135 512.98331305 69.48070828 512.98702506 65.05908203 512.98583984 C59.39284242 512.98563637 53.72710275 513.01296982 48.06098175 513.04738426 C43.70295915 513.06961481 39.34505776 513.07367861 34.98698425 513.07262039 C32.89778414 513.07498094 30.80858092 513.08382992 28.71943665 513.09928513 C25.79892835 513.11887243 22.87951007 513.11313609 19.95898438 513.10107422 C19.09649582 513.11231323 18.23400726 513.12355225 17.34538269 513.13513184 C13.29800364 513.09263659 11.25890786 512.93650804 7.75891113 510.72695923 C5.46773037 508.31851852 4.51993817 506.85268522 3.75 503.61523438 C3.82665843 500.99115747 4.02350954 498.57730967 4.375 495.99023438 C4.46837646 495.23476318 4.56175293 494.47929199 4.65795898 493.70092773 C5.00141841 491.00254635 5.37255045 488.30907446 5.75 485.61523438 C5.90839355 484.48263184 6.06678711 483.3500293 6.22998047 482.18310547 C7.07896404 476.17917722 7.94922712 470.17837401 8.84765625 464.18164062 C8.99726807 463.18076416 9.14687988 462.1798877 9.30102539 461.14868164 C9.75 458.61523438 9.75 458.61523438 10.75 455.61523438 C9.46040375 455.62633743 8.1708075 455.63744049 6.84213257 455.64888 C-5.31145645 455.75024114 -17.4649597 455.82519297 -29.6188755 455.87429523 C-35.86735273 455.90038795 -42.11548871 455.93578127 -48.36376953 455.99243164 C-54.39381641 456.0467612 -60.42353508 456.07665736 -66.45380783 456.08962059 C-68.75433901 456.09885863 -71.05485224 456.11689841 -73.35524368 456.14388466 C-76.57788143 456.18018614 -79.79916331 456.18517907 -83.02197266 456.18286133 C-83.97287781 456.20083771 -84.92378296 456.21881409 -85.90350342 456.23733521 C-90.2904955 456.20319898 -93.30143873 456.04991384 -96.79940796 453.24382019 C-100.03753552 449.77049782 -101.34288522 447.28666881 -101.17503357 442.45915508 C-100.39365854 433.95475815 -99.07245312 425.55208227 -97.72265625 417.12426758 C-97.45980469 415.46584696 -97.19727383 413.80737549 -96.9350338 412.14885807 C-96.21682513 407.61251906 -95.4941151 403.07690717 -94.77065992 398.54140234 C-93.98901231 393.63582451 -93.21163794 388.72956934 -92.43374634 383.82339478 C-90.90886026 374.21011315 -89.38018607 364.59743765 -87.85024059 354.98496008 C-86.06609886 343.77445561 -84.285618 332.56337075 -82.5054934 321.35222781 C-81.59113509 315.59367396 -80.6766472 309.83514069 -79.76211548 304.07661438 C-79.48694629 302.34395408 -79.48694629 302.34395408 -79.20621812 300.57629055 C-77.88515108 292.25849478 -76.56326273 283.94082976 -75.24105835 275.62321472 C-70.3482836 244.84264144 -65.46749426 214.06019104 -60.59663844 183.2761417 C-59.25091534 174.77117236 -57.90467776 166.26628462 -56.55804443 157.76145935 C-56.37045382 156.57670192 -56.1828632 155.3919445 -55.98958802 154.17128533 C-55.05330436 148.25816081 -54.11695815 142.34504619 -53.18057632 136.43193722 C-51.34603809 124.84663488 -49.51238551 113.2611936 -47.68066406 101.67544556 C-46.12000982 91.80433783 -44.55740955 81.93354053 -42.99234331 72.06313133 C-42.19300917 67.0215593 -41.39460556 61.97984446 -40.5986824 56.9377327 C-39.86917532 52.31644651 -39.13708614 47.69557702 -38.40295601 43.07502306 C-38.13795618 41.40419711 -37.87390109 39.73322099 -37.61089516 38.06208003 C-33.95001628 14.81013084 -33.95001628 14.81013084 -30.6875 9.86523438 C-30.25308594 9.16914063 -29.81867188 8.47304687 -29.37109375 7.75585938 C-20.9625701 -0.73009083 -11.17406712 -0.08900374 0 0 Z " fill="#093B82" transform="translate(139.25,-0.615234375)"/>
<path d="M0 0 C14.44313836 4.02159242 25.20996078 17.6320877 32.8125 29.8125 C38.13553973 39.39146066 41.41927498 50.17387168 43 61 C43.11085938 61.74894531 43.22171875 62.49789062 43.3359375 63.26953125 C48.57460787 105.95761545 34.41730526 153.70821357 8.78125 187.96484375 C-17.00516874 220.33406305 -53.98235986 235.30801561 -94.36425781 239.92797852 C-101.57127691 240.67292808 -108.76150653 241.05318878 -116.00390625 241.234375 C-116.69923462 241.2525679 -117.39456299 241.2707608 -118.11096191 241.289505 C-121.57978294 241.3773071 -125.04735293 241.44594068 -128.51708984 241.4831543 C-130.42482178 241.52049683 -130.42482178 241.52049683 -132.37109375 241.55859375 C-134.0715686 241.57877563 -134.0715686 241.57877563 -135.80639648 241.59936523 C-139.42202823 242.05294307 -141.83012282 243.24553061 -145 245 C-145.99 245.33 -146.98 245.66 -148 246 C-152.65825721 253.65128935 -154.61924239 262.80929056 -155.87524414 271.56103516 C-156.0270665 272.55280258 -156.17888885 273.54457001 -156.33531189 274.56639099 C-156.82885732 277.80582176 -157.30678957 281.04735903 -157.78515625 284.2890625 C-158.12976112 286.56125031 -158.47560211 288.83325096 -158.82261658 291.10507202 C-159.73009238 297.06118767 -160.62543805 303.01905151 -161.51678467 308.9776001 C-162.94451655 318.52013782 -164.3828626 328.06101185 -165.83621025 337.59968185 C-166.33883062 340.91829028 -166.83139101 344.23828536 -167.32325745 347.5585022 C-167.63313089 349.60498371 -167.94340736 351.65140425 -168.25415039 353.69775391 C-168.3866922 354.611241 -168.51923401 355.52472809 -168.65579224 356.46589661 C-171.05052114 372.0105501 -171.05052114 372.0105501 -176.375 376.9375 C-177.22191406 377.75541016 -177.22191406 377.75541016 -178.0859375 378.58984375 C-183.18749921 382.34834125 -188.11874309 382.29692746 -194.20898438 382.29052734 C-195.12827225 382.29724457 -196.04756012 382.30396179 -196.9947052 382.31088257 C-200.02777537 382.32985161 -203.06062424 382.33378585 -206.09375 382.3359375 C-208.20455008 382.34236484 -210.31534926 382.34909315 -212.42614746 382.35610962 C-216.84775865 382.36807868 -221.26929172 382.37179068 -225.69091797 382.37060547 C-231.35715758 382.37040199 -237.02289725 382.39773544 -242.68901825 382.43214989 C-247.04704085 382.45438044 -251.40494224 382.45844423 -255.76301575 382.45738602 C-257.85221586 382.45974657 -259.94141908 382.46859554 -262.03056335 382.48405075 C-264.95107165 382.50363805 -267.87048993 382.49790172 -270.79101562 382.48583984 C-271.65350418 382.49707886 -272.51599274 382.50831787 -273.40461731 382.51989746 C-277.45199636 382.47740221 -279.49109214 382.32127366 -282.99108887 380.11172485 C-285.28226963 377.70328414 -286.23006183 376.23745085 -287 373 C-286.92333515 370.37570332 -286.726583 367.96225272 -286.375 365.375 C-286.28017334 364.61010254 -286.18534668 363.84520508 -286.08764648 363.05712891 C-285.74478182 360.36841735 -285.37539415 357.6843625 -285 355 C-284.85224121 353.93652344 -284.70448242 352.87304688 -284.55224609 351.77734375 C-284.06487588 348.30850242 -283.56669979 344.84143408 -283.0625 341.375 C-282.90507324 340.2926709 -282.74764648 339.2103418 -282.58544922 338.09521484 C-281.72750199 332.36268454 -280.75867545 326.67033803 -279.65234375 320.98046875 C-276.97088729 307.0754356 -275.03357629 293.03070398 -272.90673828 279.03295898 C-268.99300385 253.31852602 -268.99300385 253.31852602 -266.59912109 241.93481445 C-265.73202831 237.68733182 -265.12758601 233.42134185 -264.5625 229.125 C-263.33022961 220.14691107 -261.94888436 211.19937353 -260.47631836 202.25756836 C-259.66620092 197.30898269 -258.89931574 192.36816881 -258.2890625 187.390625 C-255.60527007 165.87866098 -255.60527007 165.87866098 -247.6796875 158.98046875 C-242.45389905 155.39299018 -238.9476742 153.87709483 -232.58862305 153.82641602 C-231.92955963 153.819729 -231.27049622 153.81304199 -230.59146118 153.80615234 C-229.15482636 153.79207964 -227.71816889 153.78019269 -226.28149986 153.77020454 C-223.98615573 153.75372269 -221.69097064 153.73046636 -219.39570618 153.70530701 C-212.86683232 153.63484272 -206.33788265 153.57535486 -199.80883789 153.52319336 C-177.75270202 153.34205514 -155.85699281 153.13624551 -134.125 148.875 C-132.50356079 148.55740723 -132.50356079 148.55740723 -130.84936523 148.23339844 C-103.5780787 142.57335765 -78.26786224 131.00101193 -57 113 C-56.11570312 112.26265625 -55.23140625 111.5253125 -54.3203125 110.765625 C-24.61094913 85.01189924 -8.95785531 44.34461856 -1.7265625 6.67578125 C-1 3 -1 3 0 0 Z " fill="#009AD8" transform="translate(430,130)"/>
<path d="M0 0 C1.41873204 -0.00378902 2.83746037 -0.00929384 4.25617981 -0.01637268 C8.09626361 -0.03029047 11.93589726 -0.0191739 15.77595592 -0.00266147 C19.82415594 0.01127617 23.87233206 0.00471736 27.92054749 0.00120544 C34.73551585 -0.00149509 41.55030801 0.01194732 48.36523438 0.03515625 C56.17777749 0.06158337 63.99002277 0.06357076 71.80259508 0.05176789 C79.37484372 0.04086443 86.94698752 0.04728581 94.51922798 0.06132317 C97.71113204 0.06699383 100.90295707 0.06707195 104.09486198 0.06225777 C136.49805755 0.02597576 167.88492471 2.32601713 197.90258789 15.50170898 C197.27285908 50.59477801 179.93184212 89.38127969 156.90258789 115.50170898 C156.07243164 116.47624023 155.24227539 117.45077148 154.38696289 118.45483398 C131.71842693 144.58790165 98.23150771 159.83772727 64.77758789 166.37670898 C63.80313721 166.56773193 62.82868652 166.75875488 61.82470703 166.95556641 C58.52450603 167.54926333 55.22452718 168.04415258 51.90258789 168.50170898 C51.23266815 168.59419922 50.56274841 168.68668945 49.87252808 168.78198242 C37.82293516 170.36555731 25.80728624 170.6635782 13.67211914 170.70483398 C12.90743317 170.70816364 12.14274719 170.7114933 11.35488892 170.71492386 C4.18250718 170.74518623 -2.98971218 170.76416079 -10.16210938 170.73168945 C-14.12890462 170.71488424 -18.09472751 170.72735755 -22.06142616 170.75814056 C-23.5519706 170.76418666 -25.04260361 170.75953243 -26.53307152 170.74326324 C-35.65659034 170.64756379 -42.91046268 171.3339302 -50.09741211 177.50170898 C-51.73932559 179.44766774 -52.86746377 181.25571637 -54.09741211 183.50170898 C-54.42741211 183.50170898 -54.75741211 183.50170898 -55.09741211 183.50170898 C-54.53687399 172.85503992 -52.92810397 162.50094269 -51.15991211 152.00170898 C-50.75931292 149.5913199 -50.36029005 147.18067341 -49.96138 144.77000427 C-49.70232166 143.20626974 -49.44239545 141.64267871 -49.18156433 140.07923889 C-48.41659351 135.48426169 -47.69020359 130.88536216 -46.99584961 126.27905273 C-46.34677402 122.00543957 -45.58411428 117.78838725 -44.65991211 113.56420898 C-43.44834922 107.65345596 -42.55406137 101.75738187 -41.78100586 95.77514648 C-40.1342273 83.39517423 -38.18241487 71.06876548 -36.19067383 58.74023438 C-35.59428554 55.0448358 -35.00382103 51.34852247 -34.41381836 47.65209961 C-31.18036954 27.48599688 -31.18036954 27.48599688 -29.48413086 18.57202148 C-29.27747803 17.4829248 -29.0708252 16.39382812 -28.85791016 15.27172852 C-27.17670016 9.14813023 -24.10574522 5.78322668 -18.85423279 2.43223572 C-12.83148852 -0.50487167 -6.56854062 -0.04826039 0 0 Z " fill="#182A67" transform="translate(231.097412109375,113.498291015625)"/>
</svg>
