<?xml version="1.0" encoding="UTF-8"?>
<svg version="1.1" xmlns="http://www.w3.org/2000/svg" width="512" height="512">
<path d="M0 0 C39.50369253 23.2217652 84.39732245 36.05247692 129.5246582 42.35864258 C143.00408228 44.28236093 155.79283314 46.74100593 164.57226562 58.13916016 C171.01142307 67.81781124 171.82662728 75.35023486 171.80395508 86.78393555 C171.80830827 88.12856833 171.81349343 89.47319864 171.81944275 90.81782532 C171.83279607 94.45929582 171.83341425 98.10066225 171.83087945 101.74215245 C171.8298047 104.79987739 171.83470724 107.85758172 171.83948487 110.91530222 C171.85057288 118.15050051 171.85102503 125.38564693 171.8449707 132.62084961 C171.83896588 140.02840623 171.85115395 147.43577122 171.87254077 154.84329516 C171.89031811 161.24119159 171.89613207 167.639028 171.89290303 174.03694814 C171.8911114 177.84044593 171.89350684 181.64380785 171.90761757 185.44728279 C172.11580388 246.90073353 153.28425308 304.56721967 110.39648438 349.73291016 C108.79644051 351.34334392 107.17415236 352.92241581 105.52929688 354.48681641 C104.72492188 355.29119141 103.92054688 356.09556641 103.09179688 356.92431641 C102.24617188 357.76994141 101.40054687 358.61556641 100.52929688 359.48681641 C100.03816406 360.02435547 99.54703125 360.56189453 99.04101562 361.11572266 C92.03723537 368.55432741 83.75243342 374.48072979 75.52929688 380.48681641 C74.9435791 380.91720215 74.35786133 381.34758789 73.75439453 381.79101562 C62.27960069 390.11492997 49.65452921 396.62605915 37.22485352 403.38340759 C30.7210905 406.92033987 24.24892873 410.51281278 17.77929688 414.11181641 C16.68069336 414.72017334 15.58208984 415.32853027 14.45019531 415.95532227 C8.83100397 419.07106527 3.23559358 422.2216518 -2.33007812 425.43212891 C-3.44543945 426.07069824 -4.56080078 426.70926758 -5.70996094 427.3671875 C-7.80901261 428.5707318 -9.90260771 429.78386942 -11.98925781 431.00878906 C-22.0987526 436.78491062 -32.72177812 440.53265089 -44.37109375 437.80859375 C-52.60692342 435.3797176 -59.68684907 431.97660806 -67.09570312 427.67431641 C-68.26469788 427.00834076 -69.4344769 426.34374012 -70.60498047 425.68041992 C-73.02678175 424.30664492 -75.44517025 422.92713131 -77.86132812 421.54345703 C-83.5738449 418.27927148 -89.33865575 415.10903047 -95.09570312 411.92431641 C-97.33297517 410.6800512 -99.56995532 409.43526102 -101.80664062 408.18994141 C-106.26395478 405.70973552 -110.72820033 403.2426531 -115.19726562 400.78369141 C-126.61870717 394.47896767 -137.89151868 388.14193073 -148.47070312 380.48681641 C-149.30384033 379.88474365 -149.30384033 379.88474365 -150.15380859 379.27050781 C-157.46673353 373.92913221 -164.2255699 368.14088425 -170.81445312 361.93212891 C-173.41241843 359.48026636 -173.41241843 359.48026636 -176.11132812 357.39306641 C-178.25348868 355.66231417 -179.95218284 353.96081776 -181.72070312 351.86181641 C-184.31868375 348.81030899 -186.98875833 345.85627859 -189.72070312 342.92431641 C-214.01684128 315.86912527 -230.52782555 281.29456123 -239.15820312 246.17431641 C-239.34842041 245.41884521 -239.5386377 244.66337402 -239.73461914 243.88500977 C-240.38927587 241.09665703 -240.93448301 238.30071546 -241.47070312 235.48681641 C-241.592506 234.85070403 -241.71430887 234.21459166 -241.83980274 233.55920315 C-244.86798849 217.10441148 -244.93272201 200.67800629 -244.9066112 184.01292825 C-244.90347597 180.91359605 -244.90965744 177.81430761 -244.91564995 174.71498173 C-244.92957481 167.40426877 -244.92822924 160.09367304 -244.91674805 152.78295898 C-244.90521494 145.27370173 -244.91945649 137.76479948 -244.94614452 130.25558883 C-244.96834574 123.76246856 -244.97493084 117.26945945 -244.96906811 110.77630395 C-244.96571556 106.91747141 -244.96800219 103.05886758 -244.98531914 99.20006752 C-245.00086297 95.58077489 -244.99675164 91.96200957 -244.97801399 88.3427372 C-244.97261817 86.39823185 -244.98677569 84.45370232 -245.00170898 82.50924683 C-244.90537117 70.96720773 -241.70745803 61.75424823 -233.47070312 53.48681641 C-222.6585932 44.57763783 -209.69814443 43.3965826 -196.24468994 41.46786499 C-148.71736656 34.57474772 -103.51575932 18.45006285 -62.10742188 -5.84912109 C-38.50202602 -19.59452943 -22.41139384 -13.21624976 0 0 Z M-42.69335938 21.34619141 C-43.77609131 21.96139648 -44.85882324 22.57660156 -45.97436523 23.21044922 C-46.55330536 23.54065063 -47.13224548 23.87085205 -47.72872925 24.21105957 C-95.61126187 51.42998237 -148.45293401 70.52173107 -203.51367188 76.00244141 C-207.30875321 76.46699233 -208.9152892 76.71845132 -211.47070312 79.48681641 C-212.40667076 82.29471931 -212.5962881 83.98637991 -212.59768677 86.88902283 C-212.60050659 87.78980057 -212.60332642 88.69057831 -212.60623169 89.61865234 C-212.60420746 90.60502686 -212.60218323 91.59140137 -212.60009766 92.60766602 C-212.60184998 93.648871 -212.60360229 94.69007599 -212.60540771 95.76283264 C-212.60982418 99.22162524 -212.60688532 102.68036699 -212.60351562 106.13916016 C-212.60418959 108.55318715 -212.60516039 110.96721408 -212.60641479 113.38124084 C-212.60789219 118.45802451 -212.60573905 123.53479063 -212.60107422 128.61157227 C-212.59542863 135.06538544 -212.59862246 141.51915654 -212.60464668 147.9729681 C-212.60829565 152.97067062 -212.60709312 157.96836352 -212.60451889 162.96606636 C-212.60385884 165.34149747 -212.60464523 167.7169295 -212.60699844 170.09235954 C-212.79439408 197.36700313 -212.79439408 197.36700313 -209.78320312 224.42431641 C-209.60877686 225.42245361 -209.43435059 226.42059082 -209.25463867 227.44897461 C-200.20900837 276.81896981 -171.82265159 323.50510893 -130.47070312 352.48681641 C-129.93396973 352.87321289 -129.39723633 353.25960938 -128.84423828 353.65771484 C-118.96976903 360.7460388 -108.41437738 366.43334497 -97.70117188 372.14306641 C-91.84150567 375.2701565 -86.05434283 378.51233116 -80.28320312 381.79931641 C-71.79223262 386.62085984 -63.28369319 391.40951197 -54.74545288 396.14682007 C-53.44603325 396.86862555 -52.14753606 397.59209436 -50.8500061 398.31729126 C-49.03463677 399.33145045 -47.2160315 400.33955177 -45.39648438 401.34619141 C-44.34887939 401.92852539 -43.30127441 402.51085937 -42.22192383 403.11083984 C-38.97579095 404.79787458 -38.97579095 404.79787458 -35.47070312 405.48681641 C-32.8870568 404.54234504 -32.8870568 404.54234504 -30.20117188 402.97900391 C-29.15985107 402.41133301 -28.11853027 401.84366211 -27.0456543 401.25878906 C-25.92779541 400.63278809 -24.80993652 400.00678711 -23.65820312 399.36181641 C-22.48204209 398.71423231 -21.30535785 398.06759764 -20.12817383 397.421875 C-16.56539811 395.46163403 -13.01695047 393.47681138 -9.47070312 391.48681641 C-8.47941406 390.93058594 -7.488125 390.37435547 -6.46679688 389.80126953 C-2.77074643 387.72191987 0.92155726 385.6363091 4.60595703 383.53637695 C10.04138192 380.44077574 15.50035389 377.39455013 20.99023438 374.39697266 C21.63117538 374.04632751 22.27211639 373.69568237 22.93247986 373.33441162 C28.07542303 370.52130615 28.07542303 370.52130615 30.54702759 369.18414307 C47.67743955 359.91637684 63.39601491 348.91134972 77.52929688 335.48681641 C78.05104492 334.99761719 78.57279297 334.50841797 79.11035156 334.00439453 C114.78954033 300.36342832 136.6870451 252.60488091 139.07910156 203.60180664 C139.12107037 202.7432907 139.16303917 201.88477476 139.20627975 201.00024319 C139.71621511 189.55408702 139.7138033 178.10241365 139.73242188 166.64697266 C139.73524925 165.457973 139.73807663 164.26897335 139.74098969 163.04394341 C139.7558288 156.7811652 139.76516075 150.51840923 139.76953125 144.25561523 C139.77506892 137.79961571 139.79924997 131.34382147 139.8275032 124.887887 C139.84608826 119.89940266 139.85133244 114.91096897 139.85286713 109.92245293 C139.85589128 107.54019455 139.86391175 105.15793702 139.87705231 102.77571297 C139.8940646 99.46188297 139.89224701 96.14857246 139.88574219 92.8347168 C139.89495697 91.85553284 139.90417175 90.87634888 139.91366577 89.86749268 C139.8834128 84.95931731 139.83358272 81.41975704 136.52929688 77.48681641 C134.54262899 76.53216746 134.54262899 76.53216746 132.22460938 76.30712891 C131.33290039 76.16823242 130.44119141 76.02933594 129.52246094 75.88623047 C128.5347168 75.75442383 127.54697266 75.62261719 126.52929688 75.48681641 C124.31820682 75.15188445 122.10727892 74.81588089 119.89648438 74.47900391 C118.69499756 74.30151611 117.49351074 74.12402832 116.25561523 73.94116211 C64.80002075 66.20080549 15.13902226 48.61643269 -29.55932617 21.88867188 C-30.30609619 21.44410645 -31.05286621 20.99954102 -31.82226562 20.54150391 C-32.80960693 19.94571533 -32.80960693 19.94571533 -33.81689453 19.33789062 C-37.3748582 17.50691021 -39.48030712 19.50154675 -42.69335938 21.34619141 Z " fill="#000000" transform="translate(292.470703125,44.51318359375)"/>
<path d="M0 0 C4.95893049 2.65618739 8.21934292 5.9509975 9.99609375 11.28125 C10.234375 13.296875 10.234375 13.296875 10.30859375 15.53125 C10.36466797 16.62179688 10.36466797 16.62179688 10.421875 17.734375 C9.20358671 25.02175083 3.62302707 30.14183035 -1.31640625 35.21875 C-2.75938297 36.72630565 -4.20208497 38.23412431 -5.64453125 39.7421875 C-6.37349609 40.49983398 -7.10246094 41.25748047 -7.85351562 42.03808594 C-11.12045298 45.44596745 -14.34335958 48.89441975 -17.56640625 52.34375 C-18.80711283 53.66813631 -20.04799836 54.992355 -21.2890625 56.31640625 C-21.90152832 56.97012207 -22.51399414 57.62383789 -23.14501953 58.29736328 C-26.26392779 61.62600112 -29.38397712 64.95356906 -32.50390625 68.28125 C-33.75391166 69.61457826 -35.00391166 70.94791159 -36.25390625 72.28125 C-38.75390625 74.94791667 -41.25390625 77.61458333 -43.75390625 80.28125 C-44.37330078 80.9419751 -44.99269531 81.6027002 -45.63085938 82.28344727 C-46.87419721 83.60959867 -48.1176855 84.93560903 -49.36132812 86.26147461 C-52.58954109 89.70351858 -55.81468324 93.14836833 -59.03515625 96.59765625 C-59.69966797 97.30857422 -60.36417969 98.01949219 -61.04882812 98.75195312 C-62.30632457 100.09738639 -63.56291043 101.4436716 -64.81835938 102.79101562 C-66.53799392 104.62977569 -68.26720909 106.45860205 -70.00390625 108.28125 C-70.61492187 108.92433105 -71.2259375 109.56741211 -71.85546875 110.22998047 C-72.46132813 110.85404785 -73.0671875 111.47811523 -73.69140625 112.12109375 C-74.50158203 112.96015259 -74.50158203 112.96015259 -75.328125 113.81616211 C-79.80530533 117.73043355 -84.22739684 117.83922546 -89.98828125 117.70703125 C-94.94480733 117.00721086 -97.47227098 114.67006178 -101.00390625 111.28125 C-102.47793823 109.94741128 -103.95198285 108.6135865 -105.42626953 107.2800293 C-107.00086089 105.84652249 -108.56249434 104.40008201 -110.12109375 102.94921875 C-113.0382874 100.24943113 -116.00931395 97.62718274 -119.01171875 95.0234375 C-121.3641126 92.96624601 -123.68425591 90.87528085 -126.00390625 88.78125 C-128.98453346 86.09141569 -131.97635858 83.41814636 -135.00390625 80.78125 C-135.63554687 80.22695313 -136.2671875 79.67265625 -136.91796875 79.1015625 C-138.487313 77.73205984 -140.06728034 76.37471575 -141.65234375 75.0234375 C-142.55210937 74.24226563 -143.451875 73.46109375 -144.37890625 72.65625 C-145.21164063 71.94210937 -146.044375 71.22796875 -146.90234375 70.4921875 C-150.2208768 67.0009427 -151.29093753 63.60639984 -151.31640625 58.84375 C-151.17888665 53.96584906 -150.10095002 50.39548265 -146.57421875 46.83984375 C-142.73462765 43.48736496 -139.72502127 42.13557363 -134.69140625 42.03125 C-133.58345703 41.99257812 -133.58345703 41.99257812 -132.453125 41.953125 C-126.15106724 42.79741982 -122.00661562 46.80546712 -117.62890625 51.03125 C-116.47987491 52.11663568 -115.33013833 53.20127526 -114.1796875 54.28515625 C-113.63135254 54.80480957 -113.08301758 55.32446289 -112.51806641 55.85986328 C-110.06316061 58.16435563 -107.51947362 60.3610138 -104.97265625 62.5625 C-101.73980943 65.38482659 -98.57309433 68.28051836 -95.3984375 71.16796875 C-92.99402016 73.28997492 -90.52379528 75.29845988 -88.00390625 77.28125 C-77.44755925 66.96322468 -77.44755925 66.96322468 -67.5390625 56.03515625 C-65.15533768 53.31176581 -62.55043995 50.81937549 -59.97265625 48.28125 C-58.0640417 46.34233998 -56.27680073 44.34425449 -54.50390625 42.28125 C-51.48628272 38.76983352 -48.27031544 35.52817598 -44.97265625 32.28125 C-43.0640417 30.34233998 -41.27680073 28.34425449 -39.50390625 26.28125 C-36.48800739 22.77184042 -33.27562441 19.53091525 -29.9765625 16.2890625 C-28.03500048 14.31289838 -26.23496133 12.26678685 -24.44140625 10.15625 C-17.86727167 2.52905038 -10.66133008 -3.82394685 0 0 Z " fill="#000000" transform="translate(332.00390625,186.71875)"/>
</svg>
