<?xml version="1.0" encoding="UTF-8"?>
<svg version="1.1" xmlns="http://www.w3.org/2000/svg" width="512" height="512">
<path d="M0 0 C3.11977163 1.38632505 5.2398663 2.99078425 7.64690018 5.40080452 C8.35851028 6.10843252 9.07012038 6.81606053 9.80329442 7.5451318 C10.96477471 8.71535061 10.96477471 8.71535061 12.14971924 9.90921021 C13.39216215 11.14908984 13.39216215 11.14908984 14.65970492 12.41401756 C16.957429 14.70901517 19.25060478 17.00844843 21.54194641 19.30981517 C24.01408378 21.79058383 26.49199249 24.26557582 28.96920776 26.74127197 C33.26024754 31.03126269 37.54760821 35.32490211 41.83249664 39.62103653 C48.02774105 45.83253019 54.22849614 52.03849844 60.43061313 58.243129 C70.49281437 68.30970825 80.55054053 78.38074637 90.60546875 88.45458984 C100.37330853 98.24078569 110.14324523 108.02488023 119.91601562 117.80615234 C120.81949894 118.71042383 120.81949894 118.71042383 121.74123445 119.63296343 C124.7628999 122.65723894 127.78460668 125.68147314 130.80633402 128.70568681 C155.87730177 153.79739034 180.94101379 178.89633077 206 204 C204.61367495 207.11977163 203.00921575 209.2398663 200.59919548 211.64690018 C199.89156748 212.35851028 199.18393947 213.07012038 198.4548682 213.80329442 C197.67472232 214.57761461 196.89457645 215.3519348 196.09078979 216.14971924 C195.26420337 216.97801451 194.43761694 217.80630979 193.58598244 218.65970492 C191.29098483 220.957429 188.99155157 223.25060478 186.69018483 225.54194641 C184.20941617 228.01408378 181.73442418 230.49199249 179.25872803 232.96920776 C174.96873731 237.26024754 170.67509789 241.54760821 166.37896347 245.83249664 C160.16746981 252.02774105 153.96150156 258.22849614 147.756871 264.43061313 C137.69029175 274.49281437 127.61925363 284.55054053 117.54541016 294.60546875 C107.75921431 304.37330853 97.97511977 314.14324523 88.19384766 323.91601562 C87.28957617 324.81949894 87.28957617 324.81949894 86.36703657 325.74123445 C83.34276106 328.7628999 80.31852686 331.78460668 77.29431319 334.80633402 C52.20260966 359.87730177 27.10366923 384.94101379 2 410 C-1.01657514 408.55414497 -3.11993351 407.12529778 -5.48339844 404.74365234 C-6.14378113 404.08311859 -6.80416382 403.42258484 -7.48455811 402.74203491 C-8.18574768 402.03052277 -8.88693726 401.31901062 -9.609375 400.5859375 C-10.69958954 399.49147812 -10.69958954 399.49147812 -11.81182861 398.37490845 C-14.12929198 396.0462612 -16.4396995 393.71075174 -18.75 391.375 C-20.32115444 389.79381347 -21.89276371 388.21307875 -23.46484375 386.6328125 C-27.31518653 382.7604331 -31.15976117 378.88239829 -35 375 C-5.06302917 315.12605835 58.66549297 279.33450703 106 232 C-97.94 231.505 -97.94 231.505 -306 231 C-306 213.84 -306 196.68 -306 179 C-170.04 178.67 -34.08 178.34 106 178 C59.47 131.47 12.94 84.94 -35 37 C-33.31319802 33.62639603 -32.29918119 32.05262255 -29.74365234 29.51660156 C-29.08311859 28.85621887 -28.42258484 28.19583618 -27.74203491 27.51544189 C-27.03052277 26.81425232 -26.31901062 26.11306274 -25.5859375 25.390625 C-24.49147812 24.30041046 -24.49147812 24.30041046 -23.37490845 23.18817139 C-21.0462612 20.87070802 -18.71075174 18.5603005 -16.375 16.25 C-14.79381347 14.67884556 -13.21307875 13.10723629 -11.6328125 11.53515625 C-7.7604331 7.68481347 -3.88239829 3.84023883 0 0 Z " fill="#000000" transform="translate(306,51)"/>
</svg>
