<?xml version="1.0" encoding="UTF-8"?>
<svg version="1.1" xmlns="http://www.w3.org/2000/svg" width="512" height="512">
<path d="M0 0 C1.22447148 -0.00307895 1.22447148 -0.00307895 2.47367975 -0.0062201 C5.22656396 -0.01190335 7.97939835 -0.01043122 10.73228741 -0.00901413 C12.71890514 -0.011597 14.70552236 -0.01460994 16.69213885 -0.01801753 C22.16514833 -0.02609985 27.6381447 -0.02787779 33.11115944 -0.028615 C39.00835055 -0.03046339 44.90553481 -0.03800959 50.80272198 -0.04475021 C64.37622596 -0.05905126 77.94972893 -0.06486097 91.52323888 -0.06944216 C98.22954066 -0.0717777 104.93584159 -0.07538029 111.64214271 -0.07913754 C134.59496679 -0.09197261 157.54779039 -0.10269231 180.50061798 -0.10614014 C181.94151415 -0.10636177 183.38241032 -0.10658355 184.82330648 -0.10680549 C186.26769468 -0.10702613 187.71208288 -0.10724661 189.15647107 -0.10746694 C192.05419497 -0.10790949 194.95191886 -0.10835661 197.84964275 -0.10880661 C198.56811007 -0.108916 199.28657739 -0.10902539 200.02681645 -0.1091381 C223.32904228 -0.11276964 246.63123701 -0.12869358 269.93345093 -0.15199697 C294.56562458 -0.1765854 319.19778045 -0.1903125 343.82996672 -0.19150805 C346.53320293 -0.19167951 349.23643913 -0.19189494 351.93967533 -0.19214249 C352.6052959 -0.19219826 353.27091647 -0.19225402 353.95670736 -0.19231148 C364.01031945 -0.19339141 374.06390277 -0.20270561 384.11750507 -0.21632767 C395.55074228 -0.23170352 406.98392618 -0.23686397 418.41717175 -0.22858956 C424.2528998 -0.22467427 430.08852042 -0.22565552 435.92423534 -0.23964691 C441.26420878 -0.25233296 446.60399349 -0.25123504 451.94396647 -0.2390562 C453.87801159 -0.23709 455.81206983 -0.24021993 457.74609647 -0.24890056 C460.37164639 -0.25994094 462.99652413 -0.25254177 465.62205505 -0.24050903 C466.75269808 -0.25190182 466.75269808 -0.25190182 467.90618238 -0.26352477 C474.33788681 -0.19973665 478.85056331 1.2752781 483.74978924 5.50642776 C487.34279373 9.69826634 489.37251654 12.77359445 489.3856926 18.37550354 C489.39536593 19.41796037 489.40503927 20.46041721 489.41500574 21.53446364 C489.41035994 22.67326295 489.40571413 23.81206226 489.40092754 24.98537064 C489.40772421 26.20019127 489.41452088 27.41501191 489.42152351 28.66664529 C489.43723258 32.03580121 489.43947782 35.40447693 489.43594038 38.77363539 C489.43532815 42.40841711 489.45188675 46.04312719 489.46611309 49.67787552 C489.49103089 56.79832934 489.49927756 63.91870865 489.50095022 71.03920242 C489.50237594 76.82801417 489.50854138 82.61680134 489.5180521 88.40560532 C489.54447262 104.82106955 489.55831029 121.23647494 489.55606068 137.65196058 C489.55594081 138.53689374 489.55582094 139.42182689 489.55569744 140.3335762 C489.5555748 141.2195911 489.55545216 142.105606 489.5553258 143.01846984 C489.55410671 157.37432863 489.58280735 171.72995124 489.62511254 186.08574173 C489.66821704 200.82923211 489.68892233 215.57260735 489.68633121 230.31616235 C489.68533567 238.59230918 489.69356003 246.8682085 489.72586536 255.14429855 C489.75319821 262.19166861 489.75969225 269.23867899 489.73933709 276.28607914 C489.72954923 279.88030364 489.7293399 283.47383833 489.75539684 287.06799698 C489.7833856 290.96883311 489.7646435 294.86866499 489.74150372 298.76955032 C489.7569344 299.89942674 489.77236509 301.02930316 489.78826338 302.19341826 C489.69017367 309.67925238 488.02287291 314.50049201 482.99978924 320.13142776 C477.64682969 324.20987314 472.54111591 324.27807015 465.99957848 324.26285553 C465.18326416 324.26490816 464.36694984 324.2669608 463.52589872 324.26907563 C460.77301452 324.27475888 458.02018013 324.27328675 455.26729107 324.27186966 C453.28067333 324.27445253 451.29405612 324.27746547 449.30743963 324.28087306 C443.83443015 324.28895538 438.36143377 324.29073332 432.88841903 324.29147053 C426.99122793 324.29331892 421.09404366 324.30086512 415.1968565 324.30760574 C401.62335252 324.32190679 388.04984954 324.3277165 374.47633959 324.33229769 C367.77003781 324.33463323 361.06373688 324.33823582 354.35743577 324.34199307 C331.40461169 324.35482814 308.45178809 324.36554784 285.49896049 324.36899567 C284.05806433 324.3692173 282.61716816 324.36943908 281.17627199 324.36966102 C279.7318838 324.36988166 278.2874956 324.37010214 276.8431074 324.37032247 C273.94538351 324.37076502 271.04765962 324.37121214 268.14993572 324.37166214 C267.4314684 324.37177153 266.71300108 324.37188092 265.97276203 324.37199363 C242.6705362 324.37562517 219.36834146 324.39154911 196.06612755 324.4148525 C171.4339539 324.43944093 146.80179803 324.45316803 122.16961175 324.45436358 C119.46637555 324.45453504 116.76313935 324.45475047 114.05990314 324.45499802 C113.06147229 324.45508167 113.06147229 324.45508167 112.04287112 324.45516701 C101.98925903 324.45624694 91.93567571 324.46556114 81.8820734 324.4791832 C70.4488362 324.49455905 59.01565229 324.4997195 47.58240672 324.49144509 C41.74667868 324.4875298 35.91105806 324.48851105 30.07534313 324.50250244 C24.7353697 324.51518849 19.39558498 324.51409057 14.05561201 324.50191173 C12.12156689 324.49994553 10.18750864 324.50307546 8.25348201 324.51175609 C5.62793209 324.52279647 3.00305434 324.5153973 0.37752342 324.50336456 C-0.7531196 324.51475735 -0.7531196 324.51475735 -1.9066039 324.5263803 C-8.33830834 324.46259218 -12.85098484 322.98757743 -17.75021076 318.75642776 C-21.34469096 314.56286753 -23.37352607 311.48895847 -23.38332081 305.88455868 C-23.39237745 304.84148514 -23.40143409 303.79841161 -23.41076517 302.72372979 C-23.40543725 301.58424836 -23.40010932 300.44476694 -23.39461994 299.27075577 C-23.40071105 298.05522957 -23.40680215 296.83970337 -23.41307783 295.58734304 C-23.42684995 292.21625057 -23.4271582 288.8456451 -23.42170286 285.4745611 C-23.41903346 281.83775928 -23.43356286 278.2010199 -23.44579792 274.56424332 C-23.46685869 267.44010804 -23.47139238 260.31605413 -23.46961004 253.19189139 C-23.46830261 247.4006881 -23.47210557 241.6095102 -23.4795351 235.81831169 C-23.4816343 234.15038357 -23.4837319 232.48245545 -23.48582792 230.81452733 C-23.48739321 229.56926763 -23.48739321 229.56926763 -23.48899013 228.29885117 C-23.50789548 212.59544049 -23.50684154 196.89207652 -23.5000208 181.18865917 C-23.49444645 166.8256864 -23.51526559 152.46289207 -23.54838127 138.09996101 C-23.5821233 123.35082685 -23.59728588 108.60177816 -23.59266424 93.85260469 C-23.59041989 85.57261281 -23.59565744 77.29278581 -23.62055683 69.01282692 C-23.64157674 61.9628947 -23.64515535 54.91321774 -23.62625724 47.86327501 C-23.61710305 44.26723005 -23.61594577 40.67166089 -23.63661289 37.07565308 C-23.65878512 33.1745561 -23.64209641 29.27416947 -23.62167072 25.37305069 C-23.63418857 24.24026143 -23.64670642 23.10747217 -23.6596036 21.94035596 C-23.5829355 15.11545645 -22.58872327 10.34478463 -18.00021076 5.13142776 C-12.02579824 0.3762831 -7.43172772 -0.01728507 0 0 Z " fill="#21246E" transform="translate(23.000210762023926,93.86857223510742)"/>
<path d="M0 0 C0.72680969 0.00141495 1.45361938 0.0028299 2.20245361 0.00428772 C4.51521994 0.00986833 6.82788812 0.02241721 9.140625 0.03515625 C10.71223818 0.04017376 12.28385289 0.04473623 13.85546875 0.04882812 C17.70055843 0.0598314 21.5455751 0.07708264 25.390625 0.09765625 C28.13982294 9.88402001 30.42068351 19.66545836 32.34115601 29.64422607 C33.07858447 33.47223742 33.83342474 37.29679593 34.58984375 41.12109375 C34.81644432 42.26748825 34.81644432 42.26748825 35.04762268 43.43704224 C36.44788084 50.47387737 37.99115882 57.4756475 39.578125 64.47265625 C41.5338419 73.10081905 43.31637015 81.73587674 44.91821289 90.4362793 C46.29592422 97.82595243 47.9336992 105.1460984 49.64086914 112.46606445 C50.64110554 116.75899947 51.62277482 121.05548227 52.5390625 125.3671875 C52.70325684 126.13264893 52.86745117 126.89811035 53.03662109 127.68676758 C53.390625 130.09765625 53.390625 130.09765625 53.390625 136.09765625 C42.830625 136.09765625 32.270625 136.09765625 21.390625 136.09765625 C20.400625 132.26140625 20.400625 132.26140625 19.390625 128.34765625 C19.18179688 127.54875977 18.97296875 126.74986328 18.7578125 125.92675781 C17.88995885 122.5087231 17.390625 119.64576935 17.390625 116.09765625 C2.210625 116.09765625 -12.969375 116.09765625 -28.609375 116.09765625 C-28.939375 117.74765625 -29.269375 119.39765625 -29.609375 121.09765625 C-31.259375 126.04765625 -32.909375 130.99765625 -34.609375 136.09765625 C-46.819375 136.09765625 -59.029375 136.09765625 -71.609375 136.09765625 C-70.90048473 132.55320491 -70.29648021 130.02499178 -68.94555664 126.80615234 C-68.6026207 125.982668 -68.25968475 125.15918365 -67.90635681 124.31074524 C-67.53120438 123.42316025 -67.15605194 122.53557526 -66.76953125 121.62109375 C-66.37596939 120.67965012 -65.98240753 119.73820648 -65.57691956 118.76823425 C-64.27960878 115.66785673 -62.97577944 112.57026582 -61.671875 109.47265625 C-60.7637399 107.30608431 -59.85603031 105.13933397 -58.94873047 102.97241211 C-57.08391909 98.52048329 -55.21656316 94.06963484 -53.34716797 89.61962891 C-50.42722455 82.66718119 -47.52005867 75.70943399 -44.61538696 68.75059509 C-42.75028813 64.28365118 -40.88184078 59.81817656 -39.00488281 55.35620117 C-38.27534578 53.62160089 -37.54585309 51.88698196 -36.81640625 50.15234375 C-36.46258881 49.31103409 -36.10877136 48.46972443 -35.74423218 47.60292053 C-33.66347567 42.64411924 -31.61468871 37.67361534 -29.59436035 32.68989563 C-28.3414877 29.60436477 -27.07456397 26.52471381 -25.80560303 23.44577026 C-25.22636945 22.02961037 -24.65388577 20.61066661 -24.08892822 19.18875122 C-21.09621805 11.66104254 -18.61373945 5.63948512 -11.609375 1.09765625 C-7.85006125 -0.26782727 -3.94631394 -0.02904785 0 0 Z " fill="#FDFDFD" transform="translate(410.609375,187.90234375)"/>
<path d="M0 0 C8.24090676 -0.06962768 16.48168982 -0.12287576 24.72281837 -0.15543652 C28.549856 -0.17106708 32.37669179 -0.19225718 36.20361328 -0.22631836 C39.8994583 -0.25900562 43.59510965 -0.27687263 47.2910881 -0.28463173 C48.69844993 -0.29015851 50.10580161 -0.30095101 51.5130806 -0.31719017 C53.48989706 -0.33908635 55.46690996 -0.34022644 57.44384766 -0.34057617 C58.56747711 -0.34723801 59.69110657 -0.35389984 60.8487854 -0.36076355 C65.86020778 0.21296397 69.07316068 2.11626949 72.6875 5.5625 C77.5834979 11.90183415 78.53648692 21.01924835 79.8671875 28.72265625 C80.02715714 29.61872589 80.18712677 30.51479553 80.35194397 31.4380188 C80.69058692 33.33718323 81.02675001 35.23679135 81.36056519 37.1368103 C82.22616849 42.05966271 83.11202063 46.97887442 83.99609375 51.8984375 C84.25499138 53.34270363 84.25499138 53.34270363 84.51911926 54.81614685 C85.92179674 62.62108427 87.38807029 70.41030546 88.9375 78.1875 C89.13649902 79.20013916 89.33549805 80.21277832 89.54052734 81.25610352 C89.72180176 82.15514404 89.90307617 83.05418457 90.08984375 83.98046875 C90.31982056 85.12358521 90.31982056 85.12358521 90.55444336 86.28979492 C90.85114611 88.01981119 90.85114611 88.01981119 92 89 C92.45624756 87.83170654 92.91249512 86.66341309 93.38256836 85.4597168 C104.51997525 56.94591049 115.72465641 28.45953813 127 0 C139.21 0 151.42 0 164 0 C163.31060862 3.44695691 162.78308066 5.8397748 161.4597168 8.93676758 C161.14316132 9.68429291 160.82660583 10.43181824 160.50045776 11.20199585 C160.15354889 12.00803253 159.80664001 12.81406921 159.44921875 13.64453125 C159.08345734 14.50535309 158.71769592 15.36617493 158.34085083 16.25308228 C157.54546166 18.12391493 156.74797305 19.99385607 155.94863892 21.86300659 C153.77629757 26.94357813 151.61973561 32.03085021 149.4609375 37.1171875 C149.01101944 38.17608688 148.56110138 39.23498627 148.09754944 40.32597351 C143.28014018 51.6733236 138.54353233 63.05393286 133.8125 74.4375 C125.26826803 94.98393118 116.64945727 115.49758277 108 136 C95.46 136 82.92 136 70 136 C69.0925 132.349375 68.185 128.69875 67.25 124.9375 C64.67792134 114.63333811 62.00683175 104.36378784 59.21435547 94.1171875 C52.92844044 71.03724488 52.92844044 71.03724488 50.34765625 59.7097168 C49.09574787 54.26297103 47.58561621 48.91624228 46 43.55859375 C45.27218121 40.96858234 44.6079592 38.40282433 44 35.78515625 C43.74863281 34.71503296 43.74863281 34.71503296 43.4921875 33.62329102 C43.17442481 32.25246654 42.86640817 30.8793293 42.5703125 29.50366211 C41.31095198 24.10235872 39.35804523 19.78469968 34.86328125 16.3828125 C23.76310434 10.90921837 11.8123421 7.58755355 0 4 C0 2.68 0 1.36 0 0 Z " fill="#FDFDFD" transform="translate(30,188)"/>
<path d="M0 0 C0.36128656 6.439933 -0.99773008 12.19698955 -2.5 18.4375 C-2.73847656 19.45521484 -2.97695313 20.47292969 -3.22265625 21.52148438 C-3.80823121 24.01603368 -4.40083542 26.50868641 -5 29 C-9.93075246 27.94098258 -14.78243978 26.789199 -19.625 25.375 C-29.23143869 22.97032314 -41.03342473 22.00519632 -50 27 C-52.75637346 29.06809828 -52.75637346 29.06809828 -54 32 C-54.07199091 36.03149119 -53.67155048 38.16407419 -51.1328125 41.32421875 C-46.23467118 45.9788158 -39.71269623 48.75956474 -33.81054688 51.91992188 C-21.41223015 58.70850841 -10.96979358 66.35798783 -6 80 C-4.60625391 93.40455799 -6.81103059 105.12185632 -15 116 C-26.09674099 128.44362803 -41.7529251 133.67841433 -58 135 C-74.03439914 135.88724893 -91.5649997 135.95863366 -106 128 C-105.1908237 123.72852995 -104.37709263 119.45794016 -103.5625 115.1875 C-103.33240234 113.97255859 -103.10230469 112.75761719 -102.86523438 111.50585938 C-102.64287109 110.34248047 -102.42050781 109.17910156 -102.19140625 107.98046875 C-101.98717041 106.90692139 -101.78293457 105.83337402 -101.57250977 104.72729492 C-101 102 -101 102 -100 99 C-95.01898026 99.84132387 -90.36354224 101.51668527 -85.61523438 103.18359375 C-74.11119492 107.13117277 -61.2940012 107.9136239 -50 103 C-48.515 102.5359375 -48.515 102.5359375 -47 102.0625 C-44.90139322 101.19554225 -44.90139322 101.19554225 -44.1875 99.375 C-44.0946875 98.199375 -44.0946875 98.199375 -44 97 C-43.814375 95.0509375 -43.814375 95.0509375 -43.625 93.0625 C-43.69589957 89.86611102 -43.92769964 89.10122051 -45.875 86.375 C-51.22465762 82.30926021 -56.98361784 79.08111692 -62.890625 75.8984375 C-74.82646504 69.42855606 -85.82792244 62.72277008 -90.63671875 49.2109375 C-92.6886904 36.72259392 -91.2713604 25.77638854 -83.9375 15.375 C-74.57189352 4.01970459 -60.14006646 -3.33579969 -45.58520508 -4.79711914 C-29.63695828 -6.04870032 -15.11541913 -5.40525844 0 0 Z " fill="#FDFDFD" transform="translate(346,191)"/>
<path d="M0 0 C11.88 0 23.76 0 36 0 C32.60281101 17.95034841 28.97908648 35.83031935 25.125 53.6875 C24.59296862 56.16201747 24.0609867 58.63654557 23.52905273 61.11108398 C20.26387978 76.274416 16.92551341 91.41830022 13.46875 106.5390625 C11.22925225 116.3413086 9.11991568 126.17130001 7 136 C-4.55 136 -16.1 136 -28 136 C-26.87596533 127.00772262 -26.87596533 127.00772262 -26.08984375 123.33984375 C-25.81841553 122.05678345 -25.81841553 122.05678345 -25.54150391 120.74780273 C-25.34218262 119.82040283 -25.14286133 118.89300293 -24.9375 117.9375 C-24.48481346 115.80226625 -24.03305924 113.66683471 -23.58203125 111.53125 C-23.33146973 110.3453125 -23.0809082 109.159375 -22.82275391 107.9375 C-21.90745691 103.576959 -21.02158885 99.21055026 -20.13671875 94.84375 C-16.79141695 78.35303591 -13.35838379 61.89936131 -9.59008789 45.49951172 C-6.13618578 30.38508492 -3.08909338 15.19329599 0 0 Z " fill="#FCFCFD" transform="translate(209,188)"/>
<path d="M0 0 C0.66 0 1.32 0 2 0 C4.46134153 9.99662176 6.66609951 20.02984023 8.6875 30.125 C8.90172607 31.19097412 9.11595215 32.25694824 9.33666992 33.35522461 C10.37088941 38.57248888 11.24643067 43.72501467 12 49 C2.43 49 -7.14 49 -17 49 C-15.0939637 42.01120022 -13.1741754 35.35115697 -10.64453125 28.61328125 C-10.18478157 27.37145332 -10.18478157 27.37145332 -9.71574402 26.10453796 C-8.75240395 23.50552946 -7.78259 20.90899555 -6.8125 18.3125 C-6.15125928 16.53206195 -5.49044845 14.75146419 -4.83007812 12.97070312 C-3.22500281 8.6452779 -1.61412387 4.32205628 0 0 Z " fill="#282B72" transform="translate(410,227)"/>
</svg>
