<?xml version="1.0" encoding="UTF-8"?>
<svg version="1.1" xmlns="http://www.w3.org/2000/svg" width="512" height="512">
<path d="M0 0 C6.00242574 5.75545653 8.44983529 13.05755757 10.734375 20.8671875 C11.03804489 21.87214264 11.34171478 22.87709778 11.65458679 23.9125061 C12.61284009 27.09471842 13.55432296 30.28162604 14.49609375 33.46875 C15.14676363 35.63181836 15.79844657 37.79458225 16.45117188 39.95703125 C17.06731389 42.0101445 17.68257991 44.06352089 18.296875 46.1171875 C18.58742264 47.08796234 18.87797028 48.05873718 19.17732239 49.05892944 C19.44147446 49.95391144 19.70562653 50.84889343 19.9777832 51.77099609 C20.21141068 52.55961029 20.44503815 53.34822449 20.68574524 54.16073608 C21.18359375 56.09375 21.18359375 56.09375 21.18359375 58.09375 C21.94542969 58.04734375 22.70726562 58.0009375 23.4921875 57.953125 C32.20028962 57.64872193 38.20441458 58.82198046 44.99609375 64.40625 C50.1452721 70.73238341 51.78081545 75.08364939 51.68530273 83.10253906 C51.69340721 84.41357605 51.69340721 84.41357605 51.70167542 85.75109863 C51.71411601 88.62087547 51.69770838 91.48964029 51.6796875 94.359375 C51.67984254 96.36000623 51.68133236 98.36063776 51.68409729 100.36126709 C51.68547899 104.54404047 51.67295692 108.72646998 51.65014648 112.90917969 C51.621689 118.27509909 51.62452217 123.64045057 51.6372366 129.00641251 C51.64418242 133.13276033 51.63641827 137.25897632 51.62397957 141.38530731 C51.61945957 143.36449427 51.61913304 145.34369535 51.62304497 147.32288361 C51.62594829 150.08306567 51.60949516 152.84245685 51.58764648 155.60253906 C51.59439896 156.83221405 51.59439896 156.83221405 51.60128784 158.08673096 C51.52793581 163.6505963 51.52793581 163.6505963 49.87445164 165.77856064 C47.15728195 167.89203966 43.93994412 167.99878364 40.62109375 168.46875 C33.77358679 169.6089767 28.06547989 171.24667852 22.18359375 175.09375 C21.47847656 175.55136719 20.77335937 176.00898438 20.046875 176.48046875 C13.11705385 181.7207335 8.64523172 190.39082727 6.5078125 198.73046875 C4.83846371 210.89861351 7.93038592 221.22322897 15.18359375 231.09375 C22.52681349 239.31887603 32.13239624 242.51754693 42.73803711 244.01831055 C47.622226 244.75430052 47.622226 244.75430052 49.8714447 246.11436462 C51.99668154 249.32029823 51.62559462 252.81447413 51.61938477 256.53735352 C51.6294606 257.39955002 51.63953644 258.26174652 51.6499176 259.15007019 C51.67846914 262.00773009 51.68427911 264.86486247 51.6875 267.72265625 C51.69714102 269.7122367 51.70723349 271.70181502 51.71775818 273.69139099 C51.735741 277.86861087 51.74127749 282.04564453 51.73950195 286.22290039 C51.7391981 291.55717914 51.78004111 296.89025067 51.83181858 302.22424412 C51.86530975 306.3380218 51.87125547 310.45151251 51.86967278 314.56541252 C51.87319779 316.5304878 51.88638237 318.49557171 51.90966988 320.46051216 C52.12577836 340.59082033 52.12577836 340.59082033 45.18359375 348.09375 C39.25573634 353.03363118 33.38786598 354.33923599 25.78881836 354.38427734 C25.07420944 354.39099457 24.35960052 354.39771179 23.62333679 354.40463257 C21.27746503 354.42352397 18.93188043 354.42753151 16.5859375 354.4296875 C14.94739161 354.43611908 13.30884686 354.44284771 11.67030334 354.44985962 C8.24330989 354.46180835 4.8164171 354.46554267 1.3894043 354.46435547 C-2.99780186 354.46415183 -7.38436348 354.49151012 -11.77141666 354.52589989 C-15.15236876 354.54814856 -18.53316485 354.55219373 -21.91418266 354.55113602 C-23.53169423 354.55349288 -25.14921003 354.56232127 -26.76664925 354.57780075 C-29.02856762 354.59743084 -31.28908372 354.591637 -33.55102539 354.57958984 C-34.83642715 354.58243988 -36.12182892 354.58528992 -37.44618225 354.58822632 C-41.39077955 354.00947845 -43.03036127 352.89255808 -45.81640625 350.09375 C-47.27937102 346.61920866 -46.92915744 345.37294342 -45.50390625 341.84375 C-43.81640625 339.09375 -43.81640625 339.09375 -41.81640625 338.09375 C-39.56061751 337.98809349 -37.30168889 337.94765334 -35.04345703 337.93603516 C-34.34733307 337.93095444 -33.65120911 337.92587372 -32.93399048 337.92063904 C-31.42037341 337.90992948 -29.90674045 337.9013116 -28.39310074 337.89451981 C-25.99740542 337.88274213 -23.60189131 337.86329239 -21.20626831 337.84140015 C-14.39424667 337.77974566 -7.58224317 337.72573026 -0.77001953 337.69238281 C3.39511202 337.67144295 7.55991401 337.63614499 11.72485733 337.59162521 C13.3124313 337.57745875 14.90006359 337.56874131 16.4876976 337.56557083 C18.70943451 337.56066453 20.93029626 337.53751534 23.15185547 337.51025391 C25.04809158 337.49812363 25.04809158 337.49812363 26.9826355 337.48574829 C30.47882325 337.05759537 31.93462895 336.81110335 34.18359375 334.09375 C34.76734228 330.80492872 34.76734228 330.80492872 34.63769531 326.96020508 C34.63827942 326.23800278 34.63886353 325.51580048 34.63946533 324.77171326 C34.63667902 322.38507991 34.60556348 319.99969631 34.57421875 317.61328125 C34.56675825 315.9584776 34.56106442 314.30366512 34.55706787 312.64884949 C34.54179635 308.29370728 34.50250189 303.93909882 34.45825195 299.58416748 C34.41733172 295.14016948 34.39906383 290.69608522 34.37890625 286.25195312 C34.33600871 277.53230716 34.26773954 268.81309498 34.18359375 260.09375 C33.28707596 259.82403381 32.39055817 259.55431763 31.46687317 259.27642822 C30.29291489 258.9199823 29.1189566 258.56353638 27.90942383 258.19628906 C26.74478104 257.84407288 25.58013824 257.49185669 24.38020325 257.12896729 C10.57275204 252.65744452 0.79773338 242.73447878 -5.81640625 230.09375 C-12.19830472 214.44842921 -12.09562681 199.94785786 -6.81640625 184.09375 C-0.25895838 169.34447516 12.09934579 159.51076845 26.89453125 153.8203125 C29.30566758 153.05500302 31.701574 152.57246564 34.18359375 152.09375 C34.27620473 142.4972255 34.34731319 132.90085442 34.39084244 123.30398083 C34.41173258 118.84791995 34.44007585 114.39216442 34.48535156 109.9362793 C34.52875905 105.63743902 34.55272011 101.33889273 34.56310272 97.03985023 C34.57050332 95.39833255 34.58495485 93.75683125 34.60651398 92.11543846 C34.63548147 89.81903476 34.63955273 87.52385142 34.63769531 85.22729492 C34.64657776 83.91935471 34.65546021 82.61141449 34.66461182 81.26383972 C34.49690564 78.09383292 34.49690564 78.09383292 32.56329107 76.41896862 C29.4306239 74.67443211 27.20953664 74.71934231 23.62741852 74.72016239 C22.96722416 74.71621087 22.30702981 74.71225935 21.62682956 74.70818809 C19.40485459 74.69854874 17.18350616 74.71034519 14.96154785 74.72193909 C13.35639647 74.71936542 11.75124676 74.71546532 10.14610147 74.7103495 C5.72757965 74.70005035 1.30925675 74.70839578 -3.10925555 74.71964633 C-7.87141559 74.72848123 -12.63354692 74.72000231 -17.39570618 74.71343994 C-25.64991566 74.70427369 -33.90406958 74.70561952 -42.15827942 74.71362495 C-54.09690635 74.72483993 -66.03545382 74.71583052 -77.97407383 74.70106315 C-97.34843717 74.67727812 -116.72279073 74.66392354 -136.09716797 74.65991211 C-137.25720587 74.65966724 -138.41724377 74.65942237 -139.61243433 74.65917008 C-152.55804967 74.65662356 -165.50366426 74.65605766 -178.44927979 74.65710449 C-183.1447347 74.65743752 -187.84018961 74.65772291 -192.53564453 74.65795898 C-193.6942733 74.65802177 -194.85290208 74.65808456 -196.04664081 74.65814925 C-215.34741992 74.65875349 -234.64815379 74.64389696 -253.94891405 74.61712593 C-265.86141768 74.60129335 -277.7737756 74.59909151 -289.68628085 74.61425995 C-297.84438748 74.62370267 -306.00240606 74.61900437 -314.16050231 74.60304613 C-318.87187733 74.59432339 -323.5830187 74.59227926 -328.2943821 74.60757256 C-332.60359912 74.62144933 -336.91239197 74.61712153 -341.22158557 74.59805154 C-342.78411042 74.59442507 -344.34666843 74.59763295 -345.90916175 74.60820121 C-348.026706 74.62156362 -350.14274851 74.61051442 -352.26023102 74.59317875 C-354.02723476 74.59333975 -354.02723476 74.59333975 -355.82993555 74.59350401 C-359.4599418 73.98606119 -360.64003531 73.01758502 -362.81640625 70.09375 C-363.49928983 65.92057254 -363.37425484 63.93108317 -361.01609802 60.39147949 C-356.1771016 56.91654954 -351.86337416 57.55318018 -346.05883789 57.76757812 C-344.2639304 57.80168179 -344.2639304 57.80168179 -342.43276215 57.83647442 C-339.82204844 57.88713024 -337.21302692 57.94635966 -334.60296822 58.01866722 C-328.23779843 58.19063394 -321.87098381 58.2595047 -315.50412548 58.33986604 C-313.25339219 58.36871521 -311.00269841 58.39983131 -308.75199986 58.43126392 C-245.12765214 60.23900555 -245.12765214 60.23900555 -183.31640625 47.40625 C-182.30559935 47.05297827 -182.30559935 47.05297827 -181.2743721 46.69256973 C-174.33587277 44.24200535 -167.49228588 41.58440799 -160.6796875 38.80175781 C-150.62994798 34.73780933 -140.25769332 31.73135579 -129.86450195 28.68417358 C-126.94053937 27.81802139 -124.02887914 26.91974319 -121.11914062 26.00708008 C-119.81281677 25.60134262 -119.81281677 25.60134262 -118.48010254 25.18740845 C-116.89306926 24.6942624 -115.30754182 24.19622793 -113.72399902 23.69198608 C-108.37273764 22.05638075 -104.03788413 20.93471806 -98.94140625 23.59375 C-96.36629454 26.62329319 -96.2275107 28.24520207 -96.15234375 32.09375 C-97.19774286 35.24224614 -99.0938493 36.23262794 -101.81640625 38.09375 C-104.7435436 39.32235094 -107.7463629 40.21960191 -110.7890625 41.1171875 C-111.66678818 41.38584625 -112.54451385 41.654505 -113.44883728 41.93130493 C-116.25576955 42.78771186 -119.06712135 43.62842979 -121.87890625 44.46875 C-123.71059814 45.0250164 -125.54198154 45.58229963 -127.37304688 46.140625 C-132.84979521 47.80648346 -138.33258677 49.45128329 -143.81640625 51.09375 C-153.71640625 54.06375 -153.71640625 54.06375 -163.81640625 57.09375 C-80.65640625 57.58875 -80.65640625 57.58875 4.18359375 58.09375 C0.22359375 45.71875 0.22359375 45.71875 -3.81640625 33.09375 C-6.75390625 23.21875 -6.75390625 23.21875 -7.90625 19.2265625 C-8.50360129 17.17044347 -9.13932029 15.12500789 -9.81640625 13.09375 C-17.27381084 12.69391109 -23.19731416 14.06941498 -30.2734375 16.33984375 C-31.33882248 16.67041275 -32.40420746 17.00098175 -33.50187683 17.34156799 C-36.88140027 18.39291916 -40.25513523 19.46160001 -43.62890625 20.53125 C-47.02170571 21.59325802 -50.41558472 22.65176546 -53.80949402 23.71022034 C-55.91499824 24.36836472 -58.01961935 25.02934258 -60.12324524 25.69346619 C-61.07491074 25.99370193 -62.02657623 26.29393768 -63.00708008 26.60327148 C-63.84153152 26.86752426 -64.67598297 27.13177704 -65.53572083 27.40403748 C-70.30011933 28.84486105 -74.83125194 29.98067929 -79.81640625 29.09375 C-82.37890625 27.03125 -82.37890625 27.03125 -83.81640625 24.09375 C-83.75748061 20.67606312 -83.71321615 18.22639024 -81.54541016 15.48852539 C-79.48962973 13.83014166 -77.73612422 13.18730801 -75.21484375 12.40234375 C-74.26585205 12.10199219 -73.31686035 11.80164062 -72.33911133 11.4921875 C-70.78099731 11.01652344 -70.78099731 11.01652344 -69.19140625 10.53125 C-68.10561279 10.19480469 -67.01981934 9.85835937 -65.90112305 9.51171875 C-63.50956699 8.77230045 -61.11684255 8.03665371 -58.72314453 7.30419922 C-55.29963719 6.25070366 -51.89090893 5.15488642 -48.48382568 4.04957581 C-45.58372241 3.11206596 -42.67816687 2.19225226 -39.77154541 1.275177 C-38.36279258 0.82714906 -36.95608302 0.37263545 -35.55169678 -0.08889771 C-23.55713979 -4.01848381 -11.38017452 -7.10028219 0 0 Z " fill="#000000" transform="translate(460.81640625,49.90625)"/>
<path d="M0 0 C1.18803223 -0.00637985 2.37606445 -0.0127597 3.60009766 -0.01933289 C5.51894775 -0.02100212 5.51894775 -0.02100212 7.4765625 -0.02270508 C8.79317871 -0.02603348 10.10979492 -0.02936188 11.46630859 -0.03279114 C14.25033386 -0.03877091 17.03432814 -0.04063215 19.81835938 -0.04003906 C23.38272151 -0.03993733 26.94688495 -0.05360616 30.51119995 -0.07081127 C33.91632391 -0.0846104 37.32141093 -0.08401998 40.7265625 -0.08520508 C42.6454126 -0.09598335 42.6454126 -0.09598335 44.60302734 -0.10697937 C46.38507568 -0.10236443 46.38507568 -0.10236443 48.203125 -0.09765625 C49.24807129 -0.09908127 50.29301758 -0.10050629 51.36962891 -0.10197449 C54.14852564 0.1495138 55.76401952 0.65779877 58.1015625 2.14526367 C60.1831527 4.82159393 60.09743841 6.26280035 59.9765625 9.70776367 C59.1015625 13.14526367 59.1015625 13.14526367 57.40405273 14.83605957 C54.54034746 16.46437253 52.67288673 16.52334103 49.38671875 16.5300293 C48.23872803 16.54014038 47.0907373 16.55025146 45.90795898 16.56066895 C44.67247314 16.55764771 43.4369873 16.55462646 42.1640625 16.55151367 C40.89183838 16.56234985 39.61961426 16.57318604 38.30883789 16.58435059 C33.54909539 16.62448948 28.7895399 16.63837467 24.02966309 16.65057373 C19.36592379 16.66393964 14.70266726 16.69929137 10.0390625 16.73901367 C8.80357666 16.73599243 7.56809082 16.73297119 6.29516602 16.7298584 C4.57317993 16.74502502 4.57317993 16.74502502 2.81640625 16.76049805 C1.80698975 16.76255249 0.79757324 16.76460693 -0.24243164 16.76672363 C-3.38034961 17.21394689 -4.60158024 17.9920853 -6.8984375 20.14526367 C-7.49424078 22.19025591 -7.49424078 22.19025591 -7.40180206 24.5040741 C-7.41223305 25.39994641 -7.42266404 26.29581873 -7.43341112 27.21883869 C-7.42002679 28.69678551 -7.42002679 28.69678551 -7.40637207 30.20458984 C-7.41261203 31.25042583 -7.418852 32.29626181 -7.42528105 33.37378979 C-7.4412986 36.89549667 -7.42857217 40.4165198 -7.41601562 43.93823242 C-7.42143283 46.45594692 -7.42855321 48.97365824 -7.43725586 51.49136353 C-7.45363891 57.63023257 -7.45118992 63.76884634 -7.4396053 69.9077189 C-7.4305812 74.89572014 -7.42934252 79.88366653 -7.43370056 84.87167358 C-7.43431349 85.58089342 -7.43492643 86.29011326 -7.43555793 87.02082461 C-7.4368368 88.46147483 -7.43813365 89.90212504 -7.4394483 91.34277523 C-7.45086155 104.85997675 -7.43772876 118.37706987 -7.41624683 131.89425361 C-7.39837514 143.49913679 -7.40147904 155.10385994 -7.41992188 166.70874023 C-7.44131549 180.1767112 -7.44976284 193.64458709 -7.43747282 207.11257267 C-7.43619859 208.54799969 -7.43494111 209.98342672 -7.43370056 211.41885376 C-7.43277491 212.47831145 -7.43277491 212.47831145 -7.43183056 213.55917233 C-7.42837311 218.54267573 -7.43421446 223.52611896 -7.44361877 228.50961304 C-7.45599193 235.21388038 -7.44721553 241.91779797 -7.42404175 248.62205124 C-7.41873592 251.0880012 -7.42030018 253.55397654 -7.42909241 256.01991653 C-7.43995722 259.37560581 -7.42639336 262.73031159 -7.40637207 266.0859375 C-7.4197564 267.56388432 -7.4197564 267.56388432 -7.43341112 269.07168865 C-7.42298013 269.96756097 -7.41254914 270.86343328 -7.40180206 271.78645325 C-7.40115265 272.5613551 -7.40050324 273.33625696 -7.39983416 274.13464069 C-7.037746 276.28021664 -7.037746 276.28021664 -5.26307297 277.8943401 C-2.19961905 279.51494791 -0.02509349 279.51967407 3.43909454 279.51885128 C5.40675065 279.5293359 5.40675065 279.5293359 7.41415739 279.54003233 C8.87347768 279.53263854 10.33279663 279.52497629 11.79211426 279.51707458 C13.33951853 279.51964835 14.88692107 279.52354855 16.43431902 279.52866417 C20.69322144 279.53896178 24.95191742 279.53061894 29.21080995 279.51936734 C33.80118959 279.51053143 38.39153949 279.51901167 42.98191833 279.52557373 C50.93819557 279.53473947 58.89441515 279.53339454 66.85069275 279.52538872 C78.35855349 279.51417305 89.86633182 279.52318377 101.37418538 279.53795052 C120.04974847 279.56173491 138.72530141 279.57509003 157.40087891 279.57910156 C158.5190482 279.57934643 159.63721749 279.5795913 160.7892707 279.57984359 C173.2676154 279.58239011 185.74595931 279.58295602 198.2243042 279.58190918 C202.75028483 279.58157615 207.27626546 279.58129076 211.80224609 279.58105469 C213.47746235 279.58096051 213.47746235 279.58096051 215.18652135 279.58086442 C233.79121362 279.58026016 252.39585896 279.59511737 271.00053167 279.62188774 C282.48310459 279.63771956 293.96552633 279.63992297 305.44810092 279.62475372 C313.31186182 279.61531044 321.17553136 279.62001019 329.03928149 279.63596755 C333.58053718 279.64468959 338.12155048 279.64673611 342.66279411 279.63144112 C346.81658118 279.61756225 350.96992824 279.62189473 355.12369102 279.64096213 C356.62968863 279.64458799 358.13572067 279.64138252 359.64168555 279.63081246 C361.68242957 279.61744924 363.7232973 279.63090402 365.76403046 279.64583492 C366.89950428 279.64572759 368.03497809 279.64562025 369.20486021 279.64550966 C372.74432979 280.2561572 373.91568372 281.35337153 376.1015625 284.14526367 C376.66796875 286.14526367 376.66796875 286.14526367 376.6640625 288.14526367 C376.69693359 289.13526367 376.69693359 289.13526367 376.73046875 290.14526367 C375.69703188 293.4317213 374.02431533 294.36578424 371.1015625 296.14526367 C367.73731585 296.61702581 364.44216941 296.41054331 361.05761719 296.23095703 C358.94379284 296.15714218 356.82995112 296.0838236 354.71609497 296.01092529 C353.58934483 295.96485893 352.46259468 295.91879257 351.30170059 295.87133026 C299.30993644 293.86397833 249.67407312 293.85878367 199.7265625 310.33276367 C198.74166714 310.6573204 197.75677177 310.98187714 196.7420311 311.31626892 C187.05652747 314.52814937 177.42285023 317.87716469 167.81828594 321.32291031 C156.2640473 325.46282385 144.62603514 329.16611448 132.84765625 332.61401367 C132.00029907 332.86214624 131.15294189 333.11027882 130.27990723 333.36593056 C126.14302861 334.57451501 122.00387191 335.77502404 117.86322021 336.97061157 C111.30693371 338.8661227 104.76829388 340.82038952 98.22845459 342.77170753 C96.22433244 343.36825705 94.21920597 343.96128385 92.21362305 344.55290222 C85.86658357 346.42575128 79.52585079 348.3152544 73.19913197 350.2558279 C70.10291046 351.20366818 67.00350314 352.14081649 63.9036541 353.07671547 C62.4314399 353.52414135 60.96068608 353.97640697 59.49159431 354.43398094 C39.59806455 360.62563971 39.59806455 360.62563971 30.8515625 356.20776367 C30.08328125 355.84811523 29.315 355.4884668 28.5234375 355.11791992 C21.67783936 349.54206983 18.82943759 341.50528098 16.453125 333.27416992 C16.15087006 332.27062973 15.84861511 331.26708954 15.53720093 330.23313904 C14.58616797 327.06203553 13.65643998 323.88512654 12.7265625 320.70776367 C12.08074882 318.54916467 11.43362529 316.39095709 10.78515625 314.2331543 C9.61302282 310.3083715 8.44177512 306.38339977 7.29150391 302.45214844 C7.06089264 301.66655045 6.83028137 300.88095245 6.59268188 300.07154846 C6.1015625 298.14526367 6.1015625 298.14526367 6.1015625 296.14526367 C5.33972656 296.19166992 4.57789062 296.23807617 3.79296875 296.28588867 C-4.91513337 296.59029174 -10.91925833 295.41703321 -17.7109375 289.83276367 C-23.37930031 282.86877507 -24.48661269 278.1835327 -24.41983032 269.34831238 C-24.42748142 268.27132924 -24.43513251 267.1943461 -24.44301546 266.08472711 C-24.46362873 262.48125274 -24.45570044 258.87841852 -24.44775391 255.27490234 C-24.45644954 252.68913687 -24.4668163 250.10337655 -24.47872925 247.5176239 C-24.50419921 241.22593031 -24.50781361 234.93440753 -24.50312872 228.64267107 C-24.49955896 223.52658087 -24.50306894 218.41054241 -24.51157761 213.29445839 C-24.51276798 212.56559868 -24.51395836 211.83673897 -24.51518481 211.0857926 C-24.51760839 209.60497265 -24.52003666 208.1241527 -24.52246957 206.64333276 C-24.54421189 192.76252046 -24.53990002 178.88180539 -24.52769987 165.00098763 C-24.5173652 152.31427418 -24.5398639 139.62786803 -24.57789631 126.94121536 C-24.61668229 113.90283331 -24.63315985 100.86459653 -24.62564981 87.82615644 C-24.62182972 80.51077844 -24.62676163 73.19566187 -24.65507889 65.88033104 C-24.68144561 58.9994348 -24.67634737 52.11916253 -24.65025711 45.2382679 C-24.64552636 42.71558296 -24.6509923 40.19285476 -24.66750336 37.67021942 C-24.6884509 34.22049052 -24.67223157 30.77282159 -24.6468811 27.32316589 C-24.66900396 25.83320525 -24.66900396 25.83320525 -24.69157374 24.31314439 C-24.57953714 17.04351785 -22.48018625 11.82450236 -17.8984375 6.14526367 C-12.19897786 1.50543228 -7.3047784 0.02664667 0 0 Z M23.1015625 296.14526367 C25.24253561 304.70915612 27.45696291 313.18983074 29.95336914 321.64819336 C30.3475608 322.99228996 30.73613548 324.33804526 31.11938477 325.68530273 C31.6829891 327.66541834 32.26336096 329.63991851 32.84765625 331.61401367 C33.18466553 332.77352539 33.5216748 333.93303711 33.86889648 335.12768555 C35.22324707 338.44314866 36.15495492 340.10296736 39.1015625 342.14526367 C44.71517807 342.8481919 49.41795653 341.40720529 54.69140625 339.70776367 C55.55168427 339.44003647 56.41196228 339.17230927 57.29830933 338.89646912 C59.20095448 338.30352756 61.10224501 337.70622641 63.00234985 337.10519409 C68.39585575 335.40026149 73.80018564 333.73016687 79.203125 332.05541992 C80.40920914 331.6807106 81.61529327 331.30600128 82.85792542 330.91993713 C99.94889705 325.61794421 117.10004613 320.51335071 134.242939 315.38238525 C138.62110897 314.07174604 142.99888852 312.7598041 147.37670898 311.44799805 C153.83114905 309.51412002 160.28582758 307.58104034 166.74072266 305.64868164 C176.19553701 302.81821108 185.64895649 299.98310022 195.1015625 297.14526367 C195.1015625 296.81526367 195.1015625 296.48526367 195.1015625 296.14526367 C138.3415625 296.14526367 81.5815625 296.14526367 23.1015625 296.14526367 Z " fill="#000000" transform="translate(23.8984375,107.854736328125)"/>
<path d="M0 0 C3.75656026 2.81575209 7.19330812 5.51455931 9.453125 9.67578125 C13.75005707 13.59706128 18.8417482 12.80078391 24.4375 12.75 C26.13616211 12.80414063 26.13616211 12.80414063 27.86914062 12.859375 C33.73836308 13.03815269 33.73836308 13.03815269 38.76489258 10.50292969 C40.00089486 8.72248382 40.99691232 6.91829399 42 5 C47.92805709 -0.72690546 54.69436963 -4.04254321 62.9375 -4.4375 C70.91079273 -4.16804925 77.41005839 -0.58994161 83 5 C90.05542615 14.16602371 92.18588997 24.48909766 92.0625 35.8125 C92.05798828 36.60076172 92.05347656 37.38902344 92.04882812 38.20117188 C92.03711312 40.13414761 92.01917998 42.06708393 92 44 C93.23234375 43.95875 94.4646875 43.9175 95.734375 43.875 C99.10156546 43.88093338 101.35347387 44.15011776 104.25 46 C104.87390625 46.37125 105.4978125 46.7425 106.140625 47.125 C112.21427719 53.24969129 112.53390124 59.71983099 112.59570312 67.9765625 C112.58933838 68.63817383 112.58297363 69.29978516 112.57641602 69.98144531 C112.56251988 71.99711585 112.59672754 74.00815524 112.63476562 76.0234375 C112.62354432 83.51926878 112.31794842 89.36762518 107 95 C103.9747632 97.3596847 101.62370313 98.79209896 98 100 C97.99635437 100.82970306 97.99270874 101.65940613 97.98895264 102.51425171 C97.95093665 110.36979265 97.89393089 118.22492415 97.81609726 126.0801754 C97.77674722 130.1177561 97.74449819 134.15512278 97.72900391 138.19287109 C97.71375429 142.09648194 97.67916429 145.99950391 97.63169098 149.9028511 C97.61696208 151.38497394 97.60896391 152.8671809 97.60811615 154.34937668 C97.58691836 172.8434627 97.58691836 172.8434627 91.309021 179.90097046 C84.44355481 186.40658564 77.44299509 187.44586025 68.34228516 187.40405273 C67.29258041 187.41091599 66.24287567 187.41777924 65.16136169 187.42485046 C61.70378962 187.44309764 58.24667224 187.43928345 54.7890625 187.43359375 C52.37681939 187.43815682 49.96457758 187.44346276 47.55233765 187.44947815 C42.50033279 187.45840541 37.44848603 187.4559907 32.39648438 187.44604492 C25.9347843 187.43456116 19.47363118 187.45476031 13.01200294 187.48396206 C8.03102167 187.50234348 3.05017097 187.50202757 -1.93083572 187.49632454 C-4.31257519 187.49617154 -6.69432363 187.50219843 -9.07603073 187.51461601 C-12.41219737 187.52955872 -15.74736002 187.51882343 -19.08349609 187.50170898 C-20.54730965 187.51621094 -20.54730965 187.51621094 -22.04069519 187.53100586 C-29.42838181 187.45198516 -35.56188798 185.83543796 -41.33984375 181.0703125 C-41.86707031 180.42835938 -42.39429687 179.78640625 -42.9375 179.125 C-43.48277344 178.48820313 -44.02804688 177.85140625 -44.58984375 177.1953125 C-47.69532221 172.36074493 -48.25672456 167.63806541 -48.31884766 161.98486328 C-48.33391609 160.97405449 -48.33391609 160.97405449 -48.34928894 159.94282532 C-48.37995844 157.73532902 -48.39711023 155.52795307 -48.4140625 153.3203125 C-48.43278727 151.78188045 -48.45236165 150.24345853 -48.4727478 148.70504761 C-48.5239369 144.67083728 -48.56363304 140.63659371 -48.60089111 136.60223389 C-48.641014 132.4795315 -48.69206842 128.35696584 -48.7421875 124.234375 C-48.83879008 116.15634363 -48.92324459 108.07824422 -49 100 C-49.81513062 99.62016968 -49.81513062 99.62016968 -50.64672852 99.23266602 C-51.72071899 98.71724243 -51.72071899 98.71724243 -52.81640625 98.19140625 C-53.52482666 97.85568604 -54.23324707 97.51996582 -54.96313477 97.17407227 C-59.04414737 94.82173023 -61.51019517 91.46941449 -63 87 C-63.27365553 82.65926899 -63.313371 78.31664423 -63.35009766 73.96850586 C-63.36659775 72.53995403 -63.39380954 71.11148273 -63.43212891 69.68334961 C-63.81280242 55.39816212 -63.81280242 55.39816212 -59.40405273 49.43823242 C-56.40743206 46.36866323 -53.33611082 44.16217361 -48.88989258 43.85351562 C-48.19017334 43.87091797 -47.4904541 43.88832031 -46.76953125 43.90625 C-45.52558594 43.9371875 -44.28164062 43.968125 -43 44 C-43.04640625 42.85144531 -43.0928125 41.70289063 -43.140625 40.51953125 C-43.52075354 27.08880633 -42.2662988 14.54147753 -33 4 C-23.33688279 -4.96737277 -11.46160518 -7.06282697 0 0 Z M-22 16 C-26.23859932 22.79026446 -27.16048339 28.8741114 -27.0625 36.8125 C-27.041875 39.184375 -27.02125 41.55625 -27 44 C-18.09 44 -9.18 44 0 44 C1.53579822 30.24414786 1.53579822 30.24414786 -3.1875 17.875 C-5.06313665 16.23509939 -5.06313665 16.23509939 -7 15 C-7.86625 14.34 -8.7325 13.68 -9.625 13 C-15.04181847 10.71923433 -17.95509032 11.85137468 -22 16 Z M56 15 C55.38125 15.40992188 54.7625 15.81984375 54.125 16.2421875 C50.95298974 18.91537356 49.22769931 21.2150385 48.69042969 25.42675781 C48.38463916 31.66356465 48.7258896 37.73461934 49 44 C57.91 44 66.82 44 76 44 C76.32613418 32.91143786 76.33092243 22.88596659 69 14 C64.26878389 10.74728892 60.39369437 11.73027396 56 15 Z M16 29 C16 33.95 16 38.9 16 44 C21.61 44 27.22 44 33 44 C33 39.05 33 34.1 33 29 C27.39 29 21.78 29 16 29 Z M-47 60 C-47 67.59 -47 75.18 -47 83 C-45.9435147 84.28046633 -45.9435147 84.28046633 -43.52598572 84.12025452 C-42.42678299 84.11803391 -41.32758026 84.11581329 -40.19506836 84.11352539 C-38.33325172 84.11341209 -38.33325172 84.11341209 -36.43382263 84.11329651 C-35.0691626 84.10818911 -33.70450298 84.1029731 -32.33984375 84.09765625 C-30.95121817 84.095792 -29.56259193 84.09436813 -28.17396545 84.09336853 C-24.51278885 84.08954387 -20.8516517 84.07971403 -17.19049072 84.06866455 C-13.45707737 84.05844932 -9.72365766 84.05387067 -5.99023438 84.04882812 C1.33986385 84.0380917 8.66992138 84.02049534 16 84 C16 76.08 16 68.16 16 60 C-4.79 60 -25.58 60 -47 60 Z M32 60 C32 67.92 32 75.84 32 84 C40.1969097 84.02255425 48.39379545 84.04091696 56.59072781 84.05181217 C60.39651577 84.0570402 64.20228148 84.06413638 68.00805664 84.07543945 C71.67792544 84.0862712 75.34777278 84.09227744 79.01765633 84.09487724 C80.42074992 84.09673097 81.82384229 84.1003506 83.2269268 84.10573006 C85.1856968 84.11294419 87.1444882 84.11340809 89.10327148 84.11352539 C90.22023911 84.115746 91.33720673 84.11796661 92.48802185 84.12025452 C94.93905414 84.28510776 94.93905414 84.28510776 96 83 C96.0991657 81.37742456 96.13079777 79.75060169 96.1328125 78.125 C96.13410156 77.14015625 96.13539063 76.1553125 96.13671875 75.140625 C96.13285156 74.10421875 96.12898438 73.0678125 96.125 72 C96.12886719 70.96359375 96.13273437 69.9271875 96.13671875 68.859375 C96.13542969 67.87453125 96.13414062 66.8896875 96.1328125 65.875 C96.13112061 64.50988281 96.13112061 64.50988281 96.12939453 63.1171875 C96.23560009 61.0147152 96.23560009 61.0147152 95 60 C93.03630847 59.9059933 91.06920801 59.88256619 89.10327148 59.88647461 C87.21142372 59.88658791 87.21142372 59.88658791 85.28135681 59.88670349 C83.89460206 59.8918109 82.50784771 59.89702691 81.12109375 59.90234375 C79.71004791 59.90420799 78.29900143 59.90563186 76.88795471 59.90663147 C73.16759465 59.91045621 69.4472734 59.9202861 65.72692871 59.93133545 C61.93319219 59.94155052 58.13944942 59.94612929 54.34570312 59.95117188 C46.89711564 59.96190842 39.4485682 59.97950485 32 60 Z M-32 100 C-32.14547737 111.60833777 -32.14547737 111.60833777 -32.24414062 123.21679688 C-32.27400853 127.95300367 -32.30930658 132.68872628 -32.37719727 137.42456055 C-32.43160179 141.24362802 -32.46143786 145.0621762 -32.47438622 148.88160133 C-32.48361119 150.33729031 -32.50162618 151.79295146 -32.52865028 153.24841881 C-32.56505743 155.29082579 -32.56994116 157.33109903 -32.56762695 159.3737793 C-32.57873001 160.53515915 -32.58983307 161.696539 -32.60127258 162.89311218 C-31.80702011 166.99716318 -30.27226634 168.47275923 -27 171 C-24.78460989 171.70579253 -24.78460989 171.70579253 -22.48510742 171.56762695 C-21.61269409 171.56702271 -20.74028076 171.56641846 -19.84143066 171.5657959 C-18.93856323 171.54021606 -18.0356958 171.51463623 -17.10546875 171.48828125 C-15.84506775 171.48072815 -15.84506775 171.48072815 -14.5592041 171.47302246 C-11.43495324 171.44695768 -8.31119063 171.37715018 -5.1875 171.3125 C5.3003125 171.1578125 5.3003125 171.1578125 16 171 C16 147.57 16 124.14 16 100 C0.16 100 -15.68 100 -32 100 Z M32 100 C32 123.43 32 146.86 32 171 C42.7353125 171.1546875 42.7353125 171.1546875 53.6875 171.3125 C55.93908936 171.35802002 58.19067871 171.40354004 60.51049805 171.45043945 C62.30255647 171.46504755 64.09463151 171.47778746 65.88671875 171.48828125 C66.81117798 171.51386108 67.73563721 171.53944092 68.68811035 171.5657959 C69.58082642 171.56640015 70.47354248 171.56700439 71.39331055 171.56762695 C72.16386276 171.57873001 72.93441498 171.58983307 73.72831726 171.60127258 C77.27226545 170.66325477 78.77406111 168.8509717 81 166 C81.7177673 162.84461379 81.7177673 162.84461379 81.56762695 159.3737793 C81.56872215 158.40708061 81.56872215 158.40708061 81.56983948 157.42085266 C81.56637391 155.30443211 81.52757027 153.19025152 81.48828125 151.07421875 C81.47894924 149.60164085 81.47183496 148.12904737 81.46684265 146.65644836 C81.44780274 142.79105346 81.39872989 138.92660633 81.34332275 135.06158447 C81.28304329 130.41863338 81.2601995 125.77536436 81.23105621 121.13213348 C81.18266081 114.08743096 81.08682998 107.04480562 81 100 C64.83 100 48.66 100 32 100 Z " fill="#000000" transform="translate(146,160)"/>
<path d="M0 0 C2.53125715 1.33224061 3.70168778 2.08335443 4.59320545 4.82278538 C5.02380059 7.12738372 5.12876274 9.24126914 5.13371277 11.58543396 C5.13797775 12.50084961 5.14224274 13.41626526 5.14663696 14.35942078 C5.14618378 15.35641495 5.14573059 16.35340912 5.14526367 17.38061523 C5.14862228 18.43630707 5.1519809 19.4919989 5.15544128 20.5796814 C5.16494751 24.07266412 5.16689416 27.5655989 5.16796875 31.05859375 C5.17118127 33.48470581 5.17454534 35.91081767 5.17805481 38.33692932 C5.18404505 43.42359873 5.18589479 48.51025114 5.18530273 53.59692383 C5.18520105 60.11835609 5.19885999 66.63967961 5.21607494 73.16108608 C5.22718642 78.17190553 5.22922221 83.18269862 5.22869301 88.19352913 C5.22987415 90.59810829 5.23430343 93.00268812 5.24202538 95.40725517 C5.25180902 98.76824468 5.24895365 102.12899701 5.24291992 105.48999023 C5.24853943 106.48496017 5.25415894 107.47993011 5.25994873 108.50505066 C5.21989608 117.27316695 5.21989608 117.27316695 3 121 C-0.7205836 123.48038907 -2.59796571 123.46337203 -7 123 C-9.19030762 121.6607666 -9.19030762 121.6607666 -11 119 C-11.60884787 115.35606438 -11.54588429 111.7397713 -11.51757812 108.05273438 C-11.5245874 106.93691483 -11.53159668 105.82109528 -11.53881836 104.67146301 C-11.55644089 100.97863976 -11.54475973 97.28658121 -11.53125 93.59375 C-11.53394367 91.03071953 -11.53782504 88.46769005 -11.54284668 85.90466309 C-11.54874754 80.53122292 -11.54054048 75.1580708 -11.52148438 69.78466797 C-11.49971564 63.57470173 -11.50676717 57.3652608 -11.52879 51.15530729 C-11.54913708 45.17835964 -11.54697353 39.20166875 -11.53526306 33.22468567 C-11.53259132 30.6825198 -11.53588116 28.14034057 -11.54518127 25.59819031 C-11.55531967 22.04751882 -11.53988201 18.49786142 -11.51757812 14.94726562 C-11.52567505 13.89259598 -11.53377197 12.83792633 -11.54211426 11.751297 C-11.45958419 4.67327522 -11.45958419 4.67327522 -9.18640137 1.34313965 C-5.97645549 -0.62877898 -3.68929817 -0.46116227 0 0 Z " fill="#000000" transform="translate(378,196)"/>
<path d="M0 0 C3.1850357 1.76015131 3.83296972 2.49890916 5 6 C5.10370604 7.95159801 5.1485668 9.90652876 5.16113281 11.86083984 C5.17074036 13.06574066 5.1803479 14.27064148 5.19024658 15.51205444 C5.19449646 16.81518585 5.19874634 18.11831726 5.203125 19.4609375 C5.20887931 20.81230674 5.21463701 22.16367596 5.22039795 23.51504517 C5.23089764 26.3479246 5.23674708 29.18077573 5.24023438 32.01367188 C5.24571773 35.63746002 5.26974622 39.26087218 5.29820633 42.88454247 C5.31686189 45.67614829 5.32203984 48.46766405 5.32357025 51.25932693 C5.32805605 53.24294638 5.34668755 55.22651756 5.36553955 57.21005249 C5.36253845 58.42125763 5.35953735 59.63246277 5.35644531 60.88037109 C5.36009094 61.94387787 5.36373657 63.00738464 5.36749268 64.1031189 C4.94523907 67.43167095 3.97630206 69.31183332 2 72 C-1.09173752 73.54586876 -3.59429552 73.29359521 -7 73 C-9.89836751 70.85722359 -10.88513609 69.66072283 -11.50793457 66.07824707 C-11.51111694 64.94447632 -11.51429932 63.81070557 -11.51757812 62.64257812 C-11.53018677 61.35444214 -11.54279541 60.06630615 -11.55578613 58.73913574 C-11.54862631 57.33650159 -11.54042233 55.93387244 -11.53125 54.53125 C-11.53394555 53.08923074 -11.53782851 51.64721325 -11.54284668 50.2052002 C-11.54873889 47.18561467 -11.54018848 44.16650302 -11.52148438 41.14697266 C-11.49869405 37.27963798 -11.51181875 33.41341364 -11.53577423 29.54611969 C-11.55024026 26.56919005 -11.54562274 23.59252294 -11.53526306 20.61558533 C-11.53259795 19.1898536 -11.53585801 17.7640979 -11.54518127 16.33839417 C-11.55535798 14.34474148 -11.53709189 12.35100504 -11.51757812 10.35742188 C-11.51439575 9.22365112 -11.51121338 8.08988037 -11.50793457 6.92175293 C-10.35292423 0.27787587 -6.14446835 -0.76805854 0 0 Z " fill="#000000" transform="translate(414,221)"/>
<path d="M0 0 C0.66 -0.01289063 1.32 -0.02578125 2 -0.0390625 C5.32760123 1.06580509 6.26366159 2.59305678 8 5.625 C8.60358451 9.13683224 8.60407775 12.56887971 8.5625 16.125 C8.58634766 17.06214844 8.61019531 17.99929687 8.63476562 18.96484375 C8.62480256 23.64748295 8.53663369 25.91246475 5.65234375 29.7421875 C3 31.625 3 31.625 0 32.25 C-4.18367765 31.37840049 -5.42718065 30.04115614 -8 26.625 C-8.71192485 23.10870382 -8.65348957 19.70064425 -8.5625 16.125 C-8.57345703 15.18785156 -8.58441406 14.25070313 -8.59570312 13.28515625 C-8.54990227 8.97987575 -8.38347031 6.29460461 -6.21484375 2.5078125 C-3.89349898 0.53446474 -2.99832571 -0.05856105 0 0 Z " fill="#000000" transform="translate(320,217.375)"/>
<path d="M0 0 C4.18313596 0.87148666 5.42474586 2.21129103 8 5.625 C8.73638395 9.14037448 8.69886302 12.54510565 8.625 16.125 C8.65400391 17.53072266 8.65400391 17.53072266 8.68359375 18.96484375 C8.65042201 23.6420594 8.53071898 25.92148879 5.6484375 29.7421875 C3 31.625 3 31.625 0 32.25 C-4.18313596 31.37851334 -5.42474586 30.03870897 -8 26.625 C-8.73638395 23.10962552 -8.69886302 19.70489435 -8.625 16.125 C-8.64433594 15.18785156 -8.66367187 14.25070312 -8.68359375 13.28515625 C-8.65042201 8.6079406 -8.53071898 6.32851121 -5.6484375 2.5078125 C-3 0.625 -3 0.625 0 0 Z " fill="#000000" transform="translate(320,352.375)"/>
<path d="M0 0 C4.18313596 0.87148666 5.42474586 2.21129103 8 5.625 C8.73638395 9.14037448 8.69886302 12.54510565 8.625 16.125 C8.65400391 17.53072266 8.65400391 17.53072266 8.68359375 18.96484375 C8.65042201 23.6420594 8.53071898 25.92148879 5.6484375 29.7421875 C3 31.625 3 31.625 0 32.25 C-4.18313596 31.37851334 -5.42474586 30.03870897 -8 26.625 C-8.73638395 23.10962552 -8.69886302 19.70489435 -8.625 16.125 C-8.64433594 15.18785156 -8.66367187 14.25070312 -8.68359375 13.28515625 C-8.65042201 8.6079406 -8.53071898 6.32851121 -5.6484375 2.5078125 C-3 0.625 -3 0.625 0 0 Z " fill="#000000" transform="translate(320,307.375)"/>
<path d="M0 0 C4.18313596 0.87148666 5.42474586 2.21129103 8 5.625 C8.73638395 9.14037448 8.69886302 12.54510565 8.625 16.125 C8.65400391 17.53072266 8.65400391 17.53072266 8.68359375 18.96484375 C8.65042201 23.6420594 8.53071898 25.92148879 5.6484375 29.7421875 C3 31.625 3 31.625 0 32.25 C-4.18313596 31.37851334 -5.42474586 30.03870897 -8 26.625 C-8.73638395 23.10962552 -8.69886302 19.70489435 -8.625 16.125 C-8.64433594 15.18785156 -8.66367187 14.25070312 -8.68359375 13.28515625 C-8.65042201 8.6079406 -8.53071898 6.32851121 -5.6484375 2.5078125 C-3 0.625 -3 0.625 0 0 Z " fill="#000000" transform="translate(320,262.375)"/>
<path d="M0 0 C0.66 -0.01289063 1.32 -0.02578125 2 -0.0390625 C5.33349963 1.06776355 6.26753077 2.58270788 8 5.625 C8.55395256 9.15896383 8.51324238 12.61783492 8.4375 16.1875 C8.44458984 17.13302734 8.45167969 18.07855469 8.45898438 19.05273438 C8.38513775 27.09065507 8.38513775 27.09065507 5 30.625 C1.02655839 31.72873378 -1.08999772 32.04043583 -4.875 30.3125 C-7 28.625 -7 28.625 -8 26.625 C-8.29259649 23.1941548 -8.27791989 19.75437345 -8.3125 16.3125 C-8.34150391 15.36181641 -8.37050781 14.41113281 -8.40039062 13.43164062 C-8.44008874 9.06179408 -8.4142421 6.35746782 -6.23046875 2.49609375 C-3.9001603 0.54124656 -2.9936179 -0.0584691 0 0 Z " fill="#000000" transform="translate(320,172.375)"/>
<path d="M0 0 C0.66 -0.01289062 1.32 -0.02578125 2 -0.0390625 C5.33185394 1.06721713 6.26550577 2.58583139 8 5.625 C8.57845096 9.15832156 8.55869553 12.61440937 8.5 16.1875 C8.51546875 17.13302734 8.5309375 18.07855469 8.546875 19.05273438 C8.50809622 25.91173174 8.50809622 25.91173174 6.15234375 29.21875 C3.3260231 31.06534789 1.37816228 31.55605791 -2 31.625 C-6.56521739 29.49456522 -6.56521739 29.49456522 -8 26.625 C-8.29259649 23.1941548 -8.27791989 19.75437345 -8.3125 16.3125 C-8.34150391 15.36181641 -8.37050781 14.41113281 -8.40039062 13.43164062 C-8.44008874 9.06179408 -8.4142421 6.35746782 -6.23046875 2.49609375 C-3.9001603 0.54124656 -2.9936179 -0.0584691 0 0 Z " fill="#000000" transform="translate(320,127.375)"/>
</svg>
